<?xml version="1.0" encoding="UTF-8"?><svg id="Layer_1" xmlns="http://www.w3.org/2000/svg" viewBox="0 0 311.22 255.24"><defs><style>.cls-1,.cls-2{fill:#dd052b;}.cls-3,.cls-4{fill:#1f2c56;}.cls-4,.cls-2{fill-rule:evenodd;}</style></defs><path class="cls-4" d="m271.28,172.54h.64l1.07,1.76h.76l-1.15-1.81c.62-.07,1.07-.38,1.07-1.12,0-.84-.51-1.18-1.5-1.18h-1.56v4.12h.68v-1.76Zm0-.58v-1.21h.82c.41,0,.9.06.9.56,0,.6-.45.65-.95.65h-.76Zm4.38.21c0-2.24-1.69-3.72-3.64-3.72-1.97,0-3.66,1.48-3.66,3.72,0,2.12,1.52,3.72,3.66,3.72,1.95,0,3.64-1.48,3.64-3.72Zm-.8,0c0,1.82-1.25,3.07-2.85,3.07-1.77,0-2.87-1.38-2.87-3.07,0-1.81,1.25-3.08,2.87-3.08s2.85,1.26,2.85,3.08Z"/><path class="cls-3" d="m78.87,119.43h58s1.12.06,1.69.42c.48.29.99,1.04.99,1.04l7.68,12.8s.65.91,1.27,1.17c.51.22,1.41.16,1.41.16h90.05s3.78.04,5.82,1.13c1.9,1.01,3.96,3.83,3.96,3.83l5.61,9.3s1.06,2.49.04,3.77c-1.44,1.8-2.96,1.63-2.96,1.63h-95.47s-1.42-.04-2.18-.46c-.77-.43-1.56-1.63-1.56-1.63l-9.53-15.8s-.52-1.03-1.12-1.41c-.69-.44-2.08-.35-2.08-.35h-69.45s-1.83.18-2.34-.66c-.61-1.01.24-2.17.24-2.17l6.91-10.95s.62-1.11,1.3-1.48c.6-.33,1.71-.34,1.71-.34Z"/><path class="cls-3" d="m115.92,60.52h20.66s1.11.06,1.69.42c.48.29.99,1.04.99,1.04l7.68,12.8s.65.91,1.27,1.17c.51.21,1.41.16,1.41.16h52.27s3.78.04,5.81,1.13c1.9,1.01,3.96,3.83,3.96,3.83l4.67,7.75s1.55,2.95.13,5.15c-1.2,1.84-4.24,1.8-4.24,1.8h-55.55s-1.42-.04-2.19-.46c-.77-.43-1.56-1.63-1.56-1.63l-9.53-15.8s-.52-1.03-1.12-1.41c-.69-.44-2.08-.35-2.08-.35h-32.1s-1.83.18-2.34-.66c-.61-1.01.24-2.17.24-2.17l6.91-10.95s.62-1.11,1.3-1.48c.6-.33,1.71-.34,1.71-.34Z"/><path class="cls-1" d="m155.63,0c4.21,0,7.25,4.99,7.25,4.99l34.22,52.99s1.93,2.84.55,5.5c-1.18,2.27-4.4,2.46-4.4,2.46h-37.21s-1.31-.1-2.02-.5c-.68-.39-1.43-1.4-1.43-1.4l-9.54-15.57s-.83-1-1.55-1.38c-.85-.45-2.4-.48-2.4-.48h-11.2s-2.51.21-3.14-1.16c-.74-1.59.82-3.41.82-3.41l22.43-36.49S150.69,0,155.63,0Z"/><path class="cls-3" d="m97.5,89.94h39.38s1.12.06,1.7.42c.47.3.98,1.04.98,1.04l7.68,12.8s.65.91,1.27,1.17c.51.22,1.41.16,1.41.16h70.85s3.78.04,5.82,1.13c1.89,1.01,3.96,3.83,3.96,3.83l4.67,7.75s1.55,2.95.13,5.15c-1.2,1.84-4.24,1.8-4.24,1.8h-74.13s-1.42-.04-2.18-.46c-.77-.43-1.56-1.63-1.56-1.63l-9.53-15.8s-.52-1.03-1.12-1.41c-.69-.44-2.08-.35-2.08-.35h-50.83s-1.84.18-2.34-.66c-.61-1.01.24-2.17.24-2.17l6.91-10.95s.62-1.11,1.3-1.48c.6-.33,1.71-.34,1.71-.34Z"/><path class="cls-1" d="m173.54,181.06c0-6.76-6.53-12.27-14.56-12.27h-19.16c-4.03,0-7.23,2.76-7.23,6.16s3.29,6.08,7.43,6.08h18.09c2.01,0,2,0,2,1.17s-.03,1.15-1.99,1.15c0,0-17.86,0-18.09,0-4.13,0-7.43,2.62-7.43,5.97v12.56c0,3.35,3.34,5.97,7.47,5.97s7.51-2.62,7.51-5.96v-8.97l12.32,12.48c2.61,2.65,7.3,3.09,10.44.98,3.19-2.14,3.71-5.99,1.17-8.57l-5.97-6.07c4.78-1.93,8.01-5.93,8.01-10.67Z"/><path class="cls-2" d="m116.06,170.39c-1.1-1.76-3.11-3.01-5.34-3.01h-.52c-2.23,0-4.24,1.26-5.35,3.01l-13.49,29.81c-.1.45-.18.94-.18,1.42,0,3.43,2.8,6.23,6.23,6.23s6.32-2.64,6.31-5.9h13.44c0,3.26,2.88,5.9,6.32,5.9s6.24-2.8,6.24-6.23c0-.48-.08-.97-.18-1.42l-13.51-29.81Zm-7.81,22.43l2.22-5.29,2.22,5.29h-4.44Z"/><path class="cls-3" d="m258.35,195.52h-7.84v-2.59h6.37c2.63,0,4.78-2.15,4.78-4.81s-2.18-4.81-4.86-4.81h-6.29v-2.3l7.84-.04c3.44,0,6.24-2.75,6.24-6.12s-2.73-6.2-6.08-6.2h-14.26c-3.48,0-6.31,2.82-6.31,6.28v26.64c0,3.46,2.83,6.28,6.31,6.28h14.26c3.35,0,6.08-2.78,6.08-6.2s-2.8-6.12-6.24-6.12Z"/><path class="cls-3" d="m184.25,168.54c-3.44,0-6.22,2.64-6.22,6v27.29c0,3.37,2.78,6,6.22,6s6.25-2.64,6.25-6v-27.3c0-3.37-2.74-6-6.25-6Z"/><path class="cls-3" d="m234.5,174.41c0-3.37-2.74-6-6.25-6s-6.22,2.64-6.22,6v18.94l-6.04-18.9c-.71-2.21-2.09-3.95-4.07-5.15-1.8-1.11-3.9-1.68-6.23-1.68-2.8,0-5.24.77-7.27,2.31-2.3,1.8-3.46,4.16-3.46,7.02v24.76c0,3.37,2.77,6,6.21,6s6.25-2.64,6.25-6v-18.62l5.24,16.94c.83,2.63,2.3,4.59,4.46,5.99,1.84,1.23,3.97,1.82,6.51,1.82,2.71,0,5.11-.72,7.14-2.14,2.43-1.65,3.72-3.98,3.72-6.76v-24.54Z"/><path class="cls-1" d="m87.84,201.01l-2.16-24.83c-.57-6.53-4.39-8.07-8.26-8.07-5.75,0-7.41,1.65-8.6,6.09l-3.19,11.85h-.11l-3.19-11.85c-1.2-4.45-2.85-6.09-8.6-6.09-3.87,0-7.69,1.54-8.26,8.07l-1.27,14.94-.87,9.89c-.19,3.29,2.29,6.12,5.52,6.3,3.27.18,6.07-2.27,6.26-5.48l1.08-17.26h.11l4.22,16.85c1.31,5.32,2.05,6.42,5.07,6.42s3.76-1.1,5.07-6.42l4.22-16.85h.11l1.09,17.26c.18,3.21,2.99,5.66,6.26,5.48,3.23-.18,5.7-3.01,5.52-6.3Z"/><path class="cls-1" d="m310.58,225.25H.59c-.33,0-.59.27-.59.59s.27.59.59.59h309.98c.33,0,.59-.27.59-.59s-.27-.59-.59-.59Z"/><path class="cls-1" d="m.48,241.85h9.03v1.47H2.22v4.16h6.8v1.47H2.22v4.53h7.35v1.47H.48v-13.08Z"/><path class="cls-1" d="m13.04,241.85h1.85l6.89,10.61h.04v-10.61h1.65v13.08h-1.91l-6.83-10.5h-.04v10.5h-1.65v-13.08Z"/><path class="cls-1" d="m32.82,254.93h-1.98l-4.62-13.08h1.89l3.74,11.34h.04l3.77-11.34h1.81l-4.66,13.08Z"/><path class="cls-1" d="m40.33,241.85h1.74v13.08h-1.74v-13.08Z"/><path class="cls-1" d="m46.39,241.85h6.16c2.47,0,3.98,1.32,3.98,3.43,0,1.59-.68,2.88-2.27,3.32v.04c1.52.29,1.81,1.43,1.96,2.69.09,1.26.04,2.73.77,3.61h-1.94c-.49-.53-.22-1.94-.48-3.23-.2-1.26-.49-2.36-2.18-2.36h-4.25v5.59h-1.74v-13.08Zm5.37,6.03c1.61,0,3.02-.42,3.02-2.33,0-1.3-.7-2.24-2.33-2.24h-4.33v4.56h3.63Z"/><path class="cls-1" d="m65.86,241.53c4.16,0,6.27,3.28,6.27,6.85s-2.11,6.85-6.27,6.85-6.27-3.28-6.27-6.85,2.11-6.85,6.27-6.85Zm0,12.24c3.19,0,4.53-2.75,4.53-5.39s-1.34-5.39-4.53-5.39-4.53,2.75-4.53,5.39,1.34,5.39,4.53,5.39Z"/><path class="cls-1" d="m75.61,241.85h1.85l6.89,10.61h.04v-10.61h1.65v13.08h-1.91l-6.83-10.5h-.04v10.5h-1.65v-13.08Z"/><path class="cls-1" d="m90.28,241.85h2.38l4.12,10.99,4.14-10.99h2.38v13.08h-1.65v-10.88h-.04l-4.09,10.88h-1.48l-4.09-10.88h-.04v10.88h-1.65v-13.08Z"/><path class="cls-1" d="m107.58,241.85h9.03v1.47h-7.29v4.16h6.8v1.47h-6.8v4.53h7.35v1.47h-9.09v-13.08Z"/><path class="cls-1" d="m120.14,241.85h1.85l6.89,10.61h.04v-10.61h1.65v13.08h-1.91l-6.83-10.5h-.04v10.5h-1.65v-13.08Z"/><path class="cls-1" d="m137.74,243.31h-4.36v-1.47h10.46v1.47h-4.36v11.62h-1.74v-11.62Z"/><path class="cls-1" d="m148.8,241.85h1.92l5.11,13.08h-1.93l-1.43-3.94h-5.53l-1.47,3.94h-1.8l5.11-13.08Zm3.13,7.68l-2.18-6.1h-.04l-2.22,6.1h4.43Z"/><path class="cls-1" d="m158.5,241.85h1.74v11.62h6.93v1.47h-8.67v-13.08Z"/><path class="cls-1" d="m179.53,243.31h-4.36v-1.47h10.46v1.47h-4.36v11.62h-1.74v-11.62Z"/><path class="cls-1" d="m188.46,241.85h9.04v1.47h-7.29v4.16h6.8v1.47h-6.8v4.53h7.35v1.47h-9.09v-13.08Z"/><path class="cls-1" d="m206.59,241.53c2.73,0,5,1.47,5.39,4.25h-1.74c-.39-1.85-1.83-2.79-3.67-2.79-3.11,0-4.43,2.57-4.43,5.3,0,2.99,1.32,5.48,4.45,5.48,2.27,0,3.63-1.61,3.78-3.78h1.74c-.35,3.28-2.35,5.24-5.66,5.24-4.05,0-6.05-3.01-6.05-6.82s2.16-6.89,6.19-6.89Z"/><path class="cls-1" d="m215.65,241.85h1.74v5.63h6.89v-5.63h1.74v13.08h-1.74v-5.99h-6.89v5.99h-1.74v-13.08Z"/><path class="cls-1" d="m230.25,241.85h1.85l6.89,10.61h.04v-10.61h1.65v13.08h-1.9l-6.83-10.5h-.04v10.5h-1.65v-13.08Z"/><path class="cls-1" d="m250.41,241.53c4.16,0,6.27,3.28,6.27,6.85s-2.11,6.85-6.27,6.85-6.27-3.28-6.27-6.85,2.11-6.85,6.27-6.85Zm0,12.24c3.19,0,4.53-2.75,4.53-5.39s-1.34-5.39-4.53-5.39-4.53,2.75-4.53,5.39,1.34,5.39,4.53,5.39Z"/><path class="cls-1" d="m260.18,241.85h1.74v11.62h6.93v1.47h-8.67v-13.08Z"/><path class="cls-1" d="m276.63,241.53c4.16,0,6.27,3.28,6.27,6.85s-2.11,6.85-6.27,6.85-6.27-3.28-6.27-6.85,2.11-6.85,6.27-6.85Zm0,12.24c3.19,0,4.53-2.75,4.53-5.39s-1.34-5.39-4.53-5.39-4.53,2.75-4.53,5.39,1.34,5.39,4.53,5.39Z"/><path class="cls-1" d="m291.99,241.53c2.84,0,5.15,1.28,5.63,4.34h-1.74c-.35-1.98-1.93-2.88-3.89-2.88-3.17,0-4.49,2.77-4.49,5.55s1.57,5.22,4.49,5.22c2.71,0,4.29-1.87,4.2-4.27h-4.18v-1.47h5.74v6.89h-1.1l-.46-1.63c-1.03,1.36-2.68,1.94-4.2,1.94-3.9,0-6.23-3.17-6.23-6.6,0-3.81,2.09-7.11,6.23-7.11Z"/><path class="cls-1" d="m306.22,249.58v5.35h-1.74v-5.35l-5.06-7.73h2.07l3.92,6.23,3.83-6.23h1.98l-5,7.73Z"/></svg>