<svg xmlns="http://www.w3.org/2000/svg" viewBox="0 0 164.77 139.73"><defs><style>.cls-1,.cls-2{fill:#03943e;}.cls-2{fill-rule:evenodd;}</style></defs><g id="Guides"><path class="cls-1" d="M147.2,111.32H16.84a.25.25,0,0,0,0,.5H147.2a.25.25,0,0,0,0-.5Z"/><path class="cls-1" d="M73.18,93.33H66.41A.4.4,0,0,1,66,93c0-.12.08-.35.46-.35h9.27a2.59,2.59,0,1,0,0-5.18H66.26a5.46,5.46,0,0,0-5.46,5.45,5.32,5.32,0,0,0,5.46,5.3h6.12c.2,0,.42.07.42.35s-.25.33-.42.33h-9a2.54,2.54,0,0,0-2.34,1.47,2.64,2.64,0,0,0-2.46-1.76H55.36v-1H58a2,2,0,0,0,2-2,2,2,0,0,0-2-2H55.36v-1l3.28,0a2.58,2.58,0,0,0,.07-5.15h-6A2.63,2.63,0,0,0,50.11,90v9.51L44.93,88.82a2.88,2.88,0,0,0-2.5-1.47,2.66,2.66,0,0,0-2.22,1.26l-5.46,12.06a2.68,2.68,0,0,0-.07.59,2.59,2.59,0,0,0,2.59,2.59,2.72,2.72,0,0,0,1.92-.78,2.38,2.38,0,0,0,.71-1.6h5.44a2.4,2.4,0,0,0,.67,1.61,2.6,2.6,0,0,0,1.84.72h10.8A2.54,2.54,0,0,0,61,102.24h0a2.6,2.6,0,0,0,2.47,1.7h9.66a5.3,5.3,0,0,0,5.29-5.42A5,5,0,0,0,73.18,93.33ZM43.5,97.62H41.75l.84-2Z"/><path class="cls-1" d="M129.83,98.69h-3.25V89.91A2.56,2.56,0,0,0,124,87.38a2.53,2.53,0,0,0-2.58,2.53l-.05,8.71h-.65l-4.75-9.84a2.67,2.67,0,0,0-2.29-1.4,2.59,2.59,0,0,0-2.28,1.37L106,100.6a2.51,2.51,0,0,0-2.43-1.94l-3.3,0v-1h2.65a2,2,0,1,0,0-4h-2.65v-1l3.14,0A2.66,2.66,0,0,0,106.06,90a2.58,2.58,0,0,0-2.59-2.63H83.3a5.46,5.46,0,1,0,0,10.91h6.13c.15,0,.41,0,.41.29s-.25.31-.41.31h-9a2.54,2.54,0,0,0-1.91.63,2.49,2.49,0,0,0-.67,1.84,2.61,2.61,0,0,0,2.69,2.52h9.58a5.11,5.11,0,0,0,4.8-2.73v.1a2.63,2.63,0,0,0,2.61,2.59h5.86a2.63,2.63,0,0,0,2.55-1.92,2.58,2.58,0,0,0,2.5,2,2.9,2.9,0,0,0,2.79-2.39h5.26a2.18,2.18,0,0,0,.6,1.61,2.56,2.56,0,0,0,1.89.76h10.75a2.59,2.59,0,1,0,.07-5.18Zm-15.25-1h-1.77l.83-1.78ZM95,96a5,5,0,0,0-4.74-2.66H83.45A.33.33,0,0,1,83.1,93c0-.16.09-.3.34-.3H94.93Z"/><path class="cls-2" d="M130.65,89.13h.27l.45.74h.32l-.48-.76a.45.45,0,0,0,.45-.48c0-.35-.22-.49-.64-.49h-.65v1.73h.28Zm0-.25v-.5H131c.17,0,.37,0,.37.23s-.19.27-.4.27Zm1.84.09A1.54,1.54,0,1,0,131,90.54,1.51,1.51,0,0,0,132.49,89Zm-.33,0a1.2,1.2,0,1,1-1.2-1.29A1.21,1.21,0,0,1,132.16,89Z"/><path class="cls-1" d="M49.76,66.8H74.14a1.16,1.16,0,0,1,1.13.61l3.23,5.38a1.07,1.07,0,0,0,1.12.56h37.87a6.71,6.71,0,0,1,2.44.48,6.59,6.59,0,0,1,1.67,1.61L124,79.35s.44,1,0,1.58a1.48,1.48,0,0,1-1.24.68H82.59a2.46,2.46,0,0,1-.92-.19,2.55,2.55,0,0,1-.65-.69l-4-6.64a1.85,1.85,0,0,0-.47-.59,1.78,1.78,0,0,0-.87-.15H46.46s-.77.08-1-.27a.93.93,0,0,1,.11-.92l2.9-4.6a1.83,1.83,0,0,1,.55-.62A1.86,1.86,0,0,1,49.76,66.8Z"/><path class="cls-1" d="M65.33,42H74a1.84,1.84,0,0,1,.71.17,1.93,1.93,0,0,1,.41.44L78.37,48a1.64,1.64,0,0,0,.54.5,1.6,1.6,0,0,0,.59.06h22a6.76,6.76,0,0,1,2.45.48,6.86,6.86,0,0,1,1.66,1.61l2,3.26a2.4,2.4,0,0,1,0,2.16,2.3,2.3,0,0,1-1.78.76H82.46A1.63,1.63,0,0,1,80.89,56l-4-6.64a1.92,1.92,0,0,0-.46-.6,2,2,0,0,0-.88-.15H62s-.77.08-1-.27a.91.91,0,0,1,.1-.92l2.91-4.6A1.2,1.2,0,0,1,65.33,42Z"/><path class="cls-1" d="M82,16.58c1.77,0,3,2.1,3,2.1L99.46,41a2.46,2.46,0,0,1,.24,2.31,2.42,2.42,0,0,1-1.85,1H82.2a2.46,2.46,0,0,1-.84-.21,2.57,2.57,0,0,1-.61-.59l-4-6.55a2.91,2.91,0,0,0-.65-.58,3,3,0,0,0-1-.2H70.37s-1.05.09-1.32-.49.35-1.43.35-1.43l9.43-15.34S80,16.58,82,16.58Z"/><path class="cls-1" d="M57.59,54.4H74.14a1.16,1.16,0,0,1,1.13.61l3.23,5.38a1.7,1.7,0,0,0,.53.49,1.48,1.48,0,0,0,.59.07h29.79a6.76,6.76,0,0,1,2.45.48A6.67,6.67,0,0,1,113.52,63l2,3.25a2.42,2.42,0,0,1,.05,2.17,2.3,2.3,0,0,1-1.78.76H82.59A1.61,1.61,0,0,1,81,68.34l-4-6.65a1.85,1.85,0,0,0-.47-.59,1.78,1.78,0,0,0-.87-.15H54.3s-.78.08-1-.27a.93.93,0,0,1,.11-.92l2.9-4.6a1.83,1.83,0,0,1,.55-.62A1.86,1.86,0,0,1,57.59,54.4Z"/><path class="cls-1" d="M17.17,118.44h3.68v.6h-3v1.69h2.76v.6H17.88v1.83h3v.6h-3.7Z"/><path class="cls-1" d="M22.46,118.44h.75l2.8,4.32h0v-4.32h.67v5.32h-.78l-2.78-4.27h0v4.27h-.67Z"/><path class="cls-1" d="M30.68,123.76h-.81L28,118.44h.76l1.52,4.61h0l1.53-4.61h.74Z"/><path class="cls-1" d="M33.91,118.44h.7v5.32h-.7Z"/><path class="cls-1" d="M36.55,118.44h2.5c1,0,1.62.54,1.62,1.4a1.26,1.26,0,0,1-.93,1.34v0c.62.12.74.58.8,1.09a2.75,2.75,0,0,0,.31,1.47h-.79c-.2-.22-.09-.79-.19-1.31s-.2-1-.89-1H37.26v2.27h-.71Zm2.18,2.45c.66,0,1.23-.17,1.23-.94a.84.84,0,0,0-1-.91H37.26v1.85Z"/><path class="cls-1" d="M44.64,118.32a2.8,2.8,0,1,1-2.55,2.78A2.55,2.55,0,0,1,44.64,118.32Zm0,5c1.3,0,1.84-1.12,1.84-2.19s-.54-2.19-1.84-2.19a2.22,2.22,0,0,0,0,4.38Z"/><path class="cls-1" d="M48.79,118.44h.75l2.8,4.32h0v-4.32H53v5.32h-.77l-2.78-4.27h0v4.27h-.67Z"/><path class="cls-1" d="M54.93,118.44h1l1.67,4.47,1.68-4.47h1v5.32h-.67v-4.42h0l-1.66,4.42h-.61l-1.66-4.42h0v4.42h-.67Z"/><path class="cls-1" d="M62.14,118.44h3.67v.6h-3v1.69h2.76v.6H62.85v1.83h3v.6H62.14Z"/><path class="cls-1" d="M67.42,118.44h.76l2.8,4.32h0v-4.32h.67v5.32h-.77l-2.78-4.27h0v4.27h-.68Z"/><path class="cls-1" d="M74.76,119H73v-.6h4.25v.6H75.46v4.72h-.7Z"/><path class="cls-1" d="M79.43,118.44h.78l2.08,5.32h-.78l-.58-1.6H78.68l-.6,1.6h-.73Zm1.28,3.12-.89-2.48h0l-.9,2.48Z"/><path class="cls-1" d="M83.55,118.44h.71v4.72h2.82v.6H83.55Z"/><path class="cls-1" d="M92.46,119H90.69v-.6h4.25v.6H93.17v4.72h-.71Z"/><path class="cls-1" d="M96.27,118.44h3.67v.6H97v1.69h2.76v.6H97v1.83h3v.6H96.27Z"/><path class="cls-1" d="M103.82,118.32A2,2,0,0,1,106,120h-.71a1.41,1.41,0,0,0-1.49-1.13c-1.27,0-1.8,1-1.8,2.15s.53,2.23,1.81,2.23a1.5,1.5,0,0,0,1.53-1.53h.71a2.16,2.16,0,0,1-2.3,2.13c-1.65,0-2.46-1.22-2.46-2.77A2.52,2.52,0,0,1,103.82,118.32Z"/><path class="cls-1" d="M107.68,118.44h.71v2.29h2.8v-2.29h.7v5.32h-.7v-2.43h-2.8v2.43h-.71Z"/><path class="cls-1" d="M113.79,118.44h.75l2.8,4.32h0v-4.32H118v5.32h-.78l-2.77-4.27h0v4.27h-.67Z"/><path class="cls-1" d="M122.17,118.32a2.8,2.8,0,1,1-2.55,2.78A2.55,2.55,0,0,1,122.17,118.32Zm0,5c1.29,0,1.83-1.12,1.83-2.19s-.54-2.19-1.83-2.19-1.84,1.12-1.84,2.19S120.87,123.29,122.17,123.29Z"/><path class="cls-1" d="M126.32,118.44H127v4.72h2.81v.6h-3.52Z"/><path class="cls-1" d="M133.18,118.32a2.8,2.8,0,1,1-2.55,2.78A2.55,2.55,0,0,1,133.18,118.32Zm0,5c1.3,0,1.84-1.12,1.84-2.19s-.54-2.19-1.84-2.19a2.22,2.22,0,0,0,0,4.38Z"/><path class="cls-1" d="M139.6,118.32a2.06,2.06,0,0,1,2.29,1.76h-.71a1.44,1.44,0,0,0-1.58-1.17c-1.28,0-1.82,1.13-1.82,2.26a1.91,1.91,0,0,0,1.82,2.12,1.6,1.6,0,0,0,1.71-1.73h-1.7V121h2.33v2.8h-.44l-.19-.66a2.14,2.14,0,0,1-1.71.79,2.55,2.55,0,0,1-2.53-2.68C137.07,119.66,137.92,118.32,139.6,118.32Z"/><path class="cls-1" d="M145.57,121.59v2.17h-.71v-2.17l-2.06-3.15h.85l1.59,2.54,1.55-2.54h.81Z"/></g></svg>