<?xml version="1.0" encoding="utf-8"?>
<!-- Generator: Adobe Illustrator 26.5.0, SVG Export Plug-In . SVG Version: 6.00 Build 0)  -->
<!DOCTYPE svg PUBLIC "-//W3C//DTD SVG 1.1//EN" "http://www.w3.org/Graphics/SVG/1.1/DTD/svg11.dtd" [
	<!ENTITY ns_extend "http://ns.adobe.com/Extensibility/1.0/">
	<!ENTITY ns_ai "http://ns.adobe.com/AdobeIllustrator/10.0/">
	<!ENTITY ns_graphs "http://ns.adobe.com/Graphs/1.0/">
	<!ENTITY ns_vars "http://ns.adobe.com/Variables/1.0/">
	<!ENTITY ns_imrep "http://ns.adobe.com/ImageReplacement/1.0/">
	<!ENTITY ns_sfw "http://ns.adobe.com/SaveForWeb/1.0/">
	<!ENTITY ns_custom "http://ns.adobe.com/GenericCustomNamespace/1.0/">
	<!ENTITY ns_adobe_xpath "http://ns.adobe.com/XPath/1.0/">
]>
<svg version="1.1" id="Guides" xmlns:x="&ns_extend;" xmlns:i="&ns_ai;" xmlns:graph="&ns_graphs;"
	 xmlns="http://www.w3.org/2000/svg" xmlns:xlink="http://www.w3.org/1999/xlink" x="0px" y="0px" viewBox="0 0 164.8 139.7"
	 style="enable-background:new 0 0 164.8 139.7;" xml:space="preserve">
<style type="text/css">
	.st0{fill:#1D1D1B;}
	.st1{fill-rule:evenodd;clip-rule:evenodd;fill:#1D1D1B;}
</style>
<metadata>
	<sfw  xmlns="&ns_sfw;">
		<slices></slices>
		<sliceSourceBounds  bottomLeftOrigin="true" height="107.3" width="130.9" x="0" y="0"></sliceSourceBounds>
	</sfw>
</metadata>
<path class="st0" d="M147.6,110.9H17.2c-0.1,0-0.2,0.1-0.2,0.2s0.1,0.2,0.2,0.2h130.4c0.1,0,0.2-0.1,0.2-0.2
	S147.7,110.9,147.6,110.9z"/>
<path class="st0" d="M73.6,92.9h-6.8c-0.3,0-0.4-0.2-0.4-0.4c0-0.1,0.1-0.4,0.5-0.4h9.3c1.5,0,2.7-1.2,2.7-2.6S77.5,87,76.1,87h-9.4
	c-3,0-5.5,2.4-5.5,5.5s2.4,5.3,5.5,5.3h6.1c0.2,0,0.4,0.1,0.4,0.3c0,0.2-0.2,0.3-0.4,0.3h-9c-1,0-1.9,0.6-2.3,1.5
	c-0.4-1-1.4-1.8-2.5-1.8h-3.2v-1h2.7c1.1,0,2-0.9,2-2s-0.9-2-2-2h-2.6v-1l3.3,0c1.4,0,2.6-1.2,2.6-2.6S60.5,87,59.1,87h-6
	c-1.5,0-2.6,1.2-2.6,2.6v9.5l-5.2-10.7c-0.5-0.9-1.5-1.5-2.5-1.5c-0.9,0-1.7,0.5-2.2,1.3l-5.5,12.1c0,0.2-0.1,0.4-0.1,0.6
	c0,1.4,1.2,2.6,2.6,2.6c0.7,0,1.4-0.3,1.9-0.8c0.4-0.4,0.7-1,0.7-1.6h5.5c0,0.6,0.2,1.2,0.7,1.6c0.5,0.5,1.1,0.7,1.8,0.7H59
	c1,0,1.9-0.6,2.3-1.6l0,0c0.4,1,1.3,1.7,2.5,1.7h9.7c3,0,5.3-2.4,5.3-5.4S76.6,92.9,73.6,92.9L73.6,92.9z M43.9,97.2h-1.8l0.8-2
	L43.9,97.2L43.9,97.2z"/>
<path class="st0" d="M130.2,98.3h-3.2v-8.8c0-1.4-1.2-2.5-2.6-2.5s-2.6,1.1-2.6,2.5l-0.1,8.7H121l-4.8-9.8c-0.5-0.8-1.4-1.4-2.3-1.4
	s-1.8,0.5-2.3,1.4l-5.4,11.8c-0.3-1.1-1.2-1.9-2.4-1.9h-3.3v-1h2.7c1.1,0,2-0.9,2-2s-0.9-2-2-2h-2.7v-1h3.2c1.5,0,2.7-1.2,2.7-2.6
	s-1.1-2.6-2.6-2.6H83.7c-3,0-5.5,2.4-5.5,5.5s2.4,5.5,5.4,5.5h6.1c0.2,0,0.4,0.1,0.4,0.3s-0.2,0.3-0.4,0.3h-9
	c-0.8,0-1.5,0.2-1.9,0.6c-0.4,0.4-0.7,1.1-0.7,1.8c0,1.4,1.2,2.5,2.7,2.5h9.6c2.2,0,4.1-1.1,4.8-2.7v0.1c0.1,1.4,1.2,2.6,2.6,2.6
	h5.9c1.2,0,2.2-0.8,2.6-1.9c0.3,1.1,1.3,1.9,2.5,1.9c1.4,0,2.6-1.1,2.8-2.4h5.3c0,0.6,0.2,1.2,0.6,1.6c0.5,0.5,1.1,0.8,1.9,0.8h10.8
	c1.5,0,2.6-1.2,2.6-2.6S131.6,98.3,130.2,98.3L130.2,98.3z M114.9,97.3h-1.8l0.8-1.8C114,95.5,114.9,97.3,114.9,97.3z M95.3,95.5
	c-0.8-1.7-2.6-2.7-4.7-2.7h-6.8c-0.2,0-0.3-0.2-0.3-0.3c0-0.2,0.1-0.3,0.3-0.3h11.5L95.3,95.5L95.3,95.5z"/>
<path class="st1" d="M131,88.7h0.3l0.4,0.7h0.3l-0.5-0.8c0.3,0,0.4-0.2,0.4-0.5c0-0.3-0.2-0.5-0.6-0.5h-0.7v1.7h0.3L131,88.7
	L131,88.7z M131,88.5V88h0.3c0.2,0,0.4,0,0.4,0.2c0,0.2-0.2,0.3-0.4,0.3L131,88.5L131,88.5z M132.9,88.6c0-0.9-0.7-1.6-1.5-1.6
	c-0.8,0-1.5,0.6-1.5,1.6c0,0.9,0.6,1.6,1.5,1.6C132.2,90.1,132.9,89.5,132.9,88.6z M132.5,88.6c0,0.8-0.5,1.3-1.2,1.3
	c-0.8,0-1.2-0.6-1.2-1.3c0-0.8,0.5-1.3,1.2-1.3C132,87.3,132.5,87.8,132.5,88.6z"/>
<path class="st0" d="M50.1,66.4h24.4c0,0,0.5,0,0.7,0.2c0.2,0.1,0.4,0.4,0.4,0.4l3.2,5.4c0,0,0.3,0.4,0.5,0.5
	c0.2,0.1,0.6,0.1,0.6,0.1h37.9c0,0,1.6,0,2.4,0.5c0.8,0.4,1.7,1.6,1.7,1.6l2.4,3.9c0,0,0.4,1,0,1.6c-0.6,0.8-1.2,0.7-1.2,0.7H83
	c0,0-0.6,0-0.9-0.2s-0.7-0.7-0.7-0.7l-4-6.6c0,0-0.2-0.4-0.5-0.6c-0.3-0.2-0.9-0.2-0.9-0.2H46.8c0,0-0.8,0.1-1-0.3
	c-0.2-0.4,0.1-0.9,0.1-0.9l2.9-4.6c0,0,0.3-0.5,0.6-0.6C49.7,66.4,50.1,66.4,50.1,66.4L50.1,66.4z"/>
<path class="st0" d="M65.7,41.6h8.7c0,0,0.5,0,0.7,0.2c0.2,0.1,0.4,0.4,0.4,0.4l3.2,5.4c0,0,0.3,0.4,0.5,0.5
	c0.2,0.1,0.6,0.1,0.6,0.1h22c0,0,1.6,0,2.4,0.5c0.8,0.4,1.7,1.6,1.7,1.6l2,3.3c0,0,0.7,1.2,0.1,2.2c-0.5,0.8-1.8,0.8-1.8,0.8H82.8
	c0,0-0.6,0-0.9-0.2s-0.7-0.7-0.7-0.7l-4-6.6c0,0-0.2-0.4-0.5-0.6c-0.3-0.2-0.9-0.2-0.9-0.2H62.4c0,0-0.8,0.1-1-0.3
	c-0.2-0.4,0.1-0.9,0.1-0.9l2.9-4.6c0,0,0.3-0.5,0.5-0.6C65.2,41.6,65.7,41.6,65.7,41.6L65.7,41.6z"/>
<path class="st0" d="M82.4,16.2c1.8,0,3.1,2.1,3.1,2.1l14.4,22.3c0,0,0.8,1.2,0.2,2.3c-0.5,1-1.8,1-1.8,1H82.6c0,0-0.6,0-0.8-0.2
	c-0.3-0.2-0.6-0.6-0.6-0.6l-4-6.5c0,0-0.3-0.4-0.7-0.6c-0.4-0.2-1-0.2-1-0.2h-4.7c0,0-1,0.1-1.3-0.5c-0.3-0.7,0.3-1.4,0.3-1.4
	l9.4-15.4C79.2,18.5,80.3,16.2,82.4,16.2z"/>
<path class="st0" d="M58,54h16.6c0,0,0.5,0,0.7,0.2c0.2,0.1,0.4,0.4,0.4,0.4l3.2,5.4c0,0,0.3,0.4,0.5,0.5c0.2,0.1,0.6,0.1,0.6,0.1
	h29.8c0,0,1.6,0,2.4,0.5c0.8,0.4,1.7,1.6,1.7,1.6l2,3.3c0,0,0.7,1.2,0.1,2.2c-0.5,0.8-1.8,0.8-1.8,0.8H83c0,0-0.6,0-0.9-0.2
	s-0.7-0.7-0.7-0.7l-4-6.6c0,0-0.2-0.4-0.5-0.6c-0.3-0.2-0.9-0.2-0.9-0.2H54.6c0,0-0.8,0.1-1-0.3c-0.2-0.4,0.1-0.9,0.1-0.9l2.9-4.6
	c0,0,0.3-0.5,0.5-0.6C57.5,54,57.9,54,58,54L58,54z"/>
<g>
	<path class="st0" d="M17.2,117.9H21v0.6h-3.1v1.8h2.9v0.6h-2.9v1.9H21v0.6h-3.8V117.9L17.2,117.9z"/>
	<path class="st0" d="M22.4,117.9h0.8l2.9,4.5h0v-4.5h0.7v5.5H26l-2.9-4.4h0v4.4h-0.7L22.4,117.9L22.4,117.9z"/>
	<path class="st0" d="M30.8,123.4h-0.8l-1.9-5.5h0.8l1.6,4.8h0l1.6-4.8h0.8C32.7,117.9,30.8,123.4,30.8,123.4z"/>
	<path class="st0" d="M33.9,117.9h0.7v5.5h-0.7V117.9z"/>
	<path class="st0" d="M36.5,117.9h2.6c1,0,1.7,0.6,1.7,1.4c0,0.7-0.3,1.2-1,1.4v0c0.6,0.1,0.8,0.6,0.8,1.1c0,0.5,0,1.2,0.3,1.5h-0.8
		c-0.2-0.2-0.1-0.8-0.2-1.4c-0.1-0.5-0.2-1-0.9-1h-1.8v2.3h-0.7L36.5,117.9L36.5,117.9z M38.7,120.4c0.7,0,1.3-0.2,1.3-1
		c0-0.6-0.3-0.9-1-0.9h-1.8v1.9C37.2,120.4,38.7,120.4,38.7,120.4z"/>
	<path class="st0" d="M44.7,117.8c1.8,0,2.6,1.4,2.6,2.9s-0.9,2.9-2.6,2.9s-2.6-1.4-2.6-2.9S42.9,117.8,44.7,117.8z M44.7,122.9
		c1.3,0,1.9-1.2,1.9-2.3s-0.6-2.3-1.9-2.3s-1.9,1.2-1.9,2.3S43.3,122.9,44.7,122.9z"/>
	<path class="st0" d="M48.8,117.9h0.8l2.9,4.5h0v-4.5h0.7v5.5h-0.8l-2.9-4.4h0v4.4h-0.7L48.8,117.9L48.8,117.9z"/>
	<path class="st0" d="M54.9,117.9h1l1.7,4.6l1.7-4.6h1v5.5h-0.7v-4.6h0l-1.7,4.6h-0.6l-1.7-4.6h0v4.6h-0.7L54.9,117.9L54.9,117.9z"
		/>
	<path class="st0" d="M62.2,117.9H66v0.6h-3.1v1.8h2.9v0.6h-2.9v1.9H66v0.6h-3.8V117.9L62.2,117.9z"/>
	<path class="st0" d="M67.5,117.9h0.8l2.9,4.5h0v-4.5h0.7v5.5h-0.8l-2.9-4.4h0v4.4h-0.7L67.5,117.9L67.5,117.9z"/>
	<path class="st0" d="M74.9,118.5h-1.8v-0.6h4.4v0.6h-1.8v4.9h-0.7L74.9,118.5L74.9,118.5z"/>
	<path class="st0" d="M79.5,117.9h0.8l2.2,5.5h-0.8l-0.6-1.7h-2.3l-0.6,1.7h-0.8C77.4,123.4,79.5,117.9,79.5,117.9z M80.9,121.1
		l-0.9-2.6h0l-0.9,2.6H80.9L80.9,121.1z"/>
	<path class="st0" d="M83.6,117.9h0.7v4.9h2.9v0.6h-3.6L83.6,117.9L83.6,117.9z"/>
	<path class="st0" d="M92.5,118.5h-1.8v-0.6H95v0.6h-1.8v4.9h-0.7L92.5,118.5L92.5,118.5z"/>
	<path class="st0" d="M96.2,117.9h3.8v0.6h-3.1v1.8h2.9v0.6h-2.9v1.9h3.1v0.6h-3.8V117.9L96.2,117.9z"/>
	<path class="st0" d="M103.8,117.8c1.2,0,2.1,0.6,2.3,1.8h-0.7c-0.2-0.8-0.8-1.2-1.5-1.2c-1.3,0-1.9,1.1-1.9,2.2
		c0,1.3,0.6,2.3,1.9,2.3c1,0,1.5-0.7,1.6-1.6h0.7c-0.2,1.4-1,2.2-2.4,2.2c-1.7,0-2.5-1.3-2.5-2.9S102.2,117.7,103.8,117.8
		L103.8,117.8z"/>
	<path class="st0" d="M107.6,117.9h0.7v2.4h2.9v-2.4h0.7v5.5h-0.7v-2.5h-2.9v2.5h-0.7V117.9z"/>
	<path class="st0" d="M113.8,117.9h0.8l2.9,4.5h0v-4.5h0.7v5.5h-0.8l-2.9-4.4h0v4.4h-0.7L113.8,117.9L113.8,117.9z"/>
	<path class="st0" d="M122.3,117.8c1.8,0,2.6,1.4,2.6,2.9s-0.9,2.9-2.6,2.9s-2.6-1.4-2.6-2.9S120.5,117.8,122.3,117.8z M122.3,122.9
		c1.3,0,1.9-1.2,1.9-2.3s-0.6-2.3-1.9-2.3s-1.9,1.2-1.9,2.3S120.9,122.9,122.3,122.9z"/>
	<path class="st0" d="M126.4,117.9h0.7v4.9h2.9v0.6h-3.7L126.4,117.9L126.4,117.9z"/>
	<path class="st0" d="M133.3,117.8c1.8,0,2.6,1.4,2.6,2.9s-0.9,2.9-2.6,2.9s-2.6-1.4-2.6-2.9S131.6,117.8,133.3,117.8z M133.3,122.9
		c1.3,0,1.9-1.2,1.9-2.3s-0.6-2.3-1.9-2.3c-1.3,0-1.9,1.2-1.9,2.3S132,122.9,133.3,122.9z"/>
	<path class="st0" d="M139.8,117.8c1.2,0,2.2,0.5,2.4,1.8h-0.7c-0.2-0.8-0.8-1.2-1.6-1.2c-1.3,0-1.9,1.2-1.9,2.3s0.7,2.2,1.9,2.2
		c1.1,0,1.8-0.8,1.8-1.8h-1.8v-0.6h2.4v2.9h-0.5l-0.2-0.7c-0.4,0.6-1.1,0.8-1.8,0.8c-1.6,0-2.6-1.3-2.6-2.8
		C137.1,119.1,138,117.8,139.8,117.8L139.8,117.8z"/>
	<path class="st0" d="M145.7,121.1v2.2H145v-2.2l-2.1-3.2h0.9l1.6,2.6l1.6-2.6h0.8L145.7,121.1z"/>
</g>
</svg>
