<svg xmlns="http://www.w3.org/2000/svg" viewBox="0 0 131.01 107.3"><defs><style>.cls-1,.cls-2{fill:#03943e;}.cls-2{fill-rule:evenodd;}</style></defs><g id="Guides"><path class="cls-1" d="M145.38,113.34H15a.25.25,0,0,0-.25.25.25.25,0,0,0,.25.25H145.38a.25.25,0,0,0,.25-.25A.25.25,0,0,0,145.38,113.34Z" transform="translate(-14.78 -18.6)"/><path class="cls-1" d="M71.36,95.35H64.59a.4.4,0,0,1-.43-.36c0-.13.08-.36.46-.36h9.27a2.59,2.59,0,1,0,0-5.17H64.44A5.46,5.46,0,0,0,59,94.91a5.33,5.33,0,0,0,5.46,5.3h6.13c.19,0,.41.07.41.35s-.25.33-.42.33h-9a2.55,2.55,0,0,0-2.34,1.46,2.63,2.63,0,0,0-2.45-1.75H53.55v-1h2.66a2,2,0,1,0,0-4H53.55v-1h3.28a2.58,2.58,0,0,0,.06-5.16h-6a2.64,2.64,0,0,0-2.64,2.63v9.51L43.12,90.83a2.91,2.91,0,0,0-2.5-1.46,2.66,2.66,0,0,0-2.23,1.26l-5.46,12.06a2.68,2.68,0,0,0-.07.59,2.59,2.59,0,0,0,2.59,2.59,2.7,2.7,0,0,0,1.92-.79,2.34,2.34,0,0,0,.71-1.59h5.45a2.29,2.29,0,0,0,.67,1.6,2.53,2.53,0,0,0,1.83.73h10.8a2.52,2.52,0,0,0,2.33-1.56h0A2.6,2.6,0,0,0,61.63,106h9.66a5.3,5.3,0,0,0,5.29-5.42A5,5,0,0,0,71.36,95.35ZM41.69,99.64H39.94l.83-2Z" transform="translate(-14.78 -18.6)"/><path class="cls-1" d="M128,100.7h-3.25V91.93a2.61,2.61,0,0,0-5.21,0l0,8.71h-.64l-4.75-9.85a2.69,2.69,0,0,0-2.29-1.39,2.6,2.6,0,0,0-2.29,1.36l-5.38,11.86a2.49,2.49,0,0,0-2.42-1.94H98.42v-1h2.66a2,2,0,0,0,0-4H98.42v-1h3.15a2.66,2.66,0,0,0,2.68-2.62,2.58,2.58,0,0,0-2.59-2.63H81.48a5.46,5.46,0,0,0,0,10.91h6.13c.15,0,.41,0,.41.29s-.24.31-.4.31h-9a2.55,2.55,0,0,0-1.91.62,2.51,2.51,0,0,0-.67,1.85,2.61,2.61,0,0,0,2.69,2.52h9.59a5.08,5.08,0,0,0,4.79-2.74v.11a2.65,2.65,0,0,0,2.61,2.59h5.86a2.63,2.63,0,0,0,2.55-1.92,2.6,2.6,0,0,0,2.5,1.94,2.89,2.89,0,0,0,2.8-2.38h5.25a2.23,2.23,0,0,0,.6,1.62,2.58,2.58,0,0,0,1.9.76h10.74a2.6,2.6,0,1,0,.07-5.19Zm-15.25-1H111l.82-1.79ZM93.14,98a5,5,0,0,0-4.73-2.65H81.63a.33.33,0,0,1-.35-.34c0-.17.09-.3.35-.3H93.12Z" transform="translate(-14.78 -18.6)"/><path class="cls-2" d="M128.84,91.14h.26l.45.74h.32l-.48-.76a.44.44,0,0,0,.45-.47c0-.35-.21-.5-.63-.5h-.66v1.73h.29Zm0-.24v-.51h.34c.17,0,.38,0,.38.24s-.19.27-.41.27Zm1.84.09a1.54,1.54,0,1,0-3.07,0,1.54,1.54,0,1,0,3.07,0Zm-.34,0a1.2,1.2,0,1,1-1.19-1.29A1.21,1.21,0,0,1,130.34,91Z" transform="translate(-14.78 -18.6)"/><path class="cls-1" d="M47.94,68.81H72.33A1.93,1.93,0,0,1,73,69a1.74,1.74,0,0,1,.41.44l3.23,5.38a1.7,1.7,0,0,0,.53.49,1.76,1.76,0,0,0,.6.07h37.86a6.82,6.82,0,0,1,2.44.47,6.74,6.74,0,0,1,1.67,1.62l2.36,3.91s.44,1,0,1.58a1.5,1.5,0,0,1-1.25.68H80.77a2.65,2.65,0,0,1-.91-.19,2.48,2.48,0,0,1-.66-.69l-4-6.64a1.85,1.85,0,0,0-.47-.59,1.78,1.78,0,0,0-.87-.15H44.65s-.77.08-1-.28a.89.89,0,0,1,.1-.91l2.9-4.6a2.06,2.06,0,0,1,.55-.63A2.09,2.09,0,0,1,47.94,68.81Z" transform="translate(-14.78 -18.6)"/><path class="cls-1" d="M63.52,44.05H72.2a1.93,1.93,0,0,1,.71.18,1.86,1.86,0,0,1,.42.44L76.56,50a1.07,1.07,0,0,0,1.12.56h22a6.68,6.68,0,0,1,2.44.48,6.59,6.59,0,0,1,1.67,1.61l2,3.25a2.44,2.44,0,0,1,.06,2.17,2.35,2.35,0,0,1-1.79.75H80.65a2.46,2.46,0,0,1-.92-.19,2.65,2.65,0,0,1-.66-.69l-4-6.64a1.85,1.85,0,0,0-.47-.59,1.81,1.81,0,0,0-.88-.15H60.23s-.78.08-1-.27a.93.93,0,0,1,.11-.92l2.9-4.6a1.83,1.83,0,0,1,.55-.62A1.86,1.86,0,0,1,63.52,44.05Z" transform="translate(-14.78 -18.6)"/><path class="cls-1" d="M80.21,18.6c1.77,0,3.05,2.1,3.05,2.1L97.65,43a2.48,2.48,0,0,1,.23,2.31,2.4,2.4,0,0,1-1.85,1H80.39a2.84,2.84,0,0,1-.85-.21,2.65,2.65,0,0,1-.6-.59l-4-6.55a2.81,2.81,0,0,0-.66-.58,2.78,2.78,0,0,0-1-.2h-4.7s-1.06.08-1.32-.49.34-1.43.34-1.43L77,20.92S78.13,18.6,80.21,18.6Z" transform="translate(-14.78 -18.6)"/><path class="cls-1" d="M55.77,56.41H72.33a1.93,1.93,0,0,1,.71.18,1.74,1.74,0,0,1,.41.44l3.23,5.38a1.7,1.7,0,0,0,.53.49,1.76,1.76,0,0,0,.6.07h29.78a6.76,6.76,0,0,1,2.45.48,6.59,6.59,0,0,1,1.67,1.61l2,3.25a2.42,2.42,0,0,1,0,2.17,2.32,2.32,0,0,1-1.78.75H80.77a2.65,2.65,0,0,1-.91-.19,2.48,2.48,0,0,1-.66-.69l-4-6.64a1.85,1.85,0,0,0-.47-.59,1.78,1.78,0,0,0-.87-.15H52.48s-.77.08-1-.28a.89.89,0,0,1,.1-.91l2.9-4.6a1.24,1.24,0,0,1,1.27-.77Z" transform="translate(-14.78 -18.6)"/><path class="cls-1" d="M15.36,120.46H19v.6h-3v1.69h2.76v.59H16.07v1.84h3v.6H15.36Z" transform="translate(-14.78 -18.6)"/><path class="cls-1" d="M20.64,120.46h.75l2.8,4.31h0v-4.31h.67v5.32h-.77l-2.78-4.27h0v4.27h-.67Z" transform="translate(-14.78 -18.6)"/><path class="cls-1" d="M28.86,125.78h-.8l-1.88-5.32H27l1.52,4.61h0L30,120.46h.73Z" transform="translate(-14.78 -18.6)"/><path class="cls-1" d="M32.09,120.46h.71v5.32h-.71Z" transform="translate(-14.78 -18.6)"/><path class="cls-1" d="M34.73,120.46h2.51c1,0,1.61.54,1.61,1.39a1.26,1.26,0,0,1-.92,1.35v0c.62.11.74.58.79,1.09a2.69,2.69,0,0,0,.32,1.47h-.79c-.2-.22-.09-.79-.2-1.31s-.2-1-.88-1H35.44v2.27h-.71Zm2.19,2.45c.65,0,1.22-.17,1.22-1a.83.83,0,0,0-.94-.9H35.44v1.85Z" transform="translate(-14.78 -18.6)"/><path class="cls-1" d="M42.82,120.33a2.8,2.8,0,1,1-2.54,2.79A2.55,2.55,0,0,1,42.82,120.33Zm0,5c1.3,0,1.84-1.12,1.84-2.19s-.54-2.19-1.84-2.19S41,122.05,41,123.12,41.53,125.31,42.82,125.31Z" transform="translate(-14.78 -18.6)"/><path class="cls-1" d="M47,120.46h.75l2.8,4.31h0v-4.31h.67v5.32h-.78l-2.77-4.27h0v4.27H47Z" transform="translate(-14.78 -18.6)"/><path class="cls-1" d="M53.11,120.46h1l1.67,4.47,1.69-4.47h1v5.32h-.68v-4.43h0l-1.66,4.43h-.6l-1.66-4.43h0v4.43h-.67Z" transform="translate(-14.78 -18.6)"/><path class="cls-1" d="M60.32,120.46H64v.6H61v1.69h2.76v.59H61v1.84h3v.6h-3.7Z" transform="translate(-14.78 -18.6)"/><path class="cls-1" d="M65.61,120.46h.75l2.8,4.31h0v-4.31h.67v5.32h-.78l-2.78-4.27h0v4.27h-.67Z" transform="translate(-14.78 -18.6)"/><path class="cls-1" d="M72.94,121.06H71.17v-.6h4.25v.6H73.65v4.72h-.71Z" transform="translate(-14.78 -18.6)"/><path class="cls-1" d="M77.62,120.46h.78l2.07,5.32h-.78l-.58-1.6H76.86l-.59,1.6h-.73Zm1.27,3.12L78,121.1h0l-.9,2.48Z" transform="translate(-14.78 -18.6)"/><path class="cls-1" d="M81.74,120.46h.71v4.72h2.81v.6H81.74Z" transform="translate(-14.78 -18.6)"/><path class="cls-1" d="M90.64,121.06H88.87v-.6h4.25v.6H91.35v4.72h-.71Z" transform="translate(-14.78 -18.6)"/><path class="cls-1" d="M94.45,120.46h3.67v.6h-3v1.69h2.76v.59H95.16v1.84h3v.6h-3.7Z" transform="translate(-14.78 -18.6)"/><path class="cls-1" d="M102,120.33a2,2,0,0,1,2.19,1.73h-.71a1.39,1.39,0,0,0-1.49-1.13c-1.26,0-1.8,1-1.8,2.15s.54,2.23,1.81,2.23a1.52,1.52,0,0,0,1.54-1.54h.7a2.15,2.15,0,0,1-2.3,2.13c-1.64,0-2.46-1.22-2.46-2.77A2.52,2.52,0,0,1,102,120.33Z" transform="translate(-14.78 -18.6)"/><path class="cls-1" d="M105.86,120.46h.71v2.29h2.8v-2.29h.71v5.32h-.71v-2.44h-2.8v2.44h-.71Z" transform="translate(-14.78 -18.6)"/><path class="cls-1" d="M112,120.46h.76l2.8,4.31h0v-4.31h.67v5.32h-.77l-2.78-4.27h0v4.27H112Z" transform="translate(-14.78 -18.6)"/><path class="cls-1" d="M120.35,120.33a2.8,2.8,0,1,1-2.55,2.79A2.55,2.55,0,0,1,120.35,120.33Zm0,5a2.22,2.22,0,0,0,0-4.38c-1.3,0-1.84,1.12-1.84,2.19S119.05,125.31,120.35,125.31Z" transform="translate(-14.78 -18.6)"/><path class="cls-1" d="M124.5,120.46h.71v4.72H128v.6H124.5Z" transform="translate(-14.78 -18.6)"/><path class="cls-1" d="M131.36,120.33a2.8,2.8,0,1,1-2.54,2.79A2.56,2.56,0,0,1,131.36,120.33Zm0,5c1.3,0,1.84-1.12,1.84-2.19s-.54-2.19-1.84-2.19-1.83,1.12-1.83,2.19S130.07,125.31,131.36,125.31Z" transform="translate(-14.78 -18.6)"/><path class="cls-1" d="M137.79,120.33a2.06,2.06,0,0,1,2.28,1.77h-.7a1.44,1.44,0,0,0-1.58-1.17c-1.29,0-1.83,1.12-1.83,2.26a1.91,1.91,0,0,0,1.83,2.12,1.6,1.6,0,0,0,1.7-1.74H137.8V123h2.33v2.8h-.45l-.19-.67a2.08,2.08,0,0,1-1.7.79,2.54,2.54,0,0,1-2.53-2.68C135.26,121.67,136.11,120.33,137.79,120.33Z" transform="translate(-14.78 -18.6)"/><path class="cls-1" d="M143.75,123.6v2.18H143V123.6l-2-3.14h.84l1.59,2.53,1.56-2.53h.8Z" transform="translate(-14.78 -18.6)"/></g></svg>