<?xml version="1.0" encoding="utf-8"?>
<!-- Generator: Adobe Illustrator 25.2.1, SVG Export Plug-In . SVG Version: 6.00 Build 0)  -->
<!DOCTYPE svg PUBLIC "-//W3C//DTD SVG 1.1//EN" "http://www.w3.org/Graphics/SVG/1.1/DTD/svg11.dtd" [
	<!ENTITY ns_extend "http://ns.adobe.com/Extensibility/1.0/">
	<!ENTITY ns_ai "http://ns.adobe.com/AdobeIllustrator/10.0/">
	<!ENTITY ns_graphs "http://ns.adobe.com/Graphs/1.0/">
	<!ENTITY ns_vars "http://ns.adobe.com/Variables/1.0/">
	<!ENTITY ns_imrep "http://ns.adobe.com/ImageReplacement/1.0/">
	<!ENTITY ns_sfw "http://ns.adobe.com/SaveForWeb/1.0/">
	<!ENTITY ns_custom "http://ns.adobe.com/GenericCustomNamespace/1.0/">
	<!ENTITY ns_adobe_xpath "http://ns.adobe.com/XPath/1.0/">
]>
<svg version="1.1" xmlns:x="&ns_extend;" xmlns:i="&ns_ai;" xmlns:graph="&ns_graphs;"
	 xmlns="http://www.w3.org/2000/svg" xmlns:xlink="http://www.w3.org/1999/xlink" x="0px" y="0px" viewBox="0 0 166.4 138.6"
	 style="enable-background:new 0 0 166.4 138.6;" xml:space="preserve">
<style type="text/css">
	.st0{fill:#FFFFFF;}
</style>
<metadata>
	<sfw  xmlns="&ns_sfw;">
		<slices></slices>
		<sliceSourceBounds  bottomLeftOrigin="true" height="107.4" width="131.1" x="14.8" y="12.6"></sliceSourceBounds>
	</sfw>
</metadata>
<g id="Background">
</g>
<g id="Foreground">
	<g>
		<path class="st0" d="M145.6,113.6c0-0.1-0.1-0.2-0.2-0.2H15c-0.1,0-0.2,0.1-0.2,0.2s0.1,0.2,0.2,0.2h130.4
			C145.5,113.8,145.6,113.7,145.6,113.6z"/>
		<path class="st0" d="M35.5,105.9c0.7,0,1.4-0.3,1.9-0.8c0.4-0.4,0.7-1,0.7-1.6h5.4c0,0.6,0.3,1.2,0.7,1.6c0.5,0.5,1.1,0.7,1.8,0.7
			h10.8c1,0,1.9-0.6,2.3-1.6h0c0.4,1,1.3,1.7,2.5,1.7h9.7c2.2,0,4-1.3,4.8-3.2c0,0.2-0.1,0.4-0.1,0.7c0,1.4,1.2,2.5,2.7,2.5h9.6
			c2.2,0,4-1.1,4.8-2.7c0,0,0,0,0,0l0,0.1c0.1,1.5,1.2,2.6,2.6,2.6h5.9c1.2,0,2.2-0.8,2.5-1.9c0.3,1.1,1.3,1.9,2.5,1.9
			c1.4,0,2.6-1.1,2.8-2.4l5.2,0l0,0c0,0.6,0.2,1.2,0.6,1.6c0.5,0.5,1.1,0.8,1.9,0.8h10.7c1.5,0,2.6-1.2,2.6-2.6
			c0-1.4-1.2-2.6-2.6-2.6h-3.2v-8.8c0-1.4-1.2-2.5-2.6-2.5c-1.4,0-2.6,1.1-2.6,2.5l0,8.7l-0.6,0l-4.7-9.8c-0.5-0.8-1.4-1.4-2.3-1.4
			c-1,0-1.8,0.5-2.3,1.4l-5.4,11.9c-0.3-1.1-1.2-1.9-2.4-1.9l-3.3,0v-1h2.7c1.1,0,2-0.9,2-2c0-1.1-0.9-2-2-2h-2.6v-1l3.1,0
			c1.5,0,2.7-1.2,2.7-2.6c0-1.5-1.1-2.6-2.6-2.6H81.5c-3,0-5.5,2.4-5.5,5.5c0,3,2.4,5.5,5.5,5.5c0,0,0,0,0,0l6.1,0
			c0,0,0.4,0.1,0.4,0.3c0,0.2-0.4,0.3-0.4,0.3h-9c-0.8,0-1.5,0.2-1.9,0.6c-0.2,0.2-0.3,0.4-0.4,0.6c0.2-0.5,0.3-1.1,0.3-1.6
			c0-3-2.2-5.2-5.2-5.2h-6.8c-0.1-0.1-0.4-0.2-0.4-0.4c0-0.1,0.3-0.3,0.5-0.4h9.3c1.5,0,2.6-1.2,2.6-2.6c0-1.4-1.2-2.6-2.6-2.6h-9.5
			c-3,0-5.5,2.4-5.5,5.5c0,3,2.4,5.3,5.5,5.3h6.1c0,0,0.4,0.1,0.4,0.3c0,0.2-0.3,0.3-0.4,0.4h-9c-1,0-1.9,0.6-2.3,1.5
			c-0.4-1-1.4-1.8-2.5-1.8h-3.3v-1h2.7c1.1,0,2-0.9,2-2c0-1.1-0.9-2-2-2h-2.6v-1l3.3,0c1.4,0,2.6-1.1,2.6-2.6c0-1.4-1.1-2.6-2.5-2.6
			h-6c-1.5,0-2.6,1.2-2.6,2.6v9.5l-5.2-10.7c-0.5-0.9-1.5-1.5-2.5-1.5c-0.9,0-1.7,0.5-2.2,1.3l-5.5,12.1c0,0.2-0.1,0.4-0.1,0.6
			C32.9,104.7,34,105.9,35.5,105.9z M111.8,97.9l0.9,1.8l-1.8,0L111.8,97.9z M81.6,95.3c-0.1-0.1-0.4-0.2-0.4-0.3
			c0-0.1,0.1-0.2,0.2-0.3c0.1,0,0.2,0,0.2,0l11.5,0l0,3.3c-0.8-1.7-2.6-2.7-4.7-2.7H81.6z M40.8,97.7l0.9,2l-1.7,0L40.8,97.7z"/>
		<path class="st0" d="M128.8,91.1h0.3l0.4,0.7h0.3l-0.5-0.8c0.3,0,0.5-0.2,0.5-0.5c0-0.4-0.2-0.5-0.6-0.5h-0.7v1.7h0.3V91.1z
			 M128.8,90.4h0.3c0.2,0,0.4,0,0.4,0.2c0,0.3-0.2,0.3-0.4,0.3h-0.3V90.4z"/>
		<path class="st0" d="M129.1,92.6c0.8,0,1.5-0.6,1.5-1.6c0-0.9-0.7-1.6-1.5-1.6c-0.8,0-1.5,0.6-1.5,1.6
			C127.6,91.9,128.2,92.6,129.1,92.6z M129.1,89.7c0.7,0,1.2,0.5,1.2,1.3c0,0.8-0.5,1.3-1.2,1.3c-0.7,0-1.2-0.6-1.2-1.3
			C127.9,90.2,128.5,89.7,129.1,89.7z"/>
		<polygon class="st0" points="16,123.4 18.8,123.4 18.8,122.8 16,122.8 16,121.1 19,121.1 19,120.4 15.2,120.4 15.2,125.9 
			19,125.9 19,125.3 16,125.3 		"/>
		<polygon class="st0" points="32,123.4 34.8,123.4 34.8,122.8 32,122.8 32,121.1 35,121.1 35,120.4 31.3,120.4 31.3,125.9 
			35.1,125.9 35.1,125.3 32,125.3 		"/>
		<path class="st0" d="M28.1,120.4h-2.4v5.4h0.7v-2.2h1.7c1.1,0,1.7-0.6,1.7-1.6C29.8,121,29.2,120.4,28.1,120.4z M27.9,123h-1.4v-2
			h1.4c0.8,0,1.2,0.3,1.2,1C29.1,122.7,28.7,123.1,27.9,123z"/>
		<rect x="121.8" y="120.4" class="st0" width="0.7" height="5.4"/>
		<polygon class="st0" points="24.4,120.4 23.6,120.4 22.2,122.6 20.9,120.4 20,120.4 21.8,123.1 19.9,125.9 20.7,125.9 22.2,123.6 
			23.7,125.9 24.6,125.9 22.6,123.1 		"/>
		<path class="st0" d="M138.3,120.4l-2.1,5.4h0.7l0.6-1.6h2.3l0.6,1.6h0.8l-2.1-5.4H138.3z M137.7,123.6l0.9-2.5l0.9,2.5H137.7z"/>
		<polygon class="st0" points="143.1,125.3 143.1,120.4 142.3,120.4 142.3,125.9 145.9,125.9 145.9,125.3 		"/>
		<polygon class="st0" points="134.3,124.8 131.5,120.4 130.7,120.4 130.7,125.9 131.4,125.9 131.4,121.5 134.2,125.9 135,125.9 
			135,120.4 134.3,120.4 		"/>
		<path class="st0" d="M126.6,120.3c-1.7,0-2.6,1.4-2.6,2.8c0,1.5,0.9,2.8,2.6,2.8s2.6-1.4,2.6-2.8
			C129.2,121.7,128.3,120.3,126.6,120.3z M126.6,125.4c-1.3,0-1.9-1.1-1.9-2.2c0-1.1,0.6-2.2,1.9-2.2c1.3,0,1.9,1.1,1.9,2.2
			C128.5,124.3,127.9,125.4,126.6,125.4z"/>
		<path class="st0" d="M58.6,125.4c-1.3,0-1.8-1-1.8-2.3c0-1.1,0.5-2.2,1.8-2.2c0.8,0,1.4,0.4,1.5,1.2h0.7c-0.2-1.2-1.1-1.8-2.2-1.8
			c-1.7,0-2.6,1.3-2.6,2.9c0,1.6,0.8,2.8,2.5,2.8c1.4,0,2.2-0.8,2.3-2.2h-0.7C60.1,124.7,59.5,125.4,58.6,125.4z"/>
		<polygon class="st0" points="90.2,123.4 93,123.4 93,122.8 90.2,122.8 90.2,121.1 93.2,121.1 93.2,120.4 89.4,120.4 89.4,125.9 
			93.2,125.9 93.2,125.3 90.2,125.3 		"/>
		<polygon class="st0" points="106.7,123.4 109.5,123.4 109.5,122.8 106.7,122.8 106.7,121.1 109.7,121.1 109.7,120.4 106,120.4 
			106,125.9 109.7,125.9 109.7,125.3 106.7,125.3 		"/>
		<polygon class="st0" points="82.2,123.4 85,123.4 85,122.8 82.2,122.8 82.2,121.1 85.2,121.1 85.2,120.4 81.5,120.4 81.5,125.9 
			85.2,125.9 85.2,125.3 82.2,125.3 		"/>
		<polygon class="st0" points="116.2,121.1 118,121.1 118,125.9 118.7,125.9 118.7,121.1 120.5,121.1 120.5,120.4 116.2,120.4 		"/>
		<path class="st0" d="M102.2,125.4c-1.3,0-1.8-1-1.8-2.3c0-1.1,0.5-2.2,1.8-2.2c0.8,0,1.4,0.4,1.5,1.2h0.7
			c-0.2-1.2-1.1-1.8-2.2-1.8c-1.7,0-2.6,1.3-2.6,2.9c0,1.6,0.8,2.8,2.5,2.8c1.4,0,2.2-0.8,2.3-2.2h-0.7
			C103.7,124.7,103.1,125.4,102.2,125.4z"/>
		<path class="st0" d="M39.8,123.2c0.7-0.2,0.9-0.7,0.9-1.4c0-0.9-0.6-1.4-1.6-1.4h-2.6v5.4h0.7v-2.3H39c0.7,0,0.8,0.5,0.9,1
			c0.1,0.5,0,1.1,0.2,1.3h0.8c-0.3-0.4-0.3-1-0.3-1.5C40.6,123.9,40.4,123.4,39.8,123.2z M38.8,122.9h-1.5v-1.9h1.8
			c0.7,0,1,0.4,1,0.9C40,122.8,39.4,122.9,38.8,122.9z"/>
		<polygon class="st0" points="98.6,120.4 97.8,120.4 96.4,122.6 95.1,120.4 94.2,120.4 96,123.1 94.1,125.9 94.9,125.9 96.4,123.6 
			97.9,125.9 98.8,125.9 96.8,123.1 		"/>
		<polygon class="st0" points="78.9,122.8 76.1,122.8 76.1,120.4 75.4,120.4 75.4,125.9 76.1,125.9 76.1,123.4 78.9,123.4 
			78.9,125.9 79.7,125.9 79.7,120.4 78.9,120.4 		"/>
		<polygon class="st0" points="45.7,123.4 48.5,123.4 48.5,122.8 45.7,122.8 45.7,121.1 48.7,121.1 48.7,120.4 44.9,120.4 
			44.9,125.9 48.7,125.9 48.7,125.3 45.7,125.3 		"/>
		<polygon class="st0" points="53.8,124.8 51,120.4 50.2,120.4 50.2,125.9 50.9,125.9 50.9,121.5 53.7,125.9 54.5,125.9 54.5,120.4 
			53.8,120.4 		"/>
		<polygon class="st0" points="69.8,121.1 71.6,121.1 71.6,125.9 72.3,125.9 72.3,121.1 74.1,121.1 74.1,120.4 69.8,120.4 		"/>
		<rect x="42.4" y="120.4" class="st0" width="0.7" height="5.4"/>
		<polygon class="st0" points="63.1,123.4 65.9,123.4 65.9,122.8 63.1,122.8 63.1,121.1 66.1,121.1 66.1,120.4 62.4,120.4 
			62.4,125.9 66.2,125.9 66.2,125.3 63.1,125.3 		"/>
		<path class="st0" d="M113.6,120.4h-2.4v5.4h0.7v-2.2h1.7c1.1,0,1.7-0.6,1.7-1.6C115.3,121,114.7,120.4,113.6,120.4z M113.3,123
			h-1.4v-2h1.4c0.8,0,1.2,0.3,1.2,1C114.5,122.7,114.2,123.1,113.3,123z"/>
		<path class="st0" d="M44.6,75.4h29.2c0,0,0.6,0,0.9,0.1c0.2,0.2,0.5,0.6,0.5,0.6l4,6.6c0,0,0.3,0.5,0.7,0.7
			c0.3,0.2,0.9,0.2,0.9,0.2h40.1c0,0,0.6,0.1,1.2-0.7c0.4-0.5,0-1.6,0-1.6l-2.4-3.9c0,0-0.9-1.2-1.7-1.6c-0.9-0.5-2.4-0.5-2.4-0.5
			H77.8c0,0-0.4,0-0.6-0.1c-0.3-0.1-0.5-0.5-0.5-0.5l-3.2-5.4c0,0-0.2-0.3-0.4-0.4c-0.2-0.2-0.7-0.2-0.7-0.2H47.9c0,0-0.5,0-0.7,0.1
			c-0.3,0.2-0.5,0.6-0.5,0.6l-2.9,4.6c0,0-0.4,0.5-0.1,0.9C43.9,75.4,44.6,75.4,44.6,75.4z"/>
		<path class="st0" d="M60.2,50.6h13.5c0,0,0.6,0,0.9,0.1c0.2,0.2,0.5,0.6,0.5,0.6l4,6.6c0,0,0.3,0.5,0.7,0.7
			c0.3,0.2,0.9,0.2,0.9,0.2H104c0,0,1.3,0,1.8-0.8c0.6-0.9-0.1-2.2-0.1-2.2l-2-3.3c0,0-0.9-1.2-1.7-1.6c-0.9-0.5-2.4-0.5-2.4-0.5
			h-22c0,0-0.4,0-0.6-0.1c-0.3-0.1-0.5-0.5-0.5-0.5l-3.2-5.4c0,0-0.2-0.3-0.4-0.4c-0.2-0.2-0.7-0.2-0.7-0.2l-8.7,0
			c0,0-0.5,0-0.7,0.1c-0.3,0.2-0.5,0.6-0.5,0.6l-2.9,4.6c0,0-0.4,0.5-0.1,0.9C59.5,50.7,60.2,50.6,60.2,50.6z"/>
		<path class="st0" d="M68.6,38.2h4.7c0,0,0.7,0,1,0.2c0.3,0.2,0.7,0.6,0.7,0.6l4,6.5c0,0,0.3,0.4,0.6,0.6c0.3,0.2,0.8,0.2,0.8,0.2
			H96c0,0,1.4-0.1,1.9-1c0.6-1.1-0.2-2.3-0.2-2.3L83.3,20.7c0,0-1.3-2.1-3-2.1c-2.1,0-3.2,2.3-3.2,2.3l-9.4,15.3
			c0,0-0.7,0.8-0.3,1.4C67.5,38.3,68.6,38.2,68.6,38.2z"/>
		<path class="st0" d="M52.5,63h21.4c0,0,0.6,0,0.9,0.1c0.2,0.2,0.5,0.6,0.5,0.6l4,6.6c0,0,0.3,0.5,0.7,0.7c0.3,0.2,0.9,0.2,0.9,0.2
			h31.2c0,0,1.3,0,1.8-0.8c0.6-0.9-0.1-2.2-0.1-2.2l-2-3.3c0,0-0.9-1.2-1.7-1.6c-0.9-0.5-2.4-0.5-2.4-0.5H77.8c0,0-0.4,0-0.6-0.1
			c-0.3-0.1-0.5-0.5-0.5-0.5L73.5,57c0,0-0.2-0.3-0.4-0.4c-0.2-0.2-0.7-0.2-0.7-0.2H55.8c0,0-0.5,0-0.7,0.1
			c-0.3,0.2-0.5,0.6-0.5,0.6l-2.9,4.6c0,0-0.4,0.5-0.1,0.9C51.7,63,52.5,63,52.5,63z"/>
	</g>
</g>
<g id="Guides">
</g>
</svg>
