<?xml version="1.0" encoding="UTF-8"?><svg id="Guides" xmlns="http://www.w3.org/2000/svg" viewBox="0 0 130.87 107.35"><defs><style>.cls-1,.cls-2{fill:#1d1d1b;}.cls-2{fill-rule:evenodd;}</style></defs><path class="cls-1" d="M130.6,94.74H.25c-.14,0-.25,.11-.25,.25s.11,.25,.25,.25H130.6c.14,0,.25-.11,.25-.25s-.11-.25-.25-.25Z"/><path class="cls-1" d="M56.59,76.75h-6.77c-.3,0-.43-.22-.43-.36,0-.13,.08-.36,.46-.36h9.27c1.46,0,2.65-1.16,2.65-2.59s-1.19-2.58-2.65-2.58h-9.45c-3.01,0-5.46,2.45-5.46,5.46s2.4,5.3,5.46,5.3h6.13c.2,0,.41,.07,.41,.35,0,.2-.24,.33-.42,.33h-8.97c-1.03,0-1.93,.57-2.34,1.47-.36-1.03-1.36-1.76-2.46-1.76h-3.25v-1.02h2.66c1.1,0,2-.9,2-2.01s-.91-2.01-2.03-2.01h-2.63v-.96l3.28-.02c1.44,0,2.61-1.15,2.61-2.56s-1.14-2.59-2.54-2.59h-5.96c-1.46,0-2.64,1.18-2.64,2.63v9.51l-5.17-10.72c-.47-.88-1.48-1.46-2.5-1.46-.89,0-1.74,.48-2.23,1.26l-5.46,12.06c-.05,.22-.07,.42-.07,.59,0,1.43,1.16,2.59,2.59,2.59,.72,0,1.42-.29,1.92-.79,.44-.44,.69-1,.71-1.6h5.45c.02,.62,.25,1.19,.67,1.61,.46,.47,1.12,.72,1.84,.72h10.8c1.02,0,1.93-.61,2.33-1.56h0c.36,1.02,1.35,1.7,2.47,1.7h9.66c2.96,0,5.28-2.38,5.28-5.42s-2.19-5.19-5.22-5.19Zm-29.68,4.29h-1.75l.83-1.98,.91,1.98Z"/><path class="cls-1" d="M113.23,82.1h-3.25v-8.78c0-1.42-1.15-2.53-2.63-2.53s-2.58,1.11-2.58,2.53l-.05,8.71h-.65l-4.75-9.85c-.47-.85-1.37-1.39-2.29-1.39s-1.83,.52-2.28,1.36l-5.38,11.85c-.29-1.13-1.24-1.94-2.43-1.94h-3.31v-1h2.65c1.11,0,2.01-.9,2.01-2.01s-.9-2.01-2.01-2.01h-2.65v-1h3.15c1.48,.01,2.68-1.16,2.68-2.61s-1.14-2.63-2.59-2.63h-20.17c-3.01,0-5.46,2.45-5.46,5.46,0,3.01,2.45,5.46,5.45,5.46h6.13c.15,0,.41,.05,.41,.29s-.25,.31-.41,.31h-8.98c-.83-.02-1.46,.19-1.91,.62-.44,.43-.67,1.07-.67,1.84,0,1.39,1.21,2.52,2.69,2.52h9.59c2.2,0,4.05-1.08,4.79-2.73v.11c.06,1.45,1.21,2.59,2.61,2.59h5.86c1.22,0,2.25-.82,2.55-1.92,.29,1.11,1.3,1.94,2.5,1.94,1.36,0,2.59-1.06,2.79-2.39h5.26c-.02,.62,.19,1.18,.6,1.61,.47,.49,1.14,.76,1.9,.76h10.75c1.46,0,2.65-1.16,2.65-2.58s-1.16-2.61-2.58-2.61Zm-15.25-1.01h-1.77l.83-1.79,.94,1.79Zm-19.63-1.73c-.82-1.67-2.56-2.66-4.73-2.66h-6.77c-.23-.01-.35-.15-.35-.34,0-.17,.09-.3,.35-.3h11.49l.02,3.29Z"/><path class="cls-2" d="M114.06,72.54h.27l.45,.74h.32l-.48-.76c.26-.03,.45-.16,.45-.47,0-.35-.21-.5-.63-.5h-.66v1.73h.28v-.74Zm0-.24v-.51h.34c.17,0,.38,.03,.38,.23,0,.25-.19,.27-.4,.27h-.32Zm1.84,.09c0-.94-.71-1.56-1.53-1.57-.83,0-1.54,.62-1.54,1.57,0,.89,.64,1.56,1.54,1.56,.82,0,1.53-.62,1.53-1.56Zm-.33,0c0,.77-.53,1.29-1.2,1.29-.75,0-1.21-.58-1.21-1.29,0-.76,.53-1.29,1.21-1.29s1.2,.53,1.2,1.29Z"/><path class="cls-1" d="M33.16,50.21h24.39s.47,.02,.71,.18c.2,.12,.41,.44,.41,.44l3.23,5.38s.27,.38,.53,.49c.21,.09,.59,.07,.59,.07h37.86s1.59,.02,2.45,.47c.8,.43,1.67,1.61,1.67,1.61l2.36,3.91s.45,1.05,.02,1.58c-.6,.76-1.25,.68-1.25,.68h-40.14s-.6-.02-.92-.2c-.32-.18-.66-.68-.66-.68l-4.01-6.64s-.22-.43-.47-.59c-.29-.19-.88-.15-.88-.15H29.87s-.77,.08-.98-.28c-.25-.42,.1-.91,.1-.91l2.9-4.6s.26-.47,.55-.62c.25-.14,.72-.14,.72-.14Z"/><path class="cls-1" d="M48.74,25.45h8.68s.47,.02,.71,.17c.2,.12,.41,.44,.41,.44l3.23,5.38s.27,.38,.53,.49c.21,.09,.59,.07,.59,.07h21.98s1.59,.02,2.44,.47c.8,.43,1.67,1.61,1.67,1.61l1.96,3.26s.65,1.24,.05,2.17c-.5,.77-1.78,.75-1.78,.75h-23.35s-.6-.02-.92-.2c-.32-.18-.66-.68-.66-.68l-4.01-6.64s-.22-.43-.47-.59c-.29-.19-.88-.15-.88-.15h-13.5s-.77,.08-.98-.28c-.25-.42,.1-.91,.1-.91l2.9-4.6s.26-.47,.55-.62c.25-.14,.72-.14,.72-.14Z"/><path class="cls-1" d="M65.43,0c1.77,0,3.05,2.1,3.05,2.1l14.39,22.28s.81,1.19,.23,2.31c-.49,.96-1.85,1.03-1.85,1.03h-15.64s-.55-.04-.85-.21c-.29-.16-.6-.59-.6-.59l-4.01-6.54s-.35-.42-.65-.58c-.36-.19-1.01-.2-1.01-.2h-4.71s-1.05,.09-1.32-.49c-.31-.67,.35-1.43,.35-1.43L62.23,2.32S63.36,0,65.43,0Z"/><path class="cls-1" d="M40.99,37.81h16.56s.47,.02,.71,.18c.2,.12,.41,.44,.41,.44l3.23,5.38s.27,.38,.53,.49c.21,.09,.59,.07,.59,.07h29.79s1.59,.02,2.45,.47c.8,.43,1.67,1.61,1.67,1.61l1.96,3.26s.65,1.24,.05,2.17c-.5,.78-1.78,.75-1.78,.75h-31.17s-.6-.02-.92-.2c-.32-.18-.66-.68-.66-.68l-4.01-6.64s-.22-.44-.47-.59c-.29-.19-.88-.15-.88-.15h-21.37s-.77,.08-.98-.28c-.25-.42,.1-.91,.1-.91l2.9-4.6s.26-.47,.54-.62c.25-.14,.72-.14,.72-.14Z"/><g><path class="cls-1" d="M.2,101.72h3.8v.62H.94v1.75H3.79v.62H.94v1.9h3.09v.62H.2v-5.5Z"/><path class="cls-1" d="M5.48,101.72h.78l2.9,4.46h.02v-4.46h.69v5.5h-.8l-2.87-4.42h-.02v4.42h-.69v-5.5Z"/><path class="cls-1" d="M13.8,107.22h-.83l-1.94-5.5h.79l1.57,4.77h.02l1.59-4.77h.76l-1.96,5.5Z"/><path class="cls-1" d="M16.96,101.72h.73v5.5h-.73v-5.5Z"/><path class="cls-1" d="M19.51,101.72h2.59c1.04,0,1.67,.55,1.67,1.44,0,.67-.29,1.21-.96,1.39v.02c.64,.12,.76,.6,.82,1.13,.04,.53,.02,1.15,.32,1.52h-.82c-.21-.22-.09-.82-.2-1.36-.08-.53-.21-.99-.92-.99h-1.79v2.35h-.73v-5.5Zm2.26,2.54c.68,0,1.27-.18,1.27-.98,0-.55-.29-.94-.98-.94h-1.82v1.92h1.53Z"/><path class="cls-1" d="M27.69,101.58c1.75,0,2.64,1.38,2.64,2.88s-.89,2.88-2.64,2.88-2.64-1.38-2.64-2.88,.89-2.88,2.64-2.88Zm0,5.15c1.34,0,1.9-1.16,1.9-2.27s-.56-2.27-1.9-2.27-1.9,1.16-1.9,2.27,.56,2.27,1.9,2.27Z"/><path class="cls-1" d="M31.8,101.72h.78l2.9,4.46h.02v-4.46h.69v5.5h-.8l-2.87-4.42h-.02v4.42h-.69v-5.5Z"/><path class="cls-1" d="M37.96,101.72h1l1.73,4.62,1.74-4.62h1v5.5h-.69v-4.58h-.02l-1.72,4.58h-.62l-1.72-4.58h-.02v4.58h-.69v-5.5Z"/><path class="cls-1" d="M45.24,101.72h3.8v.62h-3.07v1.75h2.86v.62h-2.86v1.9h3.09v.62h-3.82v-5.5Z"/><path class="cls-1" d="M50.52,101.72h.78l2.9,4.46h.02v-4.46h.69v5.5h-.8l-2.87-4.42h-.02v4.42h-.69v-5.5Z"/><path class="cls-1" d="M57.92,102.33h-1.83v-.62h4.4v.62h-1.83v4.89h-.73v-4.89Z"/><path class="cls-1" d="M62.57,101.72h.81l2.15,5.5h-.81l-.6-1.66h-2.33l-.62,1.66h-.75l2.15-5.5Zm1.32,3.23l-.92-2.57h-.02l-.93,2.57h1.86Z"/><path class="cls-1" d="M66.65,101.72h.73v4.89h2.91v.62h-3.64v-5.5Z"/><path class="cls-1" d="M75.49,102.33h-1.83v-.62h4.4v.62h-1.83v4.89h-.73v-4.89Z"/><path class="cls-1" d="M79.25,101.72h3.8v.62h-3.07v1.75h2.86v.62h-2.86v1.9h3.09v.62h-3.82v-5.5Z"/><path class="cls-1" d="M86.87,101.58c1.15,0,2.1,.62,2.27,1.79h-.73c-.16-.78-.77-1.17-1.54-1.17-1.31,0-1.86,1.08-1.86,2.23,0,1.26,.55,2.3,1.87,2.3,.96,0,1.53-.68,1.59-1.59h.73c-.15,1.38-.99,2.2-2.38,2.2-1.7,0-2.54-1.26-2.54-2.87s.91-2.9,2.6-2.9Z"/><path class="cls-1" d="M90.68,101.72h.73v2.37h2.9v-2.37h.73v5.5h-.73v-2.52h-2.9v2.52h-.73v-5.5Z"/><path class="cls-1" d="M96.82,101.72h.78l2.9,4.46h.02v-4.46h.69v5.5h-.8l-2.87-4.42h-.02v4.42h-.69v-5.5Z"/><path class="cls-1" d="M105.3,101.58c1.75,0,2.64,1.38,2.64,2.88s-.89,2.88-2.64,2.88-2.63-1.38-2.63-2.88,.89-2.88,2.63-2.88Zm0,5.15c1.34,0,1.9-1.16,1.9-2.27s-.56-2.27-1.9-2.27-1.9,1.16-1.9,2.27,.56,2.27,1.9,2.27Z"/><path class="cls-1" d="M109.41,101.72h.73v4.89h2.91v.62h-3.65v-5.5Z"/><path class="cls-1" d="M116.33,101.58c1.75,0,2.64,1.38,2.64,2.88s-.89,2.88-2.64,2.88-2.63-1.38-2.63-2.88,.89-2.88,2.63-2.88Zm0,5.15c1.34,0,1.9-1.16,1.9-2.27s-.56-2.27-1.9-2.27-1.9,1.16-1.9,2.27,.56,2.27,1.9,2.27Z"/><path class="cls-1" d="M122.79,101.58c1.19,0,2.17,.54,2.37,1.83h-.73c-.15-.83-.81-1.21-1.63-1.21-1.33,0-1.89,1.16-1.89,2.33s.66,2.2,1.89,2.2c1.14,0,1.8-.79,1.76-1.8h-1.76v-.62h2.41v2.9h-.46l-.19-.69c-.43,.57-1.12,.82-1.76,.82-1.64,0-2.62-1.33-2.62-2.77,0-1.6,.88-2.99,2.62-2.99Z"/><path class="cls-1" d="M128.77,104.97v2.25h-.73v-2.25l-2.13-3.25h.87l1.65,2.62,1.61-2.62h.83l-2.1,3.25Z"/></g></svg>