<svg id="Layer_1" data-name="Layer 1" xmlns="http://www.w3.org/2000/svg" viewBox="0 0 311.93217 255.45427">
  <defs>
    <style>
      .cls-1, .cls-2 {
        fill: #fff;
      }

      .cls-2 {
        fill-rule: evenodd;
      }
    </style>
  </defs>
  <g>
    <path class="cls-1" d="M374.13769,288.61437H64.10328a.59461.59461,0,0,0,0,1.18922H374.13769a.59461.59461,0,0,0,0-1.18922Z" transform="translate(-63.50867 -63.29027)"/>
    <path class="cls-2" d="M334.791,235.83091h.63648l1.06626,1.76077h.764l-1.15189-1.80952a1.05313,1.05313,0,0,0,1.07292-1.12406c0-.83626-.50613-1.1847-1.5027-1.1847h-1.56074v4.11828h.67571Zm0-.57606v-1.20539h.81534c.40885,0,.89667.06041.89667.55751,0,.597-.44834.64788-.95471.64788Zm4.37849.20907a3.6531,3.6531,0,1,0-3.64212,3.72108A3.60851,3.60851,0,0,0,339.16952,235.46392Zm-.79678,0a2.86362,2.86362,0,1,1-2.84534-3.07509A2.87846,2.87846,0,0,1,338.37274,235.46392Z" transform="translate(-63.50867 -63.29027)"/>
    <path class="cls-1" d="M366.88866,318.438V305.52822h1.71866v11.46269h6.83352v1.447Zm-302.28828,0V305.52822H73.515v1.44705H66.31928v4.10425h6.70794v1.447H66.31928v4.46435h7.249v1.447Zm11.07476,0,4.50145-6.63611-4.25076-6.27363h2.06259l3.21709,5.04492,3.36312-5.04492H86.485l-4.2667,6.27363,4.53856,6.63611H84.65925l-3.47015-5.333-3.58147,5.333Zm13.92914,0V305.52822h5.65809c2.58514,0,3.96035,1.41232,3.96035,3.81622,0,2.40413-1.37521,3.83263-3.96035,3.81384H91.32081V318.438Zm1.71653-11.46269v4.73834h3.36336c1.95342.01641,2.81965-.83388,2.81965-2.36917,0-1.53767-.86623-2.36917-2.81965-2.36917ZM102.774,318.438V305.52822h8.91466v1.44705h-7.19575v4.10425h6.70555v1.447h-6.70555v4.46435h7.249v1.447Zm12.50326,0V305.52822h6.07384c2.441,0,3.923,1.30315,3.923,3.38191a3.0667,3.0667,0,0,1-2.24145,3.27275c1.50056.32513,1.79073,1.447,1.93486,2.6943.09062,1.24726.03473,2.69193.75944,3.56078h-1.91608c-.49019-.52493-.21834-1.91632-.47164-3.18213-.19741-1.24726-.48782-2.33207-2.15083-2.33207h-4.19487v5.5142Zm1.71629-6.96124h3.57933c1.59118,0,2.98233-.41576,2.98233-2.29473a2.03337,2.03337,0,0,0-2.29472-2.20672h-4.26694Zm12.1943,6.96124V305.52822h1.71653V318.438Zm6.06457,0V305.52822h8.91465v1.44705H136.9713v4.10425h6.70793v1.447H136.9713v4.46435h7.249v1.447Zm12.48447,0V305.52822h1.82569l6.79856,10.4685.035-10.4685h1.62805V318.438h-1.88136l-6.74289-10.35933-.03473,10.35933Zm13.89227-6.41777c0-3.76032,2.13442-6.79855,6.11332-6.79855,2.69193,0,4.93576,1.44705,5.31417,4.19487H171.338a3.39884,3.39884,0,0,0-3.61405-2.74782c-3.07533,0-4.37611,2.53185-4.37611,5.22378,0,2.94761,1.30078,5.4074,4.39466,5.4074a3.65161,3.65161,0,0,0,3.72322-3.7256h1.71653c-.34393,3.23778-2.31352,5.17027-5.58626,5.17027C163.60111,318.74454,161.62914,315.78076,161.62914,312.02019Zm15.14167,6.41777V305.52822h8.91442v1.44705h-7.19575v4.10425h6.70793v1.447h-6.70793v4.46435h7.24926v1.447Zm21.9124,0V306.97527h-4.304v-1.44705h10.32436v1.44705h-4.304V318.438Zm8.90276,0V305.52822h1.71891v5.5513h6.79617v-5.5513H217.82V318.438h-1.71891v-5.9114h-6.79617v5.9114Zm14.51,0V305.52822h8.91228v1.44705h-7.19576v4.10425h6.70794v1.447h-6.70794v4.46435h7.25141v1.447Zm18.9812,0V305.52822h8.91442v1.44705h-7.19576v4.10425h6.70794v1.447h-6.70794v4.46435h7.24927v1.447Zm11.07452,0,4.50145-6.63611-4.24814-6.27363h2.06021l3.21923,5.04492,3.361-5.04492h1.91846l-4.26908,6.27363,4.53855,6.63611H261.136l-3.47015-5.333-3.57933,5.333Zm13.07908-6.41777c0-3.76032,2.13466-6.79855,6.11118-6.79855,2.69431,0,4.93576,1.44705,5.31654,4.19487h-1.71866a3.39894,3.39894,0,0,0-3.61429-2.74782c-3.07509,0-4.37587,2.53185-4.37587,5.22378,0,2.94761,1.30078,5.4074,4.39228,5.4074a3.65471,3.65471,0,0,0,3.7256-3.7256H276.784c-.34393,3.23778-2.31352,5.17027-5.58626,5.17027C267.2027,318.74454,265.23073,315.78076,265.23073,312.02019Zm15.14191,6.41777V305.52822h8.912v1.44705h-7.19575v4.10425h6.70794v1.447h-6.70794v4.46435h7.25164v1.447Zm12.50064,0V305.52822h5.66047c2.58513,0,3.958,1.41232,3.958,3.81622,0,2.40413-1.37284,3.83263-3.958,3.81384h-3.94157V318.438Zm1.7189-11.46269v4.73834h3.36313c1.951.01641,2.81989-.83388,2.81989-2.36917,0-1.53767-.86885-2.36917-2.81989-2.36917Zm14.382,11.46269V306.97527h-4.3038v-1.44705h10.32436v1.44705h-4.304V318.438Zm8.97507,0V305.52822h1.71867V318.438Zm5.34224-6.45487c0-3.52581,2.07876-6.76145,6.183-6.76145s6.183,3.23564,6.183,6.76145-2.07876,6.76145-6.183,6.76145S323.29149,315.5089,323.29149,311.98309Zm1.71652,0c0,2.60368,1.32146,5.31678,4.46648,5.31678,3.14716,0,4.46649-2.7131,4.46649-5.31678s-1.31933-5.3144-4.46649-5.3144C326.32947,306.66869,325.008,309.3794,325.008,311.98309Zm14.18458,6.45487V305.52822h1.8257l6.79855,10.4685.03472-10.4685h1.62829V318.438H347.5985l-6.7429-10.35933-.03473,10.35933Zm12.9887,0,5.04492-12.90974h1.89753l5.04492,12.90974H362.2709l-1.4097-3.88591h-5.46067l-1.44706,3.88591Zm3.76032-5.333h4.37611l-2.15083-6.02056Z" transform="translate(-63.50867 -63.29027)"/>
    <path class="cls-1" d="M142.38322,182.719h58.00462a2.82381,2.82381,0,0,1,2.68051,1.45846l7.67882,12.80176a2.538,2.538,0,0,0,2.67575,1.33549H303.474s3.77911.04186,5.81625,1.12881a15.95918,15.95918,0,0,1,3.9625,3.83026l5.61147,9.3s1.05937,2.48762.04424,3.76508a3.58783,3.58783,0,0,1-2.96379,1.62591H220.4793a3.82139,3.82139,0,0,1-3.74653-2.09279l-9.52759-15.7967a2.72193,2.72193,0,0,0-3.19615-1.76053H134.55551s-1.83473.17886-2.33659-.6574a2.15876,2.15876,0,0,1,.244-2.17176l6.90773-10.95156a2.88278,2.88278,0,0,1,3.01254-1.815Z" transform="translate(-63.50867 -63.29027)"/>
    <path class="cls-1" d="M179.43253,123.81057l20.65586-.00119a2.82139,2.82139,0,0,1,2.68028,1.45989l7.67881,12.80032a2.53375,2.53375,0,0,0,2.67576,1.3355H265.391s3.77673.03948,5.81387,1.12881a15.95918,15.95918,0,0,1,3.9625,3.83026l4.67317,7.74612s1.5517,2.95094.12558,5.14958c-1.1985,1.84306-4.23911,1.79525-4.23911,1.79525H220.17961a3.81674,3.81674,0,0,1-3.74653-2.09256l-9.52758-15.79669a2.72267,2.72267,0,0,0-3.1983-1.76077H171.60506s-1.835.17886-2.33659-.65716a2.16394,2.16394,0,0,1,.24379-2.17414L176.42,125.62461a2.87958,2.87958,0,0,1,3.01254-1.814Z" transform="translate(-63.50867 -63.29027)"/>
    <path class="cls-1" d="M219.139,63.29027c4.21342.00119,7.24927,4.9857,7.24927,4.9857l34.22491,52.98656s1.928,2.83607.55061,5.49541c-1.17543,2.274-4.40156,2.45741-4.40156,2.45741h-37.2051a3.89255,3.89255,0,0,1-3.44684-1.9068l-9.54162-15.5667a6.8151,6.8151,0,0,0-1.54932-1.37973,6.88527,6.88527,0,0,0-2.40176-.48426H191.42228s-2.50855.20788-3.14478-1.159c-.73875-1.59356.82437-3.40641.82437-3.40641l22.42567-36.49419S214.20115,63.29146,219.139,63.29027Z" transform="translate(-63.50867 -63.29027)"/>
    <path class="cls-1" d="M161.00646,153.22768h39.38138a2.82209,2.82209,0,0,1,2.68051,1.45846l7.67882,12.80057a2.533,2.533,0,0,0,2.67575,1.33668H284.27s3.77674.04068,5.816,1.12882a16.00168,16.00168,0,0,1,3.96035,3.82906l4.67317,7.74612s1.55384,2.95213.12559,5.15053c-1.19636,1.84425-4.23673,1.79549-4.23673,1.79549H220.4793a3.82139,3.82139,0,0,1-3.74653-2.09279l-9.52759-15.7967a2.719,2.719,0,0,0-3.19615-1.76053H153.18137s-1.83735.17886-2.33659-.6574a2.16144,2.16144,0,0,1,.24379-2.17295l6.90773-10.95037a2.87775,2.87775,0,0,1,3.01016-1.815Z" transform="translate(-63.50867 -63.29027)"/>
    <path class="cls-1" d="M237.04942,244.34734c0-6.76391-6.53253-12.26732-14.5622-12.26732L203.33,232.07963c-4.02947,0-7.23243,2.76311-7.23243,6.15945,0,3.35209,3.29137,6.08266,7.42869,6.08266l18.08515.00962c2.0126,0,1.99911,0,1.99911,1.16049,0,1.152-.027,1.152-1.99464,1.152,0,0-17.85952-.00089-18.08674-.00089-4.13167,0-7.43157,2.62013-7.43157,5.967v12.55774c0,3.34683,3.3381,5.967,7.46977,5.967,4.20966,0,7.50718-2.62013,7.50718-5.96488v-8.97257l12.32327,12.4847a8.54125,8.54125,0,0,0,10.44253.97554c3.18679-2.143,3.71088-5.98958,1.16833-8.5741l-5.969-6.06777C233.82364,253.08406,237.04942,249.08525,237.04942,244.34734Z" transform="translate(-63.50867 -63.29027)"/>
    <path class="cls-2" d="M179.56615,233.67831a6.39867,6.39867,0,0,0-5.33725-3.01472h-.51656a6.42734,6.42734,0,0,0-5.34678,3.01472l-13.4907,29.81029a6.68467,6.68467,0,0,0-.17581,1.41631,6.23962,6.23962,0,0,0,6.23356,6.22967,6.13941,6.13941,0,0,0,6.31343-5.8981h13.44007a6.15147,6.15147,0,0,0,6.32229,5.8981,6.24113,6.24113,0,0,0,6.24052-6.22967,6.68462,6.68462,0,0,0-.17563-1.41631Zm-7.81342,22.434,2.21831-5.294,2.21746,5.294Z" transform="translate(-63.50867 -63.29027)"/>
    <path class="cls-1" d="M321.85972,258.81492l-7.84307-.01087v-2.583h6.36761a4.80828,4.80828,0,1,0-.08171-9.6162h-6.2859v-2.3044l7.84307-.03968a6.16037,6.16037,0,1,0,.16328-12.31966H307.76577A6.30235,6.30235,0,0,0,301.452,238.219v26.63774a6.30235,6.30235,0,0,0,6.31377,6.27787H322.023a6.16037,6.16037,0,1,0-.16328-12.31966Z" transform="translate(-63.50867 -63.29027)"/>
    <path class="cls-1" d="M247.76169,231.83274a6.07633,6.07633,0,0,0-6.2151,6.00478v27.29227a6.23492,6.23492,0,0,0,12.46127.00216V237.83537A6.06279,6.06279,0,0,0,247.76169,231.83274Z" transform="translate(-63.50867 -63.29027)"/>
    <path class="cls-1" d="M298.00581,237.69951a6.23493,6.23493,0,0,0-12.46128.00215v18.94023l-6.04169-18.90454a9.16906,9.16906,0,0,0-4.07337-5.154,12.51257,12.51257,0,0,0-13.498.63384,8.5331,8.5331,0,0,0-3.46486,7.0154l-.00262,24.76136a6.23492,6.23492,0,0,0,12.46127.00216V246.37886l5.24243,16.93826a10.63378,10.63378,0,0,0,4.4629,5.9928,11.36162,11.36162,0,0,0,6.51382,1.82466,12.20669,12.20669,0,0,0,7.14341-2.13713,7.9178,7.9178,0,0,0,3.71527-6.75829Z" transform="translate(-63.50867 -63.29027)"/>
    <path class="cls-1" d="M151.34531,264.30032l-2.15558-24.8297c-.56928-6.53087-4.38665-8.06746-8.26019-8.06746-5.75367,0-7.4054,1.64631-8.602,6.09186l-3.19,11.85358h-.11426l-3.19-11.85358c-1.19665-4.44555-2.84919-6.09186-8.60287-6.09186-3.87354,0-7.69091,1.53659-8.26019,8.06746l-1.26766,14.94194-.87016,9.88776a5.9,5.9,0,1,0,11.77127.8215l1.077-17.25538h.11333l4.21622,16.84792c1.30992,5.32264,2.05057,6.42022,5.07013,6.42022,3.01875,0,3.75939-1.09758,5.07019-6.42022l4.21534-16.84792h.11421l1.094,17.25538a5.89992,5.89992,0,1,0,11.77121-.8215Z" transform="translate(-63.50867 -63.29027)"/>
  </g>
</svg>
