<?xml version="1.0" encoding="UTF-8"?><svg id="Layer_1" xmlns="http://www.w3.org/2000/svg" viewBox="0 0 311.22 255.24"><defs><style>.cls-1{fill:#fff;stroke-width:0px;}</style></defs><path class="cls-1" d="m272.02,175.89c1.95,0,3.64-1.48,3.64-3.72s-1.69-3.72-3.64-3.72c-1.97,0-3.66,1.48-3.66,3.72,0,2.12,1.52,3.72,3.66,3.72Zm0-6.8c1.59,0,2.85,1.26,2.85,3.08s-1.25,3.07-2.85,3.07c-1.77,0-2.87-1.38-2.87-3.07,0-1.81,1.25-3.08,2.87-3.08Z"/><path class="cls-1" d="m271.28,172.54h.64l1.07,1.76h.76l-1.15-1.81c.62-.07,1.07-.38,1.07-1.12,0-.84-.51-1.18-1.5-1.18h-1.56v4.12h.68v-1.76Zm0-1.78h.82c.41,0,.9.06.9.56,0,.6-.45.65-.95.65h-.76v-1.21Z"/><path class="cls-1" d="m71.05,135.02h69.45s1.39-.09,2.08.35c.59.38,1.11,1.41,1.11,1.41l9.53,15.8s.79,1.2,1.56,1.63c.76.42,2.18.46,2.18.46h95.47s1.53.18,2.96-1.63c1.02-1.28-.04-3.77-.04-3.77l-5.61-9.3s-2.07-2.82-3.96-3.83c-2.04-1.09-5.82-1.13-5.82-1.13h-90.05s-.9.05-1.41-.16c-.62-.26-1.27-1.17-1.27-1.17l-7.68-12.8s-.51-.75-.99-1.04c-.58-.36-1.69-.42-1.69-.42h-58s-1.12,0-1.71.34c-.67.37-1.3,1.48-1.3,1.48l-6.91,10.95s-.85,1.16-.24,2.17c.5.84,2.34.66,2.34.66Z"/><path class="cls-1" d="m108.1,76.11h32.1s1.39-.09,2.08.35c.59.38,1.11,1.41,1.11,1.41l9.53,15.8s.79,1.2,1.56,1.63c.76.42,2.19.46,2.19.46h55.55s3.04.05,4.24-1.8c1.43-2.2-.13-5.15-.13-5.15l-4.67-7.75s-2.07-2.82-3.96-3.83c-2.04-1.09-5.81-1.13-5.81-1.13h-52.27s-.9.05-1.41-.16c-.62-.26-1.27-1.17-1.27-1.17l-7.68-12.8s-.51-.75-.99-1.04c-.58-.36-1.69-.42-1.69-.42h-20.66s-1.12,0-1.71.34c-.67.37-1.3,1.48-1.3,1.48l-6.91,10.95s-.85,1.16-.24,2.17c.5.84,2.34.66,2.34.66Z"/><path class="cls-1" d="m127.91,46.59h11.2s1.56.04,2.4.48c.72.38,1.55,1.38,1.55,1.38l9.54,15.57s.75,1.02,1.43,1.4c.71.4,2.02.5,2.02.5h37.21s3.23-.18,4.4-2.46c1.38-2.66-.55-5.5-.55-5.5L162.88,4.99S159.84,0,155.63,0c-4.94,0-7.61,5.53-7.61,5.53l-22.43,36.49s-1.56,1.81-.82,3.41c.64,1.37,3.14,1.16,3.14,1.16Z"/><path class="cls-1" d="m89.67,105.53h50.83s1.39-.09,2.08.35c.59.38,1.11,1.41,1.11,1.41l9.53,15.8s.79,1.2,1.56,1.63c.76.42,2.18.46,2.18.46h74.13s3.04.05,4.24-1.8c1.43-2.2-.13-5.15-.13-5.15l-4.67-7.75s-2.07-2.82-3.96-3.83c-2.04-1.09-5.82-1.13-5.82-1.13h-70.85s-.9.05-1.41-.16c-.62-.26-1.27-1.17-1.27-1.17l-7.68-12.8s-.51-.75-.98-1.04c-.58-.36-1.7-.42-1.7-.42h-39.38s-1.11,0-1.71.34c-.67.37-1.3,1.48-1.3,1.48l-6.91,10.95s-.85,1.16-.24,2.17c.5.84,2.34.66,2.34.66Z"/><path class="cls-1" d="m173.54,181.06c0-6.76-6.53-12.27-14.56-12.27h-19.16c-4.03,0-7.23,2.76-7.23,6.16s3.29,6.08,7.43,6.08h18.09c2.01,0,2,0,2,1.17s-.03,1.15-1.99,1.15c0,0-17.86,0-18.09,0-4.13,0-7.43,2.62-7.43,5.97v12.56c0,3.35,3.34,5.97,7.47,5.97s7.51-2.62,7.51-5.96v-8.97l12.32,12.48c2.61,2.65,7.3,3.09,10.44.98,3.19-2.14,3.71-5.99,1.17-8.57l-5.97-6.07c4.78-1.93,8.01-5.93,8.01-10.67Z"/><path class="cls-1" d="m110.72,167.37h-.52c-2.23,0-4.24,1.26-5.35,3.01l-13.49,29.81c-.1.45-.18.94-.18,1.42,0,3.43,2.8,6.23,6.23,6.23s6.32-2.64,6.31-5.9h13.44c0,3.26,2.88,5.9,6.32,5.9s6.24-2.8,6.24-6.23c0-.48-.08-.97-.18-1.42l-13.51-29.81c-1.1-1.76-3.11-3.01-5.34-3.01Zm-2.48,25.45l2.22-5.29,2.22,5.29h-4.44Z"/><path class="cls-1" d="m237.94,174.93v26.64c0,3.46,2.83,6.28,6.31,6.28h14.26c3.35,0,6.08-2.78,6.08-6.2s-2.8-6.12-6.24-6.12h-7.84v-2.59h6.37c2.63,0,4.78-2.15,4.78-4.81s-2.18-4.81-4.86-4.81h-6.29v-2.3l7.84-.04c3.44,0,6.24-2.75,6.24-6.12s-2.73-6.2-6.08-6.2h-14.26c-3.48,0-6.31,2.82-6.31,6.28Z"/><path class="cls-1" d="m178.04,174.55v27.29c0,3.37,2.78,6,6.22,6s6.25-2.64,6.25-6v-27.3c0-3.37-2.74-6-6.25-6s-6.22,2.64-6.22,6Z"/><path class="cls-1" d="m222.04,174.41v18.94l-6.04-18.9c-.71-2.21-2.09-3.95-4.07-5.15-1.8-1.11-3.9-1.67-6.23-1.68-2.8,0-5.24.77-7.27,2.31-2.3,1.8-3.46,4.16-3.46,7.02v24.76c0,3.37,2.77,6,6.21,6s6.25-2.64,6.25-6v-18.62l5.24,16.94c.83,2.63,2.3,4.59,4.46,5.99,1.84,1.23,3.97,1.82,6.51,1.82,2.71,0,5.11-.72,7.14-2.14,2.43-1.65,3.72-3.98,3.72-6.76v-24.54c0-3.37-2.74-6-6.24-6s-6.22,2.64-6.22,6Z"/><path class="cls-1" d="m48.84,207.31c3.27.18,6.07-2.27,6.26-5.48l1.08-17.26h.11l4.22,16.85c1.31,5.32,2.05,6.42,5.07,6.42s3.76-1.1,5.07-6.42l4.22-16.85h.11l1.09,17.26c.18,3.21,2.99,5.66,6.26,5.48,3.23-.18,5.7-3.01,5.52-6.3l-2.16-24.83c-.57-6.53-4.39-8.07-8.26-8.07-5.75,0-7.41,1.65-8.6,6.09l-3.19,11.85h-.11l-3.19-11.85c-1.2-4.45-2.85-6.09-8.6-6.09-3.87,0-7.69,1.54-8.26,8.07l-1.27,14.94-.87,9.89c-.19,3.29,2.29,6.12,5.52,6.3Z"/><path class="cls-1" d="m310.58,226.44c.33,0,.59-.27.59-.59s-.27-.59-.59-.59H.59c-.33,0-.59.27-.59.59s.27.59.59.59h309.98Z"/><polygon class="cls-1" points="2.22 248.94 9.02 248.94 9.02 247.47 2.22 247.47 2.22 243.31 9.52 243.31 9.52 241.85 .48 241.85 .48 254.93 9.57 254.93 9.57 253.46 2.22 253.46 2.22 248.94"/><polygon class="cls-1" points="21.82 252.46 21.78 252.46 14.89 241.85 13.04 241.85 13.04 254.93 14.69 254.93 14.69 244.43 14.73 244.43 21.56 254.93 23.47 254.93 23.47 241.85 21.82 241.85 21.82 252.46"/><polygon class="cls-1" points="31.89 253.19 31.85 253.19 28.11 241.85 26.23 241.85 30.84 254.93 32.82 254.93 37.48 241.85 35.66 241.85 31.89 253.19"/><rect class="cls-1" x="40.33" y="241.85" width="1.74" height="13.08"/><path class="cls-1" d="m54.25,248.63v-.04c1.59-.44,2.27-1.72,2.27-3.32,0-2.11-1.5-3.43-3.98-3.43h-6.16v13.08h1.74v-5.59h4.25c1.69,0,1.98,1.1,2.18,2.36.26,1.28-.02,2.69.48,3.23h1.94c-.73-.88-.68-2.35-.77-3.61-.15-1.27-.44-2.4-1.96-2.69Zm-2.49-.75h-3.63v-4.56h4.33c1.63,0,2.33.94,2.33,2.24,0,1.91-1.41,2.33-3.02,2.33Z"/><path class="cls-1" d="m65.86,241.53c-4.16,0-6.27,3.28-6.27,6.85s2.11,6.85,6.27,6.85,6.27-3.28,6.27-6.85-2.11-6.85-6.27-6.85Zm0,12.24c-3.19,0-4.53-2.75-4.53-5.39s1.34-5.39,4.53-5.39,4.53,2.75,4.53,5.39-1.34,5.39-4.53,5.39Z"/><polygon class="cls-1" points="84.39 252.46 84.35 252.46 77.46 241.85 75.61 241.85 75.61 254.93 77.26 254.93 77.26 244.43 77.3 244.43 84.13 254.93 86.04 254.93 86.04 241.85 84.39 241.85 84.39 252.46"/><polygon class="cls-1" points="96.78 252.84 92.66 241.85 90.28 241.85 90.28 254.93 91.93 254.93 91.93 244.05 91.96 244.05 96.05 254.93 97.53 254.93 101.62 244.05 101.66 244.05 101.66 254.93 103.31 254.93 103.31 241.85 100.92 241.85 96.78 252.84"/><polygon class="cls-1" points="109.32 248.94 116.12 248.94 116.12 247.47 109.32 247.47 109.32 243.31 116.62 243.31 116.62 241.85 107.58 241.85 107.58 254.93 116.67 254.93 116.67 253.46 109.32 253.46 109.32 248.94"/><polygon class="cls-1" points="128.92 252.46 128.88 252.46 121.99 241.85 120.14 241.85 120.14 254.93 121.79 254.93 121.79 244.43 121.83 244.43 128.66 254.93 130.57 254.93 130.57 241.85 128.92 241.85 128.92 252.46"/><polygon class="cls-1" points="143.84 241.85 133.38 241.85 133.38 243.31 137.74 243.31 137.74 254.93 139.48 254.93 139.48 243.31 143.84 243.31 143.84 241.85"/><path class="cls-1" d="m148.8,241.85l-5.11,13.08h1.8l1.47-3.94h5.53l1.43,3.94h1.93l-5.11-13.08h-1.92Zm-1.3,7.68l2.22-6.1h.04l2.18,6.1h-4.43Z"/><polygon class="cls-1" points="160.24 241.85 158.5 241.85 158.5 254.93 167.17 254.93 167.17 253.46 160.24 253.46 160.24 241.85"/><polygon class="cls-1" points="175.17 243.31 179.53 243.31 179.53 254.93 181.27 254.93 181.27 243.31 185.63 243.31 185.63 241.85 175.17 241.85 175.17 243.31"/><polygon class="cls-1" points="190.2 248.94 197 248.94 197 247.47 190.2 247.47 190.2 243.31 197.49 243.31 197.49 241.85 188.46 241.85 188.46 254.93 197.55 254.93 197.55 253.46 190.2 253.46 190.2 248.94"/><path class="cls-1" d="m206.59,253.78c-3.13,0-4.45-2.49-4.45-5.48,0-2.73,1.32-5.3,4.43-5.3,1.83,0,3.28.94,3.67,2.79h1.74c-.39-2.79-2.66-4.25-5.39-4.25-4.03,0-6.19,3.08-6.19,6.89s2,6.82,6.05,6.82c3.32,0,5.31-1.96,5.66-5.24h-1.74c-.15,2.16-1.5,3.78-3.78,3.78Z"/><polygon class="cls-1" points="224.28 247.47 217.39 247.47 217.39 241.85 215.65 241.85 215.65 254.93 217.39 254.93 217.39 248.94 224.28 248.94 224.28 254.93 226.02 254.93 226.02 241.85 224.28 241.85 224.28 247.47"/><polygon class="cls-1" points="239.02 252.46 238.99 252.46 232.1 241.85 230.25 241.85 230.25 254.93 231.9 254.93 231.9 244.43 231.93 244.43 238.77 254.93 240.67 254.93 240.67 241.85 239.02 241.85 239.02 252.46"/><path class="cls-1" d="m250.41,241.53c-4.16,0-6.27,3.28-6.27,6.85s2.11,6.85,6.27,6.85,6.27-3.28,6.27-6.85-2.11-6.85-6.27-6.85Zm0,12.24c-3.19,0-4.53-2.75-4.53-5.39s1.34-5.39,4.53-5.39,4.53,2.75,4.53,5.39-1.34,5.39-4.53,5.39Z"/><polygon class="cls-1" points="261.93 241.85 260.18 241.85 260.18 254.93 268.85 254.93 268.85 253.46 261.93 253.46 261.93 241.85"/><path class="cls-1" d="m276.63,241.53c-4.16,0-6.27,3.28-6.27,6.85s2.11,6.85,6.27,6.85,6.27-3.28,6.27-6.85-2.11-6.85-6.27-6.85Zm0,12.24c-3.19,0-4.53-2.75-4.53-5.39s1.34-5.39,4.53-5.39,4.53,2.75,4.53,5.39-1.34,5.39-4.53,5.39Z"/><path class="cls-1" d="m292.01,249.5h4.18c.09,2.4-1.48,4.27-4.2,4.27-2.91,0-4.49-2.49-4.49-5.22s1.32-5.55,4.49-5.55c1.96,0,3.54.9,3.89,2.88h1.74c-.48-3.06-2.79-4.34-5.63-4.34-4.14,0-6.23,3.3-6.23,7.11,0,3.43,2.33,6.6,6.23,6.6,1.52,0,3.17-.59,4.2-1.94l.46,1.63h1.1v-6.89h-5.74v1.47Z"/><polygon class="cls-1" points="309.25 241.85 305.42 248.08 301.49 241.85 299.42 241.85 304.48 249.58 304.48 254.93 306.22 254.93 306.22 249.58 311.22 241.85 309.25 241.85"/></svg>