<?xml version="1.0" encoding="utf-8"?>
<!-- Generator: Adobe Illustrator 27.9.0, SVG Export Plug-In . SVG Version: 6.00 Build 0)  -->
<svg version="1.1" id="Layer_1" xmlns="http://www.w3.org/2000/svg" xmlns:xlink="http://www.w3.org/1999/xlink" x="0px" y="0px"
	 viewBox="0 0 164.8 139.7" style="enable-background:new 0 0 164.8 139.7;" xml:space="preserve">
<style type="text/css">
	.st0{fill:#E31937;}
	.st1{fill:#002B5C;}
	.st2{fill-rule:evenodd;clip-rule:evenodd;fill:#002B5C;}
	.st3{fill:#E21936;}
	.st4{fill:#53489D;}
</style>
<path class="st0" d="M146.2,109.4H16c-0.1,0-0.2,0.1-0.2,0.2s0.1,0.2,0.2,0.2h130.2c0.1,0,0.2-0.1,0.2-0.2S146.3,109.4,146.2,109.4z
	"/>
<path class="st0" d="M72.3,91.4h-6.8c-0.3,0-0.4-0.2-0.4-0.4c0-0.1,0.1-0.4,0.5-0.4h9.3c1.5,0,2.6-1.2,2.6-2.6
	c0-1.4-1.2-2.6-2.6-2.6h-9.4c-3,0-5.4,2.4-5.4,5.4c0,3,2.4,5.3,5.4,5.3h6.1c0.2,0,0.4,0.1,0.4,0.3c0,0.2-0.2,0.3-0.4,0.3h-9
	c-1,0-1.9,0.6-2.3,1.5c-0.4-1-1.4-1.8-2.5-1.8h-3.2v-1h2.7c1.1,0,2-0.9,2-2c0-1.1-0.9-2-2-2h-2.6v-1l3.3,0c1.4,0,2.6-1.1,2.6-2.6
	c0-1.4-1.1-2.6-2.5-2.6h-6c-1.5,0-2.6,1.2-2.6,2.6v9.5l-5.2-10.7c-0.5-0.9-1.5-1.5-2.5-1.5c-0.9,0-1.7,0.5-2.2,1.3l-5.5,12
	c0,0.2-0.1,0.4-0.1,0.6c0,1.4,1.2,2.6,2.6,2.6c0.7,0,1.4-0.3,1.9-0.8c0.4-0.4,0.7-1,0.7-1.6h5.4c0,0.6,0.3,1.2,0.7,1.6
	c0.5,0.5,1.1,0.7,1.8,0.7h10.8c1,0,1.9-0.6,2.3-1.6h0c0.4,1,1.3,1.7,2.5,1.7h9.7c3,0,5.3-2.4,5.3-5.4C77.5,93.6,75.3,91.4,72.3,91.4
	z M42.6,95.7l-1.7,0l0.8-2L42.6,95.7z"/>
<path class="st1" d="M128.8,96.8h-3.2V88c0-1.4-1.2-2.5-2.6-2.5c-1.4,0-2.6,1.1-2.6,2.5l0,8.7l-0.6,0l-4.7-9.8
	c-0.5-0.8-1.4-1.4-2.3-1.4c-1,0-1.8,0.5-2.3,1.4L105,98.7c-0.3-1.1-1.2-1.9-2.4-1.9l-3.3,0v-1h2.7c1.1,0,2-0.9,2-2c0-1.1-0.9-2-2-2
	h-2.6v-1l3.1,0c1.5,0,2.7-1.2,2.7-2.6c0-1.5-1.1-2.6-2.6-2.6H82.4c-3,0-5.4,2.4-5.4,5.4c0,3,2.4,5.4,5.4,5.4c0,0,0,0,0,0l6.1,0
	c0.2,0,0.4,0.1,0.4,0.3c0,0.2-0.2,0.3-0.4,0.3h-9c-0.8,0-1.5,0.2-1.9,0.6C77.2,98,77,98.7,77,99.5c0,1.4,1.2,2.5,2.7,2.5h9.6
	c2.2,0,4-1.1,4.8-2.7c0,0,0,0,0,0l0,0.1c0.1,1.4,1.2,2.6,2.6,2.6h5.9c1.2,0,2.2-0.8,2.5-1.9c0.3,1.1,1.3,1.9,2.5,1.9
	c1.4,0,2.6-1.1,2.8-2.4l5.2,0l0,0c0,0.6,0.2,1.2,0.6,1.6c0.5,0.5,1.1,0.8,1.9,0.8h10.7c1.5,0,2.6-1.2,2.6-2.6
	C131.4,97.9,130.2,96.8,128.8,96.8z M113.6,95.8l-1.8,0l0.8-1.8L113.6,95.8z M94,94c-0.8-1.7-2.6-2.7-4.7-2.7h-6.8
	c-0.2,0-0.4-0.2-0.4-0.3c0-0.2,0.1-0.3,0.3-0.3l11.5,0L94,94z"/>
<path class="st2" d="M129.7,87.2h0.3l0.4,0.7h0.3l-0.5-0.8c0.3,0,0.5-0.2,0.5-0.5c0-0.4-0.2-0.5-0.6-0.5h-0.7V88h0.3V87.2z
	 M129.7,87v-0.5h0.3c0.2,0,0.4,0,0.4,0.2c0,0.3-0.2,0.3-0.4,0.3H129.7z M131.5,87.1c0-0.9-0.7-1.6-1.5-1.6c-0.8,0-1.5,0.6-1.5,1.6
	c0,0.9,0.6,1.6,1.5,1.6C130.8,88.6,131.5,88,131.5,87.1z M131.2,87.1c0,0.8-0.5,1.3-1.2,1.3c-0.7,0-1.2-0.6-1.2-1.3
	c0-0.8,0.5-1.3,1.2-1.3C130.6,85.8,131.2,86.3,131.2,87.1z"/>
<path class="st1" d="M64.4,40.2l8.7,0c0,0,0.5,0,0.7,0.2c0.2,0.1,0.4,0.4,0.4,0.4l3.2,5.4c0,0,0.3,0.4,0.5,0.5
	c0.2,0.1,0.6,0.1,0.6,0.1h21.9c0,0,1.6,0,2.4,0.5c0.8,0.4,1.7,1.6,1.7,1.6l2,3.3c0,0,0.7,1.2,0.1,2.2c-0.5,0.8-1.8,0.8-1.8,0.8H81.5
	c0,0-0.6,0-0.9-0.2c-0.3-0.2-0.7-0.7-0.7-0.7l-4-6.6c0,0-0.2-0.4-0.5-0.6c-0.3-0.2-0.9-0.1-0.9-0.1H61.1c0,0-0.8,0.1-1-0.3
	c-0.3-0.4,0.1-0.9,0.1-0.9l2.9-4.6c0,0,0.3-0.5,0.5-0.6C64,40.2,64.4,40.2,64.4,40.2z"/>
<path class="st0" d="M81.1,14.8c1.8,0,3,2.1,3,2.1l14.4,22.2c0,0,0.8,1.2,0.2,2.3c-0.5,1-1.8,1-1.8,1H81.3c0,0-0.5,0-0.8-0.2
	c-0.3-0.2-0.6-0.6-0.6-0.6l-4-6.5c0,0-0.4-0.4-0.7-0.6c-0.4-0.2-1-0.2-1-0.2h-4.7c0,0-1.1,0.1-1.3-0.5c-0.3-0.7,0.3-1.4,0.3-1.4
	l9.4-15.3C77.9,17.1,79,14.8,81.1,14.8z"/>
<path class="st1" d="M56.7,52.5h16.5c0,0,0.5,0,0.7,0.2c0.2,0.1,0.4,0.4,0.4,0.4l3.2,5.4c0,0,0.3,0.4,0.5,0.5
	c0.2,0.1,0.6,0.1,0.6,0.1h29.7c0,0,1.6,0,2.4,0.5c0.8,0.4,1.7,1.6,1.7,1.6l2,3.3c0,0,0.7,1.2,0.1,2.2c-0.5,0.8-1.8,0.8-1.8,0.8H81.7
	c0,0-0.6,0-0.9-0.2c-0.3-0.2-0.7-0.7-0.7-0.7l-4-6.6c0,0-0.2-0.4-0.5-0.6c-0.3-0.2-0.9-0.1-0.9-0.1H53.4c0,0-0.8,0.1-1-0.3
	c-0.3-0.4,0.1-0.9,0.1-0.9l2.9-4.6c0,0,0.3-0.5,0.5-0.6C56.2,52.6,56.7,52.5,56.7,52.5z"/>
<path class="st3" d="M17.4,115.7h0.9l2.5,6.3h-0.9l-0.7-1.9h-2.7l-0.7,1.9h-0.9L17.4,115.7z M18.9,119.4l-1.1-3h0l-1.1,3H18.9z"/>
<path class="st3" d="M22,115.7h4.4v0.7h-3.5v2h3.3v0.7h-3.3v2.2h3.6v0.7H22V115.7z"/>
<path class="st3" d="M31.7,117.6c-0.1-0.9-0.7-1.3-1.6-1.3c-0.7,0-1.4,0.3-1.4,1.1c0,1.6,4.1,0.5,4.1,3c0,1.4-1.3,1.9-2.5,1.9
	c-1.4,0-2.6-0.7-2.6-2.2h0.8c0,1.1,0.9,1.5,1.8,1.5c0.8,0,1.6-0.2,1.6-1.2c0-1.7-4.1-0.6-4.1-2.9c0-1.3,1.1-1.9,2.3-1.9
	c1.3,0,2.3,0.6,2.3,2H31.7z"/>
<path class="st3" d="M38.1,117.6c-0.1-0.9-0.7-1.3-1.6-1.3c-0.7,0-1.4,0.3-1.4,1.1c0,1.6,4.1,0.5,4.1,3c0,1.4-1.3,1.9-2.5,1.9
	c-1.4,0-2.6-0.7-2.6-2.2h0.8c0,1.1,0.9,1.5,1.8,1.5c0.8,0,1.6-0.2,1.6-1.2c0-1.7-4.1-0.6-4.1-2.9c0-1.3,1.1-1.9,2.3-1.9
	c1.3,0,2.3,0.6,2.3,2H38.1z"/>
<path class="st3" d="M40.8,115.7h4.4v0.7h-3.5v2h3.3v0.7h-3.3v2.2h3.6v0.7h-4.4V115.7z"/>
<path class="st3" d="M48.5,115.7h0.9l2.5,6.3H51l-0.7-1.9h-2.7l-0.7,1.9H46L48.5,115.7z M50,119.4l-1.1-3h0l-1.1,3H50z"/>
<path class="st3" d="M53.2,115.7H54v5.6h3.4v0.7h-4.2V115.7z"/>
<path class="st4" d="M63.2,116.4h-2.1v-0.7h5.1v0.7h-2.1v5.6h-0.8V116.4z"/>
<path class="st4" d="M69.9,115.6c2,0,3,1.6,3,3.3c0,1.7-1,3.3-3,3.3s-3-1.6-3-3.3C66.9,117.2,67.9,115.6,69.9,115.6z M69.9,121.5
	c1.5,0,2.2-1.3,2.2-2.6c0-1.3-0.6-2.6-2.2-2.6s-2.2,1.3-2.2,2.6C67.7,120.2,68.4,121.5,69.9,121.5z"/>
<path class="st4" d="M74.6,115.7h3c1.2,0,1.9,0.6,1.9,1.7c0,0.8-0.3,1.4-1.1,1.6v0c0.7,0.1,0.9,0.7,1,1.3c0,0.6,0,1.3,0.4,1.7h-0.9
	c-0.2-0.3-0.1-0.9-0.2-1.6c-0.1-0.6-0.2-1.1-1.1-1.1h-2.1v2.7h-0.8V115.7z M77.2,118.6c0.8,0,1.5-0.2,1.5-1.1c0-0.6-0.3-1.1-1.1-1.1
	h-2.1v2.2H77.2z"/>
<path class="st4" d="M81.3,115.7h0.8v6.3h-0.8V115.7z"/>
<path class="st4" d="M87.8,117.6c-0.1-0.9-0.7-1.3-1.6-1.3c-0.7,0-1.4,0.3-1.4,1.1c0,1.6,4.1,0.5,4.1,3c0,1.4-1.3,1.9-2.5,1.9
	c-1.4,0-2.6-0.7-2.6-2.2h0.8c0,1.1,0.9,1.5,1.8,1.5c0.8,0,1.6-0.2,1.6-1.2c0-1.7-4.1-0.6-4.1-2.9c0-1.3,1.1-1.9,2.3-1.9
	c1.3,0,2.3,0.6,2.3,2H87.8z"/>
<path class="st4" d="M90.5,115.7h0.8v2.7h3.3v-2.7h0.8v6.3h-0.8v-2.9h-3.3v2.9h-0.8V115.7z"/>
<path class="st4" d="M97.6,115.7h0.8v6.3h-0.8V115.7z"/>
<path class="st4" d="M100.5,115.7h1.2l2,5.3l2-5.3h1.2v6.3H106v-5.3h0l-2,5.3h-0.7l-2-5.3h0v5.3h-0.8V115.7z"/>
<path class="st4" d="M110.5,115.7h0.9l2.5,6.3H113l-0.7-1.9h-2.7l-0.7,1.9H108L110.5,115.7z M112,119.4l-1.1-3h0l-1.1,3H112z"/>
<path class="st3" d="M117.7,120h0.8v0.3c0,0.7,0.2,1.3,1,1.3c0.8,0,1-0.4,1-1.1v-4.6h0.8v4.8c0,0.9-0.5,1.7-1.9,1.7
	c-1.2,0-1.8-0.6-1.8-1.8V120z"/>
<path class="st3" d="M125.1,115.7h0.9l2.5,6.3h-0.9l-0.7-1.9h-2.7l-0.7,1.9h-0.9L125.1,115.7z M126.6,119.4l-1.1-3h0l-1.1,3H126.6z"
	/>
<path class="st3" d="M129.8,115.7h2.8c1.3,0,1.9,0.7,1.9,1.9c0,1.2-0.7,1.9-1.9,1.9h-1.9v2.6h-0.8V115.7z M130.6,118.8h1.7
	c1,0,1.4-0.4,1.4-1.2c0-0.8-0.4-1.2-1.4-1.2h-1.7V118.8z"/>
<path class="st3" d="M137.2,115.7h0.9l2.5,6.3h-0.9l-0.7-1.9h-2.7l-0.7,1.9h-0.9L137.2,115.7z M138.7,119.4l-1.1-3h0l-1.1,3H138.7z"
	/>
<path class="st3" d="M141.8,115.7h0.9l3.3,5.1h0v-5.1h0.8v6.3H146l-3.3-5.1h0v5.1h-0.8V115.7z"/>
<path class="st4" d="M80.6,34.8c-3.1-0.3-5.6-3-5.6-6.2c0-3.2,2.4-5.9,5.6-6.2L80,23.9c-2.1,0.6-3.6,2.5-3.6,4.7
	c0,2.3,1.5,4.2,3.6,4.7L80.6,34.8z M82,34.9c3.1-0.3,5.6-3,5.6-6.2c0-3.2-2.5-5.9-5.6-6.2l0.7,1.5c2.1,0.6,3.6,2.5,3.6,4.7
	c0,2.3-1.5,4.2-3.6,4.7L82,34.9z M81.3,22.4c0,0-1.6,2.8-1.6,6.3c0,3.5,1.6,6.3,1.6,6.3s1.1-2,1.5-4.7c0.5-0.3,1.5-0.9,2.1-1.5
	c-0.6-0.6-1.7-1.3-2.1-1.5C82.4,24.4,81.3,22.4,81.3,22.4z M84.9,28.6C84.9,28.6,84.9,28.6,84.9,28.6L84.9,28.6
	C84.9,28.6,84.9,28.6,84.9,28.6z"/>
<path class="st1" d="M48.9,64.9h24.4c0,0,0.5,0,0.7,0.2c0.2,0.1,0.4,0.4,0.4,0.4l3.2,5.4c0,0,0.3,0.4,0.5,0.5
	c0.2,0.1,0.6,0.1,0.6,0.1h37.8c0,0,1.6,0,2.4,0.5c0.8,0.4,1.7,1.6,1.7,1.6l2.4,3.9c0,0,0.4,1,0,1.6c-0.6,0.8-1.2,0.7-1.2,0.7H81.7
	c0,0-0.6,0-0.9-0.2c-0.3-0.2-0.7-0.7-0.7-0.7l-4-6.6c0,0-0.2-0.4-0.5-0.6c-0.3-0.2-0.9-0.1-0.9-0.1H45.6c0,0-0.8,0.1-1-0.3
	c-0.3-0.4,0.1-0.9,0.1-0.9l2.9-4.6c0,0,0.3-0.5,0.5-0.6C48.4,64.9,48.9,64.9,48.9,64.9z"/>
</svg>
