<?xml version="1.0" encoding="utf-8"?>
<!-- Generator: Adobe Illustrator 25.1.0, SVG Export Plug-In . SVG Version: 6.00 Build 0)  -->
<svg version="1.1" id="Layer_1" xmlns="http://www.w3.org/2000/svg" xmlns:xlink="http://www.w3.org/1999/xlink" x="0px" y="0px"
	 viewBox="0 0 181 130.4" style="enable-background:new 0 0 181 130.4;" xml:space="preserve">
<style type="text/css">
	.st0{fill:#FFFFFF;}
	.st1{fill-rule:evenodd;clip-rule:evenodd;fill:#FFFFFF;}
	.st2{clip-path:url(#SVGID_2_);fill:#FFFFFF;}
	.st3{clip-path:url(#SVGID_4_);fill:#FFFFFF;}
	.st4{clip-path:url(#SVGID_6_);fill:#FFFFFF;}
	.st5{clip-path:url(#SVGID_8_);fill:#FFFFFF;}
	.st6{clip-path:url(#SVGID_10_);fill:#FFFFFF;}
	.st7{clip-path:url(#SVGID_12_);fill:#FFFFFF;}
	.st8{clip-path:url(#SVGID_14_);fill:#FFFFFF;}
	.st9{clip-path:url(#SVGID_16_);fill:#FFFFFF;}
	.st10{clip-path:url(#SVGID_18_);fill:#FFFFFF;}
	.st11{clip-path:url(#SVGID_20_);fill:#FFFFFF;}
	.st12{clip-path:url(#SVGID_22_);fill:#FFFFFF;}
	.st13{clip-path:url(#SVGID_24_);fill:#FFFFFF;}
	.st14{clip-path:url(#SVGID_26_);fill:#FFFFFF;}
	.st15{clip-path:url(#SVGID_28_);fill:#FFFFFF;}
	.st16{clip-path:url(#SVGID_30_);fill:#FFFFFF;}
	.st17{clip-path:url(#SVGID_32_);fill:#FFFFFF;}
	.st18{clip-path:url(#SVGID_34_);fill:#FFFFFF;}
	.st19{clip-path:url(#SVGID_36_);fill:#FFFFFF;}
	.st20{clip-path:url(#SVGID_38_);fill:#FFFFFF;}
	.st21{clip-path:url(#SVGID_40_);fill:#FFFFFF;}
	.st22{clip-path:url(#SVGID_42_);fill:#FFFFFF;}
	.st23{clip-path:url(#SVGID_44_);fill:#FFFFFF;}
	.st24{clip-path:url(#SVGID_46_);fill:#FFFFFF;}
	.st25{clip-path:url(#SVGID_48_);fill:#FFFFFF;}
	.st26{clip-path:url(#SVGID_50_);fill:#FFFFFF;}
	.st27{clip-path:url(#SVGID_52_);fill:#FFFFFF;}
</style>
<g>
	<g>
		<g>
			<path class="st0" d="M-114.7,72.1h3c1.6,0,3.1,0.6,3.1,2.5c0,1.5-1,2-2.1,2.3l0,0c1.4,0.3,1.6,1.1,1.8,2.1l0.6,2.7h-1.4l-0.6-2.1
				c-0.4-1.4-0.6-2-2.1-2h-0.8v4.1h-1.5V72.1z M-113.2,76.4h0.9c1.1,0,2.2-0.4,2.2-1.7c0-1.2-0.7-1.6-1.8-1.6h-1.3V76.4z"/>
			<polygon class="st0" points="-104.8,72.1 -99,72.1 -99,73.2 -103.3,73.2 -103.3,76.1 -99.2,76.1 -99.2,77.2 -103.3,77.2 
				-103.3,80.6 -98.9,80.6 -98.9,81.7 -104.8,81.7 			"/>
			<polygon class="st0" points="-95.5,72.1 -94,72.1 -94,80.6 -89.9,80.6 -89.9,81.7 -95.5,81.7 			"/>
			<rect x="-87" y="72.1" class="st0" width="1.5" height="9.6"/>
			<path class="st0" d="M-78.8,72.1h1.9l3.6,9.6h-1.6l-1-2.7h-3.8l-1,2.7h-1.6L-78.8,72.1z M-79.4,77.8h3l-1.4-4.5l0,0L-79.4,77.8z"
				/>
			<path class="st0" d="M-70.3,72.1h3c1,0,2.7,0.4,2.7,2.3c0,1.6-1.1,2-1.6,2.2l0,0c0.8,0.1,2.1,0.6,2.1,2.5c0,2.4-2,2.6-3.4,2.6
				h-2.9L-70.3,72.1L-70.3,72.1z M-68.8,76.1h1c0.7,0,1.8-0.2,1.8-1.4c0-1.4-1.1-1.4-1.9-1.4h-0.9V76.1z M-68.8,80.6h1.2
				c1.4,0,2.1-0.7,2.1-1.6c0-1.6-1.6-1.8-2.2-1.8h-1v3.4H-68.8z"/>
			<rect x="-60.4" y="72.1" class="st0" width="1.5" height="9.6"/>
			<polygon class="st0" points="-54.7,72.1 -53.2,72.1 -53.2,80.6 -49.1,80.6 -49.1,81.7 -54.7,81.7 			"/>
			<rect x="-46.2" y="72.1" class="st0" width="1.5" height="9.6"/>
			<polygon class="st0" points="-39.1,73.2 -41.7,73.2 -41.7,72.1 -35,72.1 -35,73.2 -37.6,73.2 -37.6,81.7 -39.1,81.7 			"/>
			<polygon class="st0" points="-30.1,77.2 -33.4,72.1 -31.8,72.1 -29.3,75.8 -26.8,72.1 -25.2,72.1 -28.5,77.2 -28.5,81.7 
				-30.1,81.7 			"/>
			<path class="st1" d="M-30.4,28.5h-13.4l0,0l0,0h-13.4h-1c-2.4,0-4.4,1.5-5.3,3.4l0,0l-5,11.4l-1.5,3.5v-0.1v0.1L-76.3,32l0,0
				c-0.8-2-2.9-3.4-5.3-3.4c-3.1,0-5.6,2.5-5.6,5.6c0,0.4,0.1,0.9,0.2,1.3l12.2,26.8c1,1.6,2.8,2.7,4.8,2.7c0.1,0,0.2,0,0.2,0
				c0.1,0,0.2,0,0.2,0c2,0,3.8-1.1,4.8-2.7l10.2-22.6h5.1l-0.1,19.6c0,3.2,2.6,5.7,5.8,5.7c3.2,0,5.8-2.7,5.8-5.9l-0.1-18.9v-0.5
				h7.5c3.1,0,5.7-2.5,5.7-5.6C-24.8,31-27.3,28.5-30.4,28.5"/>
			<path class="st0" d="M-30.4,28.5h-13.4l0,0l0,0h-13.4h-1c-2.4,0-4.4,1.5-5.3,3.4l0,0l-5,11.4l-1.5,3.5v-0.1v0.1L-76.3,32l0,0
				c-0.8-2-2.9-3.4-5.3-3.4c-3.1,0-5.6,2.5-5.6,5.6c0,0.4,0.1,0.9,0.2,1.3l12.2,26.8c1,1.6,2.8,2.7,4.8,2.7c0.1,0,0.2,0,0.2,0
				c0.1,0,0.2,0,0.2,0c2,0,3.8-1.1,4.8-2.7l10.2-22.6h5.1l-0.1,19.6c0,3.2,2.6,5.7,5.8,5.7c3.2,0,5.8-2.7,5.8-5.9l-0.1-18.9v-0.5
				h7.5c3.1,0,5.7-2.5,5.7-5.6C-24.8,31-27.3,28.5-30.4,28.5z"/>
			<path class="st1" d="M-92.3,31.3c-1-1.6-2.8-2.7-4.8-2.7h-0.5c-2,0-3.8,1.1-4.8,2.7l-12.1,26.8c-0.1,0.4-0.2,0.8-0.2,1.3
				c0,3.1,2.5,5.6,5.6,5.6s5.7-2.4,5.7-5.3h5.9h0.3h5.9c0,2.9,2.6,5.3,5.7,5.3s5.6-2.5,5.6-5.6c0-0.4-0.1-0.9-0.2-1.3L-92.3,31.3z
				 M-99.4,51.5l2-4.8l2,4.8H-99.4z"/>
			<path class="st0" d="M-92.3,31.3c-1-1.6-2.8-2.7-4.8-2.7h-0.5c-2,0-3.8,1.1-4.8,2.7l-12.1,26.8c-0.1,0.4-0.2,0.8-0.2,1.3
				c0,3.1,2.5,5.6,5.6,5.6s5.7-2.4,5.7-5.3h5.9h0.3h5.9c0,2.9,2.6,5.3,5.7,5.3s5.6-2.5,5.6-5.6c0-0.4-0.1-0.9-0.2-1.3L-92.3,31.3z
				 M-99.4,51.5l2-4.8l2,4.8H-99.4z"/>
			<rect x="-122.7" y="108.3" class="st0" width="0.9" height="0.9"/>
			<rect x="-120" y="108.3" class="st0" width="0.9" height="0.9"/>
			<rect x="-117.3" y="108.3" class="st0" width="0.9" height="0.9"/>
			<path class="st0" d="M-114,104.1h-0.7v-0.9h0.7V104.1z M-114.7,104.9h0.7v4.4h-0.7V104.9z"/>
			<path class="st0" d="M-111.6,104.9h0.9v0.6h-0.9v2.7c0,0.3,0.1,0.4,0.5,0.4h0.3v0.6h-0.5c-0.7,0-1-0.2-1-1v-2.8h-0.7v-0.6h0.7
				v-1.3h0.7V104.9z"/>
			<path class="st0" d="M-109.4,103.2h0.9v0.9c0,0.7-0.3,1.2-0.9,1.2V105c0.4,0,0.5-0.4,0.5-0.8h-0.5V103.2z"/>
			<path class="st0" d="M-106.9,107.8c0,0.6,0.6,0.8,1.2,0.8c0.4,0,1.1-0.1,1.1-0.6c0-1.1-2.8-0.4-2.8-2c0-0.9,0.9-1.2,1.6-1.2
				c1,0,1.7,0.3,1.8,1.4h-0.7c0-0.6-0.5-0.7-1-0.7c-0.4,0-0.9,0.1-0.9,0.6s0.8,0.6,1.4,0.8c0.7,0.2,1.4,0.4,1.4,1.2
				c0,1-1,1.4-1.9,1.4c-1,0-1.8-0.4-1.8-1.5h0.6V107.8z"/>
			<path class="st0" d="M-99.3,104.1h-0.7v-0.9h0.7V104.1z M-100,104.9h0.7v4.4h-0.7V104.9z"/>
			<path class="st0" d="M-97.9,104.9h0.7v0.7l0,0c0.3-0.5,0.8-0.8,1.4-0.8c1.1,0,1.5,0.7,1.5,1.6v2.9H-95v-2.9
				c0-0.5-0.3-0.9-0.9-0.9c-0.9,0-1.3,0.6-1.3,1.4v2.5h-0.7V104.9z"/>
			<path class="st0" d="M-88.3,104.8c1.4,0,2.1,1,2.1,2.3s-0.7,2.3-2.1,2.3s-2.1-1-2.1-2.3S-89.7,104.8-88.3,104.8 M-88.3,108.7
				c0.7,0,1.4-0.6,1.4-1.6c0-1.1-0.6-1.7-1.4-1.7c-0.7,0-1.4,0.6-1.4,1.7C-89.6,108.1-89,108.7-88.3,108.7"/>
			<path class="st0" d="M-81.4,109.2h-0.7v-0.7l0,0c-0.3,0.5-0.8,0.8-1.4,0.8c-1.1,0-1.5-0.7-1.5-1.6v-2.9h0.7v2.9
				c0,0.5,0.3,0.9,0.9,0.9c0.9,0,1.3-0.6,1.3-1.4v-2.5h0.7V109.2z"/>
			<path class="st0" d="M-80,104.9h0.7v0.9l0,0c0.3-0.7,0.8-1,1.6-1v0.8c-1.2,0-1.6,0.6-1.6,1.8v1.9H-80V104.9z"/>
			<path class="st0" d="M-74,103.2h2.1c1.9,0,2.9,0.9,2.9,2.9s-0.9,3.2-2.9,3.2H-74V103.2z M-71.9,108.5c0.5,0,2-0.2,2-2.4
				c0-1.4-0.5-2.3-2-2.3h-1.3v4.7C-73.2,108.5-71.9,108.5-71.9,108.5z"/>
			<polygon class="st0" points="-67.8,103.2 -66.9,103.2 -63.8,108.1 -63.7,108.1 -63.7,103.2 -63,103.2 -63,109.2 -63.9,109.2 
				-67,104.4 -67,104.4 -67,109.2 -67.8,109.2 			"/>
			<path class="st0" d="M-59.7,103.2h0.9l2.4,6h-0.9l-0.7-1.8h-2.5l-0.7,1.8H-62L-59.7,103.2z M-58.3,106.7l-1-2.8l0,0l-1,2.8H-58.3
				z"/>
			<path class="st0" d="M-153.2,35.5c0,0-0.9,3.5-1,4.1c-5.4,19.9-0.1,26.6,7.8,32.1C-126,86-109.8,84.2-93.8,92.2l-9.1,4.6
				c0,0-5.7-2.4-14.3-4.5c-9.8-2.5-16.2-5.1-24.4-9.1c-23.5-11.5-23.9-26.4-20-39.9c0.1-0.3,1.9-5.1,1.9-5.1L-153.2,35.5z"/>
			<path class="st0" d="M-125.1,37.1c8,17.5-1,32.6-3.1,44.9c-2.5,15,3.1,26.9,3.1,26.9s-13-11.1-11.6-24.7
				c1.6-15.5,15.7-32.5,2.2-48.5c-4.4-5.2-30-13.2-30-13.2S-131.3,23.4-125.1,37.1"/>
			<path class="st0" d="M-131.2,41.5c0,0-0.4-2-11.8,1.9c-11.5,3.9-11,5.5-11,5.5s0.6,1.7,12.1-2.2
				C-130.4,42.9-131.2,41.5-131.2,41.5"/>
			<path class="st0" d="M-129,50.6c0,0-0.2-2.6-12.9,0.5c-12.7,3-12.1,5.4-12.1,5.4s0.5,2.4,13.2-0.7C-128.1,52.8-129,50.6-129,50.6
				"/>
			<path class="st0" d="M-130.9,61.6c0,0,0.2-1.9-10.1-0.4c-10.3,1.5-10,3.3-10,3.3s0.2,1.8,10.5,0.2
				C-130.1,63.1-130.9,61.6-130.9,61.6"/>
			<path class="st0" d="M-136.1,34.6c0,0-0.3-1.4-8.7,2.3c-8.4,3.7-8,4.7-8,4.7s0.5,1.1,8.9-2.6C-135.4,35.4-136.1,34.6-136.1,34.6"
				/>
			<path class="st0" d="M-123.6,29.2c1.1,0,2.1,0.9,2.1,2.1c0,1.2-1,2.1-2.1,2.1s-2.1-0.9-2.1-2.1
				C-125.7,30.1-124.7,29.2-123.6,29.2 M-123.6,33.1c1,0,1.7-0.8,1.7-1.8s-0.7-1.8-1.7-1.8s-1.7,0.8-1.7,1.8S-124.6,33.1-123.6,33.1
				 M-124.4,30.1h0.9c0.6,0,0.9,0.2,0.9,0.7c0,0.4-0.3,0.6-0.6,0.7l0.7,1.1h-0.4l-0.7-1h-0.4v1h-0.4V30.1z M-124,31.2h0.4
				c0.3,0,0.6,0,0.6-0.4c0-0.3-0.3-0.4-0.5-0.4h-0.5V31.2z"/>
		</g>
	</g>
</g>
<g>
	<g>
		<defs>
			<rect id="SVGID_1_" x="-415.3" y="30.8" width="213.3" height="68.4"/>
		</defs>
		<clipPath id="SVGID_2_">
			<use xlink:href="#SVGID_1_"  style="overflow:visible;"/>
		</clipPath>
		<path class="st2" d="M-385.1,80.6h5.9c3.2,0,5.9,1.2,5.9,4.9c0,2.9-1.9,3.9-4,4.4V90c2.8,0.5,3,2.1,3.5,4.1l1.2,5.2h-2.7l-1.2-4.3
			c-0.8-2.7-1.2-3.9-4-3.9h-1.7v8h-2.9V80.6z M-382.2,89h1.7c2,0,4.2-0.8,4.2-3.2c0-2.3-1.4-3-3.5-3h-2.4V89z"/>
	</g>
	<g>
		<defs>
			<rect id="SVGID_3_" x="-415.3" y="30.8" width="213.3" height="68.4"/>
		</defs>
		<clipPath id="SVGID_4_">
			<use xlink:href="#SVGID_3_"  style="overflow:visible;"/>
		</clipPath>
		<polygon class="st3" points="-366,80.6 -354.9,80.6 -354.9,82.8 -363.1,82.8 -363.1,88.4 -355.3,88.4 -355.3,90.6 -363.1,90.6 
			-363.1,97 -354.6,97 -354.6,99.1 -366,99.1 		"/>
	</g>
	<g>
		<defs>
			<rect id="SVGID_5_" x="-415.3" y="30.8" width="213.3" height="68.4"/>
		</defs>
		<clipPath id="SVGID_6_">
			<use xlink:href="#SVGID_5_"  style="overflow:visible;"/>
		</clipPath>
		<polygon class="st4" points="-348,80.6 -345.1,80.6 -345.1,97 -337.4,97 -337.4,99.1 -348,99.1 		"/>
	</g>
	<g>
		<defs>
			<rect id="SVGID_7_" x="-415.3" y="30.8" width="213.3" height="68.4"/>
		</defs>
		<clipPath id="SVGID_8_">
			<use xlink:href="#SVGID_7_"  style="overflow:visible;"/>
		</clipPath>
		<rect x="-331.7" y="80.6" class="st5" width="2.9" height="18.5"/>
	</g>
	<g>
		<defs>
			<rect id="SVGID_9_" x="-415.3" y="30.8" width="213.3" height="68.4"/>
		</defs>
		<clipPath id="SVGID_10_">
			<use xlink:href="#SVGID_9_"  style="overflow:visible;"/>
		</clipPath>
		<path class="st6" d="M-315.9,80.6h3.6l6.9,18.5h-3.1l-2-5.3h-7.2l-2,5.3h-3.1L-315.9,80.6z M-317.1,91.7h5.8l-2.8-8.6h-0.1
			L-317.1,91.7z"/>
	</g>
	<g>
		<defs>
			<rect id="SVGID_11_" x="-415.3" y="30.8" width="213.3" height="68.4"/>
		</defs>
		<clipPath id="SVGID_12_">
			<use xlink:href="#SVGID_11_"  style="overflow:visible;"/>
		</clipPath>
		<path class="st7" d="M-299.5,80.6h5.8c2,0,5.3,0.7,5.3,4.4c0,3.1-2.2,3.9-3.1,4.2v0.1c1.5,0.2,4.1,1.2,4.1,4.7
			c0,4.5-3.9,5.1-6.5,5.1h-5.6C-299.5,99.1-299.5,80.6-299.5,80.6z M-296.6,88.3h1.8c1.3,0,3.4-0.3,3.4-2.8c0-2.6-2.1-2.7-3.6-2.7
			h-1.7v5.5H-296.6z M-296.6,97h2.3c2.6,0,3.9-1.4,3.9-3.2c0-3.1-3-3.4-4.2-3.4h-2C-296.6,90.4-296.6,97-296.6,97z"/>
	</g>
	<g>
		<defs>
			<rect id="SVGID_13_" x="-415.3" y="30.8" width="213.3" height="68.4"/>
		</defs>
		<clipPath id="SVGID_14_">
			<use xlink:href="#SVGID_13_"  style="overflow:visible;"/>
		</clipPath>
		<rect x="-280.4" y="80.6" class="st8" width="2.9" height="18.5"/>
	</g>
	<g>
		<defs>
			<rect id="SVGID_15_" x="-415.3" y="30.8" width="213.3" height="68.4"/>
		</defs>
		<clipPath id="SVGID_16_">
			<use xlink:href="#SVGID_15_"  style="overflow:visible;"/>
		</clipPath>
		<polygon class="st9" points="-269.5,80.6 -266.6,80.6 -266.6,97 -258.8,97 -258.8,99.1 -269.5,99.1 		"/>
	</g>
	<g>
		<defs>
			<rect id="SVGID_17_" x="-415.3" y="30.8" width="213.3" height="68.4"/>
		</defs>
		<clipPath id="SVGID_18_">
			<use xlink:href="#SVGID_17_"  style="overflow:visible;"/>
		</clipPath>
		<rect x="-253.1" y="80.6" class="st10" width="2.9" height="18.5"/>
	</g>
	<g>
		<defs>
			<rect id="SVGID_19_" x="-415.3" y="30.8" width="213.3" height="68.4"/>
		</defs>
		<clipPath id="SVGID_20_">
			<use xlink:href="#SVGID_19_"  style="overflow:visible;"/>
		</clipPath>
		<polygon class="st11" points="-239.5,82.8 -244.5,82.8 -244.5,80.6 -231.6,80.6 -231.6,82.8 -236.6,82.8 -236.6,99.1 -239.5,99.1 
					"/>
	</g>
	<g>
		<defs>
			<rect id="SVGID_21_" x="-415.3" y="30.8" width="213.3" height="68.4"/>
		</defs>
		<clipPath id="SVGID_22_">
			<use xlink:href="#SVGID_21_"  style="overflow:visible;"/>
		</clipPath>
		<polygon class="st12" points="-222.1,90.6 -228.5,80.6 -225.3,80.6 -220.6,87.8 -215.9,80.6 -212.7,80.6 -219.2,90.6 -219.2,99.1 
			-222.1,99.1 		"/>
	</g>
	<g>
		<defs>
			<rect id="SVGID_23_" x="-415.3" y="30.8" width="213.3" height="68.4"/>
		</defs>
		<clipPath id="SVGID_24_">
			<use xlink:href="#SVGID_23_"  style="overflow:visible;"/>
		</clipPath>
		<path class="st13" d="M-207.2,34.3h-1.2v3.3h-0.8v-3.3h-1.2v-0.6h3.2V34.3z M-204.2,36.5l1.1-2.8h1.1v3.9h-0.7v-3.1l0,0l-1.2,3.1
			h-0.5l-1.2-3.1l0,0v3.1h-0.7v-3.9h1.1L-204.2,36.5z"/>
	</g>
	<g>
		<defs>
			<rect id="SVGID_25_" x="-415.3" y="30.8" width="213.3" height="68.4"/>
		</defs>
		<clipPath id="SVGID_26_">
			<use xlink:href="#SVGID_25_"  style="overflow:visible;"/>
		</clipPath>
		<rect x="-365.2" y="48.6" class="st14" width="12.5" height="3.4"/>
	</g>
	<g>
		<defs>
			<rect id="SVGID_27_" x="-415.3" y="30.8" width="213.3" height="68.4"/>
		</defs>
		<clipPath id="SVGID_28_">
			<use xlink:href="#SVGID_27_"  style="overflow:visible;"/>
		</clipPath>
		<path class="st15" d="M-365.2,55.9V65c0,0-2,0.7-3.7-0.4c-1.7-1.1-2.6-3.4-2.7-8.6h-13.5c0.4,10.1,5,18.5,19.2,18.5
			c10.8,0,13.2-3.3,13.2-3.3V55.9H-365.2z"/>
	</g>
	<g>
		<defs>
			<rect id="SVGID_29_" x="-415.3" y="30.8" width="213.3" height="68.4"/>
		</defs>
		<clipPath id="SVGID_30_">
			<use xlink:href="#SVGID_29_"  style="overflow:visible;"/>
		</clipPath>
		<polygon class="st16" points="-328.5,52 -328.5,48.8 -336.1,48.8 -336.1,42.5 -327,42.5 -327,33.7 -349.4,33.7 -349.4,52 		"/>
	</g>
	<g>
		<defs>
			<rect id="SVGID_31_" x="-415.3" y="30.8" width="213.3" height="68.4"/>
		</defs>
		<clipPath id="SVGID_32_">
			<use xlink:href="#SVGID_31_"  style="overflow:visible;"/>
		</clipPath>
		<polygon class="st17" points="-336,58.5 -328.5,58.5 -328.5,55.9 -349.4,55.9 -349.4,73.8 -327,73.8 -327,65 -336.1,65 		"/>
	</g>
	<g>
		<defs>
			<rect id="SVGID_33_" x="-415.3" y="30.8" width="213.3" height="68.4"/>
		</defs>
		<clipPath id="SVGID_34_">
			<use xlink:href="#SVGID_33_"  style="overflow:visible;"/>
		</clipPath>
		<polygon class="st18" points="-302,52 -302,48.8 -309.7,48.8 -309.7,42.5 -300.5,42.5 -300.5,33.7 -322.9,33.7 -322.9,52 		"/>
	</g>
	<g>
		<defs>
			<rect id="SVGID_35_" x="-415.3" y="30.8" width="213.3" height="68.4"/>
		</defs>
		<clipPath id="SVGID_36_">
			<use xlink:href="#SVGID_35_"  style="overflow:visible;"/>
		</clipPath>
		<polygon class="st19" points="-322.9,55.9 -322.9,73.8 -309.7,73.8 -309.6,58.5 -302,58.5 -302,55.9 		"/>
	</g>
	<g>
		<defs>
			<rect id="SVGID_37_" x="-415.3" y="30.8" width="213.3" height="68.4"/>
		</defs>
		<clipPath id="SVGID_38_">
			<use xlink:href="#SVGID_37_"  style="overflow:visible;"/>
		</clipPath>
		<polygon class="st20" points="-276.2,52 -276.2,48.8 -283.9,48.8 -283.9,42.5 -274.7,42.5 -274.7,33.7 -297.1,33.7 -297.1,52 		
			"/>
	</g>
	<g>
		<defs>
			<rect id="SVGID_39_" x="-415.3" y="30.8" width="213.3" height="68.4"/>
		</defs>
		<clipPath id="SVGID_40_">
			<use xlink:href="#SVGID_39_"  style="overflow:visible;"/>
		</clipPath>
		<polygon class="st21" points="-297.1,55.9 -297.1,73.8 -283.9,73.8 -283.8,58.5 -276.2,58.5 -276.2,55.9 		"/>
	</g>
	<g>
		<defs>
			<rect id="SVGID_41_" x="-415.3" y="30.8" width="213.3" height="68.4"/>
		</defs>
		<clipPath id="SVGID_42_">
			<use xlink:href="#SVGID_41_"  style="overflow:visible;"/>
		</clipPath>
		<polygon class="st22" points="-250.5,52 -250.5,48.8 -258.1,48.8 -258.1,42.5 -249,42.5 -249,33.7 -271.4,33.7 -271.4,52 		"/>
	</g>
	<g>
		<defs>
			<rect id="SVGID_43_" x="-415.3" y="30.8" width="213.3" height="68.4"/>
		</defs>
		<clipPath id="SVGID_44_">
			<use xlink:href="#SVGID_43_"  style="overflow:visible;"/>
		</clipPath>
		<polygon class="st23" points="-258,58.5 -250.5,58.5 -250.5,55.9 -271.4,55.9 -271.4,73.8 -249,73.8 -249,65 -258.1,65 		"/>
	</g>
	<g>
		<defs>
			<rect id="SVGID_45_" x="-415.3" y="30.8" width="213.3" height="68.4"/>
		</defs>
		<clipPath id="SVGID_46_">
			<use xlink:href="#SVGID_45_"  style="overflow:visible;"/>
		</clipPath>
		<polygon class="st24" points="-223.2,33.7 -223.2,50.4 -233.9,33.7 -244.8,33.7 -244.8,52 -227.8,52 -227.5,52 -227.4,52.2 
			-225.2,55.1 -224.6,55.9 -225.6,55.9 -244.8,55.9 -244.8,73.8 -232.9,73.8 -232.9,56.6 -221.8,73.8 -212.1,73.8 -212.1,33.7 		"/>
	</g>
	<g>
		<defs>
			<rect id="SVGID_47_" x="-415.3" y="30.8" width="213.3" height="68.4"/>
		</defs>
		<clipPath id="SVGID_48_">
			<use xlink:href="#SVGID_47_"  style="overflow:visible;"/>
		</clipPath>
		<path class="st25" d="M-371.2,54.2c0,0.4,0,0.8,0,1.2h145.6l-2.2-2.9h-143.4C-371.2,53.1-371.2,53.6-371.2,54.2"/>
	</g>
	<g>
		<defs>
			<rect id="SVGID_49_" x="-415.3" y="30.8" width="213.3" height="68.4"/>
		</defs>
		<clipPath id="SVGID_50_">
			<use xlink:href="#SVGID_49_"  style="overflow:visible;"/>
		</clipPath>
		<path class="st26" d="M-385.6,54.1c0-0.5,0-1.1,0.1-1.6h-5.1l-9,28.2l-5.5-15.4h-15.6v2.9h13.5l6.1,17.3h2.9l9.7-30.1h2.9
			C-385.6,55-385.6,54.6-385.6,54.1"/>
	</g>
	<g>
		<defs>
			<rect id="SVGID_51_" x="-415.3" y="30.8" width="213.3" height="68.4"/>
		</defs>
		<clipPath id="SVGID_52_">
			<use xlink:href="#SVGID_51_"  style="overflow:visible;"/>
		</clipPath>
		<path class="st27" d="M-365.2,65c0,0-2,0.7-3.7-0.4c-1.8-1.2-2.7-3.8-2.8-10.3c0-7.7,2.1-9.8,5.4-11.2c3.7-1.5,9.2,0.3,9.2,0.3
			l4-7.8c0,0-7.9-4.7-18.8-1.7c-8.1,2.2-13.2,10.6-13.2,20.4c0,10.9,4.2,20.2,19.2,20.2c10.8,0,13.2-3.3,13.2-3.3L-365.2,65z"/>
	</g>
</g>
<g>
	<path class="st1" d="M169.6,29.5h-13.1l0,0l0,0h-13.1c-0.3,0-0.9,0-0.9,0c-2.3,0-4.4,1.4-5.2,3.4l0,0l-4.9,11.2l-1.5,3.5v-0.1v0.1
		L124.7,33l0,0c-0.8-1.9-2.9-3.3-5.2-3.3c-3,0-5.5,2.5-5.5,5.5c0,0.4,0.1,0.9,0.2,1.2l11.9,26.3c1,1.5,2.7,2.7,4.7,2.7
		c0.1,0,0.2,0,0.2,0c0.1,0,0.2,0,0.2,0c2,0,3.7-1.1,4.7-2.7l10-22.1h5l-0.1,19.2c0,3.1,2.6,5.6,5.7,5.6c3.1,0,5.6-2.6,5.6-5.8
		L162,41.1v-0.5h7.4c3,0,5.6-2.4,5.6-5.5C175.1,32,172.7,29.5,169.6,29.5L169.6,29.5z"/>
	<path class="st1" d="M102.1,52.1l2-4.7l2,4.7H102.1L102.1,52.1z M108.9,32.3c-1-1.5-2.7-2.7-4.7-2.7c-0.1,0-0.4,0-0.5,0
		c-2,0-3.7,1.1-4.7,2.7L87.1,58.6c-0.1,0.4-0.2,0.8-0.2,1.2c0,3,2.5,5.5,5.5,5.5c3,0,5.6-2.3,5.6-5.2h5.8h0.3h5.8
		c0,2.9,2.5,5.2,5.6,5.2c3,0,5.5-2.5,5.5-5.5c0-0.4-0.1-0.9-0.2-1.2L108.9,32.3L108.9,32.3z"/>
	<path class="st0" d="M115,82.5c-0.9,0-1.7-0.1-2.3-0.4s-1.1-0.7-1.5-1.2s-0.5-1.2-0.6-1.8V79l1.4-0.1V79c0.1,0.5,0.2,0.9,0.4,1.2
		c0.2,0.3,0.5,0.6,1,0.8c0.4,0.2,1,0.3,1.5,0.3s0.9-0.1,1.3-0.2c0.4-0.1,0.7-0.3,0.8-0.6c0.2-0.3,0.3-0.5,0.3-0.8s-0.1-0.6-0.3-0.8
		c-0.2-0.2-0.5-0.4-0.9-0.6c-0.3-0.1-0.9-0.3-1.8-0.5c-0.9-0.2-1.6-0.4-2-0.6c-0.5-0.3-0.9-0.6-1.1-1s-0.4-0.8-0.4-1.3
		s0.1-1,0.4-1.5c0.3-0.5,0.7-0.8,1.3-1s1.2-0.3,1.9-0.3c0.8,0,1.4,0.1,2,0.4c0.6,0.2,1,0.6,1.3,1.1s0.5,1,0.5,1.6v0.1l-1.4,0.1v-0.1
		c-0.1-0.6-0.3-1.1-0.7-1.4s-1-0.5-1.7-0.5c-0.8,0-1.4,0.1-1.7,0.4c-0.4,0.3-0.5,0.6-0.5,1c0,0.3,0.1,0.6,0.4,0.8
		c0.2,0.2,0.9,0.5,2,0.7s1.8,0.5,2.2,0.6c0.6,0.3,1,0.6,1.3,1.1c0.3,0.4,0.4,0.9,0.4,1.5c0,0.5-0.2,1.1-0.5,1.6s-0.8,0.9-1.4,1.1
		C116.4,82.4,115.8,82.5,115,82.5L115,82.5z"/>
	<polygon class="st0" points="121.3,82.3 121.3,72.1 128.7,72.1 128.7,73.4 122.7,73.4 122.7,76.4 128.3,76.4 128.3,77.7 
		122.7,77.7 122.7,81 128.9,81 128.9,82.3 	"/>
	<path class="st0" d="M136.6,78.1l-1-2.7c-0.3-0.7-0.5-1.3-0.6-1.9c-0.1,0.6-0.3,1.1-0.5,1.7l-1.1,2.9H136.6L136.6,78.1z
		 M138.2,82.3l-1.2-3.1h-4.1l-1.1,3.1h-1.6l3.9-10.2h1.5l4.2,10.2H138.2L138.2,82.3z"/>
	<polygon class="st0" points="141.4,82.3 141.4,72.1 142.9,72.1 142.9,81 147.9,81 147.9,82.3 	"/>
	<polygon class="st0" points="150.2,82.3 150.2,72.1 151.7,72.1 151.7,82.3 	"/>
	<polygon class="st0" points="161.2,82.3 156,74.5 156,82.3 154.6,82.3 154.6,72.1 156.1,72.1 161.3,79.9 161.3,72.1 162.7,72.1 
		162.7,82.3 	"/>
	<path class="st0" d="M170.4,82.5c-1,0-1.9-0.2-2.7-0.6s-1.4-1.1-1.9-1.9c-0.4-0.8-0.6-1.7-0.6-2.7s0.2-1.9,0.6-2.8
		c0.4-0.9,1-1.5,1.8-1.9s1.7-0.6,2.7-0.6c0.7,0,1.4,0.1,2,0.4c0.6,0.2,1.1,0.6,1.4,1c0.3,0.4,0.6,1,0.8,1.7v0.1l-1.3,0.4v-0.1
		c-0.1-0.5-0.3-0.9-0.6-1.2c-0.2-0.3-0.5-0.5-0.9-0.7s-0.9-0.3-1.4-0.3c-0.6,0-1.1,0.1-1.6,0.3c-0.4,0.2-0.8,0.4-1.1,0.7
		c-0.3,0.3-0.5,0.6-0.6,1c-0.3,0.6-0.4,1.3-0.4,2c0,0.9,0.2,1.6,0.5,2.2s0.7,1,1.3,1.3s1.2,0.4,1.9,0.4c0.6,0,1.1-0.1,1.7-0.3
		c0.5-0.2,0.9-0.4,1.2-0.7v-1.8h-3v-1.3h4.4v3.8l0,0c-0.7,0.5-1.3,0.9-2.1,1.2C171.9,82.4,171.2,82.5,170.4,82.5L170.4,82.5z"/>
	<path class="st0" d="M91.8,98.6c-0.9,0-1.7-0.1-2.3-0.4c-0.6-0.3-1.1-0.7-1.5-1.2s-0.5-1.2-0.6-1.9V95l1.4-0.1V95
		c0.1,0.5,0.2,0.9,0.4,1.2c0.2,0.3,0.5,0.6,1,0.8c0.4,0.2,1,0.3,1.5,0.3s0.9-0.1,1.3-0.2c0.4-0.1,0.7-0.3,0.8-0.6
		c0.2-0.3,0.3-0.5,0.3-0.8s-0.1-0.6-0.3-0.8c-0.2-0.2-0.5-0.4-0.9-0.6c-0.3-0.1-0.9-0.3-1.8-0.5c-0.9-0.2-1.6-0.4-2-0.6
		c-0.5-0.3-0.9-0.6-1.1-1s-0.4-0.8-0.4-1.3s0.1-1,0.4-1.5s0.7-0.8,1.3-1c0.6-0.2,1.2-0.3,1.9-0.3c0.8,0,1.4,0.1,2,0.4
		c0.6,0.2,1,0.6,1.3,1.1s0.5,1,0.5,1.6v0.1l-1.4,0.1v-0.1c-0.1-0.6-0.3-1.1-0.7-1.4s-1-0.5-1.7-0.5c-0.8,0-1.4,0.1-1.7,0.4
		c-0.4,0.3-0.5,0.6-0.5,1c0,0.3,0.1,0.6,0.4,0.8c0.2,0.2,0.9,0.5,2,0.7s1.8,0.5,2.2,0.6c0.6,0.3,1,0.6,1.3,1.1
		c0.3,0.4,0.4,0.9,0.4,1.5c0,0.5-0.2,1.1-0.5,1.6S94,98,93.4,98.2C93.2,98.5,92.5,98.6,91.8,98.6L91.8,98.6z"/>
	<path class="st0" d="M102.7,89.3c-0.9,0-1.7,0.3-2.4,1c-0.7,0.6-1,1.7-1,3.2c0,1.2,0.3,2.1,1,2.8c0.6,0.7,1.5,1,2.4,1
		c1,0,1.8-0.4,2.4-1c0.6-0.7,1-1.7,1-3c0-0.8-0.1-1.5-0.4-2.1c-0.3-0.6-0.7-1.1-1.2-1.4C103.9,89.5,103.3,89.3,102.7,89.3
		L102.7,89.3z M102.7,98.6c-1,0-1.8-0.2-2.6-0.7s-1.3-1.1-1.7-1.9s-0.6-1.7-0.6-2.6c0-1.7,0.5-3,1.4-4s2.1-1.4,3.5-1.4
		c0.9,0,1.8,0.2,2.6,0.7s1.3,1.1,1.7,1.9s0.6,1.7,0.6,2.7s-0.2,2-0.6,2.8c-0.4,0.8-1,1.4-1.8,1.9C104.4,98.4,103.5,98.6,102.7,98.6
		L102.7,98.6z"/>
	<polygon class="st0" points="110,98.4 110,88.2 111.4,88.2 111.4,97.1 116.4,97.1 116.4,98.4 	"/>
	<path class="st0" d="M122.8,98.6c-1,0-1.7-0.2-2.4-0.5c-0.6-0.3-1.1-0.8-1.3-1.4c-0.3-0.6-0.4-1.5-0.4-2.6v-5.9h1.5v5.9
		c0,0.9,0.1,1.5,0.2,1.9c0.2,0.4,0.4,0.7,0.8,0.9c0.4,0.2,0.9,0.3,1.4,0.3c1,0,1.7-0.2,2.1-0.6c0.4-0.4,0.6-1.3,0.6-2.5v-5.9h1.5
		v5.9c0,1-0.1,1.8-0.3,2.4s-0.7,1.1-1.3,1.5C124.6,98.4,123.8,98.6,122.8,98.6L122.8,98.6z"/>
	<polygon class="st0" points="132.4,98.4 132.4,89.5 129.1,89.5 129.1,88.2 137.2,88.2 137.2,89.5 133.9,89.5 133.9,98.4 	"/>
	<polygon class="st0" points="139.6,98.4 139.6,88.2 141,88.2 141,98.4 	"/>
	<path class="st0" d="M148.7,89.3c-0.9,0-1.7,0.3-2.4,1c-0.7,0.6-1,1.7-1,3.2c0,1.2,0.3,2.1,1,2.8c0.6,0.7,1.5,1,2.4,1
		c1,0,1.8-0.4,2.4-1c0.6-0.7,1-1.7,1-3c0-0.8-0.1-1.5-0.4-2.1c-0.3-0.6-0.7-1.1-1.2-1.4C149.9,89.5,149.3,89.3,148.7,89.3
		L148.7,89.3z M148.7,98.6c-1,0-1.8-0.2-2.6-0.7s-1.3-1.1-1.7-1.9s-0.6-1.7-0.6-2.6c0-1.7,0.5-3,1.4-4s2.1-1.4,3.5-1.4
		c0.9,0,1.8,0.2,2.6,0.7s1.3,1.1,1.7,1.9s0.6,1.7,0.6,2.7s-0.2,2-0.6,2.8c-0.4,0.8-1,1.4-1.8,1.9C150.4,98.4,149.5,98.6,148.7,98.6
		L148.7,98.6z"/>
	<polygon class="st0" points="162.6,98.4 157.4,90.6 157.4,98.4 156,98.4 156,88.2 157.5,88.2 162.7,96 162.7,88.2 164.1,88.2 
		164.1,98.4 	"/>
	<path class="st0" d="M171,98.6c-0.9,0-1.7-0.1-2.3-0.4s-1.1-0.7-1.5-1.2s-0.5-1.2-0.6-1.9V95l1.4-0.1V95c0.1,0.5,0.2,0.9,0.4,1.2
		c0.2,0.3,0.5,0.6,1,0.8c0.4,0.2,1,0.3,1.5,0.3s0.9-0.1,1.3-0.2c0.4-0.1,0.7-0.3,0.8-0.6c0.2-0.3,0.3-0.5,0.3-0.8s-0.1-0.6-0.3-0.8
		c-0.2-0.2-0.5-0.4-0.9-0.6c-0.3-0.1-0.9-0.3-1.8-0.5c-0.9-0.2-1.6-0.4-2-0.6c-0.5-0.3-0.9-0.6-1.1-1c-0.2-0.4-0.4-0.8-0.4-1.3
		s0.1-1,0.4-1.5c0.3-0.5,0.7-0.8,1.3-1s1.2-0.3,1.9-0.3c0.8,0,1.4,0.1,2,0.4c0.6,0.2,1,0.6,1.3,1.1s0.5,1,0.5,1.6v0.1l-1.4,0.1v-0.1
		c-0.1-0.6-0.3-1.1-0.7-1.4s-1-0.5-1.7-0.5c-0.8,0-1.4,0.1-1.7,0.4c-0.4,0.3-0.5,0.6-0.5,1c0,0.3,0.1,0.6,0.4,0.8
		c0.2,0.2,0.9,0.5,2,0.7s1.8,0.5,2.2,0.6c0.6,0.3,1,0.6,1.3,1.1c0.3,0.4,0.4,0.9,0.4,1.5c0,0.5-0.2,1.1-0.5,1.6s-0.8,0.9-1.4,1.1
		C172.4,98.5,171.7,98.6,171,98.6L171,98.6z"/>
	<path class="st0" d="M75.4,79.4c-1.5-1.9-4.6-5.3-4.9-6.6c-0.5-1.9-0.4-3.6-0.4-4.5l0,0l0.1,0.1c0.1,0.1,0.3,0.3,0.4,0.4l0,0
		c0.2,0.1,0.3,0.2,0.5,0.3h0.1c0.2,0.1,0.4,0.1,0.5,0.1h2.5c1.7,0,3-2.2,3-4.9c0-2.7-1.4-4.9-3-4.9h-2.5h-0.1c-0.1,0-0.3,0-0.4,0.1
		c0,0,0,0-0.1,0H71c-0.1,0-0.1,0-0.2,0.1c-0.1,0-0.1,0.1-0.2,0.1s-0.1,0.1-0.2,0.1c0,0-0.1,0-0.1,0.1c-0.1,0-0.1,0.1-0.2,0.2
		c-0.1,0.1-0.2,0.2-0.3,0.3c-0.1-0.9-0.1-2.6,0.4-4.5c0.3-1.3,3.4-4.7,4.9-6.6c1.5-1.9,3.1-3.7,3.4-4.2c0.3-0.4,0.4-1.3,0.1-1.7
		c-0.3-0.5-1.3-2.4-1.7-2.8c-0.4-0.4-1-0.9-1.9-0.4c-0.9,0.6-6,5.7-7.1,6.4s-3.4,1-5.3-0.7l-0.1-0.1c-1.7-1.9-1.5-4.2-0.7-5.3
		c0.7-1.2,5.8-6.3,6.4-7.1c0.6-0.9,0-1.5-0.4-1.9s-2.3-1.4-2.8-1.7s-1.3-0.2-1.7,0.1s-2.3,1.8-4.2,3.4c-1.9,1.5-5.3,4.5-6.6,4.9
		c-1.7,0.6-3.4,0.5-4.4,0.4c-0.2,0-0.4-0.1-0.7-0.1c-0.1,0-0.1,0-0.1,0l0,0c-1.1-0.1-2.2-0.2-3.3-0.2c-1.1,0-2.2,0.1-3.3,0.2l0,0
		c0,0-2.4,0.5-5.2-0.3c-1.3-0.3-4.7-3.4-6.6-4.9s-3.7-3.1-4.2-3.4c-0.4-0.3-1.3-0.4-1.7-0.1c-0.5,0.3-2.4,1.3-2.8,1.7
		c-0.4,0.4-0.9,1-0.4,1.9c0.6,0.9,5.7,6,6.4,7.1c0.7,1.1,1,3.4-0.7,5.3l-0.1,0.1c-1.9,1.7-4.2,1.5-5.3,0.7c-1.2-0.7-6.3-5.8-7.1-6.4
		c-0.9-0.6-1.5,0-1.9,0.4s-1.4,2.3-1.7,2.8c-0.3,0.5-0.2,1.3,0.1,1.7s1.8,2.3,3.4,4.2c1.5,1.9,4.5,5.3,4.9,6.6
		c0.6,1.6,0.5,3.4,0.4,4.4v0.1l0,0l0,0l0,0c0,0,0,0-0.1-0.1L18,60.2l-0.1-0.1L17.8,60l-0.1-0.1l0,0l0,0l-0.1-0.1c0,0-0.1,0-0.1-0.1
		c0,0-0.1,0-0.1-0.1c0,0-0.1,0-0.1-0.1c0,0,0,0-0.1,0l0,0c0,0,0,0-0.1,0H17c-0.1,0-0.1,0-0.2,0s-0.1,0-0.2,0l0,0h-2.5
		c-1.7,0-3,2.2-3,4.9c0,2.7,1.4,4.9,3,4.9h2.5c0.2,0,0.4,0,0.5-0.1h0.1c0.1-0.1,0.3-0.1,0.4-0.2h0.1c0.1-0.1,0.3-0.2,0.4-0.3
		l0.1-0.1c0,0,0,0,0-0.1c0,0,0,0,0.1-0.1v0.1c0.1,1,0.2,2.8-0.4,4.4c-0.4,1.3-3.4,4.7-4.9,6.6s-3.1,3.7-3.4,4.2
		c-0.3,0.4-0.4,1.3-0.1,1.7c0.3,0.5,1.3,2.4,1.7,2.8c0.4,0.4,1,0.9,1.9,0.4c0.9-0.6,6-5.7,7.1-6.4c1.1-0.7,3.4-1,5.3,0.7l0.1,0.1
		c1.7,1.9,1.4,4.2,0.7,5.3c-0.7,1.2-5.8,6.3-6.4,7.1c-0.6,0.9,0,1.5,0.4,1.9s2.3,1.4,2.8,1.7c0.5,0.3,1.3,0.2,1.7-0.1
		c0.4-0.3,2.3-1.8,4.2-3.4c1.9-1.5,5.3-4.6,6.6-4.9c2-0.5,3.7-0.4,4.6-0.4c0,0-0.1,0-0.1,0.1c0,0,0,0-0.1,0.1
		c-0.1,0-0.1,0.1-0.1,0.1c-0.1,0.1-0.2,0.2-0.3,0.3c0,0.1-0.1,0.1-0.1,0.2c-0.1,0.1-0.1,0.2-0.2,0.4c0,0.1,0,0.1-0.1,0.2
		c-0.1,0.2-0.1,0.4-0.1,0.6v2.5c0,1.7,2.2,3.1,4.9,3.1c2.7,0,4.9-1.4,4.9-3.1l0,0v-2.5l0,0c0-0.1,0-0.1,0-0.2s0-0.1,0-0.2
		s0-0.1,0-0.1v-0.1l0,0l0,0c0,0,0-0.1-0.1-0.1c0,0,0-0.1-0.1-0.1c0,0,0-0.1-0.1-0.1c0,0,0-0.1-0.1-0.1l0,0l0,0c0,0,0,0-0.1-0.1
		L48.3,91l-0.1-0.1l-0.1-0.1c0,0-0.1,0-0.1-0.1l0,0l0,0l-0.1-0.1c0.1,0,0.1,0,0.2,0c1-0.1,2.8-0.2,4.4,0.4c1.3,0.4,4.7,3.4,6.6,4.9
		s3.7,3.1,4.2,3.4c0.4,0.3,1.3,0.4,1.7,0.1c0.5-0.3,2.4-1.3,2.8-1.7c0.4-0.4,0.9-1,0.4-1.9c-0.6-0.9-5.7-6-6.4-7.1
		c-0.7-1.1-1-3.4,0.7-5.3l0.1-0.1c1.9-1.7,4.2-1.5,5.3-0.7c1.2,0.7,6.3,5.8,7.1,6.4c0.9,0.6,1.5,0,1.9-0.4s1.4-2.3,1.7-2.8
		c0.3-0.5,0.2-1.3-0.1-1.7C78.5,83.2,77,81.3,75.4,79.4z M44.3,80.6c-9,0-16.3-7.3-16.3-16.3c0-1.7,0.3-3.3,0.7-4.8v-0.1
		c0.3-1,0.7-1.9,1.2-2.8c0,0,0,0,0-0.1c0.5-0.9,1.1-1.7,1.7-2.5l0,0c1-1.2,2.1-2.2,3.4-3.1c0.1,0,0.1-0.1,0.2-0.1
		c0.4-0.2,0.7-0.5,1.1-0.7c0.1-0.1,0.2-0.1,0.4-0.2c0.4-0.2,0.7-0.4,1.1-0.5c0.2-0.1,0.3-0.1,0.5-0.2c0.8-0.3,1.7-0.6,2.6-0.8
		c0.1,0,0.2,0,0.3,0c1-0.2,2-0.3,3-0.3c1.1,0,2.2,0.1,3.3,0.3c1,0.2,2,0.5,2.9,0.9h0.1c1.4,0.6,2.6,1.3,3.8,2.3
		c0.1,0.1,0.2,0.1,0.2,0.2c3.6,3,5.9,7.5,5.9,12.6C60.6,73.3,53.3,80.6,44.3,80.6z"/>
	<polygon class="st0" points="103.5,82.1 101.2,82.1 101.2,72.1 103.5,72.1 	"/>
	<polygon class="st0" points="108.3,82.1 106.9,82.1 106.9,72.1 108.3,72.1 	"/>
	<polygon class="st0" points="87.2,72.2 87.2,82.1 98.4,82.1 98.4,72.2 	"/>
</g>
<g>
	<path class="st0" d="M40.9,37.2h2.6h0.1l0,0l0.3,0.6c0,0,0,0,0.1,0.1h0.1h4c0,0,0.2,0,0.3,0.1c0.1,0,0.2,0.2,0.2,0.2l0.3,0.4
		c0,0,0,0.1,0,0.2c-0.1,0.1-0.1,0.1-0.1,0.1h-4.3h-0.1l-0.1-0.1L43.8,38c0,0,0,0-0.1-0.1h-0.1h-3.1h-0.1v-0.1l0.3-0.5
		C40.8,37.3,40.8,37.2,40.9,37.2L40.9,37.2"/>
	<path class="st0" d="M42.6,34.6h0.9h0.1l0,0l0.3,0.6c0,0,0,0,0.1,0.1h0.1h2.3c0,0,0.2,0,0.3,0.1c0.1,0,0.2,0.2,0.2,0.2l0.2,0.3
		c0,0,0.1,0.1,0,0.2c-0.1,0.1-0.2,0.1-0.2,0.1h-2.5h-0.1l-0.1-0.1l-0.4-0.7c0,0,0,0-0.1-0.1h-0.1h-1.4h-0.1v-0.1l0.3-0.5
		C42.4,34.6,42.5,34.6,42.6,34.6C42.5,34.6,42.6,34.6,42.6,34.6"/>
	<path class="st0" d="M44.4,31.8c0.2,0,0.3,0.2,0.3,0.2l1.5,2.4c0,0,0.1,0.1,0,0.2c-0.1,0.1-0.2,0.1-0.2,0.1h-1.7h-0.1l-0.1-0.1
		L43.8,34c0,0,0,0-0.1-0.1h-0.1h-0.5c0,0-0.1,0-0.1-0.1s0-0.2,0-0.2l1-1.6C44,32.1,44.1,31.8,44.4,31.8"/>
	<path class="st0" d="M41.7,35.9h1.8h0.1l0,0l0.3,0.6c0,0,0,0,0.1,0.1h0.1h3.2c0,0,0.2,0,0.3,0.1c0.1,0,0.2,0.2,0.2,0.2l0.2,0.3
		c0,0,0.1,0.1,0,0.2c-0.1,0.1-0.2,0.1-0.2,0.1h-3.3h-0.1l-0.1-0.1l-0.4-0.7c0,0,0,0-0.1-0.1h-0.1h-2.3h-0.1v-0.1l0.3-0.5
		C41.6,36,41.6,35.9,41.7,35.9L41.7,35.9"/>
</g>
</svg>
