<?xml version="1.0" encoding="utf-8"?>
<!-- Generator: Adobe Illustrator 25.1.0, SVG Export Plug-In . SVG Version: 6.00 Build 0)  -->
<svg version="1.1" xmlns="http://www.w3.org/2000/svg" xmlns:xlink="http://www.w3.org/1999/xlink" x="0px" y="0px"
	 viewBox="0 0 219.2 130.4" style="enable-background:new 0 0 219.2 130.4;" xml:space="preserve">
<style type="text/css">
	.st0{fill:#FFFFFF;}
	.st1{fill-rule:evenodd;clip-rule:evenodd;fill:#FFFFFF;}
	.st2{clip-path:url(#SVGID_2_);fill:#FFFFFF;}
	.st3{clip-path:url(#SVGID_4_);fill:#FFFFFF;}
	.st4{clip-path:url(#SVGID_6_);fill:#FFFFFF;}
	.st5{clip-path:url(#SVGID_8_);fill:#FFFFFF;}
	.st6{clip-path:url(#SVGID_10_);fill:#FFFFFF;}
	.st7{clip-path:url(#SVGID_12_);fill:#FFFFFF;}
	.st8{clip-path:url(#SVGID_14_);fill:#FFFFFF;}
	.st9{clip-path:url(#SVGID_16_);fill:#FFFFFF;}
	.st10{clip-path:url(#SVGID_18_);fill:#FFFFFF;}
	.st11{clip-path:url(#SVGID_20_);fill:#FFFFFF;}
	.st12{clip-path:url(#SVGID_22_);fill:#FFFFFF;}
	.st13{clip-path:url(#SVGID_24_);fill:#FFFFFF;}
	.st14{clip-path:url(#SVGID_26_);fill:#FFFFFF;}
	.st15{clip-path:url(#SVGID_28_);fill:#FFFFFF;}
	.st16{clip-path:url(#SVGID_30_);fill:#FFFFFF;}
	.st17{clip-path:url(#SVGID_32_);fill:#FFFFFF;}
	.st18{clip-path:url(#SVGID_34_);fill:#FFFFFF;}
	.st19{clip-path:url(#SVGID_36_);fill:#FFFFFF;}
	.st20{clip-path:url(#SVGID_38_);fill:#FFFFFF;}
	.st21{clip-path:url(#SVGID_40_);fill:#FFFFFF;}
	.st22{clip-path:url(#SVGID_42_);fill:#FFFFFF;}
	.st23{clip-path:url(#SVGID_44_);fill:#FFFFFF;}
	.st24{clip-path:url(#SVGID_46_);fill:#FFFFFF;}
	.st25{clip-path:url(#SVGID_48_);fill:#FFFFFF;}
	.st26{clip-path:url(#SVGID_50_);fill:#FFFFFF;}
	.st27{clip-path:url(#SVGID_52_);fill:#FFFFFF;}
</style>
<g id="Layer_1">
	<g>
		<g>
			<g>
				<path class="st0" d="M-130.9,70.9h2.4c1.3,0,2.5,0.5,2.5,2c0,1.2-0.8,1.6-1.7,1.8l0,0c1.1,0.2,1.3,0.9,1.4,1.7l0.5,2.2h-1.1
					l-0.5-1.7c-0.3-1.1-0.5-1.6-1.7-1.6h-0.6v3.3h-1.2V70.9z M-129.7,74.3h0.7c0.9,0,1.8-0.3,1.8-1.4c0-1-0.6-1.3-1.4-1.3h-1V74.3z"
					/>
				<polygon class="st0" points="-123,70.9 -118.3,70.9 -118.3,71.8 -121.8,71.8 -121.8,74.1 -118.5,74.1 -118.5,75 -121.8,75 
					-121.8,77.7 -118.3,77.7 -118.3,78.6 -123,78.6 				"/>
				<polygon class="st0" points="-115.5,70.9 -114.3,70.9 -114.3,77.7 -111.1,77.7 -111.1,78.6 -115.5,78.6 				"/>
				<rect x="-108.7" y="70.9" class="st0" width="1.2" height="7.7"/>
				<path class="st0" d="M-102.2,70.9h1.5l2.9,7.7h-1.3l-0.8-2.2h-3l-0.8,2.2h-1.3L-102.2,70.9z M-102.7,75.4h2.4l-1.1-3.6l0,0
					L-102.7,75.4z"/>
				<path class="st0" d="M-95.4,70.9h2.4c0.8,0,2.2,0.3,2.2,1.8c0,1.3-0.9,1.6-1.3,1.8l0,0c0.6,0.1,1.7,0.5,1.7,2
					c0,1.9-1.6,2.1-2.7,2.1h-2.3L-95.4,70.9L-95.4,70.9z M-94.2,74.1h0.8c0.6,0,1.4-0.2,1.4-1.1c0-1.1-0.9-1.1-1.5-1.1h-0.7V74.1z
					 M-94.2,77.7h1c1.1,0,1.7-0.6,1.7-1.3c0-1.3-1.3-1.4-1.8-1.4h-0.8L-94.2,77.7L-94.2,77.7z"/>
				<rect x="-87.5" y="70.9" class="st0" width="1.2" height="7.7"/>
				<polygon class="st0" points="-82.9,70.9 -81.7,70.9 -81.7,77.7 -78.4,77.7 -78.4,78.6 -82.9,78.6 				"/>
				<rect x="-76.1" y="70.9" class="st0" width="1.2" height="7.7"/>
				<polygon class="st0" points="-70.4,71.8 -72.5,71.8 -72.5,70.9 -67.1,70.9 -67.1,71.8 -69.2,71.8 -69.2,78.6 -70.4,78.6 				"/>
				<polygon class="st0" points="-63.2,75 -65.9,70.9 -64.6,70.9 -62.6,73.8 -60.6,70.9 -59.3,70.9 -61.9,75 -61.9,78.6 -63.2,78.6 
									"/>
				<path class="st1" d="M-63.5,36h-10.7l0,0l0,0h-10.7h-0.8c-1.9,0-3.5,1.2-4.2,2.7l0,0l-4,9.1l-1.2,2.8v-0.1v0.1l-5-11.8l0,0
					c-0.6-1.6-2.3-2.7-4.2-2.7c-2.5,0-4.5,2-4.5,4.5c0,0.3,0.1,0.7,0.2,1L-99,63c0.8,1.3,2.2,2.2,3.8,2.2c0.1,0,0.2,0,0.2,0
					c0.1,0,0.2,0,0.2,0c1.6,0,3-0.9,3.8-2.2l8.2-18.1h4.1l-0.1,15.7c0,2.6,2.1,4.6,4.6,4.6c2.6,0,4.6-2.2,4.6-4.7l-0.1-15.1V45h6
					c2.5,0,4.6-2,4.6-4.5C-59,38-61,36-63.5,36"/>
				<path class="st0" d="M-63.5,36h-10.7l0,0l0,0h-10.7h-0.8c-1.9,0-3.5,1.2-4.2,2.7l0,0l-4,9.1l-1.2,2.8v-0.1v0.1l-5-11.8l0,0
					c-0.6-1.6-2.3-2.7-4.2-2.7c-2.5,0-4.5,2-4.5,4.5c0,0.3,0.1,0.7,0.2,1L-99,63c0.8,1.3,2.2,2.2,3.8,2.2c0.1,0,0.2,0,0.2,0
					c0.1,0,0.2,0,0.2,0c1.6,0,3-0.9,3.8-2.2l8.2-18.1h4.1l-0.1,15.7c0,2.6,2.1,4.6,4.6,4.6c2.6,0,4.6-2.2,4.6-4.7l-0.1-15.1V45h6
					c2.5,0,4.6-2,4.6-4.5C-59,38-61,36-63.5,36z"/>
				<path class="st1" d="M-113,38.2c-0.8-1.3-2.2-2.2-3.8-2.2h-0.4c-1.6,0-3,0.9-3.8,2.2l-9.7,21.4c-0.1,0.3-0.2,0.6-0.2,1
					c0,2.5,2,4.5,4.5,4.5s4.6-1.9,4.6-4.2h4.7h0.2h4.7c0,2.3,2.1,4.2,4.6,4.2c2.5,0,4.5-2,4.5-4.5c0-0.3-0.1-0.7-0.2-1L-113,38.2z
					 M-118.7,54.4l1.6-3.8l1.6,3.8H-118.7z"/>
				<path class="st0" d="M-113,38.2c-0.8-1.3-2.2-2.2-3.8-2.2h-0.4c-1.6,0-3,0.9-3.8,2.2l-9.7,21.4c-0.1,0.3-0.2,0.6-0.2,1
					c0,2.5,2,4.5,4.5,4.5s4.6-1.9,4.6-4.2h4.7h0.2h4.7c0,2.3,2.1,4.2,4.6,4.2c2.5,0,4.5-2,4.5-4.5c0-0.3-0.1-0.7-0.2-1L-113,38.2z
					 M-118.7,54.4l1.6-3.8l1.6,3.8H-118.7z"/>
				<rect x="-137.3" y="99.8" class="st0" width="0.7" height="0.7"/>
				<rect x="-135.1" y="99.8" class="st0" width="0.7" height="0.7"/>
				<rect x="-133" y="99.8" class="st0" width="0.7" height="0.7"/>
				<path class="st0" d="M-130.3,96.5h-0.6v-0.7h0.6V96.5z M-130.9,97.1h0.6v3.5h-0.6V97.1z"/>
				<path class="st0" d="M-128.4,97.1h0.7v0.5h-0.7v2.2c0,0.2,0.1,0.3,0.4,0.3h0.2v0.5h-0.4c-0.6,0-0.8-0.2-0.8-0.8v-2.2h-0.6V97
					h0.6v-1h0.6V97.1z"/>
				<path class="st0" d="M-126.7,95.8h0.7v0.7c0,0.6-0.2,1-0.7,1v-0.2c0.3,0,0.4-0.3,0.4-0.6h-0.4V95.8z"/>
				<path class="st0" d="M-124.7,99.4c0,0.5,0.5,0.6,1,0.6c0.3,0,0.9-0.1,0.9-0.5c0-0.9-2.2-0.3-2.2-1.6c0-0.7,0.7-1,1.3-1
					c0.8,0,1.4,0.2,1.4,1.1h-0.6c0-0.5-0.4-0.6-0.8-0.6c-0.3,0-0.7,0.1-0.7,0.5c0,0.4,0.6,0.5,1.1,0.6c0.6,0.2,1.1,0.3,1.1,1
					c0,0.8-0.8,1.1-1.5,1.1c-0.8,0-1.4-0.3-1.4-1.2h0.5L-124.7,99.4L-124.7,99.4z"/>
				<path class="st0" d="M-118.6,96.5h-0.6v-0.7h0.6V96.5z M-119.1,97.1h0.6v3.5h-0.6V97.1z"/>
				<path class="st0" d="M-117.5,97.1h0.6v0.6l0,0c0.2-0.4,0.6-0.6,1.1-0.6c0.9,0,1.2,0.6,1.2,1.3v2.3h-0.6v-2.3
					c0-0.4-0.2-0.7-0.7-0.7c-0.7,0-1,0.5-1,1.1v2h-0.6V97.1z"/>
				<path class="st0" d="M-109.8,97c1.1,0,1.7,0.8,1.7,1.8s-0.6,1.8-1.7,1.8s-1.7-0.8-1.7-1.8S-110.9,97-109.8,97 M-109.8,100.2
					c0.6,0,1.1-0.5,1.1-1.3c0-0.9-0.5-1.4-1.1-1.4c-0.6,0-1.1,0.5-1.1,1.4C-110.8,99.7-110.3,100.2-109.8,100.2"/>
				<path class="st0" d="M-104.3,100.6h-0.6V100l0,0c-0.2,0.4-0.6,0.6-1.1,0.6c-0.9,0-1.2-0.6-1.2-1.3V97h0.6v2.3
					c0,0.4,0.2,0.7,0.7,0.7c0.7,0,1-0.5,1-1.1v-2h0.6V100.6z"/>
				<path class="st0" d="M-103.1,97.1h0.6v0.7l0,0c0.2-0.6,0.6-0.8,1.3-0.8v0.6c-1,0-1.3,0.5-1.3,1.4v1.5h-0.6V97.1z"/>
				<path class="st0" d="M-98.3,95.8h1.7c1.5,0,2.3,0.7,2.3,2.3s-0.7,2.6-2.3,2.6h-1.7V95.8z M-96.7,100c0.4,0,1.6-0.2,1.6-1.9
					c0-1.1-0.4-1.8-1.6-1.8h-1v3.8C-97.7,100-96.7,100-96.7,100z"/>
				<polygon class="st0" points="-93.4,95.8 -92.7,95.8 -90.2,99.7 -90.1,99.7 -90.1,95.8 -89.5,95.8 -89.5,100.6 -90.3,100.6 
					-92.7,96.7 -92.7,96.7 -92.7,100.6 -93.4,100.6 				"/>
				<path class="st0" d="M-86.9,95.8h0.7l1.9,4.8H-85l-0.6-1.4h-2l-0.6,1.4h-0.6L-86.9,95.8z M-85.8,98.6l-0.8-2.2l0,0l-0.8,2.2
					H-85.8z"/>
				<path class="st0" d="M-161.7,41.6c0,0-0.7,2.8-0.8,3.3c-4.3,15.9-0.1,21.3,6.2,25.7c16.3,11.4,29.3,10,42.1,16.4l-7.3,3.7
					c0,0-4.6-1.9-11.4-3.6c-7.8-2-13-4.1-19.5-7.3c-18.8-9.2-19.1-21.1-16-31.9c0.1-0.2,1.5-4.1,1.5-4.1L-161.7,41.6z"/>
				<path class="st0" d="M-139.2,42.9c6.4,14-0.8,26.1-2.5,35.9c-2,12,2.5,21.5,2.5,21.5s-10.4-8.9-9.3-19.8
					c1.3-12.4,12.6-26,1.8-38.8c-3.5-4.2-24-10.6-24-10.6S-144.2,31.9-139.2,42.9"/>
				<path class="st0" d="M-144.1,46.4c0,0-0.3-1.6-9.4,1.5c-9.2,3.1-8.8,4.4-8.8,4.4s0.5,1.4,9.7-1.8
					C-143.5,47.5-144.1,46.4-144.1,46.4"/>
				<path class="st0" d="M-142.3,53.7c0,0-0.2-2.1-10.3,0.4c-10.2,2.4-9.7,4.3-9.7,4.3s0.4,1.9,10.6-0.6
					C-141.6,55.4-142.3,53.7-142.3,53.7"/>
				<path class="st0" d="M-143.9,62.5c0,0,0.2-1.5-8.1-0.3c-8.2,1.2-8,2.6-8,2.6s0.2,1.4,8.4,0.2C-143.2,63.7-143.9,62.5-143.9,62.5
					"/>
				<path class="st0" d="M-148,40.9c0,0-0.2-1.1-7,1.8c-6.7,3-6.4,3.8-6.4,3.8s0.4,0.9,7.1-2.1C-147.5,41.5-148,40.9-148,40.9"/>
				<path class="st0" d="M-138,36.6c0.9,0,1.7,0.7,1.7,1.7s-0.8,1.7-1.7,1.7s-1.7-0.7-1.7-1.7S-138.9,36.6-138,36.6 M-138,39.7
					c0.8,0,1.4-0.6,1.4-1.4s-0.6-1.4-1.4-1.4s-1.4,0.6-1.4,1.4S-138.8,39.7-138,39.7 M-138.7,37.3h0.7c0.5,0,0.7,0.2,0.7,0.6
					c0,0.3-0.2,0.5-0.5,0.6l0.6,0.9h-0.3l-0.6-0.8h-0.3v0.8h-0.3V37.3z M-138.3,38.2h0.3c0.2,0,0.5,0,0.5-0.3c0-0.2-0.2-0.3-0.4-0.3
					h-0.4V38.2z"/>
			</g>
		</g>
	</g>
	<g>
		<g>
			<g>
				<defs>
					<rect id="SVGID_1_" x="-404.1" y="39.9" width="156.4" height="50.2"/>
				</defs>
				<clipPath id="SVGID_2_">
					<use xlink:href="#SVGID_1_"  style="overflow:visible;"/>
				</clipPath>
				<path class="st2" d="M-381.9,76.4h4.3c2.3,0,4.3,0.9,4.3,3.6c0,2.1-1.4,2.9-2.9,3.2v0.1c2.1,0.4,2.2,1.5,2.6,3l0.9,3.8h-2
					l-0.9-3.2c-0.6-2-0.9-2.9-2.9-2.9h-1.2V90h-2.1V76.4z M-379.8,82.6h1.2c1.5,0,3.1-0.6,3.1-2.3c0-1.7-1-2.2-2.6-2.2h-1.8V82.6z"
					/>
			</g>
		</g>
		<g>
			<g>
				<defs>
					<rect id="SVGID_3_" x="-404.1" y="39.9" width="156.4" height="50.2"/>
				</defs>
				<clipPath id="SVGID_4_">
					<use xlink:href="#SVGID_3_"  style="overflow:visible;"/>
				</clipPath>
				<polygon class="st3" points="-367.9,76.4 -359.8,76.4 -359.8,78.1 -365.8,78.1 -365.8,82.2 -360.1,82.2 -360.1,83.8 
					-365.8,83.8 -365.8,88.5 -359.5,88.5 -359.5,90 -367.9,90 				"/>
			</g>
		</g>
		<g>
			<g>
				<defs>
					<rect id="SVGID_5_" x="-404.1" y="39.9" width="156.4" height="50.2"/>
				</defs>
				<clipPath id="SVGID_6_">
					<use xlink:href="#SVGID_5_"  style="overflow:visible;"/>
				</clipPath>
				<polygon class="st4" points="-354.7,76.4 -352.6,76.4 -352.6,88.5 -346.9,88.5 -346.9,90 -354.7,90 				"/>
			</g>
		</g>
		<g>
			<g>
				<defs>
					<rect id="SVGID_7_" x="-404.1" y="39.9" width="156.4" height="50.2"/>
				</defs>
				<clipPath id="SVGID_8_">
					<use xlink:href="#SVGID_7_"  style="overflow:visible;"/>
				</clipPath>
				<rect x="-342.8" y="76.4" class="st5" width="2.1" height="13.6"/>
			</g>
		</g>
		<g>
			<g>
				<defs>
					<rect id="SVGID_9_" x="-404.1" y="39.9" width="156.4" height="50.2"/>
				</defs>
				<clipPath id="SVGID_10_">
					<use xlink:href="#SVGID_9_"  style="overflow:visible;"/>
				</clipPath>
				<path class="st6" d="M-331.2,76.4h2.6l5.1,13.6h-2.3l-1.5-3.9h-5.3L-334,90h-2.3L-331.2,76.4z M-332,84.6h4.3l-2.1-6.3h-0.1
					L-332,84.6z"/>
			</g>
		</g>
		<g>
			<g>
				<defs>
					<rect id="SVGID_11_" x="-404.1" y="39.9" width="156.4" height="50.2"/>
				</defs>
				<clipPath id="SVGID_12_">
					<use xlink:href="#SVGID_11_"  style="overflow:visible;"/>
				</clipPath>
				<path class="st7" d="M-319.1,76.4h4.3c1.5,0,3.9,0.5,3.9,3.2c0,2.3-1.6,2.9-2.3,3.1v0.1c1.1,0.1,3,0.9,3,3.4
					c0,3.3-2.9,3.7-4.8,3.7h-4.1C-319.1,90-319.1,76.4-319.1,76.4z M-317,82.1h1.3c1,0,2.5-0.2,2.5-2.1c0-1.9-1.5-2-2.6-2h-1.2
					L-317,82.1L-317,82.1z M-317,88.5h1.7c1.9,0,2.9-1,2.9-2.3c0-2.3-2.2-2.5-3.1-2.5h-1.5C-317,83.6-317,88.5-317,88.5z"/>
			</g>
		</g>
		<g>
			<g>
				<defs>
					<rect id="SVGID_13_" x="-404.1" y="39.9" width="156.4" height="50.2"/>
				</defs>
				<clipPath id="SVGID_14_">
					<use xlink:href="#SVGID_13_"  style="overflow:visible;"/>
				</clipPath>
				<rect x="-305.1" y="76.4" class="st8" width="2.1" height="13.6"/>
			</g>
		</g>
		<g>
			<g>
				<defs>
					<rect id="SVGID_15_" x="-404.1" y="39.9" width="156.4" height="50.2"/>
				</defs>
				<clipPath id="SVGID_16_">
					<use xlink:href="#SVGID_15_"  style="overflow:visible;"/>
				</clipPath>
				<polygon class="st9" points="-297.1,76.4 -295,76.4 -295,88.5 -289.3,88.5 -289.3,90 -297.1,90 				"/>
			</g>
		</g>
		<g>
			<g>
				<defs>
					<rect id="SVGID_17_" x="-404.1" y="39.9" width="156.4" height="50.2"/>
				</defs>
				<clipPath id="SVGID_18_">
					<use xlink:href="#SVGID_17_"  style="overflow:visible;"/>
				</clipPath>
				<rect x="-285.1" y="76.4" class="st10" width="2.1" height="13.6"/>
			</g>
		</g>
		<g>
			<g>
				<defs>
					<rect id="SVGID_19_" x="-404.1" y="39.9" width="156.4" height="50.2"/>
				</defs>
				<clipPath id="SVGID_20_">
					<use xlink:href="#SVGID_19_"  style="overflow:visible;"/>
				</clipPath>
				<polygon class="st11" points="-275.1,78.1 -278.8,78.1 -278.8,76.4 -269.3,76.4 -269.3,78.1 -273,78.1 -273,90 -275.1,90 				
					"/>
			</g>
		</g>
		<g>
			<g>
				<defs>
					<rect id="SVGID_21_" x="-404.1" y="39.9" width="156.4" height="50.2"/>
				</defs>
				<clipPath id="SVGID_22_">
					<use xlink:href="#SVGID_21_"  style="overflow:visible;"/>
				</clipPath>
				<polygon class="st12" points="-262.4,83.8 -267.1,76.4 -264.7,76.4 -261.3,81.7 -257.8,76.4 -255.5,76.4 -260.3,83.8 -260.3,90 
					-262.4,90 				"/>
			</g>
		</g>
		<g>
			<g>
				<defs>
					<rect id="SVGID_23_" x="-404.1" y="39.9" width="156.4" height="50.2"/>
				</defs>
				<clipPath id="SVGID_24_">
					<use xlink:href="#SVGID_23_"  style="overflow:visible;"/>
				</clipPath>
				<path class="st13" d="M-251.5,42.5h-0.9v2.4h-0.6v-2.4h-0.9V42h2.3V42.5z M-249.3,44.1l0.8-2.1h0.8v2.9h-0.5v-2.3l0,0l-0.9,2.3
					h-0.4l-0.9-2.3l0,0v2.3h-0.5V42h0.8L-249.3,44.1z"/>
			</g>
		</g>
		<g>
			<g>
				<defs>
					<rect id="SVGID_25_" x="-404.1" y="39.9" width="156.4" height="50.2"/>
				</defs>
				<clipPath id="SVGID_26_">
					<use xlink:href="#SVGID_25_"  style="overflow:visible;"/>
				</clipPath>
				<rect x="-367.3" y="53" class="st14" width="9.2" height="2.5"/>
			</g>
		</g>
		<g>
			<g>
				<defs>
					<rect id="SVGID_27_" x="-404.1" y="39.9" width="156.4" height="50.2"/>
				</defs>
				<clipPath id="SVGID_28_">
					<use xlink:href="#SVGID_27_"  style="overflow:visible;"/>
				</clipPath>
				<path class="st15" d="M-367.3,58.3V65c0,0-1.5,0.5-2.7-0.3s-1.9-2.5-2-6.3h-9.9c0.3,7.4,3.7,13.6,14.1,13.6
					c7.9,0,9.7-2.4,9.7-2.4V58.3H-367.3z"/>
			</g>
		</g>
		<g>
			<g>
				<defs>
					<rect id="SVGID_29_" x="-404.1" y="39.9" width="156.4" height="50.2"/>
				</defs>
				<clipPath id="SVGID_30_">
					<use xlink:href="#SVGID_29_"  style="overflow:visible;"/>
				</clipPath>
				<polygon class="st16" points="-340.4,55.5 -340.4,53.1 -346,53.1 -346,48.5 -339.3,48.5 -339.3,42 -355.7,42 -355.7,55.5 				
					"/>
			</g>
		</g>
		<g>
			<g>
				<defs>
					<rect id="SVGID_31_" x="-404.1" y="39.9" width="156.4" height="50.2"/>
				</defs>
				<clipPath id="SVGID_32_">
					<use xlink:href="#SVGID_31_"  style="overflow:visible;"/>
				</clipPath>
				<polygon class="st17" points="-345.9,60.2 -340.4,60.2 -340.4,58.3 -355.7,58.3 -355.7,71.5 -339.3,71.5 -339.3,65 -346,65 				
					"/>
			</g>
		</g>
		<g>
			<g>
				<defs>
					<rect id="SVGID_33_" x="-404.1" y="39.9" width="156.4" height="50.2"/>
				</defs>
				<clipPath id="SVGID_34_">
					<use xlink:href="#SVGID_33_"  style="overflow:visible;"/>
				</clipPath>
				<polygon class="st18" points="-321,55.5 -321,53.1 -326.6,53.1 -326.6,48.5 -319.9,48.5 -319.9,42 -336.3,42 -336.3,55.5 				
					"/>
			</g>
		</g>
		<g>
			<g>
				<defs>
					<rect id="SVGID_35_" x="-404.1" y="39.9" width="156.4" height="50.2"/>
				</defs>
				<clipPath id="SVGID_36_">
					<use xlink:href="#SVGID_35_"  style="overflow:visible;"/>
				</clipPath>
				<polygon class="st19" points="-336.3,58.3 -336.3,71.5 -326.6,71.5 -326.5,60.2 -321,60.2 -321,58.3 				"/>
			</g>
		</g>
		<g>
			<g>
				<defs>
					<rect id="SVGID_37_" x="-404.1" y="39.9" width="156.4" height="50.2"/>
				</defs>
				<clipPath id="SVGID_38_">
					<use xlink:href="#SVGID_37_"  style="overflow:visible;"/>
				</clipPath>
				<polygon class="st20" points="-302.1,55.5 -302.1,53.1 -307.7,53.1 -307.7,48.5 -301,48.5 -301,42 -317.4,42 -317.4,55.5 				
					"/>
			</g>
		</g>
		<g>
			<g>
				<defs>
					<rect id="SVGID_39_" x="-404.1" y="39.9" width="156.4" height="50.2"/>
				</defs>
				<clipPath id="SVGID_40_">
					<use xlink:href="#SVGID_39_"  style="overflow:visible;"/>
				</clipPath>
				<polygon class="st21" points="-317.4,58.3 -317.4,71.5 -307.7,71.5 -307.6,60.2 -302.1,60.2 -302.1,58.3 				"/>
			</g>
		</g>
		<g>
			<g>
				<defs>
					<rect id="SVGID_41_" x="-404.1" y="39.9" width="156.4" height="50.2"/>
				</defs>
				<clipPath id="SVGID_42_">
					<use xlink:href="#SVGID_41_"  style="overflow:visible;"/>
				</clipPath>
				<polygon class="st22" points="-283.2,55.5 -283.2,53.1 -288.8,53.1 -288.8,48.5 -282.1,48.5 -282.1,42 -298.5,42 -298.5,55.5 
									"/>
			</g>
		</g>
		<g>
			<g>
				<defs>
					<rect id="SVGID_43_" x="-404.1" y="39.9" width="156.4" height="50.2"/>
				</defs>
				<clipPath id="SVGID_44_">
					<use xlink:href="#SVGID_43_"  style="overflow:visible;"/>
				</clipPath>
				<polygon class="st23" points="-288.7,60.2 -283.2,60.2 -283.2,58.3 -298.5,58.3 -298.5,71.5 -282.1,71.5 -282.1,65 -288.8,65 
									"/>
			</g>
		</g>
		<g>
			<g>
				<defs>
					<rect id="SVGID_45_" x="-404.1" y="39.9" width="156.4" height="50.2"/>
				</defs>
				<clipPath id="SVGID_46_">
					<use xlink:href="#SVGID_45_"  style="overflow:visible;"/>
				</clipPath>
				<polygon class="st24" points="-263.2,42 -263.2,54.3 -271,42 -279,42 -279,55.5 -266.6,55.5 -266.3,55.5 -266.3,55.6 
					-264.7,57.7 -264.2,58.3 -264.9,58.3 -279,58.3 -279,71.5 -270.3,71.5 -270.3,58.8 -262.2,71.5 -255,71.5 -255,42 				"/>
			</g>
		</g>
		<g>
			<g>
				<defs>
					<rect id="SVGID_47_" x="-404.1" y="39.9" width="156.4" height="50.2"/>
				</defs>
				<clipPath id="SVGID_48_">
					<use xlink:href="#SVGID_47_"  style="overflow:visible;"/>
				</clipPath>
				<path class="st25" d="M-371.7,57.1c0,0.3,0,0.6,0,0.9h106.8l-1.6-2.1h-105.2C-371.7,56.3-371.7,56.6-371.7,57.1"/>
			</g>
		</g>
		<g>
			<g>
				<defs>
					<rect id="SVGID_49_" x="-404.1" y="39.9" width="156.4" height="50.2"/>
				</defs>
				<clipPath id="SVGID_50_">
					<use xlink:href="#SVGID_49_"  style="overflow:visible;"/>
				</clipPath>
				<path class="st26" d="M-382.3,57c0-0.4,0-0.8,0.1-1.2h-3.7l-6.6,20.7l-4-11.3H-408v2.1h9.9l4.5,12.7h2.1l7.1-22.1h2.1
					C-382.3,57.7-382.3,57.4-382.3,57"/>
			</g>
		</g>
		<g>
			<g>
				<defs>
					<rect id="SVGID_51_" x="-404.1" y="39.9" width="156.4" height="50.2"/>
				</defs>
				<clipPath id="SVGID_52_">
					<use xlink:href="#SVGID_51_"  style="overflow:visible;"/>
				</clipPath>
				<path class="st27" d="M-367.3,65c0,0-1.5,0.5-2.7-0.3c-1.3-0.9-2-2.8-2.1-7.6c0-5.6,1.5-7.2,4-8.2c2.7-1.1,6.7,0.2,6.7,0.2
					l2.9-5.7c0,0-5.8-3.4-13.8-1.2c-5.9,1.6-9.7,7.8-9.7,15c0,8,3.1,14.8,14.1,14.8c7.9,0,9.7-2.4,9.7-2.4L-367.3,65z"/>
			</g>
		</g>
	</g>
	<g>
		<path class="st1" d="M172.9,36.5h-10.5l0,0l0,0h-10.5c-0.2,0-0.7,0-0.7,0c-1.8,0-3.5,1.1-4.2,2.7l0,0l-3.9,9l-1.2,2.8v-0.1V51
			l-5-11.7l0,0c-0.6-1.5-2.3-2.6-4.2-2.6c-2.4,0-4.4,2-4.4,4.4c0,0.3,0.1,0.7,0.2,1l9.5,21c0.8,1.2,2.2,2.2,3.8,2.2
			c0.1,0,0.2,0,0.2,0c0.1,0,0.2,0,0.2,0c1.6,0,3-0.9,3.8-2.2l8-17.7h4l-0.1,15.4c0,2.5,2.1,4.5,4.6,4.5c2.5,0,4.5-2.1,4.5-4.6
			l-0.1-14.8v-0.4h5.9c2.4,0,4.5-1.9,4.5-4.4C177.3,38.5,175.4,36.5,172.9,36.5L172.9,36.5z"/>
		<path class="st1" d="M118.9,54.6l1.6-3.8l1.6,3.8H118.9L118.9,54.6z M124.3,38.7c-0.8-1.2-2.2-2.2-3.8-2.2c-0.1,0-0.3,0-0.4,0
			c-1.6,0-3,0.9-3.8,2.2l-9.5,21c-0.1,0.3-0.2,0.6-0.2,1c0,2.4,2,4.4,4.4,4.4c2.4,0,4.5-1.8,4.5-4.2h4.6h0.2h4.6
			c0,2.3,2,4.2,4.5,4.2c2.4,0,4.4-2,4.4-4.4c0-0.3-0.1-0.7-0.2-1L124.3,38.7L124.3,38.7z"/>
		<path class="st0" d="M129.2,78.9c-0.7,0-1.4-0.1-1.8-0.3c-0.5-0.2-0.9-0.6-1.2-1s-0.4-1-0.5-1.4v-0.1l1.1-0.1v0.1
			c0.1,0.4,0.2,0.7,0.3,1c0.2,0.2,0.4,0.5,0.8,0.6c0.3,0.2,0.8,0.2,1.2,0.2c0.4,0,0.7-0.1,1-0.2c0.3-0.1,0.6-0.2,0.6-0.5
			c0.2-0.2,0.2-0.4,0.2-0.6s-0.1-0.5-0.2-0.6s-0.4-0.3-0.7-0.5c-0.2-0.1-0.7-0.2-1.4-0.4c-0.7-0.2-1.3-0.3-1.6-0.5
			c-0.4-0.2-0.7-0.5-0.9-0.8c-0.2-0.3-0.3-0.6-0.3-1s0.1-0.8,0.3-1.2c0.2-0.4,0.6-0.6,1-0.8s1-0.2,1.5-0.2c0.6,0,1.1,0.1,1.6,0.3
			c0.5,0.2,0.8,0.5,1,0.9s0.4,0.8,0.4,1.3v0.1l-1.1,0.1v-0.1c-0.1-0.5-0.2-0.9-0.6-1.1c-0.3-0.2-0.8-0.4-1.4-0.4
			c-0.6,0-1.1,0.1-1.4,0.3c-0.3,0.2-0.4,0.5-0.4,0.8c0,0.2,0.1,0.5,0.3,0.6c0.2,0.2,0.7,0.4,1.6,0.6c0.9,0.2,1.4,0.4,1.8,0.5
			c0.5,0.2,0.8,0.5,1,0.9c0.2,0.3,0.3,0.7,0.3,1.2c0,0.4-0.2,0.9-0.4,1.3s-0.6,0.7-1.1,0.9C130.3,78.8,129.9,78.9,129.2,78.9
			L129.2,78.9z"/>
		<polygon class="st0" points="134.3,78.7 134.3,70.6 140.2,70.6 140.2,71.6 135.4,71.6 135.4,74 139.9,74 139.9,75.1 135.4,75.1 
			135.4,77.7 140.3,77.7 140.3,78.7 		"/>
		<path class="st0" d="M146.5,75.4l-0.8-2.2c-0.2-0.6-0.4-1-0.5-1.5c-0.1,0.5-0.2,0.9-0.4,1.4l-0.9,2.3H146.5L146.5,75.4z
			 M147.8,78.7l-1-2.5h-3.3l-0.9,2.5h-1.3l3.1-8.2h1.2l3.4,8.2H147.8L147.8,78.7z"/>
		<polygon class="st0" points="150.3,78.7 150.3,70.6 151.5,70.6 151.5,77.7 155.5,77.7 155.5,78.7 		"/>
		<polygon class="st0" points="157.4,78.7 157.4,70.6 158.6,70.6 158.6,78.7 		"/>
		<polygon class="st0" points="166.2,78.7 162,72.5 162,78.7 160.9,78.7 160.9,70.6 162.1,70.6 166.3,76.8 166.3,70.6 167.4,70.6 
			167.4,78.7 		"/>
		<path class="st0" d="M173.5,78.9c-0.8,0-1.5-0.2-2.2-0.5c-0.6-0.3-1.1-0.9-1.5-1.5c-0.3-0.6-0.5-1.4-0.5-2.2
			c0-0.8,0.2-1.5,0.5-2.2c0.3-0.7,0.8-1.2,1.4-1.5c0.6-0.3,1.4-0.5,2.2-0.5c0.6,0,1.1,0.1,1.6,0.3c0.5,0.2,0.9,0.5,1.1,0.8
			c0.2,0.3,0.5,0.8,0.6,1.4v0.1l-1,0.3v-0.1c-0.1-0.4-0.2-0.7-0.5-1c-0.2-0.2-0.4-0.4-0.7-0.6c-0.3-0.2-0.7-0.2-1.1-0.2
			c-0.5,0-0.9,0.1-1.3,0.2c-0.3,0.2-0.6,0.3-0.9,0.6s-0.4,0.5-0.5,0.8c-0.2,0.5-0.3,1-0.3,1.6c0,0.7,0.2,1.3,0.4,1.8s0.6,0.8,1,1
			c0.5,0.2,1,0.3,1.5,0.3c0.5,0,0.9-0.1,1.4-0.2c0.4-0.2,0.7-0.3,1-0.6v-1.4h-2.4v-1h3.5v3l0,0c-0.6,0.4-1,0.7-1.7,1
			C174.7,78.8,174.2,78.9,173.5,78.9L173.5,78.9z"/>
		<path class="st0" d="M110.7,91.8c-0.7,0-1.4-0.1-1.8-0.3c-0.5-0.2-0.9-0.6-1.2-1c-0.3-0.4-0.4-1-0.5-1.5v-0.1l1.1-0.1v0.1
			c0.1,0.4,0.2,0.7,0.3,1c0.2,0.2,0.4,0.5,0.8,0.6c0.3,0.2,0.8,0.2,1.2,0.2s0.7-0.1,1-0.2c0.3-0.1,0.6-0.2,0.6-0.5
			c0.2-0.2,0.2-0.4,0.2-0.6c0-0.2-0.1-0.5-0.2-0.6c-0.2-0.2-0.4-0.3-0.7-0.5c-0.2-0.1-0.7-0.2-1.4-0.4c-0.7-0.2-1.3-0.3-1.6-0.5
			c-0.4-0.2-0.7-0.5-0.9-0.8s-0.3-0.6-0.3-1s0.1-0.8,0.3-1.2c0.2-0.4,0.6-0.6,1-0.8c0.5-0.2,1-0.2,1.5-0.2c0.6,0,1.1,0.1,1.6,0.3
			c0.5,0.2,0.8,0.5,1,0.9c0.2,0.4,0.4,0.8,0.4,1.3v0.1l-1.1,0.1v-0.1c-0.1-0.5-0.2-0.9-0.6-1.1c-0.3-0.2-0.8-0.4-1.4-0.4
			c-0.6,0-1.1,0.1-1.4,0.3c-0.3,0.2-0.4,0.5-0.4,0.8c0,0.2,0.1,0.5,0.3,0.6c0.2,0.2,0.7,0.4,1.6,0.6c0.9,0.2,1.4,0.4,1.8,0.5
			c0.5,0.2,0.8,0.5,1,0.9c0.2,0.3,0.3,0.7,0.3,1.2c0,0.4-0.2,0.9-0.4,1.3s-0.6,0.7-1.1,0.9C111.8,91.7,111.2,91.8,110.7,91.8
			L110.7,91.8z"/>
		<path class="st0" d="M119.4,84.3c-0.7,0-1.4,0.2-1.9,0.8c-0.6,0.5-0.8,1.4-0.8,2.6c0,1,0.2,1.7,0.8,2.2c0.5,0.6,1.2,0.8,1.9,0.8
			c0.8,0,1.4-0.3,1.9-0.8c0.5-0.6,0.8-1.4,0.8-2.4c0-0.6-0.1-1.2-0.3-1.7c-0.2-0.5-0.6-0.9-1-1.1C120.3,84.5,119.9,84.3,119.4,84.3
			L119.4,84.3z M119.4,91.8c-0.8,0-1.4-0.2-2.1-0.6s-1-0.9-1.4-1.5c-0.3-0.6-0.5-1.4-0.5-2.1c0-1.4,0.4-2.4,1.1-3.2
			c0.7-0.8,1.7-1.1,2.8-1.1c0.7,0,1.4,0.2,2.1,0.6c0.6,0.4,1,0.9,1.4,1.5c0.3,0.6,0.5,1.4,0.5,2.2c0,0.8-0.2,1.6-0.5,2.2
			c-0.3,0.6-0.8,1.1-1.4,1.5C120.7,91.6,120,91.8,119.4,91.8L119.4,91.8z"/>
		<polygon class="st0" points="125.2,91.6 125.2,83.5 126.3,83.5 126.3,90.6 130.3,90.6 130.3,91.6 		"/>
		<path class="st0" d="M135.5,91.8c-0.8,0-1.4-0.2-1.9-0.4c-0.5-0.2-0.9-0.6-1-1.1c-0.2-0.5-0.3-1.2-0.3-2.1v-4.7h1.2v4.7
			c0,0.7,0.1,1.2,0.2,1.5c0.2,0.3,0.3,0.6,0.6,0.7c0.3,0.2,0.7,0.2,1.1,0.2c0.8,0,1.4-0.2,1.7-0.5c0.3-0.3,0.5-1,0.5-2v-4.7h1.2v4.7
			c0,0.8-0.1,1.4-0.2,1.9c-0.2,0.5-0.6,0.9-1,1.2S136.3,91.8,135.5,91.8L135.5,91.8z"/>
		<polygon class="st0" points="143.1,91.6 143.1,84.5 140.5,84.5 140.5,83.5 147,83.5 147,84.5 144.3,84.5 144.3,91.6 		"/>
		<polygon class="st0" points="148.9,91.6 148.9,83.5 150,83.5 150,91.6 		"/>
		<path class="st0" d="M156.2,84.3c-0.7,0-1.4,0.2-1.9,0.8c-0.6,0.5-0.8,1.4-0.8,2.6c0,1,0.2,1.7,0.8,2.2c0.5,0.6,1.2,0.8,1.9,0.8
			c0.8,0,1.4-0.3,1.9-0.8c0.5-0.6,0.8-1.4,0.8-2.4c0-0.6-0.1-1.2-0.3-1.7c-0.2-0.5-0.6-0.9-1-1.1C157.1,84.5,156.7,84.3,156.2,84.3
			L156.2,84.3z M156.2,91.8c-0.8,0-1.4-0.2-2.1-0.6c-0.6-0.4-1-0.9-1.4-1.5c-0.3-0.6-0.5-1.4-0.5-2.1c0-1.4,0.4-2.4,1.1-3.2
			c0.7-0.8,1.7-1.1,2.8-1.1c0.7,0,1.4,0.2,2.1,0.6c0.6,0.4,1,0.9,1.4,1.5c0.3,0.6,0.5,1.4,0.5,2.2c0,0.8-0.2,1.6-0.5,2.2
			c-0.3,0.6-0.8,1.1-1.4,1.5C157.5,91.6,156.8,91.8,156.2,91.8L156.2,91.8z"/>
		<polygon class="st0" points="167.3,91.6 163.1,85.4 163.1,91.6 162,91.6 162,83.5 163.2,83.5 167.4,89.7 167.4,83.5 168.5,83.5 
			168.5,91.6 		"/>
		<path class="st0" d="M174,91.8c-0.7,0-1.4-0.1-1.8-0.3c-0.5-0.2-0.9-0.6-1.2-1s-0.4-1-0.5-1.5v-0.1l1.1-0.1v0.1
			c0.1,0.4,0.2,0.7,0.3,1c0.2,0.2,0.4,0.5,0.8,0.6c0.3,0.2,0.8,0.2,1.2,0.2c0.4,0,0.7-0.1,1-0.2c0.3-0.1,0.6-0.2,0.6-0.5
			c0.2-0.2,0.2-0.4,0.2-0.6c0-0.2-0.1-0.5-0.2-0.6c-0.2-0.2-0.4-0.3-0.7-0.5c-0.2-0.1-0.7-0.2-1.4-0.4c-0.7-0.2-1.3-0.3-1.6-0.5
			c-0.4-0.2-0.7-0.5-0.9-0.8c-0.2-0.3-0.3-0.6-0.3-1s0.1-0.8,0.3-1.2c0.2-0.4,0.6-0.6,1-0.8s1-0.2,1.5-0.2c0.6,0,1.1,0.1,1.6,0.3
			c0.5,0.2,0.8,0.5,1,0.9c0.2,0.4,0.4,0.8,0.4,1.3v0.1l-1.1,0.1v-0.1c-0.1-0.5-0.2-0.9-0.6-1.1c-0.3-0.2-0.8-0.4-1.4-0.4
			c-0.6,0-1.1,0.1-1.4,0.3c-0.3,0.2-0.4,0.5-0.4,0.8c0,0.2,0.1,0.5,0.3,0.6c0.2,0.2,0.7,0.4,1.6,0.6c0.9,0.2,1.4,0.4,1.8,0.5
			c0.5,0.2,0.8,0.5,1,0.9c0.2,0.3,0.3,0.7,0.3,1.2c0,0.4-0.2,0.9-0.4,1.3s-0.6,0.7-1.1,0.9C175.1,91.7,174.6,91.8,174,91.8L174,91.8
			z"/>
		<path class="st0" d="M97.5,76.4c-1.2-1.5-3.7-4.2-3.9-5.3c-0.4-1.5-0.3-2.9-0.3-3.6l0,0l0.1,0.1c0.1,0.1,0.2,0.2,0.3,0.3l0,0
			c0.2,0.1,0.2,0.2,0.4,0.2h0.1c0.2,0.1,0.3,0.1,0.4,0.1h2c1.4,0,2.4-1.8,2.4-3.9s-1.1-3.9-2.4-3.9h-2h-0.1c-0.1,0-0.2,0-0.3,0.1
			c0,0,0,0-0.1,0H94c-0.1,0-0.1,0-0.2,0.1c-0.1,0-0.1,0.1-0.2,0.1c-0.1,0-0.1,0.1-0.2,0.1c0,0-0.1,0-0.1,0.1c-0.1,0-0.1,0.1-0.2,0.2
			c-0.1,0.1-0.2,0.2-0.2,0.2c-0.1-0.7-0.1-2.1,0.3-3.6c0.2-1,2.7-3.8,3.9-5.3c1.2-1.5,2.5-3,2.7-3.4c0.2-0.3,0.3-1,0.1-1.4
			c-0.2-0.4-1-1.9-1.4-2.2c-0.3-0.3-0.8-0.7-1.5-0.3c-0.7,0.5-4.8,4.6-5.7,5.1s-2.7,0.8-4.2-0.6l-0.1-0.1c-1.4-1.5-1.2-3.4-0.6-4.2
			c0.6-1,4.6-5,5.1-5.7c0.5-0.7,0-1.2-0.3-1.5c-0.3-0.3-1.8-1.1-2.2-1.4s-1-0.2-1.4,0.1c-0.3,0.2-1.8,1.4-3.4,2.7
			c-1.5,1.2-4.2,3.6-5.3,3.9c-1.4,0.5-2.7,0.4-3.5,0.3c-0.2,0-0.3-0.1-0.6-0.1c-0.1,0-0.1,0-0.1,0l0,0c-0.9-0.1-1.8-0.2-2.6-0.2
			c-0.9,0-1.8,0.1-2.6,0.2l0,0c0,0-1.9,0.4-4.2-0.2c-1-0.2-3.8-2.7-5.3-3.9c-1.5-1.2-3-2.5-3.4-2.7c-0.3-0.2-1-0.3-1.4-0.1
			c-0.4,0.2-1.9,1-2.2,1.4s-0.7,0.8-0.3,1.5c0.5,0.7,4.6,4.8,5.1,5.7c0.6,0.9,0.8,2.7-0.6,4.2l-0.1,0.1c-1.5,1.4-3.4,1.2-4.2,0.6
			c-1-0.6-5-4.6-5.7-5.1c-0.7-0.5-1.2,0-1.5,0.3c-0.3,0.3-1.1,1.8-1.4,2.2c-0.2,0.4-0.2,1,0.1,1.4c0.2,0.3,1.4,1.8,2.7,3.4
			c1.2,1.5,3.6,4.2,3.9,5.3c0.5,1.3,0.4,2.7,0.3,3.5v0.1l0,0l0,0l0,0c0,0,0,0-0.1-0.1l-0.1-0.1L51.5,61l-0.1-0.1l-0.1-0.1l0,0l0,0
			l-0.1-0.1c0,0-0.1,0-0.1-0.1c0,0-0.1,0-0.1-0.1c0,0-0.1,0-0.1-0.1c0,0,0,0-0.1,0l0,0c0,0,0,0-0.1,0h-0.1c-0.1,0-0.1,0-0.2,0
			s-0.1,0-0.2,0l0,0h-2c-1.4,0-2.4,1.8-2.4,3.9c0,2.2,1.1,3.9,2.4,3.9h2c0.2,0,0.3,0,0.4-0.1H51c0.1-0.1,0.2-0.1,0.3-0.2h0.1
			c0.1-0.1,0.2-0.2,0.3-0.2l0.1-0.1c0,0,0,0,0-0.1c0,0,0,0,0.1-0.1v0.1c0.1,0.8,0.2,2.2-0.3,3.5c-0.3,1-2.7,3.8-3.9,5.3
			c-1.2,1.5-2.5,3-2.7,3.4c-0.2,0.3-0.3,1-0.1,1.4c0.2,0.4,1,1.9,1.4,2.2c0.3,0.3,0.8,0.7,1.5,0.3c0.7-0.5,4.8-4.6,5.7-5.1
			c0.9-0.6,2.7-0.8,4.2,0.6l0.1,0.1c1.4,1.5,1.1,3.4,0.6,4.2c-0.6,1-4.6,5-5.1,5.7c-0.5,0.7,0,1.2,0.3,1.5c0.3,0.3,1.8,1.1,2.2,1.4
			c0.4,0.2,1,0.2,1.4-0.1c0.3-0.2,1.8-1.4,3.4-2.7c1.5-1.2,4.2-3.7,5.3-3.9c1.6-0.4,3-0.3,3.7-0.3c0,0-0.1,0-0.1,0.1
			c0,0,0,0-0.1,0.1c-0.1,0-0.1,0.1-0.1,0.1c-0.1,0.1-0.2,0.2-0.2,0.2c0,0.1-0.1,0.1-0.1,0.2c-0.1,0.1-0.1,0.2-0.2,0.3
			c0,0.1,0,0.1-0.1,0.2c-0.1,0.2-0.1,0.3-0.1,0.5v2c0,1.4,1.8,2.5,3.9,2.5c2.2,0,3.9-1.1,3.9-2.5l0,0v-2l0,0c0-0.1,0-0.1,0-0.2
			s0-0.1,0-0.2c0-0.1,0-0.1,0-0.1v-0.1l0,0l0,0c0,0,0-0.1-0.1-0.1c0,0,0-0.1-0.1-0.1c0,0,0-0.1-0.1-0.1c0,0,0-0.1-0.1-0.1l0,0l0,0
			c0,0,0,0-0.1-0.1l-0.1-0.1l-0.1-0.1l-0.1-0.1c0,0-0.1,0-0.1-0.1l0,0l0,0l-0.1-0.1c0.1,0,0.1,0,0.2,0c0.8-0.1,2.2-0.2,3.5,0.3
			c1,0.3,3.8,2.7,5.3,3.9c1.5,1.2,3,2.5,3.4,2.7c0.3,0.2,1,0.3,1.4,0.1c0.4-0.2,1.9-1,2.2-1.4s0.7-0.8,0.3-1.5
			c-0.5-0.7-4.6-4.8-5.1-5.7c-0.6-0.9-0.8-2.7,0.6-4.2l0.1-0.1c1.5-1.4,3.4-1.2,4.2-0.6c1,0.6,5,4.6,5.7,5.1c0.7,0.5,1.2,0,1.5-0.3
			c0.3-0.3,1.1-1.8,1.4-2.2c0.2-0.4,0.2-1-0.1-1.4C100,79.5,98.8,77.9,97.5,76.4z M72.7,77.4c-7.2,0-13-5.8-13-13
			c0-1.4,0.2-2.6,0.6-3.8v-0.1c0.2-0.8,0.6-1.5,1-2.2c0,0,0,0,0-0.1c0.4-0.7,0.9-1.4,1.4-2l0,0c0.8-1,1.7-1.8,2.7-2.5
			c0.1,0,0.1-0.1,0.2-0.1c0.3-0.2,0.6-0.4,0.9-0.6c0.1-0.1,0.2-0.1,0.3-0.2c0.3-0.2,0.6-0.3,0.9-0.4c0.2-0.1,0.2-0.1,0.4-0.2
			c0.6-0.2,1.4-0.5,2.1-0.6c0.1,0,0.2,0,0.2,0c0.8-0.2,1.6-0.2,2.4-0.2c0.9,0,1.8,0.1,2.6,0.2c0.8,0.2,1.6,0.4,2.3,0.7h0.1
			c1.1,0.5,2.1,1,3,1.8c0.1,0.1,0.2,0.1,0.2,0.2c2.9,2.4,4.7,6,4.7,10.1C85.7,71.5,79.9,77.4,72.7,77.4z"/>
		<polygon class="st0" points="120,78.6 118.2,78.6 118.2,70.6 120,70.6 		"/>
		<polygon class="st0" points="123.9,78.6 122.7,78.6 122.7,70.6 123.9,70.6 		"/>
		<polygon class="st0" points="107,70.7 107,78.6 115.9,78.6 115.9,70.7 		"/>
	</g>
	<g>
		<path class="st0" d="M69.9,42.7H72h0.1l0,0l0.2,0.5c0,0,0,0,0.1,0.1h0.1h3.2c0,0,0.2,0,0.2,0.1c0.1,0,0.2,0.2,0.2,0.2l0.2,0.3
			c0,0,0,0.1,0,0.2C76.3,44,76.3,44,76.3,44h-3.4h-0.1l-0.1-0.1l-0.4-0.6c0,0,0,0-0.1-0.1h-0.1h-2.5h-0.1v-0.1l0.2-0.4
			C69.9,42.7,69.9,42.7,69.9,42.7L69.9,42.7"/>
		<path class="st0" d="M71.3,40.6H72h0.1l0,0l0.2,0.5c0,0,0,0,0.1,0.1h0.1h1.8c0,0,0.2,0,0.2,0.1c0.1,0,0.2,0.2,0.2,0.2l0.2,0.2
			c0,0,0.1,0.1,0,0.2c-0.1,0.1-0.2,0.1-0.2,0.1h-2h-0.1l-0.1-0.1l-0.3-0.6c0,0,0,0-0.1-0.1h-0.1H71h-0.1v-0.1l0.2-0.4
			C71.1,40.6,71.2,40.6,71.3,40.6C71.2,40.6,71.3,40.6,71.3,40.6"/>
		<path class="st0" d="M72.7,38.3c0.2,0,0.2,0.2,0.2,0.2l1.2,1.9c0,0,0.1,0.1,0,0.2c-0.1,0.1-0.2,0.1-0.2,0.1h-1.4h-0.1l-0.1-0.1
			l-0.2-0.5c0,0,0,0-0.1-0.1h-0.1h-0.4c0,0-0.1,0-0.1-0.1s0-0.2,0-0.2l0.8-1.3C72.4,38.6,72.5,38.3,72.7,38.3"/>
		<path class="st0" d="M70.6,41.6H72h0.1l0,0l0.2,0.5c0,0,0,0,0.1,0.1h0.1h2.6c0,0,0.2,0,0.2,0.1c0.1,0,0.2,0.2,0.2,0.2l0.2,0.2
			c0,0,0.1,0.1,0,0.2c-0.1,0.1-0.2,0.1-0.2,0.1h-2.6h-0.1l-0.1-0.1l-0.3-0.6c0,0,0,0-0.1-0.1h-0.1h-1.8h-0.1v-0.1L70.6,41.6
			C70.5,41.7,70.5,41.6,70.6,41.6L70.6,41.6"/>
	</g>
</g>
<g id="Layer_2">
</g>
</svg>
