<?xml version="1.0" encoding="utf-8"?>
<!-- Generator: Adobe Illustrator 25.1.0, SVG Export Plug-In . SVG Version: 6.00 Build 0)  -->
<svg version="1.1" xmlns="http://www.w3.org/2000/svg" xmlns:xlink="http://www.w3.org/1999/xlink" x="0px" y="0px"
	 viewBox="0 0 219.2 130.4" style="enable-background:new 0 0 219.2 130.4;" xml:space="preserve">
<style type="text/css">
	.st0{fill:#FFFFFF;}
	.st1{fill-rule:evenodd;clip-rule:evenodd;fill:#FFFFFF;}
	.st2{clip-path:url(#SVGID_2_);fill:#FFFFFF;}
	.st3{clip-path:url(#SVGID_4_);fill:#FFFFFF;}
	.st4{clip-path:url(#SVGID_6_);fill:#FFFFFF;}
	.st5{clip-path:url(#SVGID_8_);fill:#FFFFFF;}
	.st6{clip-path:url(#SVGID_10_);fill:#FFFFFF;}
	.st7{clip-path:url(#SVGID_12_);fill:#FFFFFF;}
	.st8{clip-path:url(#SVGID_14_);fill:#FFFFFF;}
	.st9{clip-path:url(#SVGID_16_);fill:#FFFFFF;}
	.st10{clip-path:url(#SVGID_18_);fill:#FFFFFF;}
	.st11{clip-path:url(#SVGID_20_);fill:#FFFFFF;}
	.st12{clip-path:url(#SVGID_22_);fill:#FFFFFF;}
	.st13{clip-path:url(#SVGID_24_);fill:#FFFFFF;}
	.st14{clip-path:url(#SVGID_26_);fill:#FFFFFF;}
	.st15{clip-path:url(#SVGID_28_);fill:#FFFFFF;}
	.st16{clip-path:url(#SVGID_30_);fill:#FFFFFF;}
	.st17{clip-path:url(#SVGID_32_);fill:#FFFFFF;}
	.st18{clip-path:url(#SVGID_34_);fill:#FFFFFF;}
	.st19{clip-path:url(#SVGID_36_);fill:#FFFFFF;}
	.st20{clip-path:url(#SVGID_38_);fill:#FFFFFF;}
	.st21{clip-path:url(#SVGID_40_);fill:#FFFFFF;}
	.st22{clip-path:url(#SVGID_42_);fill:#FFFFFF;}
	.st23{clip-path:url(#SVGID_44_);fill:#FFFFFF;}
	.st24{clip-path:url(#SVGID_46_);fill:#FFFFFF;}
	.st25{clip-path:url(#SVGID_48_);fill:#FFFFFF;}
	.st26{clip-path:url(#SVGID_50_);fill:#FFFFFF;}
	.st27{clip-path:url(#SVGID_52_);fill:#FFFFFF;}
</style>
<g id="Layer_1">
	<g>
		<g>
			<g>
				<path class="st0" d="M88.3,70.9h2.4c1.3,0,2.5,0.5,2.5,2c0,1.2-0.8,1.6-1.7,1.8l0,0c1.1,0.2,1.3,0.9,1.4,1.7l0.5,2.2h-1.1
					l-0.5-1.7c-0.3-1.1-0.5-1.6-1.7-1.6h-0.6v3.3h-1.2V70.9z M89.5,74.3h0.7c0.9,0,1.8-0.3,1.8-1.4c0-1-0.6-1.3-1.4-1.3h-1V74.3z"/>
				<polygon class="st0" points="96.2,70.9 100.9,70.9 100.9,71.8 97.4,71.8 97.4,74.1 100.7,74.1 100.7,75 97.4,75 97.4,77.7 
					100.9,77.7 100.9,78.6 96.2,78.6 				"/>
				<polygon class="st0" points="103.7,70.9 104.9,70.9 104.9,77.7 108.1,77.7 108.1,78.6 103.7,78.6 				"/>
				<rect x="110.5" y="70.9" class="st0" width="1.2" height="7.7"/>
				<path class="st0" d="M117,70.9h1.5l2.9,7.7h-1.3l-0.8-2.2h-3l-0.8,2.2h-1.3L117,70.9z M116.5,75.4h2.4l-1.1-3.6l0,0L116.5,75.4z
					"/>
				<path class="st0" d="M123.8,70.9h2.4c0.8,0,2.2,0.3,2.2,1.8c0,1.3-0.9,1.6-1.3,1.8l0,0c0.6,0.1,1.7,0.5,1.7,2
					c0,1.9-1.6,2.1-2.7,2.1h-2.3L123.8,70.9L123.8,70.9z M125,74.1h0.8c0.6,0,1.4-0.2,1.4-1.1c0-1.1-0.9-1.1-1.5-1.1H125V74.1z
					 M125,77.7h1c1.1,0,1.7-0.6,1.7-1.3c0-1.3-1.3-1.4-1.8-1.4h-0.8L125,77.7L125,77.7z"/>
				<rect x="131.7" y="70.9" class="st0" width="1.2" height="7.7"/>
				<polygon class="st0" points="136.3,70.9 137.5,70.9 137.5,77.7 140.8,77.7 140.8,78.6 136.3,78.6 				"/>
				<rect x="143.1" y="70.9" class="st0" width="1.2" height="7.7"/>
				<polygon class="st0" points="148.8,71.8 146.7,71.8 146.7,70.9 152.1,70.9 152.1,71.8 150,71.8 150,78.6 148.8,78.6 				"/>
				<polygon class="st0" points="156,75 153.3,70.9 154.6,70.9 156.6,73.8 158.6,70.9 159.9,70.9 157.3,75 157.3,78.6 156,78.6 				
					"/>
				<path class="st1" d="M155.7,36H145l0,0l0,0h-10.7h-0.8c-1.9,0-3.5,1.2-4.2,2.7l0,0l-4,9.1l-1.2,2.8v-0.1v0.1l-5-11.8l0,0
					c-0.6-1.6-2.3-2.7-4.2-2.7c-2.5,0-4.5,2-4.5,4.5c0,0.3,0.1,0.7,0.2,1l9.8,21.4c0.8,1.3,2.2,2.2,3.8,2.2c0.1,0,0.2,0,0.2,0
					c0.1,0,0.2,0,0.2,0c1.6,0,3-0.9,3.8-2.2l8.2-18.1h4.1l-0.1,15.7c0,2.6,2.1,4.6,4.6,4.6c2.6,0,4.6-2.2,4.6-4.7l-0.1-15.1V45h6
					c2.5,0,4.6-2,4.6-4.5C160.2,38,158.2,36,155.7,36"/>
				<path class="st0" d="M155.7,36H145l0,0l0,0h-10.7h-0.8c-1.9,0-3.5,1.2-4.2,2.7l0,0l-4,9.1l-1.2,2.8v-0.1v0.1l-5-11.8l0,0
					c-0.6-1.6-2.3-2.7-4.2-2.7c-2.5,0-4.5,2-4.5,4.5c0,0.3,0.1,0.7,0.2,1l9.8,21.4c0.8,1.3,2.2,2.2,3.8,2.2c0.1,0,0.2,0,0.2,0
					c0.1,0,0.2,0,0.2,0c1.6,0,3-0.9,3.8-2.2l8.2-18.1h4.1l-0.1,15.7c0,2.6,2.1,4.6,4.6,4.6c2.6,0,4.6-2.2,4.6-4.7l-0.1-15.1V45h6
					c2.5,0,4.6-2,4.6-4.5C160.2,38,158.2,36,155.7,36z"/>
				<path class="st1" d="M106.2,38.2c-0.8-1.3-2.2-2.2-3.8-2.2H102c-1.6,0-3,0.9-3.8,2.2l-9.7,21.4c-0.1,0.3-0.2,0.6-0.2,1
					c0,2.5,2,4.5,4.5,4.5s4.6-1.9,4.6-4.2h4.7h0.2h4.7c0,2.3,2.1,4.2,4.6,4.2c2.5,0,4.5-2,4.5-4.5c0-0.3-0.1-0.7-0.2-1L106.2,38.2z
					 M100.5,54.4l1.6-3.8l1.6,3.8H100.5z"/>
				<path class="st0" d="M106.2,38.2c-0.8-1.3-2.2-2.2-3.8-2.2H102c-1.6,0-3,0.9-3.8,2.2l-9.7,21.4c-0.1,0.3-0.2,0.6-0.2,1
					c0,2.5,2,4.5,4.5,4.5s4.6-1.9,4.6-4.2h4.7h0.2h4.7c0,2.3,2.1,4.2,4.6,4.2c2.5,0,4.5-2,4.5-4.5c0-0.3-0.1-0.7-0.2-1L106.2,38.2z
					 M100.5,54.4l1.6-3.8l1.6,3.8H100.5z"/>
				<rect x="81.9" y="99.8" class="st0" width="0.7" height="0.7"/>
				<rect x="84.1" y="99.8" class="st0" width="0.7" height="0.7"/>
				<rect x="86.2" y="99.8" class="st0" width="0.7" height="0.7"/>
				<path class="st0" d="M88.9,96.5h-0.6v-0.7h0.6V96.5z M88.3,97.1h0.6v3.5h-0.6V97.1z"/>
				<path class="st0" d="M90.8,97.1h0.7v0.5h-0.7v2.2c0,0.2,0.1,0.3,0.4,0.3h0.2v0.5H91c-0.6,0-0.8-0.2-0.8-0.8v-2.2h-0.6V97h0.6v-1
					h0.6V97.1z"/>
				<path class="st0" d="M92.5,95.8h0.7v0.7c0,0.6-0.2,1-0.7,1v-0.2c0.3,0,0.4-0.3,0.4-0.6h-0.4V95.8z"/>
				<path class="st0" d="M94.5,99.4c0,0.5,0.5,0.6,1,0.6c0.3,0,0.9-0.1,0.9-0.5c0-0.9-2.2-0.3-2.2-1.6c0-0.7,0.7-1,1.3-1
					c0.8,0,1.4,0.2,1.4,1.1h-0.6c0-0.5-0.4-0.6-0.8-0.6c-0.3,0-0.7,0.1-0.7,0.5c0,0.4,0.6,0.5,1.1,0.6c0.6,0.2,1.1,0.3,1.1,1
					c0,0.8-0.8,1.1-1.5,1.1c-0.8,0-1.4-0.3-1.4-1.2h0.5L94.5,99.4L94.5,99.4z"/>
				<path class="st0" d="M100.6,96.5h-0.6v-0.7h0.6V96.5z M100.1,97.1h0.6v3.5h-0.6V97.1z"/>
				<path class="st0" d="M101.7,97.1h0.6v0.6l0,0c0.2-0.4,0.6-0.6,1.1-0.6c0.9,0,1.2,0.6,1.2,1.3v2.3h-0.6v-2.3
					c0-0.4-0.2-0.7-0.7-0.7c-0.7,0-1,0.5-1,1.1v2h-0.6V97.1z"/>
				<path class="st0" d="M109.4,97c1.1,0,1.7,0.8,1.7,1.8s-0.6,1.8-1.7,1.8s-1.7-0.8-1.7-1.8S108.3,97,109.4,97 M109.4,100.2
					c0.6,0,1.1-0.5,1.1-1.3c0-0.9-0.5-1.4-1.1-1.4c-0.6,0-1.1,0.5-1.1,1.4C108.4,99.7,108.9,100.2,109.4,100.2"/>
				<path class="st0" d="M114.9,100.6h-0.6V100l0,0c-0.2,0.4-0.6,0.6-1.1,0.6c-0.9,0-1.2-0.6-1.2-1.3V97h0.6v2.3
					c0,0.4,0.2,0.7,0.7,0.7c0.7,0,1-0.5,1-1.1v-2h0.6V100.6z"/>
				<path class="st0" d="M116.1,97.1h0.6v0.7l0,0c0.2-0.6,0.6-0.8,1.3-0.8v0.6c-1,0-1.3,0.5-1.3,1.4v1.5h-0.6V97.1z"/>
				<path class="st0" d="M120.9,95.8h1.7c1.5,0,2.3,0.7,2.3,2.3s-0.7,2.6-2.3,2.6h-1.7V95.8z M122.5,100c0.4,0,1.6-0.2,1.6-1.9
					c0-1.1-0.4-1.8-1.6-1.8h-1v3.8C121.5,100,122.5,100,122.5,100z"/>
				<polygon class="st0" points="125.8,95.8 126.5,95.8 129,99.7 129.1,99.7 129.1,95.8 129.7,95.8 129.7,100.6 128.9,100.6 
					126.5,96.7 126.5,96.7 126.5,100.6 125.8,100.6 				"/>
				<path class="st0" d="M132.3,95.8h0.7l1.9,4.8h-0.7l-0.6-1.4h-2l-0.6,1.4h-0.6L132.3,95.8z M133.4,98.6l-0.8-2.2l0,0l-0.8,2.2
					H133.4z"/>
				<path class="st0" d="M57.5,41.6c0,0-0.7,2.8-0.8,3.3c-4.3,15.9-0.1,21.3,6.2,25.7C79.3,82,92.2,80.6,105,87l-7.3,3.7
					c0,0-4.6-1.9-11.4-3.6c-7.8-2-13-4.1-19.5-7.3c-18.8-9.2-19.1-21.1-16-31.9c0.1-0.2,1.5-4.1,1.5-4.1L57.5,41.6z"/>
				<path class="st0" d="M80,42.9c6.4,14-0.8,26.1-2.5,35.9c-2,12,2.5,21.5,2.5,21.5s-10.4-8.9-9.3-19.8c1.3-12.4,12.6-26,1.8-38.8
					c-3.5-4.2-24-10.6-24-10.6S75,31.9,80,42.9"/>
				<path class="st0" d="M75.1,46.4c0,0-0.3-1.6-9.4,1.5c-9.2,3.1-8.8,4.4-8.8,4.4s0.5,1.4,9.7-1.8C75.7,47.5,75.1,46.4,75.1,46.4"
					/>
				<path class="st0" d="M76.9,53.7c0,0-0.2-2.1-10.3,0.4c-10.2,2.4-9.7,4.3-9.7,4.3s0.4,1.9,10.6-0.6
					C77.6,55.4,76.9,53.7,76.9,53.7"/>
				<path class="st0" d="M75.3,62.5c0,0,0.2-1.5-8.1-0.3c-8.2,1.2-8,2.6-8,2.6s0.2,1.4,8.4,0.2C76,63.7,75.3,62.5,75.3,62.5"/>
				<path class="st0" d="M71.2,40.9c0,0-0.2-1.1-7,1.8c-6.7,3-6.4,3.8-6.4,3.8s0.4,0.9,7.1-2.1C71.7,41.5,71.2,40.9,71.2,40.9"/>
				<path class="st0" d="M81.2,36.6c0.9,0,1.7,0.7,1.7,1.7s-0.8,1.7-1.7,1.7s-1.7-0.7-1.7-1.7S80.3,36.6,81.2,36.6 M81.2,39.7
					c0.8,0,1.4-0.6,1.4-1.4s-0.6-1.4-1.4-1.4c-0.8,0-1.4,0.6-1.4,1.4S80.4,39.7,81.2,39.7 M80.5,37.3h0.7c0.5,0,0.7,0.2,0.7,0.6
					c0,0.3-0.2,0.5-0.5,0.6l0.6,0.9h-0.3l-0.6-0.8h-0.3v0.8h-0.3V37.3z M80.9,38.2h0.3c0.2,0,0.5,0,0.5-0.3c0-0.2-0.2-0.3-0.4-0.3
					h-0.4V38.2z"/>
			</g>
		</g>
	</g>
	<g>
		<g>
			<g>
				<defs>
					<rect id="SVGID_1_" x="-184.9" y="39.9" width="156.4" height="50.2"/>
				</defs>
				<clipPath id="SVGID_2_">
					<use xlink:href="#SVGID_1_"  style="overflow:visible;"/>
				</clipPath>
				<path class="st2" d="M-162.7,76.4h4.3c2.3,0,4.3,0.9,4.3,3.6c0,2.1-1.4,2.9-2.9,3.2v0.1c2.1,0.4,2.2,1.5,2.6,3l0.9,3.8h-2
					l-0.9-3.2c-0.6-2-0.9-2.9-2.9-2.9h-1.2V90h-2.1V76.4z M-160.6,82.6h1.2c1.5,0,3.1-0.6,3.1-2.3c0-1.7-1-2.2-2.6-2.2h-1.8V82.6z"
					/>
			</g>
		</g>
		<g>
			<g>
				<defs>
					<rect id="SVGID_3_" x="-184.9" y="39.9" width="156.4" height="50.2"/>
				</defs>
				<clipPath id="SVGID_4_">
					<use xlink:href="#SVGID_3_"  style="overflow:visible;"/>
				</clipPath>
				<polygon class="st3" points="-148.7,76.4 -140.6,76.4 -140.6,78.1 -146.6,78.1 -146.6,82.2 -140.9,82.2 -140.9,83.8 
					-146.6,83.8 -146.6,88.5 -140.3,88.5 -140.3,90 -148.7,90 				"/>
			</g>
		</g>
		<g>
			<g>
				<defs>
					<rect id="SVGID_5_" x="-184.9" y="39.9" width="156.4" height="50.2"/>
				</defs>
				<clipPath id="SVGID_6_">
					<use xlink:href="#SVGID_5_"  style="overflow:visible;"/>
				</clipPath>
				<polygon class="st4" points="-135.5,76.4 -133.4,76.4 -133.4,88.5 -127.7,88.5 -127.7,90 -135.5,90 				"/>
			</g>
		</g>
		<g>
			<g>
				<defs>
					<rect id="SVGID_7_" x="-184.9" y="39.9" width="156.4" height="50.2"/>
				</defs>
				<clipPath id="SVGID_8_">
					<use xlink:href="#SVGID_7_"  style="overflow:visible;"/>
				</clipPath>
				<rect x="-123.6" y="76.4" class="st5" width="2.1" height="13.6"/>
			</g>
		</g>
		<g>
			<g>
				<defs>
					<rect id="SVGID_9_" x="-184.9" y="39.9" width="156.4" height="50.2"/>
				</defs>
				<clipPath id="SVGID_10_">
					<use xlink:href="#SVGID_9_"  style="overflow:visible;"/>
				</clipPath>
				<path class="st6" d="M-112,76.4h2.6l5.1,13.6h-2.3l-1.5-3.9h-5.3l-1.5,3.9h-2.3L-112,76.4z M-112.8,84.6h4.3l-2.1-6.3h-0.1
					L-112.8,84.6z"/>
			</g>
		</g>
		<g>
			<g>
				<defs>
					<rect id="SVGID_11_" x="-184.9" y="39.9" width="156.4" height="50.2"/>
				</defs>
				<clipPath id="SVGID_12_">
					<use xlink:href="#SVGID_11_"  style="overflow:visible;"/>
				</clipPath>
				<path class="st7" d="M-99.9,76.4h4.3c1.5,0,3.9,0.5,3.9,3.2c0,2.3-1.6,2.9-2.3,3.1v0.1c1.1,0.1,3,0.9,3,3.4
					c0,3.3-2.9,3.7-4.8,3.7h-4.1C-99.9,90-99.9,76.4-99.9,76.4z M-97.8,82.1h1.3c1,0,2.5-0.2,2.5-2.1c0-1.9-1.5-2-2.6-2h-1.2
					L-97.8,82.1L-97.8,82.1z M-97.8,88.5h1.7c1.9,0,2.9-1,2.9-2.3c0-2.3-2.2-2.5-3.1-2.5h-1.5C-97.8,83.6-97.8,88.5-97.8,88.5z"/>
			</g>
		</g>
		<g>
			<g>
				<defs>
					<rect id="SVGID_13_" x="-184.9" y="39.9" width="156.4" height="50.2"/>
				</defs>
				<clipPath id="SVGID_14_">
					<use xlink:href="#SVGID_13_"  style="overflow:visible;"/>
				</clipPath>
				<rect x="-85.9" y="76.4" class="st8" width="2.1" height="13.6"/>
			</g>
		</g>
		<g>
			<g>
				<defs>
					<rect id="SVGID_15_" x="-184.9" y="39.9" width="156.4" height="50.2"/>
				</defs>
				<clipPath id="SVGID_16_">
					<use xlink:href="#SVGID_15_"  style="overflow:visible;"/>
				</clipPath>
				<polygon class="st9" points="-77.9,76.4 -75.8,76.4 -75.8,88.5 -70.1,88.5 -70.1,90 -77.9,90 				"/>
			</g>
		</g>
		<g>
			<g>
				<defs>
					<rect id="SVGID_17_" x="-184.9" y="39.9" width="156.4" height="50.2"/>
				</defs>
				<clipPath id="SVGID_18_">
					<use xlink:href="#SVGID_17_"  style="overflow:visible;"/>
				</clipPath>
				<rect x="-65.9" y="76.4" class="st10" width="2.1" height="13.6"/>
			</g>
		</g>
		<g>
			<g>
				<defs>
					<rect id="SVGID_19_" x="-184.9" y="39.9" width="156.4" height="50.2"/>
				</defs>
				<clipPath id="SVGID_20_">
					<use xlink:href="#SVGID_19_"  style="overflow:visible;"/>
				</clipPath>
				<polygon class="st11" points="-55.9,78.1 -59.6,78.1 -59.6,76.4 -50.1,76.4 -50.1,78.1 -53.8,78.1 -53.8,90 -55.9,90 				"/>
			</g>
		</g>
		<g>
			<g>
				<defs>
					<rect id="SVGID_21_" x="-184.9" y="39.9" width="156.4" height="50.2"/>
				</defs>
				<clipPath id="SVGID_22_">
					<use xlink:href="#SVGID_21_"  style="overflow:visible;"/>
				</clipPath>
				<polygon class="st12" points="-43.2,83.8 -47.9,76.4 -45.5,76.4 -42.1,81.7 -38.6,76.4 -36.3,76.4 -41.1,83.8 -41.1,90 
					-43.2,90 				"/>
			</g>
		</g>
		<g>
			<g>
				<defs>
					<rect id="SVGID_23_" x="-184.9" y="39.9" width="156.4" height="50.2"/>
				</defs>
				<clipPath id="SVGID_24_">
					<use xlink:href="#SVGID_23_"  style="overflow:visible;"/>
				</clipPath>
				<path class="st13" d="M-32.3,42.5h-0.9v2.4h-0.6v-2.4h-0.9V42h2.3V42.5z M-30.1,44.1l0.8-2.1h0.8v2.9H-29v-2.3l0,0l-0.9,2.3
					h-0.4l-0.9-2.3l0,0v2.3h-0.5V42h0.8L-30.1,44.1z"/>
			</g>
		</g>
		<g>
			<g>
				<defs>
					<rect id="SVGID_25_" x="-184.9" y="39.9" width="156.4" height="50.2"/>
				</defs>
				<clipPath id="SVGID_26_">
					<use xlink:href="#SVGID_25_"  style="overflow:visible;"/>
				</clipPath>
				<rect x="-148.1" y="53" class="st14" width="9.2" height="2.5"/>
			</g>
		</g>
		<g>
			<g>
				<defs>
					<rect id="SVGID_27_" x="-184.9" y="39.9" width="156.4" height="50.2"/>
				</defs>
				<clipPath id="SVGID_28_">
					<use xlink:href="#SVGID_27_"  style="overflow:visible;"/>
				</clipPath>
				<path class="st15" d="M-148.1,58.3V65c0,0-1.5,0.5-2.7-0.3c-1.2-0.8-1.9-2.5-2-6.3h-9.9c0.3,7.4,3.7,13.6,14.1,13.6
					c7.9,0,9.7-2.4,9.7-2.4V58.3H-148.1z"/>
			</g>
		</g>
		<g>
			<g>
				<defs>
					<rect id="SVGID_29_" x="-184.9" y="39.9" width="156.4" height="50.2"/>
				</defs>
				<clipPath id="SVGID_30_">
					<use xlink:href="#SVGID_29_"  style="overflow:visible;"/>
				</clipPath>
				<polygon class="st16" points="-121.2,55.5 -121.2,53.1 -126.8,53.1 -126.8,48.5 -120.1,48.5 -120.1,42 -136.5,42 -136.5,55.5 
									"/>
			</g>
		</g>
		<g>
			<g>
				<defs>
					<rect id="SVGID_31_" x="-184.9" y="39.9" width="156.4" height="50.2"/>
				</defs>
				<clipPath id="SVGID_32_">
					<use xlink:href="#SVGID_31_"  style="overflow:visible;"/>
				</clipPath>
				<polygon class="st17" points="-126.7,60.2 -121.2,60.2 -121.2,58.3 -136.5,58.3 -136.5,71.5 -120.1,71.5 -120.1,65 -126.8,65 
									"/>
			</g>
		</g>
		<g>
			<g>
				<defs>
					<rect id="SVGID_33_" x="-184.9" y="39.9" width="156.4" height="50.2"/>
				</defs>
				<clipPath id="SVGID_34_">
					<use xlink:href="#SVGID_33_"  style="overflow:visible;"/>
				</clipPath>
				<polygon class="st18" points="-101.8,55.5 -101.8,53.1 -107.4,53.1 -107.4,48.5 -100.7,48.5 -100.7,42 -117.1,42 -117.1,55.5 
									"/>
			</g>
		</g>
		<g>
			<g>
				<defs>
					<rect id="SVGID_35_" x="-184.9" y="39.9" width="156.4" height="50.2"/>
				</defs>
				<clipPath id="SVGID_36_">
					<use xlink:href="#SVGID_35_"  style="overflow:visible;"/>
				</clipPath>
				<polygon class="st19" points="-117.1,58.3 -117.1,71.5 -107.4,71.5 -107.3,60.2 -101.8,60.2 -101.8,58.3 				"/>
			</g>
		</g>
		<g>
			<g>
				<defs>
					<rect id="SVGID_37_" x="-184.9" y="39.9" width="156.4" height="50.2"/>
				</defs>
				<clipPath id="SVGID_38_">
					<use xlink:href="#SVGID_37_"  style="overflow:visible;"/>
				</clipPath>
				<polygon class="st20" points="-82.9,55.5 -82.9,53.1 -88.5,53.1 -88.5,48.5 -81.8,48.5 -81.8,42 -98.2,42 -98.2,55.5 				"/>
			</g>
		</g>
		<g>
			<g>
				<defs>
					<rect id="SVGID_39_" x="-184.9" y="39.9" width="156.4" height="50.2"/>
				</defs>
				<clipPath id="SVGID_40_">
					<use xlink:href="#SVGID_39_"  style="overflow:visible;"/>
				</clipPath>
				<polygon class="st21" points="-98.2,58.3 -98.2,71.5 -88.5,71.5 -88.4,60.2 -82.9,60.2 -82.9,58.3 				"/>
			</g>
		</g>
		<g>
			<g>
				<defs>
					<rect id="SVGID_41_" x="-184.9" y="39.9" width="156.4" height="50.2"/>
				</defs>
				<clipPath id="SVGID_42_">
					<use xlink:href="#SVGID_41_"  style="overflow:visible;"/>
				</clipPath>
				<polygon class="st22" points="-64,55.5 -64,53.1 -69.6,53.1 -69.6,48.5 -62.9,48.5 -62.9,42 -79.3,42 -79.3,55.5 				"/>
			</g>
		</g>
		<g>
			<g>
				<defs>
					<rect id="SVGID_43_" x="-184.9" y="39.9" width="156.4" height="50.2"/>
				</defs>
				<clipPath id="SVGID_44_">
					<use xlink:href="#SVGID_43_"  style="overflow:visible;"/>
				</clipPath>
				<polygon class="st23" points="-69.5,60.2 -64,60.2 -64,58.3 -79.3,58.3 -79.3,71.5 -62.9,71.5 -62.9,65 -69.6,65 				"/>
			</g>
		</g>
		<g>
			<g>
				<defs>
					<rect id="SVGID_45_" x="-184.9" y="39.9" width="156.4" height="50.2"/>
				</defs>
				<clipPath id="SVGID_46_">
					<use xlink:href="#SVGID_45_"  style="overflow:visible;"/>
				</clipPath>
				<polygon class="st24" points="-44,42 -44,54.3 -51.8,42 -59.8,42 -59.8,55.5 -47.4,55.5 -47.1,55.5 -47.1,55.6 -45.5,57.7 
					-45,58.3 -45.7,58.3 -59.8,58.3 -59.8,71.5 -51.1,71.5 -51.1,58.8 -43,71.5 -35.8,71.5 -35.8,42 				"/>
			</g>
		</g>
		<g>
			<g>
				<defs>
					<rect id="SVGID_47_" x="-184.9" y="39.9" width="156.4" height="50.2"/>
				</defs>
				<clipPath id="SVGID_48_">
					<use xlink:href="#SVGID_47_"  style="overflow:visible;"/>
				</clipPath>
				<path class="st25" d="M-152.5,57.1c0,0.3,0,0.6,0,0.9h106.8l-1.6-2.1h-105.2C-152.5,56.3-152.5,56.6-152.5,57.1"/>
			</g>
		</g>
		<g>
			<g>
				<defs>
					<rect id="SVGID_49_" x="-184.9" y="39.9" width="156.4" height="50.2"/>
				</defs>
				<clipPath id="SVGID_50_">
					<use xlink:href="#SVGID_49_"  style="overflow:visible;"/>
				</clipPath>
				<path class="st26" d="M-163.1,57c0-0.4,0-0.8,0.1-1.2h-3.7l-6.6,20.7l-4-11.3h-11.4v2.1h9.9l4.5,12.7h2.1l7.1-22.1h2.1
					C-163.1,57.7-163.1,57.4-163.1,57"/>
			</g>
		</g>
		<g>
			<g>
				<defs>
					<rect id="SVGID_51_" x="-184.9" y="39.9" width="156.4" height="50.2"/>
				</defs>
				<clipPath id="SVGID_52_">
					<use xlink:href="#SVGID_51_"  style="overflow:visible;"/>
				</clipPath>
				<path class="st27" d="M-148.1,65c0,0-1.5,0.5-2.7-0.3c-1.3-0.9-2-2.8-2.1-7.6c0-5.6,1.5-7.2,4-8.2c2.7-1.1,6.7,0.2,6.7,0.2
					l2.9-5.7c0,0-5.8-3.4-13.8-1.2c-5.9,1.6-9.7,7.8-9.7,15c0,8,3.1,14.8,14.1,14.8c7.9,0,9.7-2.4,9.7-2.4L-148.1,65z"/>
			</g>
		</g>
	</g>
	<g>
		<path class="st1" d="M392.1,36.5h-10.5l0,0l0,0h-10.5c-0.2,0-0.7,0-0.7,0c-1.8,0-3.5,1.1-4.2,2.7l0,0l-3.9,9l-1.2,2.8v-0.1V51
			l-5-11.7l0,0c-0.6-1.5-2.3-2.6-4.2-2.6c-2.4,0-4.4,2-4.4,4.4c0,0.3,0.1,0.7,0.2,1l9.5,21c0.8,1.2,2.2,2.2,3.8,2.2
			c0.1,0,0.2,0,0.2,0c0.1,0,0.2,0,0.2,0c1.6,0,3-0.9,3.8-2.2l8-17.7h4l-0.1,15.4c0,2.5,2.1,4.5,4.6,4.5c2.5,0,4.5-2.1,4.5-4.6
			L386,45.8v-0.4h5.9c2.4,0,4.5-1.9,4.5-4.4C396.5,38.5,394.6,36.5,392.1,36.5L392.1,36.5z"/>
		<path class="st1" d="M338.1,54.6l1.6-3.8l1.6,3.8H338.1L338.1,54.6z M343.5,38.7c-0.8-1.2-2.2-2.2-3.8-2.2c-0.1,0-0.3,0-0.4,0
			c-1.6,0-3,0.9-3.8,2.2l-9.5,21c-0.1,0.3-0.2,0.6-0.2,1c0,2.4,2,4.4,4.4,4.4c2.4,0,4.5-1.8,4.5-4.2h4.6h0.2h4.6
			c0,2.3,2,4.2,4.5,4.2c2.4,0,4.4-2,4.4-4.4c0-0.3-0.1-0.7-0.2-1L343.5,38.7L343.5,38.7z"/>
		<path class="st0" d="M348.4,78.9c-0.7,0-1.4-0.1-1.8-0.3c-0.5-0.2-0.9-0.6-1.2-1c-0.3-0.4-0.4-1-0.5-1.4v-0.1L346,76v0.1
			c0.1,0.4,0.2,0.7,0.3,1c0.2,0.2,0.4,0.5,0.8,0.6c0.3,0.2,0.8,0.2,1.2,0.2c0.4,0,0.7-0.1,1-0.2c0.3-0.1,0.6-0.2,0.6-0.5
			c0.2-0.2,0.2-0.4,0.2-0.6s-0.1-0.5-0.2-0.6s-0.4-0.3-0.7-0.5c-0.2-0.1-0.7-0.2-1.4-0.4c-0.7-0.2-1.3-0.3-1.6-0.5
			c-0.4-0.2-0.7-0.5-0.9-0.8c-0.2-0.3-0.3-0.6-0.3-1s0.1-0.8,0.3-1.2c0.2-0.4,0.6-0.6,1-0.8s1-0.2,1.5-0.2c0.6,0,1.1,0.1,1.6,0.3
			c0.5,0.2,0.8,0.5,1,0.9s0.4,0.8,0.4,1.3v0.1l-1.1,0.1v-0.1c-0.1-0.5-0.2-0.9-0.6-1.1c-0.3-0.2-0.8-0.4-1.4-0.4
			c-0.6,0-1.1,0.1-1.4,0.3c-0.3,0.2-0.4,0.5-0.4,0.8c0,0.2,0.1,0.5,0.3,0.6c0.2,0.2,0.7,0.4,1.6,0.6s1.4,0.4,1.8,0.5
			c0.5,0.2,0.8,0.5,1,0.9c0.2,0.3,0.3,0.7,0.3,1.2c0,0.4-0.2,0.9-0.4,1.3s-0.6,0.7-1.1,0.9C349.5,78.8,349.1,78.9,348.4,78.9
			L348.4,78.9z"/>
		<polygon class="st0" points="353.5,78.7 353.5,70.6 359.4,70.6 359.4,71.6 354.6,71.6 354.6,74 359.1,74 359.1,75.1 354.6,75.1 
			354.6,77.7 359.5,77.7 359.5,78.7 		"/>
		<path class="st0" d="M365.7,75.4l-0.8-2.2c-0.2-0.6-0.4-1-0.5-1.5c-0.1,0.5-0.2,0.9-0.4,1.4l-0.9,2.3H365.7L365.7,75.4z M367,78.7
			l-1-2.5h-3.3l-0.9,2.5h-1.3l3.1-8.2h1.2l3.4,8.2H367L367,78.7z"/>
		<polygon class="st0" points="369.5,78.7 369.5,70.6 370.7,70.6 370.7,77.7 374.7,77.7 374.7,78.7 		"/>
		<polygon class="st0" points="376.6,78.7 376.6,70.6 377.8,70.6 377.8,78.7 		"/>
		<polygon class="st0" points="385.4,78.7 381.2,72.5 381.2,78.7 380.1,78.7 380.1,70.6 381.3,70.6 385.5,76.8 385.5,70.6 
			386.6,70.6 386.6,78.7 		"/>
		<path class="st0" d="M392.7,78.9c-0.8,0-1.5-0.2-2.2-0.5c-0.6-0.3-1.1-0.9-1.5-1.5c-0.3-0.6-0.5-1.4-0.5-2.2
			c0-0.8,0.2-1.5,0.5-2.2c0.3-0.7,0.8-1.2,1.4-1.5c0.6-0.3,1.4-0.5,2.2-0.5c0.6,0,1.1,0.1,1.6,0.3c0.5,0.2,0.9,0.5,1.1,0.8
			c0.2,0.3,0.5,0.8,0.6,1.4v0.1l-1,0.3v-0.1c-0.1-0.4-0.2-0.7-0.5-1c-0.2-0.2-0.4-0.4-0.7-0.6c-0.3-0.2-0.7-0.2-1.1-0.2
			c-0.5,0-0.9,0.1-1.3,0.2c-0.3,0.2-0.6,0.3-0.9,0.6s-0.4,0.5-0.5,0.8c-0.2,0.5-0.3,1-0.3,1.6c0,0.7,0.2,1.3,0.4,1.8s0.6,0.8,1,1
			c0.5,0.2,1,0.3,1.5,0.3c0.5,0,0.9-0.1,1.4-0.2c0.4-0.2,0.7-0.3,1-0.6v-1.4h-2.4v-1h3.5v3l0,0c-0.6,0.4-1,0.7-1.7,1
			C393.9,78.8,393.4,78.9,392.7,78.9L392.7,78.9z"/>
		<path class="st0" d="M329.9,91.8c-0.7,0-1.4-0.1-1.8-0.3c-0.5-0.2-0.9-0.6-1.2-1c-0.3-0.4-0.4-1-0.5-1.5v-0.1l1.1-0.1v0.1
			c0.1,0.4,0.2,0.7,0.3,1s0.4,0.5,0.8,0.6c0.3,0.2,0.8,0.2,1.2,0.2c0.4,0,0.7-0.1,1-0.2c0.3-0.1,0.6-0.2,0.6-0.5
			c0.2-0.2,0.2-0.4,0.2-0.6c0-0.2-0.1-0.5-0.2-0.6c-0.2-0.2-0.4-0.3-0.7-0.5c-0.2-0.1-0.7-0.2-1.4-0.4c-0.7-0.2-1.3-0.3-1.6-0.5
			c-0.4-0.2-0.7-0.5-0.9-0.8s-0.3-0.6-0.3-1s0.1-0.8,0.3-1.2c0.2-0.4,0.6-0.6,1-0.8c0.5-0.2,1-0.2,1.5-0.2c0.6,0,1.1,0.1,1.6,0.3
			c0.5,0.2,0.8,0.5,1,0.9c0.2,0.4,0.4,0.8,0.4,1.3v0.1l-1.1,0.1v-0.1c-0.1-0.5-0.2-0.9-0.6-1.1c-0.3-0.2-0.8-0.4-1.4-0.4
			c-0.6,0-1.1,0.1-1.4,0.3c-0.3,0.2-0.4,0.5-0.4,0.8c0,0.2,0.1,0.5,0.3,0.6c0.2,0.2,0.7,0.4,1.6,0.6c0.9,0.2,1.4,0.4,1.8,0.5
			c0.5,0.2,0.8,0.5,1,0.9c0.2,0.3,0.3,0.7,0.3,1.2c0,0.4-0.2,0.9-0.4,1.3s-0.6,0.7-1.1,0.9C331,91.7,330.4,91.8,329.9,91.8
			L329.9,91.8z"/>
		<path class="st0" d="M338.6,84.3c-0.7,0-1.4,0.2-1.9,0.8c-0.6,0.5-0.8,1.4-0.8,2.6c0,1,0.2,1.7,0.8,2.2c0.5,0.6,1.2,0.8,1.9,0.8
			c0.8,0,1.4-0.3,1.9-0.8c0.5-0.6,0.8-1.4,0.8-2.4c0-0.6-0.1-1.2-0.3-1.7c-0.2-0.5-0.6-0.9-1-1.1C339.5,84.5,339.1,84.3,338.6,84.3
			L338.6,84.3z M338.6,91.8c-0.8,0-1.4-0.2-2.1-0.6s-1-0.9-1.4-1.5c-0.3-0.6-0.5-1.4-0.5-2.1c0-1.4,0.4-2.4,1.1-3.2
			c0.7-0.8,1.7-1.1,2.8-1.1c0.7,0,1.4,0.2,2.1,0.6c0.6,0.4,1,0.9,1.4,1.5c0.3,0.6,0.5,1.4,0.5,2.2c0,0.8-0.2,1.6-0.5,2.2
			c-0.3,0.6-0.8,1.1-1.4,1.5C339.9,91.6,339.2,91.8,338.6,91.8L338.6,91.8z"/>
		<polygon class="st0" points="344.4,91.6 344.4,83.5 345.5,83.5 345.5,90.6 349.5,90.6 349.5,91.6 		"/>
		<path class="st0" d="M354.7,91.8c-0.8,0-1.4-0.2-1.9-0.4c-0.5-0.2-0.9-0.6-1-1.1c-0.2-0.5-0.3-1.2-0.3-2.1v-4.7h1.2v4.7
			c0,0.7,0.1,1.2,0.2,1.5c0.2,0.3,0.3,0.6,0.6,0.7c0.3,0.2,0.7,0.2,1.1,0.2c0.8,0,1.4-0.2,1.7-0.5c0.3-0.3,0.5-1,0.5-2v-4.7h1.2v4.7
			c0,0.8-0.1,1.4-0.2,1.9c-0.2,0.5-0.6,0.9-1,1.2S355.5,91.8,354.7,91.8L354.7,91.8z"/>
		<polygon class="st0" points="362.3,91.6 362.3,84.5 359.7,84.5 359.7,83.5 366.2,83.5 366.2,84.5 363.5,84.5 363.5,91.6 		"/>
		<polygon class="st0" points="368.1,91.6 368.1,83.5 369.2,83.5 369.2,91.6 		"/>
		<path class="st0" d="M375.4,84.3c-0.7,0-1.4,0.2-1.9,0.8c-0.6,0.5-0.8,1.4-0.8,2.6c0,1,0.2,1.7,0.8,2.2c0.5,0.6,1.2,0.8,1.9,0.8
			c0.8,0,1.4-0.3,1.9-0.8c0.5-0.6,0.8-1.4,0.8-2.4c0-0.6-0.1-1.2-0.3-1.7c-0.2-0.5-0.6-0.9-1-1.1C376.3,84.5,375.9,84.3,375.4,84.3
			L375.4,84.3z M375.4,91.8c-0.8,0-1.4-0.2-2.1-0.6c-0.6-0.4-1-0.9-1.4-1.5c-0.3-0.6-0.5-1.4-0.5-2.1c0-1.4,0.4-2.4,1.1-3.2
			c0.7-0.8,1.7-1.1,2.8-1.1c0.7,0,1.4,0.2,2.1,0.6c0.6,0.4,1,0.9,1.4,1.5c0.3,0.6,0.5,1.4,0.5,2.2c0,0.8-0.2,1.6-0.5,2.2
			c-0.3,0.6-0.8,1.1-1.4,1.5C376.7,91.6,376,91.8,375.4,91.8L375.4,91.8z"/>
		<polygon class="st0" points="386.5,91.6 382.3,85.4 382.3,91.6 381.2,91.6 381.2,83.5 382.4,83.5 386.6,89.7 386.6,83.5 
			387.7,83.5 387.7,91.6 		"/>
		<path class="st0" d="M393.2,91.8c-0.7,0-1.4-0.1-1.8-0.3c-0.5-0.2-0.9-0.6-1.2-1c-0.3-0.4-0.4-1-0.5-1.5v-0.1l1.1-0.1v0.1
			c0.1,0.4,0.2,0.7,0.3,1s0.4,0.5,0.8,0.6c0.3,0.2,0.8,0.2,1.2,0.2s0.7-0.1,1-0.2c0.3-0.1,0.6-0.2,0.6-0.5c0.2-0.2,0.2-0.4,0.2-0.6
			c0-0.2-0.1-0.5-0.2-0.6c-0.2-0.2-0.4-0.3-0.7-0.5c-0.2-0.1-0.7-0.2-1.4-0.4c-0.7-0.2-1.3-0.3-1.6-0.5c-0.4-0.2-0.7-0.5-0.9-0.8
			c-0.2-0.3-0.3-0.6-0.3-1s0.1-0.8,0.3-1.2c0.2-0.4,0.6-0.6,1-0.8s1-0.2,1.5-0.2c0.6,0,1.1,0.1,1.6,0.3c0.5,0.2,0.8,0.5,1,0.9
			c0.2,0.4,0.4,0.8,0.4,1.3v0.1l-1.1,0.1v-0.1c-0.1-0.5-0.2-0.9-0.6-1.1c-0.3-0.2-0.8-0.4-1.4-0.4c-0.6,0-1.1,0.1-1.4,0.3
			c-0.3,0.2-0.4,0.5-0.4,0.8c0,0.2,0.1,0.5,0.3,0.6c0.2,0.2,0.7,0.4,1.6,0.6s1.4,0.4,1.8,0.5c0.5,0.2,0.8,0.5,1,0.9
			c0.2,0.3,0.3,0.7,0.3,1.2c0,0.4-0.2,0.9-0.4,1.3s-0.6,0.7-1.1,0.9C394.3,91.7,393.8,91.8,393.2,91.8L393.2,91.8z"/>
		<path class="st0" d="M316.7,76.4c-1.2-1.5-3.7-4.2-3.9-5.3c-0.4-1.5-0.3-2.9-0.3-3.6l0,0l0.1,0.1c0.1,0.1,0.2,0.2,0.3,0.3l0,0
			c0.2,0.1,0.2,0.2,0.4,0.2h0.1c0.2,0.1,0.3,0.1,0.4,0.1h2c1.4,0,2.4-1.8,2.4-3.9s-1.1-3.9-2.4-3.9h-2h-0.1c-0.1,0-0.2,0-0.3,0.1
			c0,0,0,0-0.1,0h-0.1c-0.1,0-0.1,0-0.2,0.1c-0.1,0-0.1,0.1-0.2,0.1c-0.1,0-0.1,0.1-0.2,0.1c0,0-0.1,0-0.1,0.1
			c-0.1,0-0.1,0.1-0.2,0.2c-0.1,0.1-0.2,0.2-0.2,0.2c-0.1-0.7-0.1-2.1,0.3-3.6c0.2-1,2.7-3.8,3.9-5.3c1.2-1.5,2.5-3,2.7-3.4
			c0.2-0.3,0.3-1,0.1-1.4c-0.2-0.4-1-1.9-1.4-2.2c-0.3-0.3-0.8-0.7-1.5-0.3c-0.7,0.5-4.8,4.6-5.7,5.1s-2.7,0.8-4.2-0.6l-0.1-0.1
			c-1.4-1.5-1.2-3.4-0.6-4.2c0.6-1,4.6-5,5.1-5.7c0.5-0.7,0-1.2-0.3-1.5s-1.8-1.1-2.2-1.4s-1-0.2-1.4,0.1c-0.3,0.2-1.8,1.4-3.4,2.7
			c-1.5,1.2-4.2,3.6-5.3,3.9c-1.4,0.5-2.7,0.4-3.5,0.3c-0.2,0-0.3-0.1-0.6-0.1c-0.1,0-0.1,0-0.1,0l0,0c-0.9-0.1-1.8-0.2-2.6-0.2
			c-0.9,0-1.8,0.1-2.6,0.2l0,0c0,0-1.9,0.4-4.2-0.2c-1-0.2-3.8-2.7-5.3-3.9c-1.5-1.2-3-2.5-3.4-2.7c-0.3-0.2-1-0.3-1.4-0.1
			c-0.4,0.2-1.9,1-2.2,1.4c-0.3,0.3-0.7,0.8-0.3,1.5c0.5,0.7,4.6,4.8,5.1,5.7s0.8,2.7-0.6,4.2l-0.1,0.1c-1.5,1.4-3.4,1.2-4.2,0.6
			c-1-0.6-5-4.6-5.7-5.1c-0.7-0.5-1.2,0-1.5,0.3c-0.3,0.3-1.1,1.8-1.4,2.2c-0.2,0.4-0.2,1,0.1,1.4c0.2,0.3,1.4,1.8,2.7,3.4
			c1.2,1.5,3.6,4.2,3.9,5.3c0.5,1.3,0.4,2.7,0.3,3.5v0.1l0,0l0,0l0,0c0,0,0,0-0.1-0.1l-0.1-0.1l-0.1-0.1l-0.1-0.1l-0.1-0.1l0,0l0,0
			l-0.1-0.1c0,0-0.1,0-0.1-0.1c0,0-0.1,0-0.1-0.1c0,0-0.1,0-0.1-0.1c0,0,0,0-0.1,0l0,0c0,0,0,0-0.1,0H270c-0.1,0-0.1,0-0.2,0
			c-0.1,0-0.1,0-0.2,0l0,0h-2c-1.4,0-2.4,1.8-2.4,3.9c0,2.2,1.1,3.9,2.4,3.9h2c0.2,0,0.3,0,0.4-0.1h0.1c0.1-0.1,0.2-0.1,0.3-0.2h0.1
			c0.1-0.1,0.2-0.2,0.3-0.2l0.1-0.1c0,0,0,0,0-0.1c0,0,0,0,0.1-0.1v0.1c0.1,0.8,0.2,2.2-0.3,3.5c-0.3,1-2.7,3.8-3.9,5.3
			c-1.2,1.5-2.5,3-2.7,3.4c-0.2,0.3-0.3,1-0.1,1.4c0.2,0.4,1,1.9,1.4,2.2c0.3,0.3,0.8,0.7,1.5,0.3c0.7-0.5,4.8-4.6,5.7-5.1
			c0.9-0.6,2.7-0.8,4.2,0.6l0.1,0.1c1.4,1.5,1.1,3.4,0.6,4.2c-0.6,1-4.6,5-5.1,5.7c-0.5,0.7,0,1.2,0.3,1.5c0.3,0.3,1.8,1.1,2.2,1.4
			c0.4,0.2,1,0.2,1.4-0.1c0.3-0.2,1.8-1.4,3.4-2.7c1.5-1.2,4.2-3.7,5.3-3.9c1.6-0.4,3-0.3,3.7-0.3c0,0-0.1,0-0.1,0.1
			c0,0,0,0-0.1,0.1c-0.1,0-0.1,0.1-0.1,0.1c-0.1,0.1-0.2,0.2-0.2,0.2c0,0.1-0.1,0.1-0.1,0.2c-0.1,0.1-0.1,0.2-0.2,0.3
			c0,0.1,0,0.1-0.1,0.2c-0.1,0.2-0.1,0.3-0.1,0.5v2c0,1.4,1.8,2.5,3.9,2.5s3.9-1.1,3.9-2.5l0,0v-2l0,0c0-0.1,0-0.1,0-0.2
			s0-0.1,0-0.2c0-0.1,0-0.1,0-0.1v-0.1l0,0l0,0c0,0,0-0.1-0.1-0.1c0,0,0-0.1-0.1-0.1c0,0,0-0.1-0.1-0.1c0,0,0-0.1-0.1-0.1l0,0l0,0
			c0,0,0,0-0.1-0.1l-0.1-0.1l-0.1-0.1l-0.1-0.1c0,0-0.1,0-0.1-0.1l0,0l0,0l-0.1-0.1c0.1,0,0.1,0,0.2,0c0.8-0.1,2.2-0.2,3.5,0.3
			c1,0.3,3.8,2.7,5.3,3.9c1.5,1.2,3,2.5,3.4,2.7c0.3,0.2,1,0.3,1.4,0.1c0.4-0.2,1.9-1,2.2-1.4c0.3-0.3,0.7-0.8,0.3-1.5
			c-0.5-0.7-4.6-4.8-5.1-5.7c-0.6-0.9-0.8-2.7,0.6-4.2l0.1-0.1c1.5-1.4,3.4-1.2,4.2-0.6c1,0.6,5,4.6,5.7,5.1c0.7,0.5,1.2,0,1.5-0.3
			c0.3-0.3,1.1-1.8,1.4-2.2c0.2-0.4,0.2-1-0.1-1.4C319.2,79.5,318,77.9,316.7,76.4z M291.9,77.4c-7.2,0-13-5.8-13-13
			c0-1.4,0.2-2.6,0.6-3.8v-0.1c0.2-0.8,0.6-1.5,1-2.2c0,0,0,0,0-0.1c0.4-0.7,0.9-1.4,1.4-2l0,0c0.8-1,1.7-1.8,2.7-2.5
			c0.1,0,0.1-0.1,0.2-0.1c0.3-0.2,0.6-0.4,0.9-0.6c0.1-0.1,0.2-0.1,0.3-0.2c0.3-0.2,0.6-0.3,0.9-0.4c0.2-0.1,0.2-0.1,0.4-0.2
			c0.6-0.2,1.4-0.5,2.1-0.6c0.1,0,0.2,0,0.2,0c0.8-0.2,1.6-0.2,2.4-0.2c0.9,0,1.8,0.1,2.6,0.2c0.8,0.2,1.6,0.4,2.3,0.7h0.1
			c1.1,0.5,2.1,1,3,1.8c0.1,0.1,0.2,0.1,0.2,0.2c2.9,2.4,4.7,6,4.7,10.1C304.9,71.5,299.1,77.4,291.9,77.4z"/>
		<polygon class="st0" points="339.2,78.6 337.4,78.6 337.4,70.6 339.2,70.6 		"/>
		<polygon class="st0" points="343.1,78.6 341.9,78.6 341.9,70.6 343.1,70.6 		"/>
		<polygon class="st0" points="326.2,70.7 326.2,78.6 335.1,78.6 335.1,70.7 		"/>
	</g>
	<g>
		<path class="st0" d="M289.1,42.7h2.1h0.1l0,0l0.2,0.5c0,0,0,0,0.1,0.1h0.1h3.2c0,0,0.2,0,0.2,0.1c0.1,0,0.2,0.2,0.2,0.2l0.2,0.3
			c0,0,0,0.1,0,0.2c-0.1,0.1-0.1,0.1-0.1,0.1H292h-0.1l-0.1-0.1l-0.4-0.6c0,0,0,0-0.1-0.1h-0.1h-2.5h-0.1v-0.1l0.2-0.4
			C289.1,42.7,289.1,42.7,289.1,42.7L289.1,42.7"/>
		<path class="st0" d="M290.5,40.6h0.7h0.1l0,0l0.2,0.5c0,0,0,0,0.1,0.1h0.1h1.8c0,0,0.2,0,0.2,0.1c0.1,0,0.2,0.2,0.2,0.2l0.2,0.2
			c0,0,0.1,0.1,0,0.2c-0.1,0.1-0.2,0.1-0.2,0.1h-2h-0.1l-0.1-0.1l-0.3-0.6c0,0,0,0-0.1-0.1h-0.1h-1.1h-0.1v-0.1l0.2-0.4
			C290.3,40.6,290.4,40.6,290.5,40.6C290.4,40.6,290.5,40.6,290.5,40.6"/>
		<path class="st0" d="M291.9,38.3c0.2,0,0.2,0.2,0.2,0.2l1.2,1.9c0,0,0.1,0.1,0,0.2c-0.1,0.1-0.2,0.1-0.2,0.1h-1.4h-0.1l-0.1-0.1
			l-0.2-0.5c0,0,0,0-0.1-0.1h-0.1h-0.4c0,0-0.1,0-0.1-0.1s0-0.2,0-0.2l0.8-1.3C291.6,38.6,291.7,38.3,291.9,38.3"/>
		<path class="st0" d="M289.8,41.6h1.4h0.1l0,0l0.2,0.5c0,0,0,0,0.1,0.1h0.1h2.6c0,0,0.2,0,0.2,0.1c0.1,0,0.2,0.2,0.2,0.2l0.2,0.2
			c0,0,0.1,0.1,0,0.2c-0.1,0.1-0.2,0.1-0.2,0.1H292h-0.1l-0.1-0.1l-0.3-0.6c0,0,0,0-0.1-0.1h-0.1h-1.8h-0.1v-0.1L289.8,41.6
			C289.7,41.7,289.7,41.6,289.8,41.6L289.8,41.6"/>
	</g>
</g>
<g id="Layer_2">
</g>
</svg>
