<?xml version="1.0" encoding="utf-8"?>
<!-- Generator: Adobe Illustrator 24.0.3, SVG Export Plug-In . SVG Version: 6.00 Build 0)  -->
<svg version="1.1" id="Layer_1" xmlns="http://www.w3.org/2000/svg" xmlns:xlink="http://www.w3.org/1999/xlink" x="0px" y="0px"
	 viewBox="0 0 139.95 120.03" style="enable-background:new 0 0 139.95 120.03;" xml:space="preserve">
<style type="text/css">
	.st0{fill:#DD052B;}
	.st1{fill:#002D59;}
	.st2{fill-rule:evenodd;clip-rule:evenodd;fill:#002D59;}
</style>
<path class="st0" d="M125.227,95.024H13.825c-0.118,0-0.214,0.096-0.214,0.214c0,0.118,0.096,0.214,0.214,0.214h111.402
	c0.118,0,0.214-0.096,0.214-0.214C125.44,95.12,125.344,95.024,125.227,95.024z"/>
<path class="st0" d="M61.97,79.65h-5.788c-0.256,0-0.367-0.186-0.367-0.305c0-0.108,0.069-0.305,0.396-0.305h7.923
	c1.247,0,2.262-0.994,2.262-2.216c0-1.218-1.015-2.208-2.262-2.208h-8.08c-2.571,0-4.663,2.092-4.663,4.662
	c0,2.539,2.049,4.528,4.663,4.528h5.236c0.167,0,0.353,0.059,0.353,0.295c0,0.172-0.209,0.285-0.356,0.285h-7.664
	c-0.881,0-1.648,0.487-2.002,1.253c-0.308-0.881-1.163-1.503-2.098-1.503h-2.778v-0.869h2.276c0.942,0,1.708-0.77,1.708-1.718
	c0-0.948-0.78-1.719-1.737-1.719h-2.247v-0.824l2.804-0.014c1.231,0,2.232-0.982,2.232-2.188c0-1.222-0.975-2.216-2.174-2.216
	h-5.097c-1.245,0-2.257,1.007-2.257,2.244v8.126l-4.42-9.166c-0.402-0.748-1.261-1.249-2.136-1.249c-0.758,0-1.486,0.41-1.903,1.077
	l-4.665,10.307c-0.042,0.186-0.063,0.355-0.062,0.502c0,1.222,0.994,2.217,2.216,2.217c0.617,0,1.215-0.245,1.642-0.673
	c0.375-0.376,0.588-0.859,0.603-1.366h4.655c0.014,0.53,0.216,1.016,0.574,1.375c0.397,0.398,0.954,0.618,1.569,0.618h9.227
	c0.87,0,1.647-0.523,1.991-1.334h0.002c0.311,0.871,1.151,1.451,2.108,1.451h8.26c2.533,0,4.516-2.035,4.516-4.634
	C66.428,81.513,64.553,79.65,61.97,79.65z M36.609,83.317l-1.494,0.011l0.714-1.703L36.609,83.317z"/>
<path class="st1" d="M110.383,84.227h-2.778v-7.501c0-1.21-0.986-2.158-2.246-2.158c-1.236,0-2.204,0.948-2.204,2.159l-0.042,7.448
	l-0.555-0.003l-4.057-8.414c-0.401-0.723-1.171-1.19-1.96-1.19c-0.814,0-1.561,0.446-1.952,1.165l-4.597,10.129
	c-0.244-0.962-1.063-1.654-2.073-1.654l-2.825,0.012v-0.868h2.268c0.946-0.001,1.714-0.771,1.714-1.718
	c0-0.948-0.77-1.718-1.718-1.718h-2.264v-0.851l2.689,0.012c1.263,0,2.29-1.007,2.29-2.246c0-1.259-0.972-2.246-2.213-2.246H70.619
	c-2.571,0-4.663,2.092-4.663,4.662c0.001,2.571,2.092,4.663,4.662,4.662c0,0,0.001,0,0.001,0l5.237,0.001
	c0.131,0,0.354,0.045,0.354,0.246c0,0.205-0.211,0.267-0.347,0.267H68.19c-0.707-0.013-1.25,0.163-1.632,0.534
	c-0.375,0.366-0.573,0.911-0.573,1.577c0.001,1.186,1.032,2.151,2.299,2.151h8.193c1.88,0,3.46-0.92,4.095-2.334
	c0,0.011,0,0.022,0,0.033l0.001,0.058c0.048,1.241,1.029,2.214,2.231,2.214h5.009c1.046,0,1.922-0.7,2.178-1.643
	c0.249,0.952,1.109,1.66,2.138,1.66c1.158,0,2.217-0.91,2.389-2.039l4.461-0.001l0.031-0.002c-0.013,0.534,0.163,1.01,0.512,1.379
	c0.398,0.421,0.974,0.653,1.621,0.653h9.183c1.246,0,2.261-0.988,2.261-2.202C112.586,85.228,111.598,84.227,110.383,84.227z
	 M97.354,83.365l-1.511-0.007l0.707-1.524L97.354,83.365z M80.581,81.885c-0.701-1.427-2.189-2.269-4.044-2.269h-5.787
	c-0.2-0.01-0.303-0.129-0.303-0.287c0-0.144,0.08-0.258,0.297-0.258l9.82,0.003L80.581,81.885z"/>
<path class="st2" d="M111.089,76.057h0.229l0.383,0.633h0.275l-0.414-0.65c0.221-0.025,0.386-0.136,0.386-0.404
	c0-0.3-0.182-0.426-0.54-0.426h-0.561v1.48h0.243V76.057z M111.089,75.85v-0.433h0.293c0.147,0,0.322,0.022,0.322,0.2
	c0,0.215-0.161,0.233-0.343,0.233H111.089z M112.662,75.926c0-0.805-0.608-1.337-1.309-1.338c-0.708,0-1.316,0.533-1.316,1.338
	c0.001,0.761,0.547,1.337,1.316,1.337C112.054,77.263,112.662,76.73,112.662,75.926z M112.376,75.926
	c0,0.654-0.451,1.104-1.022,1.104c-0.637,0-1.03-0.497-1.03-1.104c0-0.651,0.451-1.105,1.03-1.105
	C111.925,74.821,112.376,75.275,112.376,75.926z"/>
<path class="st0" d="M122.622,105.74v-4.639h0.618v4.119h2.455v0.52H122.622z M14.004,105.74v-4.639h3.203v0.52h-2.586v1.475h2.41
	v0.52h-2.41v1.604h2.605v0.52H14.004z M17.983,105.74l1.617-2.384l-1.527-2.254h0.741l1.156,1.813l1.208-1.813h0.689l-1.533,2.254
	l1.631,2.384h-0.754l-1.247-1.916l-1.287,1.916H17.983z M22.988,105.74v-4.639h2.033c0.929,0,1.423,0.507,1.423,1.371
	c0,0.864-0.494,1.377-1.423,1.37h-1.416v1.897H22.988z M23.605,101.621v1.703h1.209c0.702,0.006,1.013-0.3,1.013-0.851
	c0-0.553-0.311-0.851-1.013-0.851H23.605z M27.72,105.74v-4.639h3.203v0.52h-2.586v1.475h2.409v0.52h-2.409v1.604h2.605v0.52H27.72z
	 M32.213,105.74v-4.639h2.182c0.877,0,1.41,0.468,1.41,1.215c0,0.565-0.24,1.02-0.805,1.176c0.539,0.117,0.643,0.52,0.695,0.968
	c0.033,0.448,0.012,0.967,0.273,1.279h-0.688c-0.176-0.189-0.078-0.689-0.169-1.143c-0.071-0.448-0.175-0.838-0.773-0.838H32.83
	v1.981H32.213z M32.83,103.239h1.286c0.572,0,1.072-0.149,1.072-0.825c0-0.462-0.246-0.793-0.825-0.793H32.83V103.239z
	 M37.211,105.74v-4.639h0.617v4.639H37.211z M39.39,105.74v-4.639h3.203v0.52h-2.586v1.475h2.41v0.52h-2.41v1.604h2.605v0.52H39.39z
	 M43.876,105.74v-4.639h0.656l2.443,3.762l0.013-3.762h0.585v4.639h-0.676l-2.423-3.722l-0.012,3.722H43.876z M48.868,103.434
	c0-1.351,0.767-2.443,2.197-2.443c0.967,0,1.774,0.52,1.909,1.507h-0.618c-0.136-0.656-0.649-0.987-1.299-0.987
	c-1.105,0-1.572,0.91-1.572,1.877c0,1.059,0.467,1.943,1.579,1.943c0.805,0,1.286-0.572,1.338-1.339h0.617
	c-0.124,1.163-0.831,1.858-2.007,1.858C49.577,105.85,48.868,104.785,48.868,103.434z M54.309,105.74v-4.639h3.203v0.52h-2.586
	v1.475h2.41v0.52h-2.41v1.604h2.605v0.52H54.309z M62.182,105.74v-4.119h-1.547v-0.52h3.71v0.52h-1.547v4.119H62.182z
	 M65.381,105.74v-4.639h0.618v1.995h2.442v-1.995h0.618v4.639h-0.618v-2.124h-2.442v2.124H65.381z M70.595,105.74v-4.639h3.202v0.52
	h-2.586v1.475h2.41v0.52h-2.41v1.604h2.606v0.52H70.595z M77.415,105.74v-4.639h3.203v0.52h-2.586v1.475h2.41v0.52h-2.41v1.604
	h2.605v0.52H77.415z M81.395,105.74l1.617-2.384l-1.526-2.254h0.74l1.157,1.813l1.208-1.813h0.689l-1.534,2.254l1.631,2.384h-0.754
	l-1.247-1.916l-1.286,1.916H81.395z M86.094,103.434c0-1.351,0.767-2.443,2.196-2.443c0.968,0,1.774,0.52,1.91,1.507h-0.618
	c-0.136-0.656-0.649-0.987-1.299-0.987c-1.105,0-1.572,0.91-1.572,1.877c0,1.059,0.467,1.943,1.578,1.943
	c0.805,0,1.286-0.572,1.339-1.339h0.617c-0.124,1.163-0.831,1.858-2.007,1.858C86.803,105.85,86.094,104.785,86.094,103.434z
	 M91.535,105.74v-4.639h3.202v0.52h-2.586v1.475h2.41v0.52h-2.41v1.604h2.606v0.52H91.535z M96.027,105.74v-4.639h2.034
	c0.929,0,1.422,0.507,1.422,1.371c0,0.864-0.493,1.377-1.422,1.37h-1.416v1.897H96.027z M96.644,101.621v1.703h1.208
	c0.701,0.006,1.013-0.3,1.013-0.851c0-0.553-0.312-0.851-1.013-0.851H96.644z M101.812,105.74v-4.119h-1.546v-0.52h3.71v0.52h-1.547
	v4.119H101.812z M105.037,105.74v-4.639h0.618v4.639H105.037z M106.957,103.42c0-1.267,0.747-2.43,2.222-2.43
	s2.222,1.163,2.222,2.43s-0.747,2.43-2.222,2.43S106.957,104.687,106.957,103.42z M107.573,103.42c0,0.936,0.475,1.91,1.605,1.91
	c1.131,0,1.605-0.975,1.605-1.91c0-0.936-0.474-1.91-1.605-1.91C108.048,101.511,107.573,102.485,107.573,103.42z M112.67,105.74
	v-4.639h0.656l2.443,3.762l0.012-3.762h0.585v4.639h-0.676l-2.423-3.722l-0.012,3.722H112.67z M117.337,105.74l1.813-4.639h0.682
	l1.813,4.639h-0.682l-0.507-1.396h-1.962l-0.52,1.396H117.337z M118.689,103.824h1.572l-0.773-2.163L118.689,103.824z"/>
<path class="st1" d="M41.953,56.973h20.842c0,0,0.402,0.021,0.608,0.15c0.171,0.106,0.355,0.374,0.355,0.374l2.759,4.6
	c0,0,0.232,0.327,0.455,0.421c0.184,0.078,0.507,0.059,0.507,0.059h32.357c0,0,1.358,0.015,2.09,0.406
	c0.681,0.364,1.424,1.376,1.424,1.376l2.016,3.342c0,0,0.381,0.894,0.016,1.353c-0.517,0.648-1.065,0.584-1.065,0.584H70.014
	c0,0-0.511-0.015-0.785-0.167c-0.276-0.153-0.562-0.585-0.562-0.585l-3.423-5.676c0,0-0.188-0.371-0.401-0.507
	c-0.25-0.159-0.748-0.126-0.748-0.126H39.14c0,0-0.659,0.064-0.84-0.236c-0.218-0.363,0.088-0.78,0.088-0.78l2.482-3.935
	c0,0,0.224-0.399,0.467-0.531C41.551,56.976,41.953,56.973,41.953,56.973z"/>
<path class="st1" d="M55.265,35.806l7.422,0c0,0,0.401,0.021,0.608,0.15c0.171,0.106,0.355,0.375,0.355,0.375l2.759,4.599
	c0,0,0.232,0.327,0.455,0.421c0.183,0.077,0.507,0.059,0.507,0.059h18.781c0,0,1.357,0.014,2.089,0.406
	c0.681,0.364,1.424,1.376,1.424,1.376l1.679,2.783c0,0,0.558,1.06,0.045,1.85c-0.431,0.662-1.523,0.645-1.523,0.645H69.906
	c0,0-0.511-0.015-0.785-0.167c-0.276-0.154-0.561-0.585-0.561-0.585l-3.423-5.676c0,0-0.188-0.371-0.401-0.507
	c-0.25-0.159-0.749-0.126-0.749-0.126H52.453c0,0-0.659,0.064-0.84-0.236c-0.218-0.363,0.088-0.781,0.088-0.781l2.482-3.934
	c0,0,0.225-0.399,0.467-0.531C54.864,35.809,55.265,35.806,55.265,35.806z"/>
<path class="st0" d="M69.533,14.06c1.514,0,2.605,1.791,2.605,1.791l12.298,19.039c0,0,0.693,1.019,0.198,1.975
	c-0.422,0.817-1.582,0.883-1.582,0.883H69.683c0,0-0.471-0.038-0.724-0.181c-0.244-0.139-0.514-0.504-0.514-0.504l-3.429-5.593
	c0,0-0.3-0.361-0.557-0.496c-0.304-0.16-0.863-0.174-0.863-0.174h-4.023c0,0-0.901,0.075-1.13-0.416
	c-0.265-0.573,0.296-1.224,0.296-1.224l8.058-13.113C66.798,16.046,67.758,14.06,69.533,14.06z"/>
<path class="st1" d="M48.644,46.376h14.151c0,0,0.402,0.021,0.609,0.15c0.17,0.106,0.354,0.374,0.354,0.374l2.759,4.6
	c0,0,0.232,0.327,0.455,0.421c0.184,0.077,0.507,0.059,0.507,0.059h25.457c0,0,1.357,0.015,2.09,0.406
	c0.68,0.364,1.423,1.376,1.423,1.376l1.679,2.783c0,0,0.558,1.061,0.045,1.851c-0.43,0.663-1.522,0.645-1.522,0.645H70.014
	c0,0-0.511-0.015-0.785-0.167c-0.276-0.154-0.562-0.585-0.562-0.585l-3.423-5.676c0,0-0.188-0.372-0.401-0.507
	c-0.25-0.159-0.748-0.126-0.748-0.126H45.833c0,0-0.66,0.064-0.84-0.236c-0.218-0.363,0.088-0.781,0.088-0.781l2.482-3.935
	c0,0,0.225-0.399,0.466-0.531C48.244,46.379,48.644,46.376,48.644,46.376z"/>
</svg>
