<?xml version="1.0" encoding="utf-8"?>
<!-- Generator: Adobe Illustrator 25.2.2, SVG Export Plug-In . SVG Version: 6.00 Build 0)  -->
<!DOCTYPE svg PUBLIC "-//W3C//DTD SVG 1.1//EN" "http://www.w3.org/Graphics/SVG/1.1/DTD/svg11.dtd" [
	<!ENTITY ns_extend "http://ns.adobe.com/Extensibility/1.0/">
	<!ENTITY ns_ai "http://ns.adobe.com/AdobeIllustrator/10.0/">
	<!ENTITY ns_graphs "http://ns.adobe.com/Graphs/1.0/">
	<!ENTITY ns_vars "http://ns.adobe.com/Variables/1.0/">
	<!ENTITY ns_imrep "http://ns.adobe.com/ImageReplacement/1.0/">
	<!ENTITY ns_sfw "http://ns.adobe.com/SaveForWeb/1.0/">
	<!ENTITY ns_custom "http://ns.adobe.com/GenericCustomNamespace/1.0/">
	<!ENTITY ns_adobe_xpath "http://ns.adobe.com/XPath/1.0/">
]>
<svg version="1.1" id="Layer_1" xmlns:x="&ns_extend;" xmlns:i="&ns_ai;" xmlns:graph="&ns_graphs;"
	 xmlns="http://www.w3.org/2000/svg" xmlns:xlink="http://www.w3.org/1999/xlink" x="0px" y="0px" viewBox="0 0 900 900"
	 style="enable-background:new 0 0 900 900;" xml:space="preserve">
<style type="text/css">
	.st0{fill:#FFFFFF;}
	.st1{opacity:0.9;fill:#FFFFFF;}
</style>
<metadata>
	<sfw  xmlns="&ns_sfw;">
		<slices></slices>
		<sliceSourceBounds  bottomLeftOrigin="true" height="776" width="788.1" x="56" y="-840"></sliceSourceBounds>
	</sfw>
</metadata>
<g>
	<g>
		<path class="st0" d="M601.2,289.6c13.6,7.3,10.2,64.2,72.3,31.6C646.1,314.4,647.1,276.3,601.2,289.6z M56,458
			c0,176.6,116.2,326.1,276.3,376.2c9.8-9.6,27.7-30.8,35-39.5c5.6,8.6,8.7,18.7,8.7,29c0,2.3-0.2,4.7-0.5,7
			c-0.2,1.1,0.6,2.1,1.6,2.4c1.1,0.3,2.2-0.4,2.5-1.4c7.2-21.4,27.5-36.3,51.2-36.3c1.8,0,3.7,0.1,5.6,0.3
			c24.5,2.4,44.1,20.3,49.4,42.7c0.2,1,1.1,1.6,2.1,1.6c0,0,0.1,0,0.1,0c1,0,1.9-0.8,2-1.9c3.3-23.6,20.9-43.7,45.6-49
			c4.1-0.9,8.2-1.3,12.3-1.3c7.9,0,15.6,1.6,22.7,4.6c0.9,0.4,1.9,0.1,2.5-0.6c21.4-25.1,34.4-57.4,34.4-92.1
			c0-5.9-0.4-11.9-1.2-17.9v-0.2c-2.5-19.4-16.3-36.3-36.3-41.9c-0.1,0-0.2-0.1-0.2-0.1c-25.5-6.9-53.1-1.1-76.6-7.6
			c-0.1,0-0.1,0-0.2-0.1c-9-2.5-16.6-7.6-22.4-14.2c1.7-7.2,2.5-14.4,2.5-21.6c0-39.6-24.6-76.6-63.9-90.6c-0.2-0.1-0.3-0.2-0.5-0.2
			c-21-6.4-40.7-15.7-58.6-27.2c-1.2-4.3-2.2-8.6-3.2-12.9c-0.9-4.2-4.4-8.8-10-9.9c-3.3-0.6-6.8-1-9.3-0.4c-2,0.5-3.5,1.5-4.7,2.8
			c-3.4-2.9-6.7-6-9.9-9.1c0.8-3.2,2.3-6.3,4.4-9.1c4.1-5.5,12.4-10.5,18.2-13.5c3.7-1.9,5.7-5.4,6.3-8.2
			c2.4-10.1-6.4-14.7-7.5-15.1c-7.1-2.8-15.1-5-22.5-3.6c-7.5,1.4-12.9,7.5-14.5,14.9c-4.2-12.1,2.5-24,12.4-30.9
			c7.9-5.5,20.9-8.7,29.1-10.3c4.5-0.9,7.7-2.9,9.7-9.3c2-6.4-2.6-11.7-4.9-13.2c-13.7-8.7-37.2-17.9-48.1,0
			c0.7-13.3,12.8-22.3,24.5-26c11.2-3.5,25.8-3.3,34.7-2.6c4.9,0.3,8.8-1.6,11.9-6.9c4.3-7.2-1.4-13.8-2.3-14.7
			c-12.6-12.1-32.2-23.1-48-10.6c6-13.7,22.1-19,35.9-19.3c10.3-0.2,22.3,2.8,30,5.1c1.2,0.4,8,1.9,13-4.1
			c5.3-6.3,1.1-13.5,0.5-14.5c-8.5-13.1-22.9-22.4-39.1-16.9c8.6-10.1,21.2-13.1,33.7-12c15.6,0,34.3,9.5,46.1,6.8
			c11.2-2.5,22.3-4.4,33.4-5.6c0.6,4.1,1.3,8.2,2.3,12.4c1.2,5,1.8,10.7,3.3,16.5c1.6,6,5,11.5,10.2,15.7l0.9-1.1l-0.9,1.2
			c3.3,2.5,7,4.2,10.6,5.6c1.9,0.7,3.7,1.4,5.7,1.9c1.9,0.6,3.9,0.9,5.8,1.3c7.6,1.6,15.2,3.7,22.6,6.2c-6.9-2.8-13.9-5.2-21-7.2h0
			c-0.4-0.1-0.8-0.3-1.3-0.4c-3.8-1-7.4-2.1-10.9-3.8c-3.5-1.6-6.9-3.5-9.7-5.9l0,0c-4.7-3.8-7.8-8.8-9.2-14.2
			c-1.5-5.5-2-11.2-3.3-16.4c-0.5-2.2-0.9-4.3-1.3-6.4c-1.5-7.8-2.2-15.5-2.8-22.9c-0.3-4.8-0.8-9.4-1.4-13.7
			c-0.3-2.2-0.7-4.3-1.4-6.2c-0.6-2-1.5-3.9-3.3-5.4l-0.3-0.3c-0.2-0.1-0.3-0.4-0.3-0.6c0,0,0-0.1,0-0.1c0-0.5,0.4-0.9,0.9-0.9
			c0.2,0,0.4,0,0.6,0c2.5,0,5.2,1.1,7.4,2.4c2.4,1.6,4.5,3.4,6.5,5.4c3.9,3.9,7,8.1,10.1,12.1c6.1,8.1,11.2,16.1,16.4,23.2l0,0
			c0.2,0.3,0.5,0.5,0.8,0.8l0,0c2.5,2.8,5.4,5,8.3,7.1c1.6,1.1,3.1,2.3,4.4,3.7c1.3,1.4,2.3,3.1,2.9,5c-0.4-1.9-1.2-3.8-2.3-5.4
			c-1.1-1.7-2.6-3.1-4-4.4c-2-1.9-4-3.8-5.7-5.9c35.3,1.2,68.1,8.7,95.5,20.3c25.5,10.7,60.3,31.9,89,58.1c-0.1,0.9-0.1,2.3-0.1,4
			c0,0.4,0,0.7,0,1.1c0.1,2.4,0.2,4.8,1.2,6.5c1.7,2.6,4.3,5.5,15.1,13.9c6.7,5.1,20.1,16.4,33.8,16.4c4.4,0,8.8-1.2,12.9-4.2
			c3.2-2.3,5.9-3.5,7.6-3.5c1.8,0,3.1,1,4,5.7c0.5,3.2,0.8,6.3,0.8,9.4c0,12.5-4.4,23.8-16.9,33.8l-1.5,1.2l1.5,1.1
			c0,0,0.6,0.4,1.5,1.4c0.9,0.9,2,2.4,2.8,4.1c0.8,1.7,1,3.6,1,7.1c-0.1,3.8,1.8,5.6,3,7.1c1.2,1.6,2.3,3.3,2.4,8.7
			c0.1,5.4-4.7,11.2-9.7,16.9c-2.5,3-4.5,4.1-5.5,4.1c-1.1,0.1-2.8-1.4-4.7-5.9c-8.7-20.3-30.3-33-65.6-45.6
			c-13.5-4.8-34.2-12.1-46.7-16.3l-0.7-0.3l0,0c-10.6-3.3-21.3-6.4-32.1-8.9c-11.1-2.5-22.3-4.7-33.7-4.7
			c11.4,0.5,22.5,3.1,33.4,6.1c3.7,1,7.4,2.2,11,3.3l0,0c5.7,1.7,10.7,3.4,15.2,5.1c1.2,0.4,2.4,0.8,3.6,1.2c0,0-0.1,0.1-0.1,0.1
			c21.7,8.8,30.9,18.2,39.7,25.1c17.6,13.8,32.5,28,46.7,44.1c11.9,13.3,22.9,26.9,35.2,38.9c-0.8-4.2-1-8-1.4-11.4
			c-0.4-3.6-1.1-7-3.6-11.2c2.4,0,4.9,0.9,7,2.4c2.1,1.5,3.8,3.6,5,5.8c2.5,4.4,3.4,8.8,4.3,12.7c0.8,3.9,1.4,7.4,2.5,10.8
			c1,3.5,2.7,7,5,11.3c-1,0-2-0.2-3-0.5l-12.2-1.2c-3.8-0.3-7.5-0.6-11.5-1.1c-4-0.5-8.5-1.3-13-3.6c-2.2-1.2-4.3-2.8-5.8-4.9
			c-1.5-2-2.4-4.4-2.6-6.8c4.4,2.1,7.8,2.9,11.2,3.1c3.5,0.3,7.3,0.3,11.6,0.8c0.4,0,0.8,0.1,1.2,0.2c-14.3-11-27-23.6-40-35.2
			c-15.6-14.1-31.9-26.9-49.6-37c-11.3-6.4-28.6-11.7-42.6-16.1c2.6,4.1,7.8,9.7,16.4,17.8c13.1,12.1,34.2,29.2,66.1,51.9
			c3.9,2.7,8.4,8.6,8.4,15.5c0,9.4-8.4,21.9-41.3,32.3c-2,0.6-3.5,0.9-4.4,0.9c-0.8,0-1-0.2-1.1-0.3c-0.1-0.1-0.3-0.7-0.3-1.7
			c0-1.2,0.3-3,0.7-5.2l0.2-0.9c0.2-1.2,0.3-2.4,0.3-3.6c-0.4-23.7-39-51.7-92-71.7c-18.2-6.8-43.6-15.5-62.6-25.3v0
			c-5.9-2.8-11.7-5.8-16.9-9.6c-2.6-1.9-5.1-4-7.1-6.6c-2-2.5-3.5-5.6-3.5-8.9c-0.3,3.3,1.1,6.6,2.9,9.3c1.9,2.8,4.3,5.1,6.8,7.3
			c3.7,3.1,7.7,5.8,11.9,8.3c-13.7,7.5-23.4,16.7-23.4,28.4c0,9.8,6.9,20.4,22.8,32.3c88.5,65.9,161.3,156.2,161.2,264.4
			c0,19.9-2.5,40.4-7.8,61.6c1.9-1.1,3.8-2.2,5.6-3.4c-0.3-0.8-0.5-1.7-0.5-2.7c0-0.7,0.1-1.5,0.2-2.2c1.2-5.8,2.3-11.6,3.1-17.3
			c0.8-6,6.3-11.9,12.2-12.7l0,0l2.3-0.4l11.7-1.8c0.6-0.1,1.1-0.1,1.7-0.1c3.8,0.1,5.8,2,5.9,5.4c0,0.8-0.1,1.7-0.4,2.7
			c-0.6,1.9-1.2,3.8-1.9,5.7C783.3,699.1,844,585.7,844,458c0-217.6-176.4-394-394-394C232.4,64,56,240.4,56,458z M552.8,499.3
			c0,1.3-0.5,2.5-1.7,3.6c-1.4,1.3-3.3,2-5.5,2c-2.8,0-6-1.2-8.6-3.5c-8.8-7.8-17.4-14.7-25.3-20.8c-2.8-2.2-5.5-4.3-8.4-6.5
			c0.5,0.2,1.1,0.3,1.8,0.6l0.5-1.3l0,0l-0.4,1.3c14.1,4.9,28.3,11,42.4,18C551.2,494.5,552.8,497.1,552.8,499.3z M580.9,515.4
			c0,2-0.9,4.1-3.1,6l-2.4,2.1c-2.1,1.8-4.7,2.7-7.4,2.7c-3.1,0-6.2-1.2-8.4-3.4c-1.6-1.5-3.1-3.1-4.6-4.6c-2.5-2.5-3.8-5.5-3.8-8.2
			c0-1.9,0.6-3.6,2-4.9c1.7-1.7,4.7-2.7,7.9-2.7c2.7,0,5.6,0.7,8,2.1l0.7-1.2l-0.7,1.2c2.7,1.6,5.4,3.2,8,4.8
			C579.7,510.9,580.9,513.1,580.9,515.4z M608.3,534.6c0,2.2-1.1,4.6-3.6,6.4l-2,1.5l-6.4,4.8l0,0c-2,1.5-4.3,2.2-6.7,2.2
			c-3.3,0-6.7-1.4-9-4c-1.4-1.7-2.9-3.3-4.3-4.9c-1.8-2.1-2.7-4.6-2.7-7c0-2.9,1.2-5.7,3.6-7.8l0,0l2.4-2.1c0,0,0,0,0,0
			c2.5-2.1,6-3.2,9.5-3.2c2.9,0,5.8,0.8,8,2.4c2.6,1.9,5.2,3.8,7.8,5.8C607.3,530.2,608.3,532.4,608.3,534.6z M633.8,556.7
			c0,2.6-1.4,5.1-4.2,7c0,0,0,0,0,0l-10.6,6.7l-3.5,2.2c-1.8,1.2-3.9,1.7-6,1.7c-3.6,0-7.2-1.7-9.4-4.7c-1.4-1.8-2.7-3.7-4.1-5.5
			c-1.5-2-2.2-4.3-2.2-6.5c0-3.1,1.4-6.2,4.2-8.2c0,0,0,0,0,0l8.4-6.2c2.3-1.7,5.2-2.5,8.2-2.5c3.3,0,6.6,1.1,9,3.2
			c2.5,2.3,5,4.6,7.4,6.9C633,552.6,633.8,554.7,633.8,556.7z M659.6,585.6c0,3.1-1.7,6.2-5,7.9L635,604c-1.6,0.9-3.4,1.3-5.1,1.3
			c-3.8,0-7.4-1.9-9.6-5.3c-2.1-3.5-4.2-6.9-6.4-10.3c-1.1-1.8-1.7-3.8-1.7-5.8c0-3.5,1.7-6.8,4.8-8.8l0,0l3-1.9l11.1-7.1
			c2-1.3,4.5-1.9,7-1.9c3.7,0,7.4,1.5,9.7,4.1c3.4,3.9,6.7,7.8,9.8,11.9C659,581.9,659.6,583.8,659.6,585.6z M679.1,615.8
			c0,3.8-2.3,7.5-6.2,9.2L650,635.2c-1.4,0.6-2.8,0.9-4.3,0.9c-3.7,0-7.3-2-9.2-5.4c-1.5-3.4-3.1-6.7-4.8-10.1c-0.6-1.5-1-3-1-4.5
			c0-3.9,2-7.7,5.7-9.6l5.5-2.9l14.1-7.5c0,0,0,0,0,0c1.7-0.9,3.6-1.4,5.5-1.4c4,0,7.9,1.9,10,5.3c2.3,3.7,4.4,7.4,6.5,11.2
			C678.7,612.7,679.1,614.3,679.1,615.8z M693.9,651.4c0,4.7-3.2,9.4-7.9,11.1l-20.5,7.2l-3.4,1.2l0,0c-1.1,0.4-2.3,0.6-3.4,0.6
			c-4.3,0-8.1-2.8-9.5-7.3c-0.1-0.3-0.2-0.5-0.3-0.8c-1.2-3.8-2.4-7.6-3.8-11.4c-0.4-1.2-0.6-2.4-0.6-3.6c0-4.4,2.5-8.7,6.7-10.5
			c0,0,0,0,0,0l16.8-7.5l6.1-2.7c1.4-0.6,2.9-0.9,4.4-0.9c4.1,0,8,2.4,9.6,6.4c2,5,3.8,10.2,5.3,15.4
			C693.8,649.4,693.9,650.4,693.9,651.4z M701.3,697.4c0.1,5.8-5,12-10.8,13.4l-20.7,5.1c-0.8,0.2-1.7,0.3-2.5,0.3
			c-4.6,0-8.1-3.2-8.8-8.3c-0.8-6.8-1.9-13.5-3.3-20.1c-0.2-0.8-0.2-1.6-0.2-2.4c0-5.1,3.2-10.1,8-11.8c0,0,0,0,0,0l23.9-8.4
			c1.2-0.4,2.3-0.6,3.4-0.6c4.3,0,7.8,2.8,8.6,7.4c1.3,8.2,2.1,16.6,2.4,25.2C701.3,697.2,701.3,697.3,701.3,697.4z M701.6,721.4
			l-1.2-0.1c-0.7,6.8-1.7,13.8-3.2,20.9c-1.1,5.9-7.6,11.7-13.6,12.6h0l-14,2.2c-0.5,0.1-1.1,0.1-1.6,0.1c-4.7-0.1-7.9-3.3-7.9-8.4
			c0-0.2,0-0.3,0-0.5c0.2-3.6,0.2-7.1,0.2-10.7c0-1.7,0-3.4-0.1-5.1v-0.3c0-5.9,4.5-12,10.2-13.4l20.8-5.1c0.8-0.2,1.6-0.3,2.4-0.3
			c4.1,0.1,6.8,2.6,6.9,7c0,0.3,0,0.6-0.1,1L701.6,721.4L701.6,721.4z M505.4,183.1c4.3-1.1,10.7,0.7,16.1,2.8
			c5.4,2.1,10.3,5.5,14.7,9.4c8.7,8,14.5,17.6,19.3,26.3c2.1,3.9,4.9,7.3,7.4,10.5c-13-2.9-26.7-5-40.8-6
			c-0.9-6.6-1.8-12.7-3.5-18.5c-2.1-7.6-3.8-19.2-14.4-20.9C498,185.8,500.5,184.4,505.4,183.1z M129.5,340.6
			c2.6-7.8,3.9-15.7,3.9-23.5c0-12.3-3.2-24.2-8.9-34.8l54.7,24.3c-7.2,26-11.6,53.3-12.8,81.3l-71.1-6.6
			C110.9,372.8,123.4,358.7,129.5,340.6z M174.1,237c10.3-13.8,15.3-29.9,15.3-45.9c0-0.5,0-1,0-1.6l29.4,26.6
			c-14,22.6-25.4,47.1-34.1,73l-53.2-23.6C147.9,261.3,163.1,251.6,174.1,237z M228.8,200.6l-29.9-27c13.6-3.3,35.2-10.9,54.3-28
			c25.1-22.5,69.1-60.1,158.2-71.3C336.2,91.9,272.4,138,228.8,200.6z M577.5,779.3L566,743.4c20.3-7.5,31-18.2,36.4-28.9
			c-0.1,0.7-0.1,1.5-0.3,2.2c-0.1,1.1-0.3,2.2-0.5,3.3c-0.5,3.1-1,6.1-1.7,9.1c-0.1,0.3-0.1,0.6-0.2,0.9c-0.4,1.6-0.8,3.3-1.2,4.9
			c-0.2,0.6-0.4,1.3-0.5,1.9c-1.4,5-3.1,9.9-5.1,14.7c-0.3,0.8-0.7,1.6-1,2.4c-0.6,1.3-1.2,2.7-1.8,4.1c-0.9,1.9-1.8,3.7-2.8,5.5
			c-0.5,1-1.1,2-1.6,3c-0.7,1.3-1.5,2.6-2.3,3.9c-0.5,0.8-1,1.7-1.5,2.5c-1.3,2-2.6,4-4,6C577.7,779,577.6,779.1,577.5,779.3z
			 M491.9,754.6c10.8-0.1,21.7-0.7,32.6-2c8.1-0.9,16.1-2.2,24-3.8l11.5,35.9c0,0,0,0,0,0c-1.9-0.4-3.9-0.7-5.9-0.9c0,0-0.1,0-0.1,0
			c-2-0.2-4-0.3-6.1-0.3c-1.1,0-2.2,0-3.3,0.1c-3.3,0.2-6.6,0.6-9.9,1.3c0,0-0.1,0-0.1,0c-1.8,0.4-3.6,0.9-5.3,1.4
			c-0.5,0.2-1,0.3-1.5,0.5c-1.5,0.5-2.9,1-4.4,1.7c-0.3,0.1-0.6,0.2-0.9,0.3c-1.7,0.8-3.4,1.6-5,2.5c-0.3,0.2-0.6,0.3-0.9,0.5
			c-1.4,0.8-2.8,1.7-4.1,2.6c-0.2,0.1-0.5,0.3-0.7,0.4c-3.1,2.2-6.1,4.7-8.7,7.5c-0.1,0.1-0.2,0.2-0.3,0.3c-2.7,2.8-5.2,5.9-7.3,9.2
			v0L491.9,754.6z M392.4,805.3l13.3-62.9c21.9,6.5,44.6,10.5,67.9,11.8l3.6,58.2c-2.4-2.8-5.2-5.5-8.1-7.8
			c-0.1-0.1-0.1-0.1-0.1-0.1c-2.9-2.3-5.9-4.3-9.2-6.1c-0.3-0.2-0.5-0.3-0.8-0.4c-1.4-0.7-2.8-1.4-4.3-2c-0.2-0.1-0.4-0.2-0.7-0.3
			c-1.6-0.7-3.3-1.3-5-1.8c-0.4-0.1-0.7-0.2-1.1-0.3c-1.3-0.4-2.7-0.7-4.1-1c-0.5-0.1-1-0.2-1.5-0.3c-1.7-0.3-3.5-0.6-5.3-0.8
			c0,0-0.1,0-0.1,0c0,0,0,0-0.1,0c-2-0.2-4-0.3-6-0.3c-1.7,0-3.3,0.1-5,0.2c-0.4,0-0.8,0.1-1.2,0.1c-1.3,0.1-2.6,0.3-3.9,0.5
			c-0.3,0.1-0.6,0.1-1,0.2c-3.3,0.6-6.4,1.5-9.5,2.6c-0.2,0.1-0.5,0.2-0.7,0.3c-1.5,0.6-2.9,1.2-4.4,1.9l0,0c-3.1,1.5-6,3.2-8.8,5.2
			c0,0,0,0-0.1,0C395,803.2,393.7,804.2,392.4,805.3z M301.8,771l29.7-61.8c18,11,37,20.3,56.8,27.4L375,799.8
			c-6-12.9-16.6-23.7-30.8-29.4c-6.8-2.7-13.8-4-20.6-4C316,766.4,308.6,768,301.8,771z M215.6,712.7l49.9-56.8
			c15.5,16.2,32.4,30.6,50.5,43.2L284,761.8c-2.6-14.3-10.3-27.8-22.8-37.3c-10.9-8.4-23.6-12.5-36.2-12.5
			C221.9,711.9,218.7,712.2,215.6,712.7z M147,628.4l66.6-42.4c11.5,20.3,24.8,39.1,39.6,56.3l-50.5,54.2c0.2-1.9,0.3-3.9,0.3-5.8
			c0-27-17.6-52-44.9-60C154.4,629.5,150.7,628.8,147,628.4z M144.3,583c0-6.9-1.1-14-3.4-20.9c-6.5-19.6-21.4-34.2-39.3-41.1
			l77.5-19.4c6.5,24.1,15.3,47,26.1,68.5l-66.6,40C142.2,601.7,144.3,592.4,144.3,583z M80.3,516.5c5-2.5,9.6-5.7,13.8-9.3
			l83.7-19.8c1.1-0.3,1.9-1.4,1.6-2.6c-2.8-12.4-5-25.1-6.5-38c-1.7-14.4-2.5-28.6-2.5-42.6c0-1.1-0.9-2-2-2.1l-83.5-7.5
			c-3.5-2.2-7.2-4-11.2-5.5c4.8-0.9,9.6-2.3,14.1-4.2l80.5,7.5c0.1,0,0.1,0,0.2,0c0.5,0,1-0.2,1.4-0.5c0.4-0.4,0.7-0.9,0.7-1.5
			c1.1-29.1,5.6-57.5,13.2-84.4c0.3-1-0.2-2.1-1.2-2.5l-62.1-27.6c-1.9-2.8-3.9-5.5-6.2-8.1c3.2-0.1,6.5-0.4,9.7-0.9l61,27
			c0.3,0.1,0.6,0.2,0.9,0.2c0.3,0,0.6-0.1,0.9-0.2c0.6-0.2,1-0.7,1.2-1.3c8.8-27,20.7-52.4,35.3-75.8c0.5-0.9,0.4-2-0.4-2.7
			L189,183.3c-0.3-2.5-0.6-5-1.1-7.5c1.4-0.2,3.5-0.5,5.9-1l35.8,32.3l1.4-2c38.7-56.5,93.8-99.5,159-120.3
			C303,120.3,243.3,202.2,243.3,295c0,5.8,0.2,11.6,0.7,17.4c7.5,93.9,74.4,169.5,163,196.9c0.1,0.1,0.2,0.1,0.3,0.2
			c37.8,13.3,61.5,48.8,61.5,86.7c0,7.1-0.8,14.3-2.6,21.4c-0.2,0.7-0.1,1.5,0.4,2.1c6.3,7.6,14.8,13.4,25,16.3c0.1,0,0.2,0,0.2,0.1
			c24.9,6.8,52.5,1,76.6,7.6c0.1,0,0.2,0.1,0.2,0.1c18.3,5.1,31,20.6,33.4,38.3v0.1c0.3,2.5,0.5,5,0.7,7.5c0,1,0.1,2,0.1,3
			c-0.2,15-5.4,34.9-40.3,47.3c-1.1,0.4-1.7,1.6-1.3,2.7l13,40.8c-1.1,1.5-2.3,2.9-3.5,4.4c-1.9-0.8-3.9-1.4-5.9-2l-12.9-40.2
			c-0.3-1-1.4-1.7-2.5-1.4c-8.4,1.7-16.9,3.1-25.6,4.1l0,0c-11.4,1.3-22.7,2-34,2c-0.2,0-0.3,0-0.4,0c-0.6,0-1.2,0.2-1.6,0.7
			c-0.4,0.4-0.6,1-0.6,1.6l4.1,66.1c-1.7,3.4-3,7-4.1,10.7c-1.5-3.8-3.4-7.4-5.6-10.8l-4.2-66.6c-0.1-1.1-1-2-2-2
			c-24.4-1.2-48.1-5.5-71-12.4c-0.6-0.2-1.2-0.1-1.7,0.2c-0.5,0.3-0.9,0.8-1,1.4l-15.1,71.6c-2.5,2.9-4.8,6-6.7,9.3
			c-0.3-4.4-1.1-8.7-2.4-12.9l15.1-71.5c0.2-1.1-0.4-2.1-1.4-2.5c-20.9-7.4-40.9-17.2-59.7-28.9c-0.5-0.3-1.1-0.4-1.7-0.3
			c-0.6,0.2-1.1,0.6-1.3,1.1l-33.2,69.2c-4.2,2.6-8.1,5.7-11.4,9.3c0.7-3.6,1-7.3,1-10.9c0-1.1,0-2.3-0.1-3.4l35.8-70
			c0.5-1,0.2-2.1-0.7-2.7c-19.1-13.1-36.8-28.3-53-45.4c-0.4-0.4-1-0.7-1.6-0.7c-0.6,0-1.2,0.3-1.6,0.7l-55.4,63.1
			c-4.4,1.3-8.7,3.2-12.8,5.6c1.9-3.6,3.5-7.5,4.7-11.5c0.4-1.5,0.8-3,1.1-4.4l56.1-60.2c0.8-0.8,0.8-2.1,0.1-2.9
			c-15.6-17.9-29.6-37.7-41.5-59c-0.3-0.5-0.8-0.9-1.3-1c-0.6-0.1-1.2,0-1.7,0.3l-73.6,46.9c-5.1,0-10.1,0.7-14.9,2
			c3.8-3.8,7.2-8,9.9-12.6l74.4-44.7c1-0.6,1.3-1.8,0.8-2.8c-11.4-22.4-20.6-46.3-27.2-71.5c-0.3-1.1-1.5-1.8-2.6-1.5l-86.3,21.6
			C89.4,517.4,84.9,516.7,80.3,516.5z M118.5,454.3L118.5,454.3c0-22.2-10.3-41.9-26.5-54.7l74.1,6.6c0.1,13.6,0.9,27.3,2.5,41.2
			c1.4,12.4,3.5,24.5,6.1,36.4l-74.6,17.7C111.6,489,118.5,472.4,118.5,454.3z"/>
	</g>
</g>
<path class="st1" d="M483.6,85.9c-64.9,0-125.1,19.7-175.2,53.3c-40.6,41.2-65.2,96.3-65.2,155.8c0,5.8,0.2,11.6,0.7,17.4
	c7.5,93.9,74.4,169.5,163,196.9c0.1,0.1,0.2,0.1,0.4,0.2c37.8,13.3,61.5,48.8,61.5,86.7c0,7.1-0.8,14.3-2.6,21.4
	c-0.2,0.7-0.1,1.5,0.4,2.1c6.3,7.6,14.8,13.4,25,16.3c0.1,0,0.2,0,0.2,0.1c24.9,6.8,52.5,1,76.6,7.6c0.1,0,0.2,0.1,0.2,0.1
	c18.3,5.1,31,20.6,33.4,38.3v0.1c0.3,2.5,0.5,5,0.7,7.5c0,0.4,0,0.9,0,1.3c1.4-0.6,2.8-1.1,4.2-1.7c-0.2-2.5-0.4-5-0.7-7.6v-0.2
	c-2.5-19.4-16.3-36.3-36.3-41.9c-0.1,0-0.2-0.1-0.2-0.1c-25.5-6.9-53.2-1.1-76.6-7.6c-0.1,0-0.1,0-0.2-0.1
	c-9-2.5-16.7-7.6-22.4-14.2c1.7-7.2,2.5-14.4,2.5-21.6c0-39.6-24.6-76.6-63.9-90.6c-0.2-0.1-0.3-0.2-0.5-0.2
	c-21-6.4-40.7-15.7-58.6-27.2c-1.2-4.3-2.2-8.6-3.2-12.9c-0.9-4.2-4.4-8.8-10-9.9c-3.3-0.6-6.8-1-9.3-0.4c-2,0.5-3.5,1.5-4.7,2.8
	c-3.4-2.9-6.7-6-9.9-9.1c0.8-3.2,2.3-6.3,4.4-9.1c4.1-5.5,12.4-10.5,18.2-13.5c3.7-1.9,5.7-5.4,6.3-8.2c2.4-10.1-6.4-14.7-7.5-15.1
	c-7.1-2.8-15.1-5-22.5-3.6c-7.5,1.4-12.9,7.5-14.5,14.9c-4.2-12.1,2.5-24,12.4-30.9c7.9-5.5,20.9-8.7,29.1-10.3
	c4.5-0.9,7.7-2.9,9.7-9.3c2-6.4-2.6-11.7-5-13.2c-13.7-8.7-37.2-17.9-48.1,0c0.7-13.3,12.8-22.3,24.5-26c11.2-3.5,25.8-3.3,34.7-2.6
	c4.9,0.3,8.8-1.6,11.9-6.9c4.3-7.2-1.4-13.8-2.3-14.7c-12.6-12.1-32.2-23.1-48-10.6c6-13.7,22.1-19,35.9-19.3
	c10.3-0.2,22.3,2.8,29.9,5.1c1.2,0.4,8,1.9,13-4.1c5.3-6.3,1.1-13.5,0.5-14.5c-8.5-13.1-22.9-22.4-39.2-16.9
	c8.6-10.1,21.2-13.1,33.8-12c15.6,0,34.3,9.5,46.1,6.8c11.2-2.5,22.3-4.4,33.4-5.6c0.6,4.1,1.3,8.2,2.3,12.4
	c1.2,5,1.8,10.7,3.3,16.5c1.6,6,5,11.5,10.2,15.7l0.9-1.1l-0.9,1.2c3.3,2.5,7,4.2,10.6,5.6c1.9,0.7,3.7,1.4,5.7,1.9
	c1.9,0.6,3.9,0.9,5.8,1.3c7.6,1.6,15.2,3.7,22.6,6.2c-6.8-2.8-13.9-5.2-21-7.2l0,0c-0.4-0.1-0.8-0.3-1.3-0.4
	c-3.8-1-7.4-2.1-10.9-3.8c-3.5-1.6-6.9-3.5-9.7-5.9c-4.7-3.8-7.8-8.8-9.2-14.2c-1.5-5.5-2-11.2-3.3-16.4c-0.5-2.2-0.9-4.3-1.3-6.4
	c-1.5-7.8-2.2-15.5-2.8-22.9c-0.3-4.8-0.8-9.4-1.4-13.7c-0.3-2.2-0.7-4.3-1.4-6.2c-0.6-2-1.5-3.9-3.3-5.4l-0.3-0.3
	c-0.2-0.1-0.3-0.4-0.3-0.6v-0.1c0-0.5,0.4-0.9,0.9-0.9c0.2,0,0.4,0,0.7,0c2.5,0,5.2,1.1,7.4,2.4c2.5,1.6,4.6,3.4,6.5,5.4
	c3.9,3.9,7,8.1,10.1,12.1c6,8.1,11.2,16.1,16.4,23.2c0.2,0.3,0.5,0.5,0.8,0.8c2.5,2.8,5.4,5,8.3,7.1c1.6,1.1,3.1,2.3,4.4,3.7
	c1.3,1.4,2.3,3.1,2.9,5c-0.4-1.9-1.2-3.8-2.3-5.4c-1.1-1.7-2.6-3.1-4-4.4c-2-1.9-4-3.8-5.8-5.9c35.3,1.2,68.1,8.7,95.5,20.3
	c25.5,10.7,60.3,31.9,89,58.1c-0.1,0.9-0.1,2.3-0.1,4c0,0.4,0,0.7,0,1.1c0.1,2.4,0.2,4.8,1.2,6.5c1.7,2.6,4.3,5.5,15.1,13.9
	c6.7,5.1,20.1,16.4,33.8,16.4c4.4,0,8.8-1.2,12.9-4.2c3.2-2.3,5.9-3.5,7.6-3.5c1.8,0,3.1,1,4,5.7c0.5,3.2,0.8,6.3,0.8,9.4
	c0,12.5-4.4,23.8-16.9,33.8l-1.5,1.2l1.5,1.1c0,0,0.6,0.4,1.5,1.4c0.9,0.9,2,2.4,2.8,4.1c0.8,1.7,1,3.6,1,7.1
	c-0.1,3.8,1.8,5.6,3,7.1c1.2,1.6,2.3,3.3,2.4,8.7c0.1,5.4-4.7,11.2-9.7,16.9c-2.6,3-4.5,4.1-5.5,4.1c-1.1,0.1-2.8-1.4-4.7-5.9
	c-8.7-20.3-30.3-33-65.6-45.6c-13.5-4.8-34.2-12.1-46.7-16.3l-0.7-0.3l0,0c-10.6-3.3-21.3-6.4-32.1-8.9c-11.1-2.5-22.3-4.7-33.7-4.7
	c11.4,0.5,22.5,3.1,33.4,6.1c3.7,1,7.4,2.2,11,3.3l0,0c5.7,1.7,10.7,3.4,15.2,5.1c1.2,0.4,2.4,0.8,3.6,1.2c0,0-0.1,0.1-0.1,0.1
	c21.7,8.8,30.9,18.2,39.7,25.1c17.6,13.8,32.5,28,46.7,44.1c11.9,13.3,22.9,26.9,35.2,38.9c-0.8-4.2-1-8-1.4-11.4
	c-0.4-3.6-1.1-7-3.6-11.2c2.4,0,4.9,0.9,7,2.4c2.1,1.5,3.8,3.6,5,5.8c2.5,4.4,3.4,8.8,4.3,12.7c0.8,3.9,1.4,7.4,2.5,10.8
	c1,3.5,2.7,7,5,11.3c-1,0-2-0.2-3-0.5l-12.2-1.2c-3.8-0.3-7.5-0.6-11.5-1.1c-4-0.5-8.5-1.3-13-3.6c-2.2-1.2-4.3-2.8-5.8-4.9
	c-1.5-2-2.4-4.4-2.6-6.8c4.4,2.1,7.8,2.9,11.2,3.1c3.5,0.3,7.3,0.3,11.6,0.8c0.4,0,0.8,0.1,1.2,0.2c-14.3-11-27-23.6-40-35.2
	c-15.6-14.1-31.9-26.9-49.6-37c-11.3-6.4-28.6-11.7-42.6-16.1c2.6,4.1,7.8,9.7,16.4,17.8c13.1,12.1,34.2,29.2,66.1,51.9
	c3.9,2.7,8.4,8.6,8.4,15.5c0.1,9.4-8.4,21.9-41.3,32.3c-2,0.6-3.5,0.9-4.4,0.9c-0.9,0-1-0.2-1.1-0.3c-0.1-0.1-0.3-0.7-0.3-1.7
	c0-1.2,0.3-3,0.7-5.2l0.2-0.9c0.2-1.2,0.3-2.4,0.3-3.6c-0.4-23.7-39-51.7-92-71.7c-18.2-6.8-43.6-15.5-62.6-25.3v0
	c-5.9-2.8-11.7-5.8-16.9-9.6c-2.6-1.9-5.1-4-7.1-6.6c-2-2.5-3.5-5.6-3.5-8.9c-0.3,3.3,1.1,6.6,2.9,9.3c1.9,2.8,4.3,5.1,6.8,7.3
	c3.7,3.1,7.7,5.8,11.9,8.3c-13.7,7.5-23.4,16.7-23.4,28.4c0,9.8,6.9,20.4,22.8,32.3c69.3,51.6,128.9,118.1,151.5,196.5
	c1-0.6,1.9-1.2,2.9-1.8c-0.5-0.8-0.9-1.6-1.2-2.5c-0.1-0.3-0.2-0.5-0.3-0.8c-1.2-3.8-2.4-7.6-3.8-11.4c-0.4-1.2-0.6-2.4-0.6-3.6
	c0-4.4,2.5-8.7,6.6-10.5c0,0,0,0,0,0l16.8-7.5l6.1-2.7c1.4-0.6,2.9-0.9,4.4-0.9c4.1,0,8,2.4,9.6,6.4c0.6,1.4,1.1,2.9,1.6,4.4
	c66.3-57.6,108.2-142.5,108.2-237.2C797.9,226.6,657.2,85.9,483.6,85.9z M522,226.1c-0.9-6.6-1.8-12.7-3.5-18.5
	c-2.1-7.6-3.8-19.2-14.4-20.9c-6.1-1-3.7-2.4,1.2-3.6c4.3-1.1,10.7,0.7,16.1,2.8c5.4,2.1,10.3,5.5,14.7,9.4
	c8.7,8,14.5,17.6,19.3,26.3c2.1,3.9,4.9,7.3,7.4,10.5C549.8,229.2,536.2,227.2,522,226.1z M545.6,504.9c-2.8,0-6-1.2-8.6-3.5
	c-8.8-7.8-17.4-14.7-25.3-20.8c-2.8-2.2-5.5-4.3-8.4-6.5c0.6,0.2,1.1,0.3,1.8,0.6l0.4-1.3l-0.4,1.3c14,4.9,28.3,11,42.4,18
	c3.5,1.8,5.1,4.3,5.1,6.5c0,1.3-0.5,2.5-1.7,3.6C549.7,504.2,547.8,504.9,545.6,504.9z M559.5,522.6c-1.5-1.5-3.1-3.1-4.6-4.6
	c-2.5-2.5-3.8-5.5-3.8-8.2c0-1.9,0.7-3.6,2-4.9c1.7-1.7,4.7-2.7,7.9-2.7c2.7,0,5.6,0.7,8,2.1c2.7,1.6,5.4,3.2,8.1,4.8
	c2.7,1.7,3.9,3.9,3.9,6.2c0,2-0.9,4.1-3.1,6l-2.5,2.1c-2.1,1.8-4.7,2.7-7.4,2.7C564.9,526,561.8,524.9,559.5,522.6z M580.6,545.3
	c-1.4-1.7-2.9-3.3-4.3-4.9c-1.8-2.1-2.7-4.6-2.7-7c0-2.9,1.2-5.7,3.6-7.8l2.4-2.1c0,0,0,0,0,0c2.5-2.1,6-3.2,9.5-3.2
	c2.9,0,5.8,0.8,8,2.4c2.6,1.9,5.2,3.8,7.8,5.8c2.3,1.8,3.3,4,3.3,6.1c0,2.2-1.1,4.6-3.6,6.4l-2,1.5l-6.4,4.8c-2,1.5-4.3,2.2-6.7,2.2
	C586.2,549.3,582.9,547.9,580.6,545.3z M600.1,569.7c-1.4-1.8-2.7-3.7-4.1-5.5c-1.5-2-2.2-4.3-2.2-6.5c0-3.1,1.4-6.2,4.2-8.2
	c0,0,0,0,0,0l8.4-6.2c2.3-1.7,5.2-2.5,8.2-2.5c3.3,0,6.6,1.1,9,3.2c2.5,2.3,5,4.6,7.4,6.9c1.9,1.8,2.7,3.9,2.7,6
	c0,2.6-1.4,5.1-4.2,7c0,0,0,0,0,0l-10.6,6.7l-3.5,2.2c-1.8,1.2-3.9,1.7-6,1.7C606,574.4,602.4,572.7,600.1,569.7z M620.3,599.9
	c-2.1-3.5-4.2-6.9-6.4-10.3c-1.1-1.8-1.7-3.8-1.7-5.8c0-3.5,1.7-6.8,4.8-8.8l3-1.9l11.1-7.1c2-1.3,4.5-1.9,7-1.9
	c3.7,0,7.4,1.5,9.7,4.1c3.4,3.9,6.7,7.8,9.8,11.9c1.3,1.7,2,3.6,2,5.5c0,3.1-1.7,6.2-5,7.9L635,604c-1.6,0.9-3.4,1.3-5.1,1.3
	C626.1,605.2,622.4,603.3,620.3,599.9z M672.9,625l-22.9,10.2c-1.4,0.6-2.8,0.9-4.3,0.9c-3.7,0-7.2-2-9.2-5.4
	c-1.5-3.4-3.1-6.7-4.8-10.1c-0.6-1.5-1-3-1-4.5c0-3.9,2-7.7,5.7-9.6l5.5-2.9l14.1-7.5c0,0,0,0,0,0c1.7-0.9,3.6-1.4,5.5-1.4
	c4,0,7.9,1.9,10,5.3c2.3,3.7,4.4,7.4,6.5,11.2c0.8,1.5,1.2,3.1,1.2,4.6C679,619.6,676.7,623.3,672.9,625z M673.4,321.2
	c-27.4-6.8-26.4-44.9-72.3-31.6C614.8,296.8,611.3,353.8,673.4,321.2z"/>
</svg>
