<?xml version="1.0" encoding="utf-8"?>
<!-- Generator: Adobe Illustrator 21.1.0, SVG Export Plug-In . SVG Version: 6.00 Build 0)  -->
<svg version="1.1" id="Layer_1" xmlns="http://www.w3.org/2000/svg" xmlns:xlink="http://www.w3.org/1999/xlink" x="0px" y="0px"
	 viewBox="0 0 64 64" style="enable-background:new 0 0 64 64;" xml:space="preserve">
<style type="text/css">
	.st0{fill:#FAFAFA;}
</style>
<g>
	<path class="st0" d="M33.3,60.1c-0.5,0-1-0.4-1-1V18.3c0-0.5,0.4-1,1-1c0.5,0,1,0.4,1,1v40.8C34.2,59.7,33.8,60.1,33.3,60.1z"/>
	<path class="st0" d="M33.3,60.1c-0.1,0-0.3,0-0.4-0.1L5,47c-0.5-0.2-0.7-0.8-0.5-1.3c0.2-0.5,0.8-0.7,1.3-0.5l27.9,13.1
		c0.5,0.2,0.7,0.8,0.5,1.3C34,59.9,33.6,60.1,33.3,60.1z"/>
	<polygon class="st0" points="27.6,34.5 23.7,32.6 23.7,28.6 27.6,30.6 	"/>
	<g>
		<polygon class="st0" points="59.6,25.7 51.8,25.7 51.8,19.5 44.9,23.5 38,27.5 44.9,31.5 51.8,35.5 51.8,29.3 59.6,29.3 		"/>
		<g>
			<polygon class="st0" points="44.4,31.2 44.4,23.8 38,27.5 			"/>
			<polygon class="st0" points="44.1,32.9 37.1,28.9 34.7,27.5 37.1,26.1 44.1,22.1 44.4,21.9 44.4,3.9 5.4,3.9 5,5.8 33.3,18.3 
				33.3,46.1 44.4,46.1 44.4,33.1 			"/>
		</g>
	</g>
	<circle class="st0" cx="5.4" cy="4.9" r="1"/>
</g>
</svg>
