<?xml version="1.0" encoding="utf-8"?>
<!-- Generator: Adobe Illustrator 26.5.0, SVG Export Plug-In . SVG Version: 6.00 Build 0)  -->
<!DOCTYPE svg PUBLIC "-//W3C//DTD SVG 1.1//EN" "http://www.w3.org/Graphics/SVG/1.1/DTD/svg11.dtd" [
	<!ENTITY ns_extend "http://ns.adobe.com/Extensibility/1.0/">
	<!ENTITY ns_ai "http://ns.adobe.com/AdobeIllustrator/10.0/">
	<!ENTITY ns_graphs "http://ns.adobe.com/Graphs/1.0/">
	<!ENTITY ns_vars "http://ns.adobe.com/Variables/1.0/">
	<!ENTITY ns_imrep "http://ns.adobe.com/ImageReplacement/1.0/">
	<!ENTITY ns_sfw "http://ns.adobe.com/SaveForWeb/1.0/">
	<!ENTITY ns_custom "http://ns.adobe.com/GenericCustomNamespace/1.0/">
	<!ENTITY ns_adobe_xpath "http://ns.adobe.com/XPath/1.0/">
]>
<svg version="1.1" id="Guides" xmlns:x="&ns_extend;" xmlns:i="&ns_ai;" xmlns:graph="&ns_graphs;"
	 xmlns="http://www.w3.org/2000/svg" xmlns:xlink="http://www.w3.org/1999/xlink" x="0px" y="0px" viewBox="0 0 194 59"
	 style="enable-background:new 0 0 194 59;" xml:space="preserve">
<style type="text/css">
	.st0{fill:#1D1D1B;}
	.st1{fill-rule:evenodd;clip-rule:evenodd;fill:#1D1D1B;}
</style>
<metadata>
	<sfw  xmlns="&ns_sfw;">
		<slices></slices>
		<sliceSourceBounds  bottomLeftOrigin="true" height="26.6" width="156.6" x="-5.1" y="-1"></sliceSourceBounds>
	</sfw>
</metadata>
<path class="st0" d="M80.6,25.8H69.8c-0.5,0-0.7-0.3-0.7-0.6c0-0.2,0.1-0.6,0.7-0.6h14.8c2.3,0,4.2-1.9,4.2-4.2s-1.9-4.1-4.2-4.1
	H69.6c-4.8,0-8.7,3.9-8.7,8.7s3.8,8.5,8.7,8.5h9.8c0.3,0,0.7,0.1,0.7,0.6c0,0.3-0.4,0.5-0.7,0.5H65c-1.7,0-3.1,0.9-3.7,2.4
	c-0.6-1.7-2.2-2.8-3.9-2.8h-5.2v-1.6h4.3c1.8,0,3.2-1.4,3.2-3.2c0-1.8-1.5-3.2-3.3-3.2h-4.2v-1.5l5.3,0c2.3,0,4.2-1.8,4.2-4.1
	s-1.8-4.2-4.1-4.2h-9.5c-2.3,0-4.2,1.9-4.2,4.2v15.2l-8.3-17.2c-0.8-1.4-2.4-2.3-4-2.3c-1.4,0-2.8,0.8-3.6,2l-8.7,19.3
	C19,38,19,38.3,19,38.5c0,2.3,1.9,4.2,4.2,4.2c1.2,0,2.3-0.5,3.1-1.3c0.7-0.7,1.1-1.6,1.1-2.6h8.7c0,1,0.4,1.9,1.1,2.6
	c0.7,0.7,1.8,1.2,2.9,1.2h17.3c1.6,0,3.1-1,3.7-2.5l0,0c0.6,1.6,2.2,2.7,4,2.7h15.5c4.7,0,8.5-3.8,8.5-8.7S85.5,25.9,80.6,25.8
	L80.6,25.8z M33.1,32.7l-2.8,0l1.3-3.2L33.1,32.7L33.1,32.7z"/>
<path class="st0" d="M171.4,34.4h-5.2V20.4c0-2.3-1.8-4-4.2-4c-2.4,0-4.1,1.8-4.1,4l-0.1,14h-1l-7.6-15.8c-0.8-1.4-2.2-2.2-3.7-2.2
	c-1.5,0-2.9,0.8-3.7,2.2l-8.6,19c-0.5-1.8-2-3.1-3.9-3.1l-5.3,0v-1.6h4.3c1.8,0,3.2-1.4,3.2-3.2s-1.4-3.2-3.2-3.2H124v-1.6l5,0
	c2.4,0,4.3-1.9,4.3-4.2s-1.8-4.2-4.1-4.2H96.8c-4.8,0-8.7,3.9-8.7,8.7c0,4.8,3.9,8.7,8.7,8.7h9.8c0.2,0,0.7,0.1,0.7,0.5
	c0,0.4-0.4,0.5-0.7,0.5H92.3c-1.3,0-2.3,0.3-3.1,1c-0.7,0.7-1.1,1.7-1.1,3c0,2.2,1.9,4,4.3,4h15.4c3.5,0,6.5-1.7,7.7-4.4v0.2
	c0.1,2.3,1.9,4.1,4.2,4.1h9.4c2,0,3.6-1.3,4.1-3.1c0.5,1.8,2.1,3.1,4,3.1c2.2,0,4.2-1.7,4.5-3.8h8.4c0,1,0.3,1.9,1,2.6
	c0.7,0.8,1.8,1.2,3,1.2h17.2c2.3,0,4.2-1.8,4.2-4.1S173.6,34.4,171.4,34.4L171.4,34.4z M146.9,32.8h-2.8l1.3-2.9L146.9,32.8
	L146.9,32.8z M115.5,30c-1.3-2.7-4.1-4.3-7.6-4.3H97.1c-0.4,0-0.6-0.2-0.6-0.5c0-0.3,0.2-0.5,0.6-0.5h18.4L115.5,30L115.5,30z"/>
<path class="st1" d="M172.7,19.1h0.4l0.7,1.2h0.5l-0.8-1.2c0.4,0,0.7-0.3,0.7-0.8c0-0.6-0.3-0.8-1-0.8h-1.1v2.8h0.5L172.7,19.1
	L172.7,19.1z M172.7,18.7v-0.8h0.5c0.3,0,0.6,0,0.6,0.4c0,0.4-0.3,0.4-0.6,0.4H172.7L172.7,18.7z M175.6,18.9c0-1.5-1.1-2.5-2.4-2.5
	c-1.3,0-2.5,1-2.5,2.5c0,1.4,1,2.5,2.5,2.5C174.5,21.4,175.6,20.4,175.6,18.9z M175.1,18.9c0,1.2-0.8,2.1-1.9,2.1
	c-1.2,0-1.9-0.9-1.9-2.1c0-1.2,0.8-2.1,1.9-2.1S175.1,17.6,175.1,18.9z"/>
</svg>
