<?xml version="1.0" encoding="UTF-8"?><svg id="Guides" xmlns="http://www.w3.org/2000/svg" viewBox="0 0 145.86 24.73"><defs><style>.cls-1,.cls-2{fill:#1d1d1b;}.cls-2{fill-rule:evenodd;}</style></defs><path class="cls-1" d="M57.41,8.91h-10.1c-.45,0-.64-.32-.64-.53,0-.19,.12-.53,.69-.53h13.82c2.18,0,3.95-1.73,3.95-3.87s-1.77-3.85-3.95-3.85h-14.1c-4.49,0-8.14,3.65-8.14,8.13s3.57,7.9,8.14,7.9h9.14c.29,0,.62,.1,.62,.52,0,.3-.36,.5-.62,.5h-13.37c-1.54,0-2.88,.85-3.49,2.19-.54-1.54-2.03-2.62-3.66-2.62h-4.85v-1.52h3.97c1.64,0,2.98-1.34,2.98-3s-1.36-3-3.03-3h-3.92v-1.44l4.89-.02c2.15,0,3.89-1.71,3.89-3.82S37.93,.08,35.84,.08h-8.89c-2.17,0-3.94,1.76-3.94,3.92v14.18L15.3,2.18c-.7-1.3-2.2-2.18-3.73-2.18-1.32,0-2.59,.72-3.32,1.88L.11,19.86C.03,20.19,0,20.48,0,20.74,0,22.87,1.74,24.61,3.87,24.61c1.08,0,2.12-.43,2.86-1.17,.65-.66,1.03-1.5,1.05-2.38H15.9c.02,.92,.38,1.77,1,2.4,.69,.69,1.66,1.08,2.74,1.08h16.1c1.52,0,2.87-.91,3.47-2.33h0c.54,1.52,2.01,2.53,3.68,2.53h14.41c4.42,0,7.88-3.55,7.88-8.09s-3.27-7.73-7.78-7.73ZM13.16,15.31l-2.61,.02,1.24-2.97,1.36,2.95Z"/><path class="cls-1" d="M141.89,16.9h-4.85V3.81c0-2.11-1.72-3.77-3.92-3.77s-3.85,1.65-3.85,3.77l-.07,13h-.97l-7.08-14.69c-.7-1.26-2.04-2.08-3.42-2.08s-2.72,.78-3.41,2.03l-8.02,17.67c-.43-1.68-1.85-2.89-3.62-2.89l-4.93,.02v-1.51h3.96c1.65,0,2.99-1.35,2.99-3s-1.34-3-3-3h-3.95v-1.49l4.69,.02c2.2,0,4-1.76,4-3.92s-1.7-3.92-3.86-3.92h-30.08c-4.49,0-8.14,3.65-8.14,8.13,0,4.49,3.65,8.14,8.13,8.13h9.14c.23,0,.62,.08,.62,.43s-.37,.47-.61,.47h-13.39c-1.23-.02-2.18,.28-2.85,.93-.65,.64-1,1.59-1,2.75,0,2.07,1.8,3.75,4.01,3.75h14.3c3.28,0,6.04-1.6,7.15-4.07v.16c.09,2.17,1.8,3.86,3.89,3.86h8.74c1.83,0,3.35-1.22,3.8-2.87,.43,1.66,1.93,2.9,3.73,2.9,2.02,0,3.87-1.59,4.17-3.56h7.84c-.02,.93,.28,1.76,.89,2.4,.69,.73,1.7,1.14,2.83,1.14h16.02c2.17,0,3.94-1.72,3.94-3.84s-1.72-3.89-3.84-3.89Zm-22.73-1.5h-2.64l1.23-2.67,1.4,2.67Zm-29.27-2.58c-1.22-2.49-3.82-3.96-7.06-3.96h-10.1c-.35-.02-.53-.22-.53-.5,0-.25,.14-.45,.52-.45h17.13l.03,4.91Z"/><path class="cls-2" d="M143.12,2.64h.4l.67,1.1h.48l-.72-1.13c.39-.04,.67-.24,.67-.7,0-.52-.32-.74-.94-.74h-.98V3.75h.42v-1.1Zm0-.36v-.76h.51c.26,0,.56,.04,.56,.35,0,.37-.28,.41-.6,.41h-.47Zm2.75,.13c0-1.4-1.06-2.33-2.28-2.33-1.23,0-2.3,.93-2.3,2.33,0,1.33,.96,2.33,2.3,2.33,1.22,0,2.28-.93,2.28-2.33Zm-.5,0c0,1.14-.79,1.93-1.78,1.93-1.11,0-1.8-.87-1.8-1.93,0-1.14,.79-1.93,1.8-1.93s1.78,.79,1.78,1.93Z"/></svg>