<?xml version="1.0" encoding="utf-8"?>
<!-- Generator: Adobe Illustrator 26.0.3, SVG Export Plug-In . SVG Version: 6.00 Build 0)  -->
<!DOCTYPE svg PUBLIC "-//W3C//DTD SVG 1.1//EN" "http://www.w3.org/Graphics/SVG/1.1/DTD/svg11.dtd" [
	<!ENTITY ns_extend "http://ns.adobe.com/Extensibility/1.0/">
	<!ENTITY ns_ai "http://ns.adobe.com/AdobeIllustrator/10.0/">
	<!ENTITY ns_graphs "http://ns.adobe.com/Graphs/1.0/">
	<!ENTITY ns_vars "http://ns.adobe.com/Variables/1.0/">
	<!ENTITY ns_imrep "http://ns.adobe.com/ImageReplacement/1.0/">
	<!ENTITY ns_sfw "http://ns.adobe.com/SaveForWeb/1.0/">
	<!ENTITY ns_custom "http://ns.adobe.com/GenericCustomNamespace/1.0/">
	<!ENTITY ns_adobe_xpath "http://ns.adobe.com/XPath/1.0/">
]>
<svg version="1.1" id="Layer_1" xmlns:x="&ns_extend;" xmlns:i="&ns_ai;" xmlns:graph="&ns_graphs;"
	 xmlns="http://www.w3.org/2000/svg" xmlns:xlink="http://www.w3.org/1999/xlink" x="0px" y="0px" viewBox="0 0 194 59"
	 style="enable-background:new 0 0 194 59;" xml:space="preserve">
<style type="text/css">
	.st0{fill-rule:evenodd;clip-rule:evenodd;fill:#DD052B;}
	.st1{fill-rule:evenodd;clip-rule:evenodd;fill:#002D59;}
</style>
<metadata>
	<sfw  xmlns="&ns_sfw;">
		<slices></slices>
		<sliceSourceBounds  bottomLeftOrigin="true" height="26.5" width="157.2" x="18.4" y="16.2"></sliceSourceBounds>
	</sfw>
</metadata>
<g>
	<path class="st0" d="M56.8,42.6c1.7,0,3.1-1,3.7-2.5h0.2c0.5,1.6,2.1,2.7,3.9,2.7h15.6c4.8,0,8.4-3.9,8.4-8.6
		c0-4.8-3.5-8.2-8.3-8.2h-11c0,0-0.8-0.3-0.8-0.7c0-0.4,0.8-0.7,0.8-0.7h14.9c2.3,0,4.1-1.8,4.1-4.1c0-2.2-1.9-4-4.1-4H69
		c-4.8,0-8.7,3.9-8.7,8.7s3.9,8.4,8.7,8.4h9.9c0,0,0.8,0.1,0.8,0.6s-0.8,0.7-0.8,0.7H64.5c-1.8,0-3.2,1.1-3.8,2.6
		c-0.5-1.7-2.1-3.1-3.9-3.1h-5.4v-1.9h4.4c1.7,0,3.1-1.4,3.1-3.1s-1.4-3.1-3.1-3.1h-4.4v-1.8h5.4c2.2,0,4.1-1.8,4.1-4
		s-1.7-4.1-4-4.1h-9.6c-2.3,0-4.1,1.8-4.1,4.1v15.8l-8.5-17.7c-0.7-1.4-2.3-2.3-3.9-2.3c-1.4,0-2.8,0.8-3.5,2l-8.8,19.4
		c-0.1,0.3-0.1,0.6-0.1,0.9c0,2.2,1.8,4.1,4.1,4.1c2.2,0,4.1-1.7,4.1-3.8h9c0,2.2,1.7,3.8,3.9,3.8L56.8,42.6L56.8,42.6L56.8,42.6z
		 M29.4,32.9h3.2l-1.7-3.6L29.4,32.9L29.4,32.9L29.4,32.9z"/>
	<path class="st1" d="M175.1,18.8c0,1.2-0.8,2.1-1.9,2.1c-1.2,0-1.9-0.9-1.9-2.1s0.8-2.1,1.9-2.1C174.2,16.8,175.1,17.6,175.1,18.8
		L175.1,18.8L175.1,18.8z M175.6,18.8c0-1.5-1.1-2.5-2.5-2.5c-1.3,0-2.5,1-2.5,2.5c0,1.4,1,2.5,2.5,2.5
		C174.5,21.3,175.6,20.3,175.6,18.8L175.6,18.8L175.6,18.8z M172.7,18.7v-0.8h0.6c0.3,0,0.6,0,0.6,0.4s-0.3,0.4-0.6,0.4H172.7
		L172.7,18.7L172.7,18.7z M172.7,19.1h0.4l0.7,1.2h0.5l-0.8-1.2c0.4,0,0.7-0.3,0.7-0.8c0-0.6-0.3-0.8-1-0.8h-1.1v2.8h0.5v-1.2H172.7
		L172.7,19.1z"/>
</g>
</svg>
