<?xml version="1.0" encoding="utf-8"?>
<!-- Generator: Adobe Illustrator 25.1.0, SVG Export Plug-In . SVG Version: 6.00 Build 0)  -->
<svg version="1.1" id="Layer_1" xmlns="http://www.w3.org/2000/svg" xmlns:xlink="http://www.w3.org/1999/xlink" x="0px" y="0px"
	 viewBox="0 0 219.2 130.4" style="enable-background:new 0 0 219.2 130.4;" xml:space="preserve">
<style type="text/css">
	.st0{fill:#FFFFFF;}
	.st1{fill-rule:evenodd;clip-rule:evenodd;fill:#FFFFFF;}
	.st2{clip-path:url(#SVGID_2_);fill:#FFFFFF;}
	.st3{clip-path:url(#SVGID_4_);fill:#FFFFFF;}
	.st4{clip-path:url(#SVGID_6_);fill:#FFFFFF;}
	.st5{clip-path:url(#SVGID_8_);fill:#FFFFFF;}
	.st6{clip-path:url(#SVGID_10_);fill:#FFFFFF;}
	.st7{clip-path:url(#SVGID_12_);fill:#FFFFFF;}
	.st8{clip-path:url(#SVGID_14_);fill:#FFFFFF;}
	.st9{clip-path:url(#SVGID_16_);fill:#FFFFFF;}
	.st10{clip-path:url(#SVGID_18_);fill:#FFFFFF;}
	.st11{clip-path:url(#SVGID_20_);fill:#FFFFFF;}
	.st12{clip-path:url(#SVGID_22_);fill:#FFFFFF;}
	.st13{clip-path:url(#SVGID_24_);fill:#FFFFFF;}
	.st14{clip-path:url(#SVGID_26_);fill:#FFFFFF;}
	.st15{clip-path:url(#SVGID_28_);fill:#FFFFFF;}
	.st16{clip-path:url(#SVGID_30_);fill:#FFFFFF;}
	.st17{clip-path:url(#SVGID_32_);fill:#FFFFFF;}
	.st18{clip-path:url(#SVGID_34_);fill:#FFFFFF;}
	.st19{clip-path:url(#SVGID_36_);fill:#FFFFFF;}
	.st20{clip-path:url(#SVGID_38_);fill:#FFFFFF;}
	.st21{clip-path:url(#SVGID_40_);fill:#FFFFFF;}
	.st22{clip-path:url(#SVGID_42_);fill:#FFFFFF;}
	.st23{clip-path:url(#SVGID_44_);fill:#FFFFFF;}
	.st24{clip-path:url(#SVGID_46_);fill:#FFFFFF;}
	.st25{clip-path:url(#SVGID_48_);fill:#FFFFFF;}
	.st26{clip-path:url(#SVGID_50_);fill:#FFFFFF;}
	.st27{clip-path:url(#SVGID_52_);fill:#FFFFFF;}
</style>
<g>
	<g>
		<g>
			<path class="st0" d="M306.5,72.1h3c1.6,0,3.1,0.6,3.1,2.5c0,1.5-1,2-2.1,2.3l0,0c1.4,0.3,1.6,1.1,1.8,2.1l0.6,2.7h-1.4l-0.6-2.1
				c-0.4-1.4-0.6-2-2.1-2H308v4.1h-1.5V72.1z M308,76.4h0.9c1.1,0,2.2-0.4,2.2-1.7c0-1.2-0.7-1.6-1.8-1.6H308V76.4z"/>
			<polygon class="st0" points="316.4,72.1 322.2,72.1 322.2,73.2 317.9,73.2 317.9,76.1 322,76.1 322,77.2 317.9,77.2 317.9,80.6 
				322.3,80.6 322.3,81.7 316.4,81.7 			"/>
			<polygon class="st0" points="325.7,72.1 327.2,72.1 327.2,80.6 331.3,80.6 331.3,81.7 325.7,81.7 			"/>
			<rect x="334.2" y="72.1" class="st0" width="1.5" height="9.6"/>
			<path class="st0" d="M342.4,72.1h1.9l3.6,9.6h-1.6l-1-2.7h-3.8l-1,2.7h-1.6L342.4,72.1z M341.8,77.8h3l-1.4-4.5l0,0L341.8,77.8z"
				/>
			<path class="st0" d="M350.9,72.1h3c1,0,2.7,0.4,2.7,2.3c0,1.6-1.1,2-1.6,2.2l0,0c0.8,0.1,2.1,0.6,2.1,2.5c0,2.4-2,2.6-3.4,2.6
				h-2.9L350.9,72.1L350.9,72.1z M352.4,76.1h1c0.7,0,1.8-0.2,1.8-1.4c0-1.4-1.1-1.4-1.9-1.4h-0.9V76.1z M352.4,80.6h1.2
				c1.4,0,2.1-0.7,2.1-1.6c0-1.6-1.6-1.8-2.2-1.8h-1v3.4H352.4z"/>
			<rect x="360.8" y="72.1" class="st0" width="1.5" height="9.6"/>
			<polygon class="st0" points="366.5,72.1 368,72.1 368,80.6 372.1,80.6 372.1,81.7 366.5,81.7 			"/>
			<rect x="375" y="72.1" class="st0" width="1.5" height="9.6"/>
			<polygon class="st0" points="382.1,73.2 379.5,73.2 379.5,72.1 386.2,72.1 386.2,73.2 383.6,73.2 383.6,81.7 382.1,81.7 			"/>
			<polygon class="st0" points="391.1,77.2 387.8,72.1 389.4,72.1 391.9,75.8 394.4,72.1 396,72.1 392.7,77.2 392.7,81.7 
				391.1,81.7 			"/>
			<path class="st1" d="M390.8,28.5h-13.4l0,0l0,0H364h-1c-2.4,0-4.4,1.5-5.3,3.4l0,0l-5,11.4l-1.5,3.5v-0.1v0.1L344.9,32l0,0
				c-0.8-2-2.9-3.4-5.3-3.4c-3.1,0-5.6,2.5-5.6,5.6c0,0.4,0.1,0.9,0.2,1.3l12.2,26.8c1,1.6,2.8,2.7,4.8,2.7c0.1,0,0.2,0,0.2,0
				c0.1,0,0.2,0,0.2,0c2,0,3.8-1.1,4.8-2.7l10.2-22.6h5.1l-0.1,19.6c0,3.2,2.6,5.7,5.8,5.7c3.2,0,5.8-2.7,5.8-5.9l-0.1-18.9v-0.5
				h7.5c3.1,0,5.7-2.5,5.7-5.6C396.4,31,393.9,28.5,390.8,28.5"/>
			<path class="st0" d="M390.8,28.5h-13.4l0,0l0,0H364h-1c-2.4,0-4.4,1.5-5.3,3.4l0,0l-5,11.4l-1.5,3.5v-0.1v0.1L344.9,32l0,0
				c-0.8-2-2.9-3.4-5.3-3.4c-3.1,0-5.6,2.5-5.6,5.6c0,0.4,0.1,0.9,0.2,1.3l12.2,26.8c1,1.6,2.8,2.7,4.8,2.7c0.1,0,0.2,0,0.2,0
				c0.1,0,0.2,0,0.2,0c2,0,3.8-1.1,4.8-2.7l10.2-22.6h5.1l-0.1,19.6c0,3.2,2.6,5.7,5.8,5.7c3.2,0,5.8-2.7,5.8-5.9l-0.1-18.9v-0.5
				h7.5c3.1,0,5.7-2.5,5.7-5.6C396.4,31,393.9,28.5,390.8,28.5z"/>
			<path class="st1" d="M328.9,31.3c-1-1.6-2.8-2.7-4.8-2.7h-0.5c-2,0-3.8,1.1-4.8,2.7l-12.1,26.8c-0.1,0.4-0.2,0.8-0.2,1.3
				c0,3.1,2.5,5.6,5.6,5.6s5.7-2.4,5.7-5.3h5.9h0.3h5.9c0,2.9,2.6,5.3,5.7,5.3s5.6-2.5,5.6-5.6c0-0.4-0.1-0.9-0.2-1.3L328.9,31.3z
				 M321.8,51.5l2-4.8l2,4.8H321.8z"/>
			<path class="st0" d="M328.9,31.3c-1-1.6-2.8-2.7-4.8-2.7h-0.5c-2,0-3.8,1.1-4.8,2.7l-12.1,26.8c-0.1,0.4-0.2,0.8-0.2,1.3
				c0,3.1,2.5,5.6,5.6,5.6s5.7-2.4,5.7-5.3h5.9h0.3h5.9c0,2.9,2.6,5.3,5.7,5.3s5.6-2.5,5.6-5.6c0-0.4-0.1-0.9-0.2-1.3L328.9,31.3z
				 M321.8,51.5l2-4.8l2,4.8H321.8z"/>
			<rect x="298.5" y="108.3" class="st0" width="0.9" height="0.9"/>
			<rect x="301.2" y="108.3" class="st0" width="0.9" height="0.9"/>
			<rect x="303.9" y="108.3" class="st0" width="0.9" height="0.9"/>
			<path class="st0" d="M307.2,104.1h-0.7v-0.9h0.7V104.1z M306.5,104.9h0.7v4.4h-0.7V104.9z"/>
			<path class="st0" d="M309.6,104.9h0.9v0.6h-0.9v2.7c0,0.3,0.1,0.4,0.5,0.4h0.3v0.6h-0.5c-0.7,0-1-0.2-1-1v-2.8h-0.7v-0.6h0.7
				v-1.3h0.7V104.9z"/>
			<path class="st0" d="M311.8,103.2h0.9v0.9c0,0.7-0.3,1.2-0.9,1.2V105c0.4,0,0.5-0.4,0.5-0.8h-0.5V103.2z"/>
			<path class="st0" d="M314.3,107.8c0,0.6,0.6,0.8,1.2,0.8c0.4,0,1.1-0.1,1.1-0.6c0-1.1-2.8-0.4-2.8-2c0-0.9,0.9-1.2,1.6-1.2
				c1,0,1.7,0.3,1.8,1.4h-0.7c0-0.6-0.5-0.7-1-0.7c-0.4,0-0.9,0.1-0.9,0.6s0.8,0.6,1.4,0.8c0.7,0.2,1.4,0.4,1.4,1.2
				c0,1-1,1.4-1.9,1.4c-1,0-1.8-0.4-1.8-1.5h0.6V107.8z"/>
			<path class="st0" d="M321.9,104.1h-0.7v-0.9h0.7V104.1z M321.2,104.9h0.7v4.4h-0.7V104.9z"/>
			<path class="st0" d="M323.3,104.9h0.7v0.7l0,0c0.3-0.5,0.8-0.8,1.4-0.8c1.1,0,1.5,0.7,1.5,1.6v2.9h-0.7v-2.9
				c0-0.5-0.3-0.9-0.9-0.9c-0.9,0-1.3,0.6-1.3,1.4v2.5h-0.7V104.9z"/>
			<path class="st0" d="M332.9,104.8c1.4,0,2.1,1,2.1,2.3s-0.7,2.3-2.1,2.3s-2.1-1-2.1-2.3S331.5,104.8,332.9,104.8 M332.9,108.7
				c0.7,0,1.4-0.6,1.4-1.6c0-1.1-0.6-1.7-1.4-1.7c-0.7,0-1.4,0.6-1.4,1.7C331.6,108.1,332.2,108.7,332.9,108.7"/>
			<path class="st0" d="M339.8,109.2h-0.7v-0.7l0,0c-0.3,0.5-0.8,0.8-1.4,0.8c-1.1,0-1.5-0.7-1.5-1.6v-2.9h0.7v2.9
				c0,0.5,0.3,0.9,0.9,0.9c0.9,0,1.3-0.6,1.3-1.4v-2.5h0.7V109.2z"/>
			<path class="st0" d="M341.2,104.9h0.7v0.9l0,0c0.3-0.7,0.8-1,1.6-1v0.8c-1.2,0-1.6,0.6-1.6,1.8v1.9h-0.7V104.9z"/>
			<path class="st0" d="M347.2,103.2h2.1c1.9,0,2.9,0.9,2.9,2.9s-0.9,3.2-2.9,3.2h-2.1V103.2z M349.3,108.5c0.5,0,2-0.2,2-2.4
				c0-1.4-0.5-2.3-2-2.3H348v4.7C348,108.5,349.3,108.5,349.3,108.5z"/>
			<polygon class="st0" points="353.4,103.2 354.3,103.2 357.4,108.1 357.5,108.1 357.5,103.2 358.2,103.2 358.2,109.2 357.3,109.2 
				354.2,104.4 354.2,104.4 354.2,109.2 353.4,109.2 			"/>
			<path class="st0" d="M361.5,103.2h0.9l2.4,6h-0.9l-0.7-1.8h-2.5l-0.7,1.8h-0.8L361.5,103.2z M362.9,106.7l-1-2.8l0,0l-1,2.8
				H362.9z"/>
			<path class="st0" d="M268,35.5c0,0-0.9,3.5-1,4.1c-5.4,19.9-0.1,26.6,7.8,32.1c20.4,14.3,36.6,12.5,52.6,20.5l-9.1,4.6
				c0,0-5.7-2.4-14.3-4.5c-9.8-2.5-16.2-5.1-24.4-9.1c-23.5-11.5-23.9-26.4-20-39.9c0.1-0.3,1.9-5.1,1.9-5.1L268,35.5z"/>
			<path class="st0" d="M296.1,37.1c8,17.5-1,32.6-3.1,44.9c-2.5,15,3.1,26.9,3.1,26.9s-13-11.1-11.6-24.7
				c1.6-15.5,15.7-32.5,2.2-48.5c-4.4-5.2-30-13.2-30-13.2S289.9,23.4,296.1,37.1"/>
			<path class="st0" d="M290,41.5c0,0-0.4-2-11.8,1.9c-11.5,3.9-11,5.5-11,5.5s0.6,1.7,12.1-2.2C290.8,42.9,290,41.5,290,41.5"/>
			<path class="st0" d="M292.2,50.6c0,0-0.2-2.6-12.9,0.5c-12.7,3-12.1,5.4-12.1,5.4s0.5,2.4,13.2-0.7
				C293.1,52.8,292.2,50.6,292.2,50.6"/>
			<path class="st0" d="M290.3,61.6c0,0,0.2-1.9-10.1-0.4c-10.3,1.5-10,3.3-10,3.3s0.2,1.8,10.5,0.2
				C291.1,63.1,290.3,61.6,290.3,61.6"/>
			<path class="st0" d="M285.1,34.6c0,0-0.3-1.4-8.7,2.3c-8.4,3.7-8,4.7-8,4.7s0.5,1.1,8.9-2.6C285.8,35.4,285.1,34.6,285.1,34.6"/>
			<path class="st0" d="M297.6,29.2c1.1,0,2.1,0.9,2.1,2.1c0,1.2-1,2.1-2.1,2.1s-2.1-0.9-2.1-2.1C295.5,30.1,296.5,29.2,297.6,29.2
				 M297.6,33.1c1,0,1.7-0.8,1.7-1.8s-0.7-1.8-1.7-1.8s-1.7,0.8-1.7,1.8S296.6,33.1,297.6,33.1 M296.8,30.1h0.9
				c0.6,0,0.9,0.2,0.9,0.7c0,0.4-0.3,0.6-0.6,0.7l0.7,1.1h-0.4l-0.7-1h-0.4v1h-0.4V30.1z M297.2,31.2h0.4c0.3,0,0.6,0,0.6-0.4
				c0-0.3-0.3-0.4-0.5-0.4h-0.5V31.2z"/>
		</g>
	</g>
</g>
<g>
	<g>
		<defs>
			<rect id="SVGID_1_" x="5.9" y="30.8" width="213.3" height="68.4"/>
		</defs>
		<clipPath id="SVGID_2_">
			<use xlink:href="#SVGID_1_"  style="overflow:visible;"/>
		</clipPath>
		<path class="st2" d="M36.1,80.6H42c3.2,0,5.9,1.2,5.9,4.9c0,2.9-1.9,3.9-4,4.4V90c2.8,0.5,3,2.1,3.5,4.1l1.2,5.2h-2.7L44.7,95
			c-0.8-2.7-1.2-3.9-4-3.9H39v8h-2.9V80.6z M39,89h1.7c2,0,4.2-0.8,4.2-3.2c0-2.3-1.4-3-3.5-3H39V89z"/>
	</g>
	<g>
		<defs>
			<rect id="SVGID_3_" x="5.9" y="30.8" width="213.3" height="68.4"/>
		</defs>
		<clipPath id="SVGID_4_">
			<use xlink:href="#SVGID_3_"  style="overflow:visible;"/>
		</clipPath>
		<polygon class="st3" points="55.2,80.6 66.3,80.6 66.3,82.8 58.1,82.8 58.1,88.4 65.9,88.4 65.9,90.6 58.1,90.6 58.1,97 66.6,97 
			66.6,99.1 55.2,99.1 		"/>
	</g>
	<g>
		<defs>
			<rect id="SVGID_5_" x="5.9" y="30.8" width="213.3" height="68.4"/>
		</defs>
		<clipPath id="SVGID_6_">
			<use xlink:href="#SVGID_5_"  style="overflow:visible;"/>
		</clipPath>
		<polygon class="st4" points="73.2,80.6 76.1,80.6 76.1,97 83.8,97 83.8,99.1 73.2,99.1 		"/>
	</g>
	<g>
		<defs>
			<rect id="SVGID_7_" x="5.9" y="30.8" width="213.3" height="68.4"/>
		</defs>
		<clipPath id="SVGID_8_">
			<use xlink:href="#SVGID_7_"  style="overflow:visible;"/>
		</clipPath>
		<rect x="89.5" y="80.6" class="st5" width="2.9" height="18.5"/>
	</g>
	<g>
		<defs>
			<rect id="SVGID_9_" x="5.9" y="30.8" width="213.3" height="68.4"/>
		</defs>
		<clipPath id="SVGID_10_">
			<use xlink:href="#SVGID_9_"  style="overflow:visible;"/>
		</clipPath>
		<path class="st6" d="M105.3,80.6h3.6l6.9,18.5h-3.1l-2-5.3h-7.2l-2,5.3h-3.1L105.3,80.6z M104.1,91.7h5.8l-2.8-8.6H107L104.1,91.7
			z"/>
	</g>
	<g>
		<defs>
			<rect id="SVGID_11_" x="5.9" y="30.8" width="213.3" height="68.4"/>
		</defs>
		<clipPath id="SVGID_12_">
			<use xlink:href="#SVGID_11_"  style="overflow:visible;"/>
		</clipPath>
		<path class="st7" d="M121.7,80.6h5.8c2,0,5.3,0.7,5.3,4.4c0,3.1-2.2,3.9-3.1,4.2v0.1c1.5,0.2,4.1,1.2,4.1,4.7
			c0,4.5-3.9,5.1-6.5,5.1h-5.6C121.7,99.1,121.7,80.6,121.7,80.6z M124.6,88.3h1.8c1.3,0,3.4-0.3,3.4-2.8c0-2.6-2.1-2.7-3.6-2.7
			h-1.7L124.6,88.3L124.6,88.3z M124.6,97h2.3c2.6,0,3.9-1.4,3.9-3.2c0-3.1-3-3.4-4.2-3.4h-2C124.6,90.4,124.6,97,124.6,97z"/>
	</g>
	<g>
		<defs>
			<rect id="SVGID_13_" x="5.9" y="30.8" width="213.3" height="68.4"/>
		</defs>
		<clipPath id="SVGID_14_">
			<use xlink:href="#SVGID_13_"  style="overflow:visible;"/>
		</clipPath>
		<rect x="140.8" y="80.6" class="st8" width="2.9" height="18.5"/>
	</g>
	<g>
		<defs>
			<rect id="SVGID_15_" x="5.9" y="30.8" width="213.3" height="68.4"/>
		</defs>
		<clipPath id="SVGID_16_">
			<use xlink:href="#SVGID_15_"  style="overflow:visible;"/>
		</clipPath>
		<polygon class="st9" points="151.7,80.6 154.6,80.6 154.6,97 162.4,97 162.4,99.1 151.7,99.1 		"/>
	</g>
	<g>
		<defs>
			<rect id="SVGID_17_" x="5.9" y="30.8" width="213.3" height="68.4"/>
		</defs>
		<clipPath id="SVGID_18_">
			<use xlink:href="#SVGID_17_"  style="overflow:visible;"/>
		</clipPath>
		<rect x="168.1" y="80.6" class="st10" width="2.9" height="18.5"/>
	</g>
	<g>
		<defs>
			<rect id="SVGID_19_" x="5.9" y="30.8" width="213.3" height="68.4"/>
		</defs>
		<clipPath id="SVGID_20_">
			<use xlink:href="#SVGID_19_"  style="overflow:visible;"/>
		</clipPath>
		<polygon class="st11" points="181.7,82.8 176.7,82.8 176.7,80.6 189.6,80.6 189.6,82.8 184.6,82.8 184.6,99.1 181.7,99.1 		"/>
	</g>
	<g>
		<defs>
			<rect id="SVGID_21_" x="5.9" y="30.8" width="213.3" height="68.4"/>
		</defs>
		<clipPath id="SVGID_22_">
			<use xlink:href="#SVGID_21_"  style="overflow:visible;"/>
		</clipPath>
		<polygon class="st12" points="199.1,90.6 192.7,80.6 195.9,80.6 200.6,87.8 205.3,80.6 208.5,80.6 202,90.6 202,99.1 199.1,99.1 
					"/>
	</g>
	<g>
		<defs>
			<rect id="SVGID_23_" x="5.9" y="30.8" width="213.3" height="68.4"/>
		</defs>
		<clipPath id="SVGID_24_">
			<use xlink:href="#SVGID_23_"  style="overflow:visible;"/>
		</clipPath>
		<path class="st13" d="M214,34.3h-1.2v3.3H212v-3.3h-1.2v-0.6h3.2V34.3z M217,36.5l1.1-2.8h1.1v3.9h-0.7v-3.1l0,0l-1.2,3.1h-0.5
			l-1.2-3.1l0,0v3.1h-0.7v-3.9h1.1L217,36.5z"/>
	</g>
	<g>
		<defs>
			<rect id="SVGID_25_" x="5.9" y="30.8" width="213.3" height="68.4"/>
		</defs>
		<clipPath id="SVGID_26_">
			<use xlink:href="#SVGID_25_"  style="overflow:visible;"/>
		</clipPath>
		<rect x="56" y="48.6" class="st14" width="12.5" height="3.4"/>
	</g>
	<g>
		<defs>
			<rect id="SVGID_27_" x="5.9" y="30.8" width="213.3" height="68.4"/>
		</defs>
		<clipPath id="SVGID_28_">
			<use xlink:href="#SVGID_27_"  style="overflow:visible;"/>
		</clipPath>
		<path class="st15" d="M56,55.9V65c0,0-2,0.7-3.7-0.4s-2.6-3.4-2.7-8.6H36.1c0.4,10.1,5,18.5,19.2,18.5c10.8,0,13.2-3.3,13.2-3.3
			V55.9H56z"/>
	</g>
	<g>
		<defs>
			<rect id="SVGID_29_" x="5.9" y="30.8" width="213.3" height="68.4"/>
		</defs>
		<clipPath id="SVGID_30_">
			<use xlink:href="#SVGID_29_"  style="overflow:visible;"/>
		</clipPath>
		<polygon class="st16" points="92.7,52 92.7,48.8 85.1,48.8 85.1,42.5 94.2,42.5 94.2,33.7 71.8,33.7 71.8,52 		"/>
	</g>
	<g>
		<defs>
			<rect id="SVGID_31_" x="5.9" y="30.8" width="213.3" height="68.4"/>
		</defs>
		<clipPath id="SVGID_32_">
			<use xlink:href="#SVGID_31_"  style="overflow:visible;"/>
		</clipPath>
		<polygon class="st17" points="85.2,58.5 92.7,58.5 92.7,55.9 71.8,55.9 71.8,73.8 94.2,73.8 94.2,65 85.1,65 		"/>
	</g>
	<g>
		<defs>
			<rect id="SVGID_33_" x="5.9" y="30.8" width="213.3" height="68.4"/>
		</defs>
		<clipPath id="SVGID_34_">
			<use xlink:href="#SVGID_33_"  style="overflow:visible;"/>
		</clipPath>
		<polygon class="st18" points="119.2,52 119.2,48.8 111.5,48.8 111.5,42.5 120.7,42.5 120.7,33.7 98.3,33.7 98.3,52 		"/>
	</g>
	<g>
		<defs>
			<rect id="SVGID_35_" x="5.9" y="30.8" width="213.3" height="68.4"/>
		</defs>
		<clipPath id="SVGID_36_">
			<use xlink:href="#SVGID_35_"  style="overflow:visible;"/>
		</clipPath>
		<polygon class="st19" points="98.3,55.9 98.3,73.8 111.5,73.8 111.6,58.5 119.2,58.5 119.2,55.9 		"/>
	</g>
	<g>
		<defs>
			<rect id="SVGID_37_" x="5.9" y="30.8" width="213.3" height="68.4"/>
		</defs>
		<clipPath id="SVGID_38_">
			<use xlink:href="#SVGID_37_"  style="overflow:visible;"/>
		</clipPath>
		<polygon class="st20" points="145,52 145,48.8 137.3,48.8 137.3,42.5 146.5,42.5 146.5,33.7 124.1,33.7 124.1,52 		"/>
	</g>
	<g>
		<defs>
			<rect id="SVGID_39_" x="5.9" y="30.8" width="213.3" height="68.4"/>
		</defs>
		<clipPath id="SVGID_40_">
			<use xlink:href="#SVGID_39_"  style="overflow:visible;"/>
		</clipPath>
		<polygon class="st21" points="124.1,55.9 124.1,73.8 137.3,73.8 137.4,58.5 145,58.5 145,55.9 		"/>
	</g>
	<g>
		<defs>
			<rect id="SVGID_41_" x="5.9" y="30.8" width="213.3" height="68.4"/>
		</defs>
		<clipPath id="SVGID_42_">
			<use xlink:href="#SVGID_41_"  style="overflow:visible;"/>
		</clipPath>
		<polygon class="st22" points="170.7,52 170.7,48.8 163.1,48.8 163.1,42.5 172.2,42.5 172.2,33.7 149.8,33.7 149.8,52 		"/>
	</g>
	<g>
		<defs>
			<rect id="SVGID_43_" x="5.9" y="30.8" width="213.3" height="68.4"/>
		</defs>
		<clipPath id="SVGID_44_">
			<use xlink:href="#SVGID_43_"  style="overflow:visible;"/>
		</clipPath>
		<polygon class="st23" points="163.2,58.5 170.7,58.5 170.7,55.9 149.8,55.9 149.8,73.8 172.2,73.8 172.2,65 163.1,65 		"/>
	</g>
	<g>
		<defs>
			<rect id="SVGID_45_" x="5.9" y="30.8" width="213.3" height="68.4"/>
		</defs>
		<clipPath id="SVGID_46_">
			<use xlink:href="#SVGID_45_"  style="overflow:visible;"/>
		</clipPath>
		<polygon class="st24" points="198,33.7 198,50.4 187.3,33.7 176.4,33.7 176.4,52 193.4,52 193.7,52 193.8,52.2 196,55.1 
			196.6,55.9 195.6,55.9 176.4,55.9 176.4,73.8 188.3,73.8 188.3,56.6 199.4,73.8 209.1,73.8 209.1,33.7 		"/>
	</g>
	<g>
		<defs>
			<rect id="SVGID_47_" x="5.9" y="30.8" width="213.3" height="68.4"/>
		</defs>
		<clipPath id="SVGID_48_">
			<use xlink:href="#SVGID_47_"  style="overflow:visible;"/>
		</clipPath>
		<path class="st25" d="M50,54.2c0,0.4,0,0.8,0,1.2h145.6l-2.2-2.9H50C50,53.1,50,53.6,50,54.2"/>
	</g>
	<g>
		<defs>
			<rect id="SVGID_49_" x="5.9" y="30.8" width="213.3" height="68.4"/>
		</defs>
		<clipPath id="SVGID_50_">
			<use xlink:href="#SVGID_49_"  style="overflow:visible;"/>
		</clipPath>
		<path class="st26" d="M35.6,54.1c0-0.5,0-1.1,0.1-1.6h-5.1l-9,28.2l-5.5-15.4H0.5v2.9H14l6.1,17.3H23l9.7-30.1h2.9
			C35.6,55,35.6,54.6,35.6,54.1"/>
	</g>
	<g>
		<defs>
			<rect id="SVGID_51_" x="5.9" y="30.8" width="213.3" height="68.4"/>
		</defs>
		<clipPath id="SVGID_52_">
			<use xlink:href="#SVGID_51_"  style="overflow:visible;"/>
		</clipPath>
		<path class="st27" d="M56,65c0,0-2,0.7-3.7-0.4c-1.8-1.2-2.7-3.8-2.8-10.3c0-7.7,2.1-9.8,5.4-11.2c3.7-1.5,9.2,0.3,9.2,0.3l4-7.8
			c0,0-7.9-4.7-18.8-1.7c-8.1,2.2-13.2,10.6-13.2,20.4c0,10.9,4.2,20.2,19.2,20.2c10.8,0,13.2-3.3,13.2-3.3L56,65z"/>
	</g>
</g>
<g>
	<path class="st1" d="M590.8,29.5h-13.1l0,0l0,0h-13.1c-0.3,0-0.9,0-0.9,0c-2.3,0-4.4,1.4-5.2,3.4l0,0l-4.9,11.2l-1.5,3.5v-0.1v0.1
		L545.9,33l0,0c-0.8-1.9-2.9-3.3-5.2-3.3c-3,0-5.5,2.5-5.5,5.5c0,0.4,0.1,0.9,0.2,1.2l11.9,26.3c1,1.5,2.7,2.7,4.7,2.7
		c0.1,0,0.2,0,0.2,0c0.1,0,0.2,0,0.2,0c2,0,3.7-1.1,4.7-2.7l10-22.1h5L572,59.8c0,3.1,2.6,5.6,5.7,5.6c3.1,0,5.6-2.6,5.6-5.8
		l-0.1-18.5v-0.5h7.4c3,0,5.6-2.4,5.6-5.5C596.3,32,593.9,29.5,590.8,29.5L590.8,29.5z"/>
	<path class="st1" d="M523.3,52.1l2-4.7l2,4.7H523.3L523.3,52.1z M530.1,32.3c-1-1.5-2.7-2.7-4.7-2.7c-0.1,0-0.4,0-0.5,0
		c-2,0-3.7,1.1-4.7,2.7l-11.9,26.3c-0.1,0.4-0.2,0.8-0.2,1.2c0,3,2.5,5.5,5.5,5.5c3,0,5.6-2.3,5.6-5.2h5.8h0.3h5.8
		c0,2.9,2.5,5.2,5.6,5.2c3,0,5.5-2.5,5.5-5.5c0-0.4-0.1-0.9-0.2-1.2L530.1,32.3L530.1,32.3z"/>
	<path class="st0" d="M536.2,82.5c-0.9,0-1.7-0.1-2.3-0.4s-1.1-0.7-1.5-1.2s-0.5-1.2-0.6-1.8V79l1.4-0.1V79c0.1,0.5,0.2,0.9,0.4,1.2
		c0.2,0.3,0.5,0.6,1,0.8c0.4,0.2,1,0.3,1.5,0.3s0.9-0.1,1.3-0.2c0.4-0.1,0.7-0.3,0.8-0.6c0.2-0.3,0.3-0.5,0.3-0.8s-0.1-0.6-0.3-0.8
		c-0.2-0.2-0.5-0.4-0.9-0.6c-0.3-0.1-0.9-0.3-1.8-0.5c-0.9-0.2-1.6-0.4-2-0.6c-0.5-0.3-0.9-0.6-1.1-1s-0.4-0.8-0.4-1.3
		s0.1-1,0.4-1.5c0.3-0.5,0.7-0.8,1.3-1s1.2-0.3,1.9-0.3c0.8,0,1.4,0.1,2,0.4c0.6,0.2,1,0.6,1.3,1.1s0.5,1,0.5,1.6v0.1l-1.4,0.1v-0.1
		c-0.1-0.6-0.3-1.1-0.7-1.4s-1-0.5-1.7-0.5c-0.8,0-1.4,0.1-1.7,0.4c-0.4,0.3-0.5,0.6-0.5,1c0,0.3,0.1,0.6,0.4,0.8
		c0.2,0.2,0.9,0.5,2,0.7s1.8,0.5,2.2,0.6c0.6,0.3,1,0.6,1.3,1.1c0.3,0.4,0.4,0.9,0.4,1.5c0,0.5-0.2,1.1-0.5,1.6s-0.8,0.9-1.4,1.1
		C537.6,82.4,537,82.5,536.2,82.5L536.2,82.5z"/>
	<polygon class="st0" points="542.5,82.3 542.5,72.1 549.9,72.1 549.9,73.4 543.9,73.4 543.9,76.4 549.5,76.4 549.5,77.7 
		543.9,77.7 543.9,81 550.1,81 550.1,82.3 	"/>
	<path class="st0" d="M557.8,78.1l-1-2.7c-0.3-0.7-0.5-1.3-0.6-1.9c-0.1,0.6-0.3,1.1-0.5,1.7l-1.1,2.9H557.8L557.8,78.1z
		 M559.4,82.3l-1.2-3.1h-4.1l-1.1,3.1h-1.6l3.9-10.2h1.5l4.2,10.2H559.4L559.4,82.3z"/>
	<polygon class="st0" points="562.6,82.3 562.6,72.1 564.1,72.1 564.1,81 569.1,81 569.1,82.3 	"/>
	<polygon class="st0" points="571.4,82.3 571.4,72.1 572.9,72.1 572.9,82.3 	"/>
	<polygon class="st0" points="582.4,82.3 577.2,74.5 577.2,82.3 575.8,82.3 575.8,72.1 577.3,72.1 582.5,79.9 582.5,72.1 
		583.9,72.1 583.9,82.3 	"/>
	<path class="st0" d="M591.6,82.5c-1,0-1.9-0.2-2.7-0.6s-1.4-1.1-1.9-1.9c-0.4-0.8-0.6-1.7-0.6-2.7s0.2-1.9,0.6-2.8
		c0.4-0.9,1-1.5,1.8-1.9s1.7-0.6,2.7-0.6c0.7,0,1.4,0.1,2,0.4c0.6,0.2,1.1,0.6,1.4,1c0.3,0.4,0.6,1,0.8,1.7v0.1l-1.3,0.4v-0.1
		c-0.1-0.5-0.3-0.9-0.6-1.2c-0.2-0.3-0.5-0.5-0.9-0.7s-0.9-0.3-1.4-0.3c-0.6,0-1.1,0.1-1.6,0.3c-0.4,0.2-0.8,0.4-1.1,0.7
		c-0.3,0.3-0.5,0.6-0.6,1c-0.3,0.6-0.4,1.3-0.4,2c0,0.9,0.2,1.6,0.5,2.2s0.7,1,1.3,1.3s1.2,0.4,1.9,0.4c0.6,0,1.1-0.1,1.7-0.3
		c0.5-0.2,0.9-0.4,1.2-0.7v-1.8h-3v-1.3h4.4v3.8l0,0c-0.7,0.5-1.3,0.9-2.1,1.2C593.1,82.4,592.4,82.5,591.6,82.5L591.6,82.5z"/>
	<path class="st0" d="M513,98.6c-0.9,0-1.7-0.1-2.3-0.4c-0.6-0.3-1.1-0.7-1.5-1.2s-0.5-1.2-0.6-1.9V95l1.4-0.1V95
		c0.1,0.5,0.2,0.9,0.4,1.2c0.2,0.3,0.5,0.6,1,0.8c0.4,0.2,1,0.3,1.5,0.3s0.9-0.1,1.3-0.2c0.4-0.1,0.7-0.3,0.8-0.6
		c0.2-0.3,0.3-0.5,0.3-0.8s-0.1-0.6-0.3-0.8c-0.2-0.2-0.5-0.4-0.9-0.6c-0.3-0.1-0.9-0.3-1.8-0.5c-0.9-0.2-1.6-0.4-2-0.6
		c-0.5-0.3-0.9-0.6-1.1-1s-0.4-0.8-0.4-1.3s0.1-1,0.4-1.5s0.7-0.8,1.3-1c0.6-0.2,1.2-0.3,1.9-0.3c0.8,0,1.4,0.1,2,0.4
		c0.6,0.2,1,0.6,1.3,1.1s0.5,1,0.5,1.6v0.1l-1.4,0.1v-0.1c-0.1-0.6-0.3-1.1-0.7-1.4s-1-0.5-1.7-0.5c-0.8,0-1.4,0.1-1.7,0.4
		c-0.4,0.3-0.5,0.6-0.5,1c0,0.3,0.1,0.6,0.4,0.8c0.2,0.2,0.9,0.5,2,0.7s1.8,0.5,2.2,0.6c0.6,0.3,1,0.6,1.3,1.1
		c0.3,0.4,0.4,0.9,0.4,1.5c0,0.5-0.2,1.1-0.5,1.6s-0.8,0.9-1.4,1.1C514.4,98.5,513.7,98.6,513,98.6L513,98.6z"/>
	<path class="st0" d="M523.9,89.3c-0.9,0-1.7,0.3-2.4,1c-0.7,0.6-1,1.7-1,3.2c0,1.2,0.3,2.1,1,2.8c0.6,0.7,1.5,1,2.4,1
		c1,0,1.8-0.4,2.4-1c0.6-0.7,1-1.7,1-3c0-0.8-0.1-1.5-0.4-2.1c-0.3-0.6-0.7-1.1-1.2-1.4C525.1,89.5,524.5,89.3,523.9,89.3
		L523.9,89.3z M523.9,98.6c-1,0-1.8-0.2-2.6-0.7s-1.3-1.1-1.7-1.9s-0.6-1.7-0.6-2.6c0-1.7,0.5-3,1.4-4s2.1-1.4,3.5-1.4
		c0.9,0,1.8,0.2,2.6,0.7s1.3,1.1,1.7,1.9s0.6,1.7,0.6,2.7s-0.2,2-0.6,2.8c-0.4,0.8-1,1.4-1.8,1.9C525.6,98.4,524.7,98.6,523.9,98.6
		L523.9,98.6z"/>
	<polygon class="st0" points="531.2,98.4 531.2,88.2 532.6,88.2 532.6,97.1 537.6,97.1 537.6,98.4 	"/>
	<path class="st0" d="M544,98.6c-1,0-1.7-0.2-2.4-0.5c-0.6-0.3-1.1-0.8-1.3-1.4c-0.3-0.6-0.4-1.5-0.4-2.6v-5.9h1.5v5.9
		c0,0.9,0.1,1.5,0.2,1.9c0.2,0.4,0.4,0.7,0.8,0.9c0.4,0.2,0.9,0.3,1.4,0.3c1,0,1.7-0.2,2.1-0.6c0.4-0.4,0.6-1.3,0.6-2.5v-5.9h1.5
		v5.9c0,1-0.1,1.8-0.3,2.4s-0.7,1.1-1.3,1.5C545.8,98.4,545,98.6,544,98.6L544,98.6z"/>
	<polygon class="st0" points="553.6,98.4 553.6,89.5 550.3,89.5 550.3,88.2 558.4,88.2 558.4,89.5 555.1,89.5 555.1,98.4 	"/>
	<polygon class="st0" points="560.8,98.4 560.8,88.2 562.2,88.2 562.2,98.4 	"/>
	<path class="st0" d="M569.9,89.3c-0.9,0-1.7,0.3-2.4,1c-0.7,0.6-1,1.7-1,3.2c0,1.2,0.3,2.1,1,2.8c0.6,0.7,1.5,1,2.4,1
		c1,0,1.8-0.4,2.4-1c0.6-0.7,1-1.7,1-3c0-0.8-0.1-1.5-0.4-2.1c-0.3-0.6-0.7-1.1-1.2-1.4C571.1,89.5,570.5,89.3,569.9,89.3
		L569.9,89.3z M569.9,98.6c-1,0-1.8-0.2-2.6-0.7s-1.3-1.1-1.7-1.9s-0.6-1.7-0.6-2.6c0-1.7,0.5-3,1.4-4s2.1-1.4,3.5-1.4
		c0.9,0,1.8,0.2,2.6,0.7s1.3,1.1,1.7,1.9s0.6,1.7,0.6,2.7s-0.2,2-0.6,2.8c-0.4,0.8-1,1.4-1.8,1.9C571.6,98.4,570.7,98.6,569.9,98.6
		L569.9,98.6z"/>
	<polygon class="st0" points="583.8,98.4 578.6,90.6 578.6,98.4 577.2,98.4 577.2,88.2 578.7,88.2 583.9,96 583.9,88.2 585.3,88.2 
		585.3,98.4 	"/>
	<path class="st0" d="M592.2,98.6c-0.9,0-1.7-0.1-2.3-0.4s-1.1-0.7-1.5-1.2s-0.5-1.2-0.6-1.9V95l1.4-0.1V95c0.1,0.5,0.2,0.9,0.4,1.2
		c0.2,0.3,0.5,0.6,1,0.8c0.4,0.2,1,0.3,1.5,0.3s0.9-0.1,1.3-0.2c0.4-0.1,0.7-0.3,0.8-0.6c0.2-0.3,0.3-0.5,0.3-0.8s-0.1-0.6-0.3-0.8
		c-0.2-0.2-0.5-0.4-0.9-0.6c-0.3-0.1-0.9-0.3-1.8-0.5c-0.9-0.2-1.6-0.4-2-0.6c-0.5-0.3-0.9-0.6-1.1-1c-0.2-0.4-0.4-0.8-0.4-1.3
		s0.1-1,0.4-1.5c0.3-0.5,0.7-0.8,1.3-1s1.2-0.3,1.9-0.3c0.8,0,1.4,0.1,2,0.4c0.6,0.2,1,0.6,1.3,1.1s0.5,1,0.5,1.6v0.1l-1.4,0.1v-0.1
		c-0.1-0.6-0.3-1.1-0.7-1.4s-1-0.5-1.7-0.5c-0.8,0-1.4,0.1-1.7,0.4c-0.4,0.3-0.5,0.6-0.5,1c0,0.3,0.1,0.6,0.4,0.8
		c0.2,0.2,0.9,0.5,2,0.7s1.8,0.5,2.2,0.6c0.6,0.3,1,0.6,1.3,1.1c0.3,0.4,0.4,0.9,0.4,1.5c0,0.5-0.2,1.1-0.5,1.6s-0.8,0.9-1.4,1.1
		C593.6,98.5,592.9,98.6,592.2,98.6L592.2,98.6z"/>
	<path class="st0" d="M496.6,79.4c-1.5-1.9-4.6-5.3-4.9-6.6c-0.5-1.9-0.4-3.6-0.4-4.5l0,0l0.1,0.1c0.1,0.1,0.3,0.3,0.4,0.4l0,0
		c0.2,0.1,0.3,0.2,0.5,0.3h0.1c0.2,0.1,0.4,0.1,0.5,0.1h2.5c1.7,0,3-2.2,3-4.9c0-2.7-1.4-4.9-3-4.9h-2.5h-0.1c-0.1,0-0.3,0-0.4,0.1
		c0,0,0,0-0.1,0h-0.1c-0.1,0-0.1,0-0.2,0.1c-0.1,0-0.1,0.1-0.2,0.1s-0.1,0.1-0.2,0.1c0,0-0.1,0-0.1,0.1c-0.1,0-0.1,0.1-0.2,0.2
		c-0.1,0.1-0.2,0.2-0.3,0.3c-0.1-0.9-0.1-2.6,0.4-4.5c0.3-1.3,3.4-4.7,4.9-6.6c1.5-1.9,3.1-3.7,3.4-4.2c0.3-0.4,0.4-1.3,0.1-1.7
		c-0.3-0.5-1.3-2.4-1.7-2.8c-0.4-0.4-1-0.9-1.9-0.4c-0.9,0.6-6,5.7-7.1,6.4s-3.4,1-5.3-0.7l-0.1-0.1c-1.7-1.9-1.5-4.2-0.7-5.3
		c0.7-1.2,5.8-6.3,6.4-7.1c0.6-0.9,0-1.5-0.4-1.9s-2.3-1.4-2.8-1.7s-1.3-0.2-1.7,0.1s-2.3,1.8-4.2,3.4c-1.9,1.5-5.3,4.5-6.6,4.9
		c-1.7,0.6-3.4,0.5-4.4,0.4c-0.2,0-0.4-0.1-0.7-0.1c-0.1,0-0.1,0-0.1,0l0,0c-1.1-0.1-2.2-0.2-3.3-0.2c-1.1,0-2.2,0.1-3.3,0.2l0,0
		c0,0-2.4,0.5-5.2-0.3c-1.3-0.3-4.7-3.4-6.6-4.9s-3.7-3.1-4.2-3.4c-0.4-0.3-1.3-0.4-1.7-0.1c-0.5,0.3-2.4,1.3-2.8,1.7
		c-0.4,0.4-0.9,1-0.4,1.9c0.6,0.9,5.7,6,6.4,7.1c0.7,1.1,1,3.4-0.7,5.3l-0.1,0.1c-1.9,1.7-4.2,1.5-5.3,0.7c-1.2-0.7-6.3-5.8-7.1-6.4
		c-0.9-0.6-1.5,0-1.9,0.4s-1.4,2.3-1.7,2.8c-0.3,0.5-0.2,1.3,0.1,1.7s1.8,2.3,3.4,4.2c1.5,1.9,4.5,5.3,4.9,6.6
		c0.6,1.6,0.5,3.4,0.4,4.4v0.1l0,0l0,0l0,0c0,0,0,0-0.1-0.1l-0.1-0.1l-0.1-0.1L439,60l-0.1-0.1l0,0l0,0l-0.1-0.1c0,0-0.1,0-0.1-0.1
		c0,0-0.1,0-0.1-0.1c0,0-0.1,0-0.1-0.1c0,0,0,0-0.1,0l0,0c0,0,0,0-0.1,0h-0.1c-0.1,0-0.1,0-0.2,0s-0.1,0-0.2,0l0,0h-2.5
		c-1.7,0-3,2.2-3,4.9c0,2.7,1.4,4.9,3,4.9h2.5c0.2,0,0.4,0,0.5-0.1h0.1c0.1-0.1,0.3-0.1,0.4-0.2h0.1c0.1-0.1,0.3-0.2,0.4-0.3
		l0.1-0.1c0,0,0,0,0-0.1c0,0,0,0,0.1-0.1v0.1c0.1,1,0.2,2.8-0.4,4.4c-0.4,1.3-3.4,4.7-4.9,6.6s-3.1,3.7-3.4,4.2
		c-0.3,0.4-0.4,1.3-0.1,1.7c0.3,0.5,1.3,2.4,1.7,2.8c0.4,0.4,1,0.9,1.9,0.4c0.9-0.6,6-5.7,7.1-6.4c1.1-0.7,3.4-1,5.3,0.7l0.1,0.1
		c1.7,1.9,1.4,4.2,0.7,5.3c-0.7,1.2-5.8,6.3-6.4,7.1c-0.6,0.9,0,1.5,0.4,1.9s2.3,1.4,2.8,1.7c0.5,0.3,1.3,0.2,1.7-0.1
		c0.4-0.3,2.3-1.8,4.2-3.4c1.9-1.5,5.3-4.6,6.6-4.9c2-0.5,3.7-0.4,4.6-0.4c0,0-0.1,0-0.1,0.1c0,0,0,0-0.1,0.1
		c-0.1,0-0.1,0.1-0.1,0.1c-0.1,0.1-0.2,0.2-0.3,0.3c0,0.1-0.1,0.1-0.1,0.2c-0.1,0.1-0.1,0.2-0.2,0.4c0,0.1,0,0.1-0.1,0.2
		c-0.1,0.2-0.1,0.4-0.1,0.6v2.5c0,1.7,2.2,3.1,4.9,3.1c2.7,0,4.9-1.4,4.9-3.1l0,0v-2.5l0,0c0-0.1,0-0.1,0-0.2s0-0.1,0-0.2
		s0-0.1,0-0.1v-0.1l0,0l0,0c0,0,0-0.1-0.1-0.1c0,0,0-0.1-0.1-0.1c0,0,0-0.1-0.1-0.1c0,0,0-0.1-0.1-0.1l0,0l0,0c0,0,0,0-0.1-0.1
		l-0.1-0.1l-0.1-0.1l-0.1-0.1c0,0-0.1,0-0.1-0.1l0,0l0,0l-0.1-0.1c0.1,0,0.1,0,0.2,0c1-0.1,2.8-0.2,4.4,0.4c1.3,0.4,4.7,3.4,6.6,4.9
		s3.7,3.1,4.2,3.4c0.4,0.3,1.3,0.4,1.7,0.1c0.5-0.3,2.4-1.3,2.8-1.7c0.4-0.4,0.9-1,0.4-1.9c-0.6-0.9-5.7-6-6.4-7.1
		c-0.7-1.1-1-3.4,0.7-5.3l0.1-0.1c1.9-1.7,4.2-1.5,5.3-0.7c1.2,0.7,6.3,5.8,7.1,6.4c0.9,0.6,1.5,0,1.9-0.4s1.4-2.3,1.7-2.8
		c0.3-0.5,0.2-1.3-0.1-1.7C499.7,83.2,498.2,81.3,496.6,79.4z M465.5,80.6c-9,0-16.3-7.3-16.3-16.3c0-1.7,0.3-3.3,0.7-4.8v-0.1
		c0.3-1,0.7-1.9,1.2-2.8c0,0,0,0,0-0.1c0.5-0.9,1.1-1.7,1.7-2.5l0,0c1-1.2,2.1-2.2,3.4-3.1c0.1,0,0.1-0.1,0.2-0.1
		c0.4-0.2,0.7-0.5,1.1-0.7c0.1-0.1,0.2-0.1,0.4-0.2c0.4-0.2,0.7-0.4,1.1-0.5c0.2-0.1,0.3-0.1,0.5-0.2c0.8-0.3,1.7-0.6,2.6-0.8
		c0.1,0,0.2,0,0.3,0c1-0.2,2-0.3,3-0.3c1.1,0,2.2,0.1,3.3,0.3c1,0.2,2,0.5,2.9,0.9h0.1c1.4,0.6,2.6,1.3,3.8,2.3
		c0.1,0.1,0.2,0.1,0.2,0.2c3.6,3,5.9,7.5,5.9,12.6C481.8,73.3,474.5,80.6,465.5,80.6z"/>
	<polygon class="st0" points="524.7,82.1 522.4,82.1 522.4,72.1 524.7,72.1 	"/>
	<polygon class="st0" points="529.5,82.1 528.1,82.1 528.1,72.1 529.5,72.1 	"/>
	<polygon class="st0" points="508.4,72.2 508.4,82.1 519.6,82.1 519.6,72.2 	"/>
</g>
<g>
	<path class="st0" d="M462.1,37.2h2.6h0.1l0,0l0.3,0.6c0,0,0,0,0.1,0.1h0.1h4c0,0,0.2,0,0.3,0.1c0.1,0,0.2,0.2,0.2,0.2l0.3,0.4
		c0,0,0,0.1,0,0.2c-0.1,0.1-0.1,0.1-0.1,0.1h-4.3h-0.1l-0.1-0.1L465,38c0,0,0,0-0.1-0.1h-0.1h-3.1h-0.1v-0.1l0.3-0.5
		C462,37.3,462,37.2,462.1,37.2L462.1,37.2"/>
	<path class="st0" d="M463.8,34.6h0.9h0.1l0,0l0.3,0.6c0,0,0,0,0.1,0.1h0.1h2.3c0,0,0.2,0,0.3,0.1c0.1,0,0.2,0.2,0.2,0.2l0.2,0.3
		c0,0,0.1,0.1,0,0.2c-0.1,0.1-0.2,0.1-0.2,0.1h-2.5h-0.1l-0.1-0.1l-0.4-0.7c0,0,0,0-0.1-0.1h-0.1h-1.4h-0.1v-0.1l0.3-0.5
		C463.6,34.6,463.7,34.6,463.8,34.6C463.7,34.6,463.8,34.6,463.8,34.6"/>
	<path class="st0" d="M465.6,31.8c0.2,0,0.3,0.2,0.3,0.2l1.5,2.4c0,0,0.1,0.1,0,0.2c-0.1,0.1-0.2,0.1-0.2,0.1h-1.7h-0.1l-0.1-0.1
		L465,34c0,0,0,0-0.1-0.1h-0.1h-0.5c0,0-0.1,0-0.1-0.1s0-0.2,0-0.2l1-1.6C465.2,32.1,465.3,31.8,465.6,31.8"/>
	<path class="st0" d="M462.9,35.9h1.8h0.1l0,0l0.3,0.6c0,0,0,0,0.1,0.1h0.1h3.2c0,0,0.2,0,0.3,0.1c0.1,0,0.2,0.2,0.2,0.2l0.2,0.3
		c0,0,0.1,0.1,0,0.2c-0.1,0.1-0.2,0.1-0.2,0.1h-3.3h-0.1l-0.1-0.1l-0.4-0.7c0,0,0,0-0.1-0.1h-0.1h-2.3h-0.1v-0.1l0.3-0.5
		C462.8,36,462.8,35.9,462.9,35.9L462.9,35.9"/>
</g>
</svg>
