<?xml version="1.0" encoding="utf-8"?>
<!-- Generator: Adobe Illustrator 25.1.0, SVG Export Plug-In . SVG Version: 6.00 Build 0)  -->
<svg version="1.1" xmlns="http://www.w3.org/2000/svg" xmlns:xlink="http://www.w3.org/1999/xlink" x="0px" y="0px"
	 viewBox="0 0 219.2 130.4" style="enable-background:new 0 0 219.2 130.4;" xml:space="preserve">
<style type="text/css">
	.st0{fill:#FFFFFF;}
	.st1{fill-rule:evenodd;clip-rule:evenodd;fill:#FFFFFF;}
	.st2{clip-path:url(#SVGID_2_);fill:#FFFFFF;}
	.st3{clip-path:url(#SVGID_4_);fill:#FFFFFF;}
	.st4{clip-path:url(#SVGID_6_);fill:#FFFFFF;}
	.st5{clip-path:url(#SVGID_8_);fill:#FFFFFF;}
	.st6{clip-path:url(#SVGID_10_);fill:#FFFFFF;}
	.st7{clip-path:url(#SVGID_12_);fill:#FFFFFF;}
	.st8{clip-path:url(#SVGID_14_);fill:#FFFFFF;}
	.st9{clip-path:url(#SVGID_16_);fill:#FFFFFF;}
	.st10{clip-path:url(#SVGID_18_);fill:#FFFFFF;}
	.st11{clip-path:url(#SVGID_20_);fill:#FFFFFF;}
	.st12{clip-path:url(#SVGID_22_);fill:#FFFFFF;}
	.st13{clip-path:url(#SVGID_24_);fill:#FFFFFF;}
	.st14{clip-path:url(#SVGID_26_);fill:#FFFFFF;}
	.st15{clip-path:url(#SVGID_28_);fill:#FFFFFF;}
	.st16{clip-path:url(#SVGID_30_);fill:#FFFFFF;}
	.st17{clip-path:url(#SVGID_32_);fill:#FFFFFF;}
	.st18{clip-path:url(#SVGID_34_);fill:#FFFFFF;}
	.st19{clip-path:url(#SVGID_36_);fill:#FFFFFF;}
	.st20{clip-path:url(#SVGID_38_);fill:#FFFFFF;}
	.st21{clip-path:url(#SVGID_40_);fill:#FFFFFF;}
	.st22{clip-path:url(#SVGID_42_);fill:#FFFFFF;}
	.st23{clip-path:url(#SVGID_44_);fill:#FFFFFF;}
	.st24{clip-path:url(#SVGID_46_);fill:#FFFFFF;}
	.st25{clip-path:url(#SVGID_48_);fill:#FFFFFF;}
	.st26{clip-path:url(#SVGID_50_);fill:#FFFFFF;}
	.st27{clip-path:url(#SVGID_52_);fill:#FFFFFF;}
</style>
<g id="Layer_1">
	<g>
		<g>
			<g>
				<path class="st0" d="M307.5,70.9h2.4c1.3,0,2.5,0.5,2.5,2c0,1.2-0.8,1.6-1.7,1.8l0,0c1.1,0.2,1.3,0.9,1.4,1.7l0.5,2.2h-1.1
					l-0.5-1.7c-0.3-1.1-0.5-1.6-1.7-1.6h-0.6v3.3h-1.2V70.9z M308.7,74.3h0.7c0.9,0,1.8-0.3,1.8-1.4c0-1-0.6-1.3-1.4-1.3h-1V74.3z"
					/>
				<polygon class="st0" points="315.4,70.9 320.1,70.9 320.1,71.8 316.6,71.8 316.6,74.1 319.9,74.1 319.9,75 316.6,75 316.6,77.7 
					320.1,77.7 320.1,78.6 315.4,78.6 				"/>
				<polygon class="st0" points="322.9,70.9 324.1,70.9 324.1,77.7 327.3,77.7 327.3,78.6 322.9,78.6 				"/>
				<rect x="329.7" y="70.9" class="st0" width="1.2" height="7.7"/>
				<path class="st0" d="M336.2,70.9h1.5l2.9,7.7h-1.3l-0.8-2.2h-3l-0.8,2.2h-1.3L336.2,70.9z M335.7,75.4h2.4l-1.1-3.6l0,0
					L335.7,75.4z"/>
				<path class="st0" d="M343,70.9h2.4c0.8,0,2.2,0.3,2.2,1.8c0,1.3-0.9,1.6-1.3,1.8l0,0c0.6,0.1,1.7,0.5,1.7,2
					c0,1.9-1.6,2.1-2.7,2.1h-2.3L343,70.9L343,70.9z M344.2,74.1h0.8c0.6,0,1.4-0.2,1.4-1.1c0-1.1-0.9-1.1-1.5-1.1h-0.7V74.1z
					 M344.2,77.7h1c1.1,0,1.7-0.6,1.7-1.3c0-1.3-1.3-1.4-1.8-1.4h-0.8L344.2,77.7L344.2,77.7z"/>
				<rect x="350.9" y="70.9" class="st0" width="1.2" height="7.7"/>
				<polygon class="st0" points="355.5,70.9 356.7,70.9 356.7,77.7 360,77.7 360,78.6 355.5,78.6 				"/>
				<rect x="362.3" y="70.9" class="st0" width="1.2" height="7.7"/>
				<polygon class="st0" points="368,71.8 365.9,71.8 365.9,70.9 371.3,70.9 371.3,71.8 369.2,71.8 369.2,78.6 368,78.6 				"/>
				<polygon class="st0" points="375.2,75 372.5,70.9 373.8,70.9 375.8,73.8 377.8,70.9 379.1,70.9 376.5,75 376.5,78.6 375.2,78.6 
									"/>
				<path class="st1" d="M374.9,36h-10.7l0,0l0,0h-10.7h-0.8c-1.9,0-3.5,1.2-4.2,2.7l0,0l-4,9.1l-1.2,2.8v-0.1v0.1l-5-11.8l0,0
					c-0.6-1.6-2.3-2.7-4.2-2.7c-2.5,0-4.5,2-4.5,4.5c0,0.3,0.1,0.7,0.2,1l9.8,21.4c0.8,1.3,2.2,2.2,3.8,2.2c0.1,0,0.2,0,0.2,0
					c0.1,0,0.2,0,0.2,0c1.6,0,3-0.9,3.8-2.2l8.2-18.1h4.1l-0.1,15.7c0,2.6,2.1,4.6,4.6,4.6s4.6-2.2,4.6-4.7l-0.1-15.1V45h6
					c2.5,0,4.6-2,4.6-4.5C379.4,38,377.4,36,374.9,36"/>
				<path class="st0" d="M374.9,36h-10.7l0,0l0,0h-10.7h-0.8c-1.9,0-3.5,1.2-4.2,2.7l0,0l-4,9.1l-1.2,2.8v-0.1v0.1l-5-11.8l0,0
					c-0.6-1.6-2.3-2.7-4.2-2.7c-2.5,0-4.5,2-4.5,4.5c0,0.3,0.1,0.7,0.2,1l9.8,21.4c0.8,1.3,2.2,2.2,3.8,2.2c0.1,0,0.2,0,0.2,0
					c0.1,0,0.2,0,0.2,0c1.6,0,3-0.9,3.8-2.2l8.2-18.1h4.1l-0.1,15.7c0,2.6,2.1,4.6,4.6,4.6s4.6-2.2,4.6-4.7l-0.1-15.1V45h6
					c2.5,0,4.6-2,4.6-4.5C379.4,38,377.4,36,374.9,36z"/>
				<path class="st1" d="M325.4,38.2c-0.8-1.3-2.2-2.2-3.8-2.2h-0.4c-1.6,0-3,0.9-3.8,2.2l-9.7,21.4c-0.1,0.3-0.2,0.6-0.2,1
					c0,2.5,2,4.5,4.5,4.5s4.6-1.9,4.6-4.2h4.7h0.2h4.7c0,2.3,2.1,4.2,4.6,4.2c2.5,0,4.5-2,4.5-4.5c0-0.3-0.1-0.7-0.2-1L325.4,38.2z
					 M319.7,54.4l1.6-3.8l1.6,3.8H319.7z"/>
				<path class="st0" d="M325.4,38.2c-0.8-1.3-2.2-2.2-3.8-2.2h-0.4c-1.6,0-3,0.9-3.8,2.2l-9.7,21.4c-0.1,0.3-0.2,0.6-0.2,1
					c0,2.5,2,4.5,4.5,4.5s4.6-1.9,4.6-4.2h4.7h0.2h4.7c0,2.3,2.1,4.2,4.6,4.2c2.5,0,4.5-2,4.5-4.5c0-0.3-0.1-0.7-0.2-1L325.4,38.2z
					 M319.7,54.4l1.6-3.8l1.6,3.8H319.7z"/>
				<rect x="301.1" y="99.8" class="st0" width="0.7" height="0.7"/>
				<rect x="303.3" y="99.8" class="st0" width="0.7" height="0.7"/>
				<rect x="305.4" y="99.8" class="st0" width="0.7" height="0.7"/>
				<path class="st0" d="M308.1,96.5h-0.6v-0.7h0.6V96.5z M307.5,97.1h0.6v3.5h-0.6V97.1z"/>
				<path class="st0" d="M310,97.1h0.7v0.5H310v2.2c0,0.2,0.1,0.3,0.4,0.3h0.2v0.5h-0.4c-0.6,0-0.8-0.2-0.8-0.8v-2.2h-0.6V97h0.6v-1
					h0.6V97.1z"/>
				<path class="st0" d="M311.7,95.8h0.7v0.7c0,0.6-0.2,1-0.7,1v-0.2c0.3,0,0.4-0.3,0.4-0.6h-0.4V95.8z"/>
				<path class="st0" d="M313.7,99.4c0,0.5,0.5,0.6,1,0.6c0.3,0,0.9-0.1,0.9-0.5c0-0.9-2.2-0.3-2.2-1.6c0-0.7,0.7-1,1.3-1
					c0.8,0,1.4,0.2,1.4,1.1h-0.6c0-0.5-0.4-0.6-0.8-0.6c-0.3,0-0.7,0.1-0.7,0.5c0,0.4,0.6,0.5,1.1,0.6c0.6,0.2,1.1,0.3,1.1,1
					c0,0.8-0.8,1.1-1.5,1.1c-0.8,0-1.4-0.3-1.4-1.2h0.5L313.7,99.4L313.7,99.4z"/>
				<path class="st0" d="M319.8,96.5h-0.6v-0.7h0.6V96.5z M319.3,97.1h0.6v3.5h-0.6V97.1z"/>
				<path class="st0" d="M320.9,97.1h0.6v0.6l0,0c0.2-0.4,0.6-0.6,1.1-0.6c0.9,0,1.2,0.6,1.2,1.3v2.3h-0.6v-2.3
					c0-0.4-0.2-0.7-0.7-0.7c-0.7,0-1,0.5-1,1.1v2h-0.6V97.1z"/>
				<path class="st0" d="M328.6,97c1.1,0,1.7,0.8,1.7,1.8s-0.6,1.8-1.7,1.8s-1.7-0.8-1.7-1.8S327.5,97,328.6,97 M328.6,100.2
					c0.6,0,1.1-0.5,1.1-1.3c0-0.9-0.5-1.4-1.1-1.4c-0.6,0-1.1,0.5-1.1,1.4C327.6,99.7,328.1,100.2,328.6,100.2"/>
				<path class="st0" d="M334.1,100.6h-0.6V100l0,0c-0.2,0.4-0.6,0.6-1.1,0.6c-0.9,0-1.2-0.6-1.2-1.3V97h0.6v2.3
					c0,0.4,0.2,0.7,0.7,0.7c0.7,0,1-0.5,1-1.1v-2h0.6V100.6z"/>
				<path class="st0" d="M335.3,97.1h0.6v0.7l0,0c0.2-0.6,0.6-0.8,1.3-0.8v0.6c-1,0-1.3,0.5-1.3,1.4v1.5h-0.6V97.1z"/>
				<path class="st0" d="M340.1,95.8h1.7c1.5,0,2.3,0.7,2.3,2.3s-0.7,2.6-2.3,2.6h-1.7V95.8z M341.7,100c0.4,0,1.6-0.2,1.6-1.9
					c0-1.1-0.4-1.8-1.6-1.8h-1v3.8C340.7,100,341.7,100,341.7,100z"/>
				<polygon class="st0" points="345,95.8 345.7,95.8 348.2,99.7 348.3,99.7 348.3,95.8 348.9,95.8 348.9,100.6 348.1,100.6 
					345.7,96.7 345.7,96.7 345.7,100.6 345,100.6 				"/>
				<path class="st0" d="M351.5,95.8h0.7l1.9,4.8h-0.7l-0.6-1.4h-2l-0.6,1.4h-0.6L351.5,95.8z M352.6,98.6l-0.8-2.2l0,0l-0.8,2.2
					H352.6z"/>
				<path class="st0" d="M276.7,41.6c0,0-0.7,2.8-0.8,3.3c-4.3,15.9-0.1,21.3,6.2,25.7c16.3,11.4,29.3,10,42.1,16.4l-7.3,3.7
					c0,0-4.6-1.9-11.4-3.6c-7.8-2-13-4.1-19.5-7.3c-18.8-9.2-19.1-21.1-16-31.9c0.1-0.2,1.5-4.1,1.5-4.1L276.7,41.6z"/>
				<path class="st0" d="M299.2,42.9c6.4,14-0.8,26.1-2.5,35.9c-2,12,2.5,21.5,2.5,21.5s-10.4-8.9-9.3-19.8
					c1.3-12.4,12.6-26,1.8-38.8c-3.5-4.2-24-10.6-24-10.6S294.2,31.9,299.2,42.9"/>
				<path class="st0" d="M294.3,46.4c0,0-0.3-1.6-9.4,1.5c-9.2,3.1-8.8,4.4-8.8,4.4s0.5,1.4,9.7-1.8
					C294.9,47.5,294.3,46.4,294.3,46.4"/>
				<path class="st0" d="M296.1,53.7c0,0-0.2-2.1-10.3,0.4c-10.2,2.4-9.7,4.3-9.7,4.3s0.4,1.9,10.6-0.6
					C296.8,55.4,296.1,53.7,296.1,53.7"/>
				<path class="st0" d="M294.5,62.5c0,0,0.2-1.5-8.1-0.3c-8.2,1.2-8,2.6-8,2.6s0.2,1.4,8.4,0.2C295.2,63.7,294.5,62.5,294.5,62.5"
					/>
				<path class="st0" d="M290.4,40.9c0,0-0.2-1.1-7,1.8c-6.7,3-6.4,3.8-6.4,3.8s0.4,0.9,7.1-2.1C290.9,41.5,290.4,40.9,290.4,40.9"
					/>
				<path class="st0" d="M300.4,36.6c0.9,0,1.7,0.7,1.7,1.7s-0.8,1.7-1.7,1.7s-1.7-0.7-1.7-1.7S299.5,36.6,300.4,36.6 M300.4,39.7
					c0.8,0,1.4-0.6,1.4-1.4s-0.6-1.4-1.4-1.4c-0.8,0-1.4,0.6-1.4,1.4S299.6,39.7,300.4,39.7 M299.7,37.3h0.7c0.5,0,0.7,0.2,0.7,0.6
					c0,0.3-0.2,0.5-0.5,0.6l0.6,0.9h-0.3l-0.6-0.8h-0.3v0.8h-0.3V37.3z M300.1,38.2h0.3c0.2,0,0.5,0,0.5-0.3c0-0.2-0.2-0.3-0.4-0.3
					h-0.4V38.2z"/>
			</g>
		</g>
	</g>
	<g>
		<g>
			<g>
				<defs>
					<rect id="SVGID_1_" x="34.3" y="39.9" width="156.4" height="50.2"/>
				</defs>
				<clipPath id="SVGID_2_">
					<use xlink:href="#SVGID_1_"  style="overflow:visible;"/>
				</clipPath>
				<path class="st2" d="M56.5,76.4h4.3c2.3,0,4.3,0.9,4.3,3.6c0,2.1-1.4,2.9-2.9,3.2v0.1c2.1,0.4,2.2,1.5,2.6,3l0.9,3.8h-2L62.8,87
					c-0.6-2-0.9-2.9-2.9-2.9h-1.2V90h-2.1V76.4z M58.6,82.6h1.2c1.5,0,3.1-0.6,3.1-2.3c0-1.7-1-2.2-2.6-2.2h-1.8V82.6z"/>
			</g>
		</g>
		<g>
			<g>
				<defs>
					<rect id="SVGID_3_" x="34.3" y="39.9" width="156.4" height="50.2"/>
				</defs>
				<clipPath id="SVGID_4_">
					<use xlink:href="#SVGID_3_"  style="overflow:visible;"/>
				</clipPath>
				<polygon class="st3" points="70.5,76.4 78.6,76.4 78.6,78.1 72.6,78.1 72.6,82.2 78.3,82.2 78.3,83.8 72.6,83.8 72.6,88.5 
					78.9,88.5 78.9,90 70.5,90 				"/>
			</g>
		</g>
		<g>
			<g>
				<defs>
					<rect id="SVGID_5_" x="34.3" y="39.9" width="156.4" height="50.2"/>
				</defs>
				<clipPath id="SVGID_6_">
					<use xlink:href="#SVGID_5_"  style="overflow:visible;"/>
				</clipPath>
				<polygon class="st4" points="83.7,76.4 85.8,76.4 85.8,88.5 91.5,88.5 91.5,90 83.7,90 				"/>
			</g>
		</g>
		<g>
			<g>
				<defs>
					<rect id="SVGID_7_" x="34.3" y="39.9" width="156.4" height="50.2"/>
				</defs>
				<clipPath id="SVGID_8_">
					<use xlink:href="#SVGID_7_"  style="overflow:visible;"/>
				</clipPath>
				<rect x="95.6" y="76.4" class="st5" width="2.1" height="13.6"/>
			</g>
		</g>
		<g>
			<g>
				<defs>
					<rect id="SVGID_9_" x="34.3" y="39.9" width="156.4" height="50.2"/>
				</defs>
				<clipPath id="SVGID_10_">
					<use xlink:href="#SVGID_9_"  style="overflow:visible;"/>
				</clipPath>
				<path class="st6" d="M107.2,76.4h2.6l5.1,13.6h-2.3l-1.5-3.9h-5.3l-1.5,3.9h-2.3L107.2,76.4z M106.4,84.6h4.3l-2.1-6.3h-0.1
					L106.4,84.6z"/>
			</g>
		</g>
		<g>
			<g>
				<defs>
					<rect id="SVGID_11_" x="34.3" y="39.9" width="156.4" height="50.2"/>
				</defs>
				<clipPath id="SVGID_12_">
					<use xlink:href="#SVGID_11_"  style="overflow:visible;"/>
				</clipPath>
				<path class="st7" d="M119.3,76.4h4.3c1.5,0,3.9,0.5,3.9,3.2c0,2.3-1.6,2.9-2.3,3.1v0.1c1.1,0.1,3,0.9,3,3.4
					c0,3.3-2.9,3.7-4.8,3.7h-4.1C119.3,90,119.3,76.4,119.3,76.4z M121.4,82.1h1.3c1,0,2.5-0.2,2.5-2.1c0-1.9-1.5-2-2.6-2h-1.2
					L121.4,82.1L121.4,82.1z M121.4,88.5h1.7c1.9,0,2.9-1,2.9-2.3c0-2.3-2.2-2.5-3.1-2.5h-1.5C121.4,83.6,121.4,88.5,121.4,88.5z"/>
			</g>
		</g>
		<g>
			<g>
				<defs>
					<rect id="SVGID_13_" x="34.3" y="39.9" width="156.4" height="50.2"/>
				</defs>
				<clipPath id="SVGID_14_">
					<use xlink:href="#SVGID_13_"  style="overflow:visible;"/>
				</clipPath>
				<rect x="133.3" y="76.4" class="st8" width="2.1" height="13.6"/>
			</g>
		</g>
		<g>
			<g>
				<defs>
					<rect id="SVGID_15_" x="34.3" y="39.9" width="156.4" height="50.2"/>
				</defs>
				<clipPath id="SVGID_16_">
					<use xlink:href="#SVGID_15_"  style="overflow:visible;"/>
				</clipPath>
				<polygon class="st9" points="141.3,76.4 143.4,76.4 143.4,88.5 149.1,88.5 149.1,90 141.3,90 				"/>
			</g>
		</g>
		<g>
			<g>
				<defs>
					<rect id="SVGID_17_" x="34.3" y="39.9" width="156.4" height="50.2"/>
				</defs>
				<clipPath id="SVGID_18_">
					<use xlink:href="#SVGID_17_"  style="overflow:visible;"/>
				</clipPath>
				<rect x="153.3" y="76.4" class="st10" width="2.1" height="13.6"/>
			</g>
		</g>
		<g>
			<g>
				<defs>
					<rect id="SVGID_19_" x="34.3" y="39.9" width="156.4" height="50.2"/>
				</defs>
				<clipPath id="SVGID_20_">
					<use xlink:href="#SVGID_19_"  style="overflow:visible;"/>
				</clipPath>
				<polygon class="st11" points="163.3,78.1 159.6,78.1 159.6,76.4 169.1,76.4 169.1,78.1 165.4,78.1 165.4,90 163.3,90 				"/>
			</g>
		</g>
		<g>
			<g>
				<defs>
					<rect id="SVGID_21_" x="34.3" y="39.9" width="156.4" height="50.2"/>
				</defs>
				<clipPath id="SVGID_22_">
					<use xlink:href="#SVGID_21_"  style="overflow:visible;"/>
				</clipPath>
				<polygon class="st12" points="176,83.8 171.3,76.4 173.7,76.4 177.1,81.7 180.6,76.4 182.9,76.4 178.1,83.8 178.1,90 176,90 
									"/>
			</g>
		</g>
		<g>
			<g>
				<defs>
					<rect id="SVGID_23_" x="34.3" y="39.9" width="156.4" height="50.2"/>
				</defs>
				<clipPath id="SVGID_24_">
					<use xlink:href="#SVGID_23_"  style="overflow:visible;"/>
				</clipPath>
				<path class="st13" d="M186.9,42.5h-0.9v2.4h-0.6v-2.4h-0.9V42h2.3V42.5z M189.1,44.1L190,42h0.8v2.9h-0.5v-2.3l0,0l-0.9,2.3H189
					l-0.9-2.3l0,0v2.3h-0.5V42h0.8L189.1,44.1z"/>
			</g>
		</g>
		<g>
			<g>
				<defs>
					<rect id="SVGID_25_" x="34.3" y="39.9" width="156.4" height="50.2"/>
				</defs>
				<clipPath id="SVGID_26_">
					<use xlink:href="#SVGID_25_"  style="overflow:visible;"/>
				</clipPath>
				<rect x="71.1" y="53" class="st14" width="9.2" height="2.5"/>
			</g>
		</g>
		<g>
			<g>
				<defs>
					<rect id="SVGID_27_" x="34.3" y="39.9" width="156.4" height="50.2"/>
				</defs>
				<clipPath id="SVGID_28_">
					<use xlink:href="#SVGID_27_"  style="overflow:visible;"/>
				</clipPath>
				<path class="st15" d="M71.1,58.3V65c0,0-1.5,0.5-2.7-0.3c-1.2-0.8-1.9-2.5-2-6.3h-9.9C56.8,65.8,60.2,72,70.6,72
					c7.9,0,9.7-2.4,9.7-2.4V58.3H71.1z"/>
			</g>
		</g>
		<g>
			<g>
				<defs>
					<rect id="SVGID_29_" x="34.3" y="39.9" width="156.4" height="50.2"/>
				</defs>
				<clipPath id="SVGID_30_">
					<use xlink:href="#SVGID_29_"  style="overflow:visible;"/>
				</clipPath>
				<polygon class="st16" points="98,55.5 98,53.1 92.4,53.1 92.4,48.5 99.1,48.5 99.1,42 82.7,42 82.7,55.5 				"/>
			</g>
		</g>
		<g>
			<g>
				<defs>
					<rect id="SVGID_31_" x="34.3" y="39.9" width="156.4" height="50.2"/>
				</defs>
				<clipPath id="SVGID_32_">
					<use xlink:href="#SVGID_31_"  style="overflow:visible;"/>
				</clipPath>
				<polygon class="st17" points="92.5,60.2 98,60.2 98,58.3 82.7,58.3 82.7,71.5 99.1,71.5 99.1,65 92.4,65 				"/>
			</g>
		</g>
		<g>
			<g>
				<defs>
					<rect id="SVGID_33_" x="34.3" y="39.9" width="156.4" height="50.2"/>
				</defs>
				<clipPath id="SVGID_34_">
					<use xlink:href="#SVGID_33_"  style="overflow:visible;"/>
				</clipPath>
				<polygon class="st18" points="117.4,55.5 117.4,53.1 111.8,53.1 111.8,48.5 118.5,48.5 118.5,42 102.1,42 102.1,55.5 				"/>
			</g>
		</g>
		<g>
			<g>
				<defs>
					<rect id="SVGID_35_" x="34.3" y="39.9" width="156.4" height="50.2"/>
				</defs>
				<clipPath id="SVGID_36_">
					<use xlink:href="#SVGID_35_"  style="overflow:visible;"/>
				</clipPath>
				<polygon class="st19" points="102.1,58.3 102.1,71.5 111.8,71.5 111.9,60.2 117.4,60.2 117.4,58.3 				"/>
			</g>
		</g>
		<g>
			<g>
				<defs>
					<rect id="SVGID_37_" x="34.3" y="39.9" width="156.4" height="50.2"/>
				</defs>
				<clipPath id="SVGID_38_">
					<use xlink:href="#SVGID_37_"  style="overflow:visible;"/>
				</clipPath>
				<polygon class="st20" points="136.3,55.5 136.3,53.1 130.7,53.1 130.7,48.5 137.4,48.5 137.4,42 121,42 121,55.5 				"/>
			</g>
		</g>
		<g>
			<g>
				<defs>
					<rect id="SVGID_39_" x="34.3" y="39.9" width="156.4" height="50.2"/>
				</defs>
				<clipPath id="SVGID_40_">
					<use xlink:href="#SVGID_39_"  style="overflow:visible;"/>
				</clipPath>
				<polygon class="st21" points="121,58.3 121,71.5 130.7,71.5 130.8,60.2 136.3,60.2 136.3,58.3 				"/>
			</g>
		</g>
		<g>
			<g>
				<defs>
					<rect id="SVGID_41_" x="34.3" y="39.9" width="156.4" height="50.2"/>
				</defs>
				<clipPath id="SVGID_42_">
					<use xlink:href="#SVGID_41_"  style="overflow:visible;"/>
				</clipPath>
				<polygon class="st22" points="155.2,55.5 155.2,53.1 149.6,53.1 149.6,48.5 156.3,48.5 156.3,42 139.9,42 139.9,55.5 				"/>
			</g>
		</g>
		<g>
			<g>
				<defs>
					<rect id="SVGID_43_" x="34.3" y="39.9" width="156.4" height="50.2"/>
				</defs>
				<clipPath id="SVGID_44_">
					<use xlink:href="#SVGID_43_"  style="overflow:visible;"/>
				</clipPath>
				<polygon class="st23" points="149.7,60.2 155.2,60.2 155.2,58.3 139.9,58.3 139.9,71.5 156.3,71.5 156.3,65 149.6,65 				"/>
			</g>
		</g>
		<g>
			<g>
				<defs>
					<rect id="SVGID_45_" x="34.3" y="39.9" width="156.4" height="50.2"/>
				</defs>
				<clipPath id="SVGID_46_">
					<use xlink:href="#SVGID_45_"  style="overflow:visible;"/>
				</clipPath>
				<polygon class="st24" points="175.2,42 175.2,54.3 167.4,42 159.4,42 159.4,55.5 171.8,55.5 172.1,55.5 172.1,55.6 173.7,57.7 
					174.2,58.3 173.5,58.3 159.4,58.3 159.4,71.5 168.1,71.5 168.1,58.8 176.2,71.5 183.4,71.5 183.4,42 				"/>
			</g>
		</g>
		<g>
			<g>
				<defs>
					<rect id="SVGID_47_" x="34.3" y="39.9" width="156.4" height="50.2"/>
				</defs>
				<clipPath id="SVGID_48_">
					<use xlink:href="#SVGID_47_"  style="overflow:visible;"/>
				</clipPath>
				<path class="st25" d="M66.7,57.1c0,0.3,0,0.6,0,0.9h106.8l-1.6-2.1H66.7C66.7,56.3,66.7,56.6,66.7,57.1"/>
			</g>
		</g>
		<g>
			<g>
				<defs>
					<rect id="SVGID_49_" x="34.3" y="39.9" width="156.4" height="50.2"/>
				</defs>
				<clipPath id="SVGID_50_">
					<use xlink:href="#SVGID_49_"  style="overflow:visible;"/>
				</clipPath>
				<path class="st26" d="M56.1,57c0-0.4,0-0.8,0.1-1.2h-3.7l-6.6,20.7l-4-11.3H30.4v2.1h9.9L44.8,80h2.1L54,58h2.1
					C56.1,57.7,56.1,57.4,56.1,57"/>
			</g>
		</g>
		<g>
			<g>
				<defs>
					<rect id="SVGID_51_" x="34.3" y="39.9" width="156.4" height="50.2"/>
				</defs>
				<clipPath id="SVGID_52_">
					<use xlink:href="#SVGID_51_"  style="overflow:visible;"/>
				</clipPath>
				<path class="st27" d="M71.1,65c0,0-1.5,0.5-2.7-0.3c-1.3-0.9-2-2.8-2.1-7.6c0-5.6,1.5-7.2,4-8.2c2.7-1.1,6.7,0.2,6.7,0.2
					l2.9-5.7c0,0-5.8-3.4-13.8-1.2c-5.9,1.6-9.7,7.8-9.7,15c0,8,3.1,14.8,14.1,14.8c7.9,0,9.7-2.4,9.7-2.4L71.1,65z"/>
			</g>
		</g>
	</g>
	<g>
		<path class="st1" d="M611.3,36.5h-10.5l0,0l0,0h-10.5c-0.2,0-0.7,0-0.7,0c-1.8,0-3.5,1.1-4.2,2.7l0,0l-3.9,9l-1.2,2.8v-0.1V51
			l-5-11.7l0,0c-0.6-1.5-2.3-2.6-4.2-2.6c-2.4,0-4.4,2-4.4,4.4c0,0.3,0.1,0.7,0.2,1l9.5,21c0.8,1.2,2.2,2.2,3.8,2.2
			c0.1,0,0.2,0,0.2,0c0.1,0,0.2,0,0.2,0c1.6,0,3-0.9,3.8-2.2l8-17.7h4l-0.1,15.4c0,2.5,2.1,4.5,4.6,4.5c2.5,0,4.5-2.1,4.5-4.6
			l-0.1-14.8v-0.4h5.9c2.4,0,4.5-1.9,4.5-4.4C615.7,38.5,613.8,36.5,611.3,36.5L611.3,36.5z"/>
		<path class="st1" d="M557.3,54.6l1.6-3.8l1.6,3.8H557.3L557.3,54.6z M562.7,38.7c-0.8-1.2-2.2-2.2-3.8-2.2c-0.1,0-0.3,0-0.4,0
			c-1.6,0-3,0.9-3.8,2.2l-9.5,21c-0.1,0.3-0.2,0.6-0.2,1c0,2.4,2,4.4,4.4,4.4c2.4,0,4.5-1.8,4.5-4.2h4.6h0.2h4.6
			c0,2.3,2,4.2,4.5,4.2c2.4,0,4.4-2,4.4-4.4c0-0.3-0.1-0.7-0.2-1L562.7,38.7L562.7,38.7z"/>
		<path class="st0" d="M567.6,78.9c-0.7,0-1.4-0.1-1.8-0.3c-0.5-0.2-0.9-0.6-1.2-1s-0.4-1-0.5-1.4v-0.1l1.1-0.1v0.1
			c0.1,0.4,0.2,0.7,0.3,1c0.2,0.2,0.4,0.5,0.8,0.6c0.3,0.2,0.8,0.2,1.2,0.2c0.4,0,0.7-0.1,1-0.2c0.3-0.1,0.6-0.2,0.6-0.5
			c0.2-0.2,0.2-0.4,0.2-0.6s-0.1-0.5-0.2-0.6c-0.2-0.2-0.4-0.3-0.7-0.5c-0.2-0.1-0.7-0.2-1.4-0.4c-0.7-0.2-1.3-0.3-1.6-0.5
			c-0.4-0.2-0.7-0.5-0.9-0.8c-0.2-0.3-0.3-0.6-0.3-1s0.1-0.8,0.3-1.2c0.2-0.4,0.6-0.6,1-0.8s1-0.2,1.5-0.2c0.6,0,1.1,0.1,1.6,0.3
			c0.5,0.2,0.8,0.5,1,0.9s0.4,0.8,0.4,1.3v0.1l-1.1,0.1v-0.1c-0.1-0.5-0.2-0.9-0.6-1.1c-0.3-0.2-0.8-0.4-1.4-0.4
			c-0.6,0-1.1,0.1-1.4,0.3c-0.3,0.2-0.4,0.5-0.4,0.8c0,0.2,0.1,0.5,0.3,0.6c0.2,0.2,0.7,0.4,1.6,0.6c0.9,0.2,1.4,0.4,1.8,0.5
			c0.5,0.2,0.8,0.5,1,0.9c0.2,0.3,0.3,0.7,0.3,1.2c0,0.4-0.2,0.9-0.4,1.3s-0.6,0.7-1.1,0.9C568.7,78.8,568.3,78.9,567.6,78.9
			L567.6,78.9z"/>
		<polygon class="st0" points="572.7,78.7 572.7,70.6 578.6,70.6 578.6,71.6 573.8,71.6 573.8,74 578.3,74 578.3,75.1 573.8,75.1 
			573.8,77.7 578.7,77.7 578.7,78.7 		"/>
		<path class="st0" d="M584.9,75.4l-0.8-2.2c-0.2-0.6-0.4-1-0.5-1.5c-0.1,0.5-0.2,0.9-0.4,1.4l-0.9,2.3H584.9L584.9,75.4z
			 M586.2,78.7l-1-2.5h-3.3l-0.9,2.5h-1.3l3.1-8.2h1.2l3.4,8.2H586.2L586.2,78.7z"/>
		<polygon class="st0" points="588.7,78.7 588.7,70.6 589.9,70.6 589.9,77.7 593.9,77.7 593.9,78.7 		"/>
		<polygon class="st0" points="595.8,78.7 595.8,70.6 597,70.6 597,78.7 		"/>
		<polygon class="st0" points="604.6,78.7 600.4,72.5 600.4,78.7 599.3,78.7 599.3,70.6 600.5,70.6 604.7,76.8 604.7,70.6 
			605.8,70.6 605.8,78.7 		"/>
		<path class="st0" d="M611.9,78.9c-0.8,0-1.5-0.2-2.2-0.5c-0.6-0.3-1.1-0.9-1.5-1.5c-0.3-0.6-0.5-1.4-0.5-2.2
			c0-0.8,0.2-1.5,0.5-2.2s0.8-1.2,1.4-1.5c0.6-0.3,1.4-0.5,2.2-0.5c0.6,0,1.1,0.1,1.6,0.3c0.5,0.2,0.9,0.5,1.1,0.8
			c0.2,0.3,0.5,0.8,0.6,1.4v0.1l-1,0.3v-0.1c-0.1-0.4-0.2-0.7-0.5-1c-0.2-0.2-0.4-0.4-0.7-0.6c-0.3-0.2-0.7-0.2-1.1-0.2
			c-0.5,0-0.9,0.1-1.3,0.2c-0.3,0.2-0.6,0.3-0.9,0.6s-0.4,0.5-0.5,0.8c-0.2,0.5-0.3,1-0.3,1.6c0,0.7,0.2,1.3,0.4,1.8s0.6,0.8,1,1
			c0.5,0.2,1,0.3,1.5,0.3c0.5,0,0.9-0.1,1.4-0.2c0.4-0.2,0.7-0.3,1-0.6v-1.4h-2.4v-1h3.5v3l0,0c-0.6,0.4-1,0.7-1.7,1
			C613.1,78.8,612.6,78.9,611.9,78.9L611.9,78.9z"/>
		<path class="st0" d="M549.1,91.8c-0.7,0-1.4-0.1-1.8-0.3c-0.5-0.2-0.9-0.6-1.2-1c-0.3-0.4-0.4-1-0.5-1.5v-0.1l1.1-0.1v0.1
			c0.1,0.4,0.2,0.7,0.3,1c0.2,0.2,0.4,0.5,0.8,0.6c0.3,0.2,0.8,0.2,1.2,0.2c0.4,0,0.7-0.1,1-0.2c0.3-0.1,0.6-0.2,0.6-0.5
			c0.2-0.2,0.2-0.4,0.2-0.6c0-0.2-0.1-0.5-0.2-0.6c-0.2-0.2-0.4-0.3-0.7-0.5c-0.2-0.1-0.7-0.2-1.4-0.4c-0.7-0.2-1.3-0.3-1.6-0.5
			c-0.4-0.2-0.7-0.5-0.9-0.8c-0.2-0.3-0.3-0.6-0.3-1s0.1-0.8,0.3-1.2c0.2-0.4,0.6-0.6,1-0.8c0.5-0.2,1-0.2,1.5-0.2
			c0.6,0,1.1,0.1,1.6,0.3c0.5,0.2,0.8,0.5,1,0.9c0.2,0.4,0.4,0.8,0.4,1.3v0.1l-1.1,0.1v-0.1c-0.1-0.5-0.2-0.9-0.6-1.1
			c-0.3-0.2-0.8-0.4-1.4-0.4c-0.6,0-1.1,0.1-1.4,0.3c-0.3,0.2-0.4,0.5-0.4,0.8c0,0.2,0.1,0.5,0.3,0.6c0.2,0.2,0.7,0.4,1.6,0.6
			s1.4,0.4,1.8,0.5c0.5,0.2,0.8,0.5,1,0.9c0.2,0.3,0.3,0.7,0.3,1.2c0,0.4-0.2,0.9-0.4,1.3s-0.6,0.7-1.1,0.9
			C550.2,91.7,549.6,91.8,549.1,91.8L549.1,91.8z"/>
		<path class="st0" d="M557.8,84.3c-0.7,0-1.4,0.2-1.9,0.8c-0.6,0.5-0.8,1.4-0.8,2.6c0,1,0.2,1.7,0.8,2.2c0.5,0.6,1.2,0.8,1.9,0.8
			c0.8,0,1.4-0.3,1.9-0.8c0.5-0.6,0.8-1.4,0.8-2.4c0-0.6-0.1-1.2-0.3-1.7c-0.2-0.5-0.6-0.9-1-1.1C558.7,84.5,558.3,84.3,557.8,84.3
			L557.8,84.3z M557.8,91.8c-0.8,0-1.4-0.2-2.1-0.6c-0.6-0.4-1-0.9-1.4-1.5c-0.3-0.6-0.5-1.4-0.5-2.1c0-1.4,0.4-2.4,1.1-3.2
			c0.7-0.8,1.7-1.1,2.8-1.1c0.7,0,1.4,0.2,2.1,0.6c0.6,0.4,1,0.9,1.4,1.5c0.3,0.6,0.5,1.4,0.5,2.2c0,0.8-0.2,1.6-0.5,2.2
			s-0.8,1.1-1.4,1.5C559.1,91.6,558.4,91.8,557.8,91.8L557.8,91.8z"/>
		<polygon class="st0" points="563.6,91.6 563.6,83.5 564.7,83.5 564.7,90.6 568.7,90.6 568.7,91.6 		"/>
		<path class="st0" d="M573.9,91.8c-0.8,0-1.4-0.2-1.9-0.4c-0.5-0.2-0.9-0.6-1-1.1c-0.2-0.5-0.3-1.2-0.3-2.1v-4.7h1.2v4.7
			c0,0.7,0.1,1.2,0.2,1.5c0.2,0.3,0.3,0.6,0.6,0.7c0.3,0.2,0.7,0.2,1.1,0.2c0.8,0,1.4-0.2,1.7-0.5c0.3-0.3,0.5-1,0.5-2v-4.7h1.2v4.7
			c0,0.8-0.1,1.4-0.2,1.9s-0.6,0.9-1,1.2S574.7,91.8,573.9,91.8L573.9,91.8z"/>
		<polygon class="st0" points="581.5,91.6 581.5,84.5 578.9,84.5 578.9,83.5 585.4,83.5 585.4,84.5 582.7,84.5 582.7,91.6 		"/>
		<polygon class="st0" points="587.3,91.6 587.3,83.5 588.4,83.5 588.4,91.6 		"/>
		<path class="st0" d="M594.6,84.3c-0.7,0-1.4,0.2-1.9,0.8c-0.6,0.5-0.8,1.4-0.8,2.6c0,1,0.2,1.7,0.8,2.2c0.5,0.6,1.2,0.8,1.9,0.8
			c0.8,0,1.4-0.3,1.9-0.8c0.5-0.6,0.8-1.4,0.8-2.4c0-0.6-0.1-1.2-0.3-1.7c-0.2-0.5-0.6-0.9-1-1.1C595.5,84.5,595.1,84.3,594.6,84.3
			L594.6,84.3z M594.6,91.8c-0.8,0-1.4-0.2-2.1-0.6c-0.6-0.4-1-0.9-1.4-1.5c-0.3-0.6-0.5-1.4-0.5-2.1c0-1.4,0.4-2.4,1.1-3.2
			c0.7-0.8,1.7-1.1,2.8-1.1c0.7,0,1.4,0.2,2.1,0.6c0.6,0.4,1,0.9,1.4,1.5c0.3,0.6,0.5,1.4,0.5,2.2c0,0.8-0.2,1.6-0.5,2.2
			s-0.8,1.1-1.4,1.5C595.9,91.6,595.2,91.8,594.6,91.8L594.6,91.8z"/>
		<polygon class="st0" points="605.7,91.6 601.5,85.4 601.5,91.6 600.4,91.6 600.4,83.5 601.6,83.5 605.8,89.7 605.8,83.5 
			606.9,83.5 606.9,91.6 		"/>
		<path class="st0" d="M612.4,91.8c-0.7,0-1.4-0.1-1.8-0.3c-0.5-0.2-0.9-0.6-1.2-1s-0.4-1-0.5-1.5v-0.1l1.1-0.1v0.1
			c0.1,0.4,0.2,0.7,0.3,1c0.2,0.2,0.4,0.5,0.8,0.6c0.3,0.2,0.8,0.2,1.2,0.2c0.4,0,0.7-0.1,1-0.2c0.3-0.1,0.6-0.2,0.6-0.5
			c0.2-0.2,0.2-0.4,0.2-0.6c0-0.2-0.1-0.5-0.2-0.6c-0.2-0.2-0.4-0.3-0.7-0.5c-0.2-0.1-0.7-0.2-1.4-0.4c-0.7-0.2-1.3-0.3-1.6-0.5
			c-0.4-0.2-0.7-0.5-0.9-0.8c-0.2-0.3-0.3-0.6-0.3-1s0.1-0.8,0.3-1.2c0.2-0.4,0.6-0.6,1-0.8s1-0.2,1.5-0.2c0.6,0,1.1,0.1,1.6,0.3
			c0.5,0.2,0.8,0.5,1,0.9c0.2,0.4,0.4,0.8,0.4,1.3v0.1l-1.1,0.1v-0.1c-0.1-0.5-0.2-0.9-0.6-1.1c-0.3-0.2-0.8-0.4-1.4-0.4
			c-0.6,0-1.1,0.1-1.4,0.3c-0.3,0.2-0.4,0.5-0.4,0.8c0,0.2,0.1,0.5,0.3,0.6c0.2,0.2,0.7,0.4,1.6,0.6c0.9,0.2,1.4,0.4,1.8,0.5
			c0.5,0.2,0.8,0.5,1,0.9c0.2,0.3,0.3,0.7,0.3,1.2c0,0.4-0.2,0.9-0.4,1.3s-0.6,0.7-1.1,0.9C613.5,91.7,613,91.8,612.4,91.8
			L612.4,91.8z"/>
		<path class="st0" d="M535.9,76.4c-1.2-1.5-3.7-4.2-3.9-5.3c-0.4-1.5-0.3-2.9-0.3-3.6l0,0l0.1,0.1c0.1,0.1,0.2,0.2,0.3,0.3l0,0
			c0.2,0.1,0.2,0.2,0.4,0.2h0.1c0.2,0.1,0.3,0.1,0.4,0.1h2c1.4,0,2.4-1.8,2.4-3.9s-1.1-3.9-2.4-3.9h-2h-0.1c-0.1,0-0.2,0-0.3,0.1
			c0,0,0,0-0.1,0h-0.1c-0.1,0-0.1,0-0.2,0.1c-0.1,0-0.1,0.1-0.2,0.1s-0.1,0.1-0.2,0.1c0,0-0.1,0-0.1,0.1c-0.1,0-0.1,0.1-0.2,0.2
			c-0.1,0.1-0.2,0.2-0.2,0.2c-0.1-0.7-0.1-2.1,0.3-3.6c0.2-1,2.7-3.8,3.9-5.3c1.2-1.5,2.5-3,2.7-3.4c0.2-0.3,0.3-1,0.1-1.4
			c-0.2-0.4-1-1.9-1.4-2.2c-0.3-0.3-0.8-0.7-1.5-0.3c-0.7,0.5-4.8,4.6-5.7,5.1s-2.7,0.8-4.2-0.6l-0.1-0.1c-1.4-1.5-1.2-3.4-0.6-4.2
			c0.6-1,4.6-5,5.1-5.7c0.5-0.7,0-1.2-0.3-1.5s-1.8-1.1-2.2-1.4c-0.4-0.2-1-0.2-1.4,0.1c-0.3,0.2-1.8,1.4-3.4,2.7
			c-1.5,1.2-4.2,3.6-5.3,3.9c-1.4,0.5-2.7,0.4-3.5,0.3c-0.2,0-0.3-0.1-0.6-0.1c-0.1,0-0.1,0-0.1,0l0,0c-0.9-0.1-1.8-0.2-2.6-0.2
			s-1.8,0.1-2.6,0.2l0,0c0,0-1.9,0.4-4.2-0.2c-1-0.2-3.8-2.7-5.3-3.9c-1.5-1.2-3-2.5-3.4-2.7c-0.3-0.2-1-0.3-1.4-0.1
			c-0.4,0.2-1.9,1-2.2,1.4c-0.3,0.3-0.7,0.8-0.3,1.5c0.5,0.7,4.6,4.8,5.1,5.7s0.8,2.7-0.6,4.2l-0.1,0.1c-1.5,1.4-3.4,1.2-4.2,0.6
			c-1-0.6-5-4.6-5.7-5.1c-0.7-0.5-1.2,0-1.5,0.3c-0.3,0.3-1.1,1.8-1.4,2.2c-0.2,0.4-0.2,1,0.1,1.4c0.2,0.3,1.4,1.8,2.7,3.4
			c1.2,1.5,3.6,4.2,3.9,5.3c0.5,1.3,0.4,2.7,0.3,3.5v0.1l0,0l0,0l0,0c0,0,0,0-0.1-0.1l-0.1-0.1l-0.1-0.1l-0.1-0.1l-0.1-0.1l0,0l0,0
			l-0.1-0.1c0,0-0.1,0-0.1-0.1c0,0-0.1,0-0.1-0.1c0,0-0.1,0-0.1-0.1c0,0,0,0-0.1,0l0,0c0,0,0,0-0.1,0h-0.1c-0.1,0-0.1,0-0.2,0
			c-0.1,0-0.1,0-0.2,0l0,0h-2c-1.4,0-2.4,1.8-2.4,3.9c0,2.2,1.1,3.9,2.4,3.9h2c0.2,0,0.3,0,0.4-0.1h0.1c0.1-0.1,0.2-0.1,0.3-0.2h0.1
			c0.1-0.1,0.2-0.2,0.3-0.2l0.1-0.1c0,0,0,0,0-0.1c0,0,0,0,0.1-0.1v0.1c0.1,0.8,0.2,2.2-0.3,3.5c-0.3,1-2.7,3.8-3.9,5.3
			c-1.2,1.5-2.5,3-2.7,3.4c-0.2,0.3-0.3,1-0.1,1.4c0.2,0.4,1,1.9,1.4,2.2c0.3,0.3,0.8,0.7,1.5,0.3c0.7-0.5,4.8-4.6,5.7-5.1
			c0.9-0.6,2.7-0.8,4.2,0.6l0.1,0.1c1.4,1.5,1.1,3.4,0.6,4.2c-0.6,1-4.6,5-5.1,5.7c-0.5,0.7,0,1.2,0.3,1.5c0.3,0.3,1.8,1.1,2.2,1.4
			c0.4,0.2,1,0.2,1.4-0.1s1.8-1.4,3.4-2.7c1.5-1.2,4.2-3.7,5.3-3.9c1.6-0.4,3-0.3,3.7-0.3c0,0-0.1,0-0.1,0.1c0,0,0,0-0.1,0.1
			c-0.1,0-0.1,0.1-0.1,0.1c-0.1,0.1-0.2,0.2-0.2,0.2c0,0.1-0.1,0.1-0.1,0.2c-0.1,0.1-0.1,0.2-0.2,0.3c0,0.1,0,0.1-0.1,0.2
			c-0.1,0.2-0.1,0.3-0.1,0.5v2c0,1.4,1.8,2.5,3.9,2.5c2.2,0,3.9-1.1,3.9-2.5l0,0v-2l0,0c0-0.1,0-0.1,0-0.2s0-0.1,0-0.2
			c0-0.1,0-0.1,0-0.1v-0.1l0,0l0,0c0,0,0-0.1-0.1-0.1c0,0,0-0.1-0.1-0.1c0,0,0-0.1-0.1-0.1c0,0,0-0.1-0.1-0.1l0,0l0,0
			c0,0,0,0-0.1-0.1l-0.1-0.1l-0.1-0.1l-0.1-0.1c0,0-0.1,0-0.1-0.1l0,0l0,0l-0.1-0.1c0.1,0,0.1,0,0.2,0c0.8-0.1,2.2-0.2,3.5,0.3
			c1,0.3,3.8,2.7,5.3,3.9c1.5,1.2,3,2.5,3.4,2.7c0.3,0.2,1,0.3,1.4,0.1c0.4-0.2,1.9-1,2.2-1.4s0.7-0.8,0.3-1.5
			c-0.5-0.7-4.6-4.8-5.1-5.7c-0.6-0.9-0.8-2.7,0.6-4.2l0.1-0.1c1.5-1.4,3.4-1.2,4.2-0.6c1,0.6,5,4.6,5.7,5.1c0.7,0.5,1.2,0,1.5-0.3
			c0.3-0.3,1.1-1.8,1.4-2.2c0.2-0.4,0.2-1-0.1-1.4C538.4,79.5,537.2,77.9,535.9,76.4z M511.1,77.4c-7.2,0-13-5.8-13-13
			c0-1.4,0.2-2.6,0.6-3.8v-0.1c0.2-0.8,0.6-1.5,1-2.2c0,0,0,0,0-0.1c0.4-0.7,0.9-1.4,1.4-2l0,0c0.8-1,1.7-1.8,2.7-2.5
			c0.1,0,0.1-0.1,0.2-0.1c0.3-0.2,0.6-0.4,0.9-0.6c0.1-0.1,0.2-0.1,0.3-0.2c0.3-0.2,0.6-0.3,0.9-0.4c0.2-0.1,0.2-0.1,0.4-0.2
			c0.6-0.2,1.4-0.5,2.1-0.6c0.1,0,0.2,0,0.2,0c0.8-0.2,1.6-0.2,2.4-0.2c0.9,0,1.8,0.1,2.6,0.2c0.8,0.2,1.6,0.4,2.3,0.7h0.1
			c1.1,0.5,2.1,1,3,1.8c0.1,0.1,0.2,0.1,0.2,0.2c2.9,2.4,4.7,6,4.7,10.1C524.1,71.5,518.3,77.4,511.1,77.4z"/>
		<polygon class="st0" points="558.4,78.6 556.6,78.6 556.6,70.6 558.4,70.6 		"/>
		<polygon class="st0" points="562.3,78.6 561.1,78.6 561.1,70.6 562.3,70.6 		"/>
		<polygon class="st0" points="545.4,70.7 545.4,78.6 554.3,78.6 554.3,70.7 		"/>
	</g>
	<g>
		<path class="st0" d="M508.3,42.7h2.1h0.1l0,0l0.2,0.5c0,0,0,0,0.1,0.1h0.1h3.2c0,0,0.2,0,0.2,0.1c0.1,0,0.2,0.2,0.2,0.2l0.2,0.3
			c0,0,0,0.1,0,0.2c-0.1,0.1-0.1,0.1-0.1,0.1h-3.4h-0.1l-0.1-0.1l-0.4-0.6c0,0,0,0-0.1-0.1h-0.1H508h-0.1v-0.1l0.2-0.4
			C508.3,42.7,508.3,42.7,508.3,42.7L508.3,42.7"/>
		<path class="st0" d="M509.7,40.6h0.7h0.1l0,0l0.2,0.5c0,0,0,0,0.1,0.1h0.1h1.8c0,0,0.2,0,0.2,0.1c0.1,0,0.2,0.2,0.2,0.2l0.2,0.2
			c0,0,0.1,0.1,0,0.2c-0.1,0.1-0.2,0.1-0.2,0.1h-2h-0.1l-0.1-0.1l-0.3-0.6c0,0,0,0-0.1-0.1h-0.1h-1.1h-0.1v-0.1l0.2-0.4
			C509.5,40.6,509.6,40.6,509.7,40.6C509.6,40.6,509.7,40.6,509.7,40.6"/>
		<path class="st0" d="M511.1,38.3c0.2,0,0.2,0.2,0.2,0.2l1.2,1.9c0,0,0.1,0.1,0,0.2c-0.1,0.1-0.2,0.1-0.2,0.1h-1.4H511l-0.1-0.1
			l-0.2-0.5c0,0,0,0-0.1-0.1h-0.1h-0.4c0,0-0.1,0-0.1-0.1s0-0.2,0-0.2l0.8-1.3C510.8,38.6,510.9,38.3,511.1,38.3"/>
		<path class="st0" d="M509,41.6h1.4h0.1l0,0l0.2,0.5c0,0,0,0,0.1,0.1h0.1h2.6c0,0,0.2,0,0.2,0.1c0.1,0,0.2,0.2,0.2,0.2l0.2,0.2
			c0,0,0.1,0.1,0,0.2c-0.1,0.1-0.2,0.1-0.2,0.1h-2.6h-0.1l-0.1-0.1l-0.3-0.6c0,0,0,0-0.1-0.1h-0.1h-1.8h-0.1v-0.1L509,41.6
			C508.9,41.7,508.9,41.6,509,41.6L509,41.6"/>
	</g>
</g>
<g id="Layer_2">
</g>
</svg>
